<?xml version="1.0" encoding="UTF-8"?>
<svg xmlns="http://www.w3.org/2000/svg" width="200" height="200" viewBox="0 0 200 200">
  <defs>
    <linearGradient id="grad" x1="0%" y1="0%" x2="100%" y2="100%">
      <stop offset="0%" style="stop-color:#f59e0b;stop-opacity:1" />
      <stop offset="100%" style="stop-color:#ea580c;stop-opacity:1" />
    </linearGradient>
  </defs>
  <rect width="100%" height="100%" fill="#0a0a0f"/>
  <path d="M 116.25 136.10 L 116.25 136.10 L 116.25 136.10 L 116.25 136.10 L 116.25 136.10 L 116.25 136.10 L 116.25 136.10 L 116.25 136.10 L 116.25 136.10 L 116.25 136.10 L 116.25 136.10 L 116.25 136.10 L 116.25 136.10 L 116.25 136.10 L 116.25 136.10 L 116.25 136.10 L 116.25 136.10 L 116.25 136.10 L 116.25 136.10 L 116.25 136.10 L 116.25 136.10 L 116.25 136.10 L 116.25 136.10 L 116.25 136.10 L 116.25 136.10 L 116.25 136.10 L 116.25 136.10 L 116.25 136.10 L 116.25 136.10 L 116.25 136.10 L 116.25 136.10 L 116.25 136.10 L 116.25 136.10 L 116.25 136.10 L 116.25 136.10 L 116.25 136.10 L 116.25 136.10 L 116.25 136.10 L 116.25 136.10 L 116.25 136.10 L 116.25 136.10 L 116.25 136.10 L 116.25 136.10 L 116.25 136.10 L 116.25 136.10 L 116.25 136.10 L 116.25 136.10 L 116.25 136.10 L 116.25 136.10 L 116.25 136.10 L 116.25 136.10 L 116.25 136.10 L 116.25 136.10 L 116.25 136.10 L 116.25 136.10 L 116.25 136.10 L 116.25 136.10 L 116.25 136.10 L 116.25 136.10 L 116.25 136.10 L 116.25 136.10 L 116.25 136.10 L 116.25 136.10 L 116.25 136.10 L 116.25 136.10 L 116.25 136.10 L 116.25 136.10 L 116.25 136.10 L 116.25 136.10 L 116.25 136.10 L 116.25 136.10 L 116.25 136.10 L 116.25 136.10 L 116.25 136.10 L 116.25 136.10 L 116.25 136.10 L 116.25 136.10 L 116.25 136.10 L 116.25 136.10 L 116.25 136.10 L 116.25 136.10 L 116.25 136.10 L 116.25 136.10 L 116.25 136.10 L 116.25 136.10 L 116.25 136.10 L 116.25 136.10 L 116.25 136.10 L 116.25 136.10 L 116.25 136.10 L 116.25 136.10 L 116.25 136.10 L 116.25 136.10 L 116.25 136.10 L 116.25 136.10 L 116.25 136.10 L 116.25 136.10 L 116.25 136.10 L 116.25 136.10 L 116.25 136.10 L 116.25 136.10 L 116.25 136.10 L 116.25 136.10 L 116.25 136.10 L 116.25 136.10 L 116.25 136.10 L 116.25 136.10 L 116.25 136.10 L 116.25 136.10 L 116.25 136.10 L 116.25 136.10 L 116.25 136.10 L 116.25 136.10 L 116.25 136.10 L 116.25 136.10 L 116.25 136.10 L 116.25 136.10 L 116.25 136.10 L 116.25 136.10 L 116.25 136.10 L 116.25 136.10 L 116.25 136.10 L 116.25 136.10 L 116.25 136.10 L 116.25 136.10 L 116.25 136.10 L 116.25 136.10 L 116.25 136.10 L 116.25 136.10 L 116.25 136.10 L 116.25 136.10 L 116.25 136.10 L 116.25 136.10 L 116.25 136.10 L 116.25 136.10 L 116.25 136.10 L 116.25 136.10 L 116.25 136.10 L 116.25 136.10 L 116.25 136.10 L 116.25 136.10 L 116.25 136.10 L 116.25 136.10 L 116.25 136.10 L 116.25 136.10 L 116.25 136.10 L 116.25 136.10 L 116.25 136.10 L 116.25 136.10 L 116.25 136.10 L 116.25 136.10 L 116.25 136.10 L 116.25 136.10 L 116.25 136.10 L 116.25 136.10 L 116.25 136.10 L 116.25 136.10 L 116.25 136.10 L 116.25 136.10 L 116.25 136.10 L 116.25 136.10 L 116.25 136.10 L 116.25 136.10 L 116.25 136.10 L 116.25 136.10 L 116.25 136.10 L 116.25 136.10 L 116.25 136.10 L 116.25 136.10 L 116.25 136.10 L 116.25 136.10 L 116.25 136.10 L 116.25 136.10 L 116.25 136.10 L 116.25 136.10 L 116.25 136.10 L 116.25 136.10 L 116.25 136.10 L 116.25 136.10 L 116.25 136.10 L 116.25 136.10 L 116.25 136.10 L 116.25 136.10 L 116.25 136.10 L 116.25 136.10 L 116.25 136.10 L 116.25 136.10 L 116.25 136.10 L 116.25 136.10 L 116.25 136.10 L 116.25 136.10 L 116.25 136.10 L 116.25 136.10 L 116.25 136.10 L 116.25 136.10 L 116.25 136.10 L 116.25 136.10 L 116.25 136.10 L 116.25 136.10 L 116.25 136.10 L 116.25 136.10 L 116.25 136.10 L 116.25 136.10 L 116.25 136.10 L 116.25 136.10 L 116.25 136.10 L 116.25 136.10 L 116.25 136.10 L 116.25 136.10 L 116.25 136.10 L 116.25 136.10 L 116.25 136.10 L 116.25 136.10 L 116.25 136.10 L 116.25 136.10 L 116.25 136.10 L 116.25 136.10 L 116.25 136.10 L 116.25 136.10 L 116.25 136.10 L 116.25 136.10 L 116.25 136.10 L 116.25 136.10 L 116.25 136.10 L 116.25 136.10 L 116.25 136.10 L 116.25 136.10 L 116.25 136.10 L 116.25 136.10 L 116.25 136.10 L 116.25 136.10 L 116.25 136.10 L 116.25 136.10 L 116.25 136.10 L 116.25 136.10 L 116.25 136.10 L 116.25 136.10 L 116.25 136.10 L 116.25 136.10 L 116.25 136.10 L 116.25 136.10 L 116.25 136.10 L 116.25 136.10 L 116.25 136.10 L 116.25 136.10 L 116.25 136.10 L 116.25 136.10 L 116.25 136.10 L 116.25 136.10 L 116.25 136.10 L 116.25 136.10 L 116.25 136.10 L 116.25 136.10 L 116.25 136.10 L 116.25 136.10 L 116.25 136.10 L 116.25 136.10 L 116.25 136.10 L 116.25 136.10 L 116.25 136.10 L 116.25 136.10 L 116.25 136.10 L 116.25 136.10 L 116.25 136.10 L 116.25 136.10 L 116.25 136.10 L 116.25 136.10 L 116.25 136.10 L 116.25 136.10 L 116.25 136.10 L 116.25 136.10 L 116.25 136.10 L 116.25 136.10 L 116.25 136.10 L 116.25 136.10 L 116.25 136.10 L 116.25 136.10 L 116.25 136.10 L 116.25 136.10 L 116.25 136.10 L 116.25 136.10 L 116.25 136.10 L 116.25 136.10 L 116.25 136.10 L 116.25 136.10 L 116.25 136.10 L 116.25 136.10 L 116.25 136.10 L 116.25 136.10 L 116.25 136.10 L 116.25 136.10 L 116.25 136.10 L 116.25 136.10 L 116.25 136.10 L 116.25 136.10 L 116.25 136.10 L 116.25 136.10 L 116.25 136.10 L 116.25 136.10 L 116.25 136.10 L 116.25 136.10 L 116.25 136.10 L 116.25 136.10 L 116.25 136.10 L 116.25 136.10 L 116.25 136.10 L 116.25 136.10 L 116.25 136.10 L 116.25 136.10 L 116.25 136.10 L 116.25 136.10 L 116.25 136.10 L 116.25 136.10 L 116.25 136.10 L 116.25 136.10 L 116.25 136.10 L 116.25 136.10 L 116.25 136.10 L 116.25 136.10 L 116.25 136.10 L 116.25 136.10 L 116.25 136.10 L 116.25 136.10 L 116.25 136.10 L 116.25 136.10 L 116.25 136.10 L 116.25 136.10 L 116.25 136.10 L 116.25 136.10 L 116.25 136.10 L 116.25 136.10 L 116.25 136.10 L 116.25 136.10 L 116.25 136.10 L 116.25 136.10 L 116.25 136.10 L 116.25 136.10 L 116.25 136.10 L 116.25 136.10 L 116.25 136.10 L 116.25 136.10 L 116.25 136.10 L 116.25 136.10 L 116.25 136.10 L 116.25 136.10 L 116.25 136.10 L 116.25 136.10 L 116.25 136.10 L 116.25 136.10 L 116.25 136.10 L 116.25 136.10 L 116.25 136.10 L 116.25 136.10 L 116.25 136.10 L 116.25 136.10 L 116.25 136.10 L 116.25 136.10 L 116.25 136.10 L 116.25 136.10 L 116.25 136.10 L 116.25 136.10 L 116.25 136.10 L 116.25 136.10 L 116.25 136.10 L 116.25 136.10 L 116.25 136.10 L 116.25 136.10 L 116.25 136.10 L 116.25 136.10 L 116.25 136.10 L 116.25 136.10 L 116.25 136.10 L 116.25 136.10 L 116.25 136.10 L 116.25 136.10 L 116.25 136.10 L 116.25 136.10 L 116.25 136.10 L 116.25 136.10 L 116.25 136.10 L 116.25 136.10 L 116.25 136.10 L 116.25 136.10 L 116.25 136.10 L 116.25 136.10 L 116.25 136.10 L 116.25 136.10 L 116.25 136.10 L 116.25 136.10 L 116.25 136.10 L 116.25 136.10 L 116.25 136.10 L 116.25 136.10 L 116.25 136.10 L 116.25 136.10 L 116.25 136.10 L 116.25 136.10 L 116.25 136.10 L 116.25 136.10 L 116.25 136.10 L 116.25 136.10 L 116.25 136.10 L 116.25 136.10 L 116.25 136.10 L 116.25 136.10 L 116.25 136.10 L 116.25 136.10 L 116.25 136.10 L 116.25 136.10 L 116.25 136.10 L 116.25 136.10 L 116.25 136.10 L 116.25 136.10 L 116.25 136.10 L 116.25 136.10 L 116.25 136.10 L 116.25 136.10 L 116.25 136.10 L 116.25 136.10 L 116.25 136.10 L 116.25 136.10 L 116.25 136.10 L 116.25 136.10 L 116.25 136.10 L 116.25 136.10 L 116.25 136.10 L 116.25 136.10 L 116.25 136.10 L 116.25 136.10 L 116.25 136.10 L 116.25 136.10 L 116.25 136.10 L 116.25 136.10 L 116.25 136.10 L 116.25 136.10 L 116.25 136.10 L 116.25 136.10 L 116.25 136.10 L 116.25 136.10 L 116.25 136.10 L 116.25 136.10 L 116.25 136.10 L 116.25 136.10 L 116.25 136.10 L 116.25 136.10 L 116.25 136.10 L 116.25 136.10 L 116.25 136.10 L 116.25 136.10 L 116.25 136.10 L 116.25 136.10 L 116.25 136.10 L 116.25 136.10 L 116.25 136.10 L 116.25 136.10 L 116.25 136.10 L 116.25 136.10 L 116.25 136.10 L 116.25 136.10 L 116.25 136.10 L 116.25 136.10 L 116.25 136.10 L 116.25 136.10 L 116.25 136.10 L 116.25 136.10 L 116.25 136.10 L 116.25 136.10 L 116.25 136.10 L 116.25 136.10 L 116.25 136.10 L 116.25 136.10 L 116.25 136.10 L 116.25 136.10 L 116.25 136.10 L 116.25 136.10 L 116.25 136.10 L 116.25 136.10 L 116.25 136.10 L 116.25 136.10 L 116.25 136.10 L 116.25 136.10 L 116.25 136.10 L 116.25 136.10 L 116.25 136.10 L 116.25 136.10 L 116.25 136.10 L 116.25 136.10 L 116.25 136.10 L 116.25 136.10 L 116.25 136.10 L 116.25 136.10 L 116.25 136.10 L 116.25 136.10 L 116.25 136.10 L 116.25 136.10 L 116.25 136.10 L 116.25 136.10 L 116.25 136.10 L 116.25 136.10 L 116.25 136.10 L 116.25 136.10 L 116.25 136.10 L 116.25 136.10 L 116.25 136.10 L 116.25 136.10 L 116.25 136.10 L 116.25 136.10 L 116.25 136.10 L 116.25 136.10 L 116.25 136.10 L 116.25 136.10 L 116.25 136.10 L 116.25 136.10 L 116.25 136.10 L 116.25 136.10 L 116.25 136.10 L 116.25 136.10 L 116.25 136.10 L 116.25 136.10 L 116.25 136.10 L 116.25 136.10 L 116.25 136.10 L 116.25 136.10 L 116.25 136.10 L 116.25 136.10 L 116.25 136.10 L 116.25 136.10 L 116.25 136.10 L 116.25 136.10 L 116.25 136.10 L 116.25 136.10 L 116.25 136.10 L 116.25 136.10 L 116.25 136.10 L 116.25 136.10 L 116.25 136.10 L 116.25 136.10 L 116.25 136.10 L 116.25 136.10 L 116.25 136.10 L 116.25 136.10 L 116.25 136.10 L 116.25 136.10 L 116.25 136.10 L 116.25 136.10 L 116.25 136.10 L 116.25 136.10 L 116.25 136.10 L 116.25 136.10 L 116.25 136.10 L 116.25 136.10 L 116.25 136.10 L 116.25 136.10 L 116.25 136.10 L 116.25 136.10 L 116.25 136.10 L 116.25 136.10 L 116.25 136.10 L 116.25 136.10 L 116.25 136.10 L 116.25 136.10 L 116.25 136.10 L 116.25 136.10 L 116.25 136.10 L 116.25 136.10 L 116.25 136.10 L 116.25 136.10 L 116.25 136.10 L 116.25 136.10 L 116.25 136.10 L 116.25 136.10 L 116.25 136.10 L 116.25 136.10 L 116.25 136.10 L 116.25 136.10 L 116.25 136.10 L 116.25 136.10 L 116.25 136.10 L 116.25 136.10 L 116.25 136.10 L 116.25 136.10 L 116.25 136.10 L 116.25 136.10 L 116.25 136.10 L 116.25 136.10 L 116.25 136.10 L 116.25 136.10 L 116.25 136.10 L 116.25 136.10 L 116.25 136.10 L 116.25 136.10 L 116.25 136.10 L 116.25 136.10 L 116.25 136.10 L 116.25 136.10 L 116.25 136.10 L 116.25 136.10 L 116.25 136.10 L 116.25 136.10 L 116.25 136.10 L 116.25 136.10 L 116.25 136.10 L 116.25 136.10 L 116.25 136.10 L 116.25 136.10 L 116.25 136.10 L 116.25 136.10 L 116.25 136.10 L 116.25 136.10 L 116.25 136.10 L 116.25 136.10 L 116.25 136.10 L 116.25 136.10 L 116.25 136.10 L 116.25 136.10 L 116.25 136.10 L 116.25 136.10 L 116.25 136.10 L 116.25 136.10 L 116.25 136.10 L 116.25 136.10 L 116.25 136.10 L 116.25 136.10 L 116.25 136.10 L 116.25 136.10 L 116.25 136.10 L 116.25 136.10 L 116.25 136.10 L 116.25 136.10 L 116.25 136.10 L 116.25 136.10 L 116.25 136.10 L 116.25 136.10 L 116.25 136.10 L 116.25 136.10 L 116.25 136.10 L 116.25 136.10 L 116.25 136.10 L 116.25 136.10 L 116.25 136.10 L 116.25 136.10 L 116.25 136.10 L 116.25 136.10 L 116.25 136.10 L 116.25 136.10 L 116.25 136.10 L 116.25 136.10 L 116.25 136.10 L 116.25 136.10 L 116.25 136.10 L 116.25 136.10 L 116.25 136.10 L 116.25 136.10 L 116.25 136.10 L 116.25 136.10 L 116.25 136.10 L 116.25 136.10 L 116.25 136.10 L 116.25 136.10 L 116.25 136.10 L 116.25 136.10 L 116.25 136.10 L 116.25 136.10 L 116.25 136.10 L 116.25 136.10 L 116.25 136.10 L 116.25 136.10 L 116.25 136.10 L 116.25 136.10 L 116.25 136.10 L 116.25 136.10 L 116.25 136.10 L 116.25 136.10 L 116.25 136.10 L 116.25 136.10 L 116.25 136.10 L 116.25 136.10 L 116.25 136.10 L 116.25 136.10 L 116.25 136.10 L 116.25 136.10 L 116.25 136.10 L 116.25 136.10 L 116.25 136.10 L 116.25 136.10 L 116.25 136.10 L 116.25 136.10 L 116.25 136.10 L 116.25 136.10 L 116.25 136.10 L 116.25 136.10 L 116.25 136.10 L 116.25 136.10 L 116.25 136.10 L 116.25 136.10 L 116.25 136.10 L 116.25 136.10 L 116.25 136.10 L 116.25 136.10 L 116.25 136.10 L 116.25 136.10 L 116.25 136.10 L 116.25 136.10 L 116.25 136.10 L 116.25 136.10 L 116.25 136.10 L 116.25 136.10 L 116.25 136.10 L 116.25 136.10 L 116.25 136.10 L 116.25 136.10 L 116.25 136.10 L 116.25 136.10 L 116.25 136.10 L 116.25 136.10 L 116.25 136.10 L 116.25 136.10 L 116.25 136.10 L 116.25 136.10 L 116.25 136.10 L 116.25 136.10 L 116.25 136.10 L 116.25 136.10 L 116.25 136.10 L 116.25 136.10 L 116.25 136.10 L 116.25 136.10 L 116.25 136.10 L 116.25 136.10 L 116.25 136.10 L 116.25 136.10 L 116.25 136.10 L 116.25 136.10 L 116.25 136.10 L 116.25 136.10 L 116.25 136.10 L 116.25 136.10 L 116.25 136.10 L 116.25 136.10 L 116.25 136.10 L 116.25 136.10 L 116.25 136.10 L 116.25 136.10 L 116.25 136.10 L 116.25 136.10 L 116.25 136.10 L 116.25 136.10 L 116.25 136.10 L 116.25 136.10 L 116.25 136.10 L 116.25 136.10 L 116.25 136.10 L 116.25 136.10 L 116.25 136.10 L 116.25 136.10 L 116.25 136.10 L 116.25 136.10 L 116.25 136.10 L 116.25 136.10 L 116.25 136.10 L 116.25 136.10 L 116.25 136.10 L 116.25 136.10 L 116.25 136.10 L 116.25 136.10 L 116.25 136.10 L 116.25 136.10 L 116.25 136.10 L 116.25 136.10 L 116.25 136.10 L 116.25 136.10 L 116.25 136.10 L 116.25 136.10 L 116.25 136.10 L 116.25 136.10 L 116.25 136.10 L 116.25 136.10 L 116.25 136.10 L 116.25 136.10 L 116.25 136.10 L 116.25 136.10 L 116.25 136.10 L 116.25 136.10 L 116.25 136.10 L 116.25 136.10 L 116.25 136.10 L 116.25 136.10 L 116.25 136.10 L 116.25 136.10 L 116.25 136.10 L 116.25 136.10 L 116.25 136.10 L 116.25 136.10 L 116.25 136.10 L 116.25 136.10 L 116.25 136.10 L 116.25 136.10 L 116.25 136.10 L 116.25 136.10 L 116.25 136.10 L 116.25 136.10 L 116.25 136.10 L 116.25 136.10 L 116.25 136.10 L 116.25 136.10 L 116.25 136.10 L 116.25 136.10 L 116.25 136.10 L 116.25 136.10 L 116.25 136.10 L 116.25 136.10 L 116.25 136.10 L 116.25 136.10 L 116.25 136.10 L 116.25 136.10 L 116.25 136.10 L 116.25 136.10 L 116.25 136.10 L 116.25 136.10 L 116.25 136.10 L 116.25 136.10 L 116.25 136.10 L 116.25 136.10 L 116.25 136.10 L 116.25 136.10 L 116.25 136.10 L 116.25 136.10 L 116.25 136.10 L 116.25 136.10 L 116.25 136.10 L 116.25 136.10 L 116.25 136.10 L 116.25 136.10 L 116.25 136.10 L 116.25 136.10 L 116.25 136.10 L 116.25 136.10 L 116.25 136.10 L 116.25 136.10 L 116.25 136.10 L 116.25 136.10 L 116.25 136.10 L 116.25 136.10 L 116.25 136.10 L 116.25 136.10 L 116.25 136.10 L 116.25 136.10 L 116.25 136.10 L 116.25 136.10 L 116.25 136.10 L 116.25 136.10 L 116.25 136.10 L 116.25 136.10 L 116.25 136.10 L 116.25 136.10 L 116.25 136.10 L 116.25 136.10 L 116.25 136.10 L 116.25 136.10 L 116.25 136.10 L 116.25 136.10 L 116.25 136.10 L 116.25 136.10 L 116.25 136.10 L 116.25 136.10 L 116.25 136.10 L 116.25 136.10 L 116.25 136.10 L 116.25 136.10 L 116.25 136.10 L 116.25 136.10 L 116.25 136.10 L 116.25 136.10 L 116.25 136.10 L 116.25 136.10 L 116.25 136.10 L 116.25 136.10 L 116.25 136.10 L 116.25 136.10 L 116.25 136.10 L 116.25 136.10 L 116.25 136.10 L 116.25 136.10 L 116.25 136.10 L 116.25 136.10 L 116.25 136.10 L 116.25 136.10 L 116.25 136.10 L 116.25 136.10 L 116.25 136.10 L 116.25 136.10 L 116.25 136.10 L 116.25 136.10 L 116.25 136.10 L 116.25 136.10 L 116.25 136.10 L 116.25 136.10 L 116.25 136.10 L 116.25 136.10 L 116.25 136.10 L 116.25 136.10 L 116.25 136.10 L 116.25 136.10 L 116.25 136.10 L 116.25 136.10 L 116.25 136.10 L 116.25 136.10 L 116.25 136.10 L 116.25 136.10 L 116.25 136.10 L 116.25 136.10 L 116.25 136.10 L 116.25 136.10 L 116.25 136.10 L 116.25 136.10 L 116.25 136.10 L 116.25 136.10 L 116.25 136.10 L 116.25 136.10 L 116.25 136.10 L 116.25 136.10 L 116.25 136.10 L 116.25 136.10 L 116.25 136.10 L 116.25 136.10 L 116.25 136.10 L 116.25 136.10 L 116.25 136.10 L 116.25 136.10 L 116.25 136.10 L 116.25 136.10 L 116.25 136.10 L 116.25 136.10 L 116.25 136.10 L 116.25 136.10 L 116.25 136.10 L 116.25 136.10 L 116.25 136.10 L 116.25 136.10 L 116.25 136.10 L 116.25 136.10 L 116.25 136.10 L 116.25 136.10 L 116.25 136.10 L 116.25 136.10 L 116.25 136.10 L 116.25 136.10 L 116.25 136.10 L 116.25 136.10 L 116.25 136.10 L 116.25 136.10 L 116.25 136.10 L 116.25 136.10 L 116.25 136.10 L 116.25 136.10 L 116.25 136.10 L 116.25 136.10 L 116.25 136.10 L 116.25 136.10 L 116.25 136.10 L 116.25 136.10 L 116.25 136.10 L 116.25 136.10 L 116.25 136.10 L 116.25 136.10 L 116.25 136.10 L 116.25 136.10 L 116.25 136.10 L 116.25 136.10 L 116.25 136.10 L 116.25 136.10 L 116.25 136.10 L 116.25 136.10 L 116.25 136.10 L 116.25 136.10 L 116.25 136.10 L 116.25 136.10 L 116.25 136.10 L 116.25 136.10 L 116.25 136.10 L 116.25 136.10 L 116.25 136.10 L 116.25 136.10 L 116.25 136.10 L 116.25 136.10 L 116.25 136.10 L 116.25 136.10 L 116.25 136.10 L 116.25 136.10 L 116.25 136.10 L 116.25 136.10 L 116.25 136.10 L 116.25 136.10 L 116.25 136.10 L 116.25 136.10 L 116.25 136.10 L 116.25 136.10 L 116.25 136.10 L 116.25 136.10 L 116.25 136.10 L 116.25 136.10 L 116.25 136.10 L 116.25 136.10 L 116.25 136.10 L 116.25 136.10 L 116.25 136.10 L 116.25 136.10 L 116.25 136.10 L 116.25 136.10 L 116.25 136.10 L 116.25 136.10 L 116.25 136.10 L 116.25 136.10 L 116.25 136.10 L 116.25 136.10 L 116.25 136.10 L 116.25 136.10 L 116.25 136.10 L 116.25 136.10 L 116.25 136.10 L 116.25 136.10 L 116.25 136.10 L 116.25 136.10 L 116.25 136.10 L 116.25 136.10 L 116.25 136.10 L 116.25 136.10 L 116.25 136.10 L 116.25 136.10 L 116.25 136.10 L 116.25 136.10 L 116.25 136.10 L 116.25 136.10 L 116.25 136.10 L 116.25 136.10 L 116.25 136.10 L 116.25 136.10 L 116.25 136.10 L 116.25 136.10 L 116.25 136.10 L 116.25 136.10 L 116.25 136.10 L 116.25 136.10 L 116.25 136.10 L 116.25 136.10 L 116.25 136.10 L 116.25 136.10 L 116.25 136.10 L 116.25 136.10 L 116.25 136.10 L 116.25 136.10 L 116.25 136.10 L 116.25 136.10 L 116.25 136.10 L 116.25 136.10 L 116.25 136.10 L 116.25 136.10 L 116.25 136.10 L 116.25 136.10 L 116.25 136.10 L 116.25 136.10 L 116.25 136.10 L 116.25 136.10 L 116.25 136.10 L 116.25 136.10 L 116.25 136.10 L 116.25 136.10 L 116.25 136.10 L 116.25 136.10 L 116.25 136.10 L 116.25 136.10 L 116.25 136.10 L 116.25 136.10 L 116.25 136.10 L 116.25 136.10 L 116.25 136.10 L 116.25 136.10 L 116.25 136.10 L 116.25 136.10 L 116.25 136.10 L 116.25 136.10 L 116.25 136.10 L 116.25 136.10 L 116.25 136.10 L 116.25 136.10 L 116.25 136.10 L 116.25 136.10 L 116.25 136.10 L 116.25 136.10 L 116.25 136.10 L 116.25 136.10 L 116.25 136.10 L 116.25 136.10 L 116.25 136.10 L 116.25 136.10 L 116.25 136.10 L 116.25 136.10 L 116.25 136.10 L 116.25 136.10 L 116.25 136.10 L 116.25 136.10 L 116.25 136.10 L 116.25 136.10 L 116.25 136.10 L 116.25 136.10 L 116.25 136.10 L 116.25 136.10 L 116.25 136.10 L 116.25 136.10 L 116.25 136.10 L 116.25 136.10 L 116.25 136.10 L 116.25 136.10 L 116.25 136.10 L 116.25 136.10 L 116.25 136.10 L 116.25 136.10 L 116.25 136.10 L 116.25 136.10 L 116.25 136.10 L 116.25 136.10 L 116.25 136.10 L 116.25 136.10 L 116.25 136.10 L 116.25 136.10 L 116.25 136.10 L 116.25 136.10 L 116.25 136.10 L 116.25 136.10 L 116.25 136.10 L 116.25 136.10 L 116.25 136.10 L 116.25 136.10 L 116.25 136.10 L 116.25 136.10 L 116.25 136.10 L 116.25 136.10 L 116.25 136.10 L 116.25 136.10 L 116.25 136.10 L 116.25 136.10 L 116.25 136.10 L 116.25 136.10 L 116.25 136.10 L 116.25 136.10 L 116.25 136.10 L 116.25 136.10 L 116.25 136.10 L 116.25 136.10 L 116.25 136.10 L 116.25 136.10 L 116.25 136.10 L 116.25 136.10 L 116.25 136.10 L 116.25 136.10 L 116.25 136.10 L 116.25 136.10 L 116.25 136.10 L 116.25 136.10 L 116.25 136.10 L 116.25 136.10 L 116.25 136.10 L 116.25 136.10 L 116.25 136.10 L 116.25 136.10 L 116.25 136.10 L 116.25 136.10 L 116.25 136.10 L 116.25 136.10 L 116.25 136.10 L 116.25 136.10 L 116.25 136.10 L 116.25 136.10 L 116.25 136.10 L 116.25 136.10 L 116.25 136.10 L 116.25 136.10 L 116.25 136.10 L 116.25 136.10 L 116.25 136.10 L 116.25 136.10 L 116.25 136.10 L 116.25 136.10 L 116.25 136.10 L 116.25 136.10 L 116.25 136.10 L 116.25 136.10 L 116.25 136.10 L 116.25 136.10 L 116.25 136.10 L 116.25 136.10 L 116.25 136.10 L 116.25 136.10 L 116.25 136.10 L 116.25 136.10 L 116.25 136.10 L 116.25 136.10 L 116.25 136.10 L 116.25 136.10 L 116.25 136.10 L 116.25 136.10 L 116.25 136.10 L 116.25 136.10 L 116.25 136.10 L 116.25 136.10 L 116.25 136.10 L 116.25 136.10 L 116.25 136.10 L 116.25 136.10 L 116.25 136.10 L 116.25 136.10 L 116.25 136.10 L 116.25 136.10 L 116.25 136.10 L 116.25 136.10 L 116.25 136.10 L 116.25 136.10 L 116.25 136.10 L 116.25 136.10 L 116.25 136.10 L 116.25 136.10 L 116.25 136.10 L 116.25 136.10 L 116.25 136.10 L 116.25 136.10 L 116.25 136.10 L 116.25 136.10 L 116.25 136.10 L 116.25 136.10 L 116.25 136.10 L 116.25 136.10 L 116.25 136.10 L 116.25 136.10 L 116.25 136.10 L 116.25 136.10 L 116.25 136.10 L 116.25 136.10 L 116.25 136.10 L 116.25 136.10 L 116.25 136.10 L 116.25 136.10 L 116.25 136.10 L 116.25 136.10 L 116.25 136.10 L 116.25 136.10 L 116.25 136.10 L 116.25 136.10 L 116.25 136.10 L 116.25 136.10 L 116.25 136.10 L 116.25 136.10 L 116.25 136.10 L 116.25 136.10 L 116.25 136.10 L 116.25 136.10 L 116.25 136.10 L 116.25 136.10 L 116.25 136.10 L 116.25 136.10 L 116.25 136.10 L 116.25 136.10 L 116.25 136.10 L 116.25 136.10 L 116.25 136.10 L 116.25 136.10 L 116.25 136.10 L 116.25 136.10 L 116.25 136.10 L 116.25 136.10 L 116.25 136.10 L 116.25 136.10 L 116.25 136.10 L 116.25 136.10 L 116.25 136.10 L 116.25 136.10 L 116.25 136.10 L 116.25 136.10 L 116.25 136.10 L 116.25 136.10 L 116.25 136.10 L 116.25 136.10 L 116.25 136.10 L 116.25 136.10 L 116.25 136.10 L 116.25 136.10 L 116.25 136.10 L 116.25 136.10 L 116.25 136.10 L 116.25 136.10 L 116.25 136.10 L 116.25 136.10 L 116.25 136.10 L 116.25 136.10 L 116.25 136.10 L 116.25 136.10 L 116.25 136.10 L 116.25 136.10 L 116.25 136.10 L 116.25 136.10 L 116.25 136.10 L 116.25 136.10 L 116.25 136.10 L 116.25 136.10 L 116.25 136.10 L 116.25 136.10 L 116.25 136.10 L 116.25 136.10 L 116.25 136.10 L 116.25 136.10 L 116.25 136.10 L 116.25 136.10 L 116.25 136.10 L 116.25 136.10 L 116.25 136.10 L 116.25 136.10 L 116.25 136.10 L 116.25 136.10 L 116.25 136.10 L 116.25 136.10 L 116.25 136.10 L 116.25 136.10 L 116.25 136.10 L 116.25 136.10 L 116.25 136.10 L 116.25 136.10 L 116.25 136.10 L 116.25 136.10 L 116.25 136.10 L 116.25 136.10 L 116.25 136.10 L 116.25 136.10 L 116.25 136.10 L 116.25 136.10 L 116.25 136.10 L 116.25 136.10 L 116.25 136.10 L 116.25 136.10 L 116.25 136.10 L 116.25 136.10 L 116.25 136.10 L 116.25 136.10 L 116.25 136.10 L 116.25 136.10 L 116.25 136.10 L 116.25 136.10 L 116.25 136.10 L 116.25 136.10 L 116.25 136.10 L 116.25 136.10 L 116.25 136.10 L 116.25 136.10 L 116.25 136.10 L 116.25 136.10 L 116.25 136.10 L 116.25 136.10 L 116.25 136.10 L 116.25 136.10 L 116.25 136.10 L 116.25 136.10 L 116.25 136.10 L 116.25 136.10 L 116.25 136.10 L 116.25 136.10 L 116.25 136.10 L 116.25 136.10 L 116.25 136.10 L 116.25 136.10 L 116.25 136.10 L 116.25 136.10 L 116.25 136.10 L 116.25 136.10 L 116.25 136.10 L 116.25 136.10 L 116.25 136.10 L 116.25 136.10 L 116.25 136.10 L 116.25 136.10 L 116.25 136.10 L 116.25 136.10 L 116.25 136.10 L 116.25 136.10 L 116.25 136.10 L 116.25 136.10 L 116.25 136.10 L 116.25 136.10 L 116.25 136.10 L 116.25 136.10 L 116.25 136.10 L 116.25 136.10 L 116.25 136.10 L 116.25 136.10 L 116.25 136.10 L 116.25 136.10 L 116.25 136.10 L 116.25 136.10 L 116.25 136.10 L 116.25 136.10 L 116.25 136.10 L 116.25 136.10 L 116.25 136.10 L 116.25 136.10 L 116.25 136.10 L 116.25 136.10 L 116.25 136.10 L 116.25 136.10 L 116.25 136.10 L 116.25 136.10 L 116.25 136.10 L 116.25 136.10 L 116.25 136.10 L 116.25 136.10 L 116.25 136.10 L 116.25 136.10 L 116.25 136.10 L 116.25 136.10 L 116.25 136.10 L 116.25 136.10 L 116.25 136.10 L 116.25 136.10 L 116.25 136.10 L 116.25 136.10 L 116.25 136.10 L 116.25 136.10 L 116.25 136.10 L 116.25 136.10 L 116.25 136.10 L 116.25 136.10 L 116.25 136.10 L 116.25 136.10 L 116.25 136.10 L 116.25 136.10 L 116.25 136.10 L 116.25 136.10 L 116.25 136.10 L 116.25 136.10 L 116.25 136.10 L 116.25 136.10 L 116.25 136.10 L 116.25 136.10 L 116.25 136.10 L 116.25 136.10 L 116.25 136.10 L 116.25 136.10 L 116.25 136.10 L 116.25 136.10 L 116.25 136.10 L 116.25 136.10 L 116.25 136.10 L 116.25 136.10 L 116.25 136.10 L 116.25 136.10 L 116.25 136.10 L 116.25 136.10 L 116.25 136.10 L 116.25 136.10 L 116.25 136.10 L 116.25 136.10 L 116.25 136.10 L 116.25 136.10 L 116.25 136.10 L 116.25 136.10 L 116.25 136.10 L 116.25 136.10 L 116.25 136.10 L 116.25 136.10 L 116.25 136.10 L 116.25 136.10 L 116.25 136.10 L 116.25 136.10 L 116.25 136.10 L 116.25 136.10 L 116.25 136.10 L 116.25 136.10 L 116.25 136.10 L 116.25 136.10 L 116.25 136.10 L 116.25 136.10 L 116.25 136.10 L 116.25 136.10 L 116.25 136.10 L 116.25 136.10 L 116.25 136.10 L 116.25 136.10 L 116.25 136.10 L 116.25 136.10 L 116.25 136.10 L 116.25 136.10 L 116.25 136.10 L 116.25 136.10 L 116.25 136.10 L 116.25 136.10 L 116.25 136.10 L 116.25 136.10 L 116.25 136.10 L 116.25 136.10 L 116.25 136.10 L 116.25 136.10 L 116.25 136.10 L 116.25 136.10 L 116.25 136.10 L 116.25 136.10 L 116.25 136.10 L 116.25 136.10 L 116.25 136.10 L 116.25 136.10 L 116.25 136.10 L 116.25 136.10 L 116.25 136.10 L 116.25 136.10 L 116.25 136.10 L 116.25 136.10 L 116.25 136.10 L 116.25 136.10 L 116.25 136.10 L 116.25 136.10 L 116.25 136.10 L 116.25 136.10 L 116.25 136.10 L 116.25 136.10 L 116.25 136.10 L 116.25 136.10 L 116.25 136.10 L 116.25 136.10 L 116.25 136.10 L 116.25 136.10 L 116.25 136.10 L 116.25 136.10 L 116.25 136.10 L 116.25 136.10 L 116.25 136.10 L 116.25 136.10 L 116.25 136.10 L 116.25 136.10 L 116.25 136.10 L 116.25 136.10 L 116.25 136.10 L 116.25 136.10 L 116.25 136.10 L 116.25 136.10 L 116.25 136.10 L 116.25 136.10 L 116.25 136.10 L 116.25 136.10 L 116.25 136.10 L 116.25 136.10 L 116.25 136.10 L 116.25 136.10 L 116.25 136.10 L 116.25 136.10 L 116.25 136.10 L 116.25 136.10 L 116.25 136.10 L 116.25 136.10 L 116.25 136.10 L 116.25 136.10 L 116.25 136.10 L 116.25 136.10 L 116.25 136.10 L 116.25 136.10 L 116.25 136.10 L 116.25 136.10 L 116.25 136.10 L 116.25 136.10 L 116.25 136.10 L 116.25 136.10 L 116.25 136.10 L 116.25 136.10 L 116.25 136.10 L 116.25 136.10 L 116.25 136.10 L 116.25 136.10 L 116.25 136.10 L 116.25 136.10 L 116.25 136.10 L 116.25 136.10 L 116.25 136.10 L 116.25 136.10 L 116.25 136.10 L 116.25 136.10 L 116.25 136.10 L 116.25 136.10 L 116.25 136.10 L 116.25 136.10 L 116.25 136.10 L 116.25 136.10 L 116.25 136.10 L 116.25 136.10 L 116.25 136.10 L 116.25 136.10 L 116.25 136.10 L 116.25 136.10 L 116.25 136.10 L 116.25 136.10 L 116.25 136.10 L 116.25 136.10 L 116.25 136.10 L 116.25 136.10 L 116.25 136.10 L 116.25 136.10 L 116.25 136.10 L 116.25 136.10 L 116.25 136.10 L 116.25 136.10 L 116.25 136.10 L 116.25 136.10 L 116.25 136.10 L 116.25 136.10 L 116.25 136.10 L 116.25 136.10 L 116.25 136.10 L 116.25 136.10 L 116.25 136.10 L 116.25 136.10 L 116.25 136.10 L 116.25 136.10 L 116.25 136.10 L 116.25 136.10 L 116.25 136.10 L 116.25 136.10 L 116.25 136.10 L 116.25 136.10 L 116.25 136.10 L 116.25 136.10 L 116.25 136.10 L 116.25 136.10 L 116.25 136.10 L 116.25 136.10 L 116.25 136.10 L 116.25 136.10 L 116.25 136.10 L 116.25 136.10 L 116.25 136.10 L 116.25 136.10 L 116.25 136.10 L 116.25 136.10 L 116.25 136.10 L 116.25 136.10 L 116.25 136.10 L 116.25 136.10 L 116.25 136.10 L 116.25 136.10 L 116.25 136.10 L 116.25 136.10 L 116.25 136.10 L 116.25 136.10 L 116.25 136.10 L 116.25 136.10 L 116.25 136.10 L 116.25 136.10 L 116.25 136.10 L 116.25 136.10 L 116.25 136.10 L 116.25 136.10 L 116.25 136.10 L 116.25 136.10 L 116.25 136.10 L 116.25 136.10 L 116.25 136.10 L 116.25 136.10 L 116.25 136.10 L 116.25 136.10 L 116.25 136.10 L 116.25 136.10 L 116.25 136.10 L 116.25 136.10 L 116.25 136.10 L 116.25 136.10 L 116.25 136.10 L 116.25 136.10 L 116.25 136.10 L 116.25 136.10 L 116.25 136.10 L 116.25 136.10 L 116.25 136.10 L 116.25 136.10 L 116.25 136.10 L 116.25 136.10 L 116.25 136.10 L 116.25 136.10 L 116.25 136.10 L 116.25 136.10 L 116.25 136.10 L 116.25 136.10 L 116.25 136.10 L 116.25 136.10 L 116.25 136.10 L 116.25 136.10 L 116.25 136.10 L 116.25 136.10 L 116.25 136.10 L 116.25 136.10 L 116.25 136.10 L 116.25 136.10 L 116.25 136.10 L 116.25 136.10 L 116.25 136.10 L 116.25 136.10 L 116.25 136.10 L 116.25 136.10 L 116.25 136.10 L 116.25 136.10 L 116.25 136.10 L 116.25 136.10 L 116.25 136.10 L 116.25 136.10 L 116.25 136.10 L 116.25 136.10 L 116.25 136.10 L 116.25 136.10 L 116.25 136.10 L 116.25 136.10 L 116.25 136.10 L 116.25 136.10 L 116.25 136.10 L 116.25 136.10 L 116.25 136.10 L 116.25 136.10 L 116.25 136.10 L 116.25 136.10 L 116.25 136.10 L 116.25 136.10 L 116.25 136.10 L 116.25 136.10 L 116.25 136.10 L 116.25 136.10 L 116.25 136.10 L 116.25 136.10 L 116.25 136.10 L 116.25 136.10 L 116.25 136.10 L 116.25 136.10 L 116.25 136.10 L 116.25 136.10 L 116.25 136.10 L 116.25 136.10 L 116.25 136.10 L 116.25 136.10 L 116.25 136.10 L 116.25 136.10 L 116.25 136.10 L 116.25 136.10 L 116.25 136.10 L 116.25 136.10 L 116.25 136.10 L 116.25 136.10 L 116.25 136.10 L 116.25 136.10 L 116.25 136.10 L 116.25 136.10 L 116.25 136.10 L 116.25 136.10 L 116.25 136.10 L 116.25 136.10 L 116.25 136.10 L 116.25 136.10 L 116.25 136.10 L 116.25 136.10 L 116.25 136.10 L 116.25 136.10 L 116.25 136.10 L 116.25 136.10 L 116.25 136.10 L 116.25 136.10 L 116.25 136.10 L 116.25 136.10 L 116.25 136.10 L 116.25 136.10 L 116.25 136.10 L 116.25 136.10 L 116.25 136.10 L 116.25 136.10 L 116.25 136.10 L 116.25 136.10 L 116.25 136.10 L 116.25 136.10 L 116.25 136.10 L 116.25 136.10 L 116.25 136.10 L 116.25 136.10 L 116.25 136.10 L 116.25 136.10 L 116.25 136.10 L 116.25 136.10 L 116.25 136.10 L 116.25 136.10 L 116.25 136.10 L 116.25 136.10 L 116.25 136.10 L 116.25 136.10 L 116.25 136.10 L 116.25 136.10 L 116.25 136.10 L 116.25 136.10 L 116.25 136.10 L 116.25 136.10 L 116.25 136.10 L 116.25 136.10 L 116.25 136.10 L 116.25 136.10 L 116.25 136.10 L 116.25 136.10 L 116.25 136.10 L 116.25 136.10 L 116.25 136.10 L 116.25 136.10 L 116.25 136.10 L 116.25 136.10 L 116.25 136.10 L 116.25 136.10 L 116.25 136.10 L 116.25 136.10 L 116.25 136.10 L 116.25 136.10 L 116.25 136.10 L 116.25 136.10 L 116.25 136.10 L 116.25 136.10 L 116.25 136.10 L 116.25 136.10 L 116.25 136.10 L 116.25 136.10 L 116.25 136.10 L 116.25 136.10 L 116.25 136.10 L 116.25 136.10 L 116.25 136.10 L 116.25 136.10 L 116.25 136.10 L 116.25 136.10 L 116.25 136.10 L 116.25 136.10 L 116.25 136.10 L 116.25 136.10 L 116.25 136.10 L 116.25 136.10 L 116.25 136.10 L 116.25 136.10 L 116.25 136.10 L 116.25 136.10 L 116.25 136.10 L 116.25 136.10 L 116.25 136.10 L 116.25 136.10 L 116.25 136.10 L 116.25 136.10 L 116.25 136.10 L 116.25 136.10 L 116.25 136.10 L 116.25 136.10 L 116.25 136.10 L 116.25 136.10 L 116.25 136.10 L 116.25 136.10 L 116.25 136.10 L 116.25 136.10 L 116.25 136.10 L 116.25 136.10 L 116.25 136.10 L 116.25 136.10 L 116.25 136.10 L 116.25 136.10 L 116.25 136.10 L 116.25 136.10 L 116.25 136.10 L 116.25 136.10 L 116.25 136.10 L 116.25 136.10 L 116.25 136.10 L 116.25 136.10 L 116.25 136.10 L 116.25 136.10 L 116.25 136.10 L 116.25 136.10 L 116.25 136.10 L 116.25 136.10 L 116.25 136.10 L 116.25 136.10 L 116.25 136.10 L 116.25 136.10 L 116.25 136.10 L 116.25 136.10 L 116.25 136.10 L 116.25 136.10 L 116.25 136.10 L 116.25 136.10 L 116.25 136.10 L 116.25 136.10 L 116.25 136.10 L 116.25 136.10 L 116.25 136.10 L 116.25 136.10 L 116.25 136.10 L 116.25 136.10 L 116.25 136.10 L 116.25 136.10 L 116.25 136.10 L 116.25 136.10 L 116.25 136.10 L 116.25 136.10 L 116.25 136.10 L 116.25 136.10 L 116.25 136.10 L 116.25 136.10 L 116.25 136.10 L 116.25 136.10 L 116.25 136.10 L 116.25 136.10 L 116.25 136.10 L 116.25 136.10 L 116.25 136.10 L 116.25 136.10 L 116.25 136.10 L 116.25 136.10 L 116.25 136.10 L 116.25 136.10 L 116.25 136.10 L 116.25 136.10 L 116.25 136.10 L 116.25 136.10 L 116.25 136.10 L 116.25 136.10 L 116.25 136.10 L 116.25 136.10 L 116.25 136.10 L 116.25 136.10 L 116.25 136.10 L 116.25 136.10 L 116.25 136.10 L 116.25 136.10 L 116.25 136.10 L 116.25 136.10 L 116.25 136.10 L 116.25 136.10 L 116.25 136.10 L 116.25 136.10 L 116.25 136.10 L 116.25 136.10 L 116.25 136.10 L 116.25 136.10 L 116.25 136.10 L 116.25 136.10 L 116.25 136.10 L 116.25 136.10 L 116.25 136.10 L 116.25 136.10 L 116.25 136.10 L 116.25 136.10 L 116.25 136.10 L 116.25 136.10 L 116.25 136.10 L 116.25 136.10 L 116.25 136.10 L 116.25 136.10 L 116.25 136.10 L 116.25 136.10 L 116.25 136.10 L 116.25 136.10 L 116.25 136.10 L 116.25 136.10 L 116.25 136.10 L 116.25 136.10 L 116.25 136.10 L 116.25 136.10 L 116.25 136.10 L 116.25 136.10 L 116.25 136.10 L 116.25 136.10 L 116.25 136.10 L 116.25 136.10 L 116.25 136.10 L 116.25 136.10 L 116.25 136.10 L 116.25 136.10 L 116.25 136.10 L 116.25 136.10 L 116.25 136.10 L 116.25 136.10 L 116.25 136.10 L 116.25 136.10 L 116.25 136.10 L 116.25 136.10 L 116.25 136.10 L 116.25 136.10 L 116.25 136.10 L 116.25 136.10 L 116.25 136.10 L 116.25 136.10 L 116.25 136.10 L 116.25 136.10 L 116.25 136.10 L 116.25 136.10 L 116.25 136.10 L 116.25 136.10 L 116.25 136.10 L 116.25 136.10 L 116.25 136.10 L 116.25 136.10 L 116.25 136.10 L 116.25 136.10 L 116.25 136.10" fill="none" stroke="url(#grad)" stroke-width="0.3" stroke-opacity="0.8"/>
</svg>