<?xml version="1.0" encoding="UTF-8"?>
<svg xmlns="http://www.w3.org/2000/svg" width="200" height="200" viewBox="0 0 200 200">
  <defs>
    <linearGradient id="grad" x1="0%" y1="0%" x2="100%" y2="100%">
      <stop offset="0%" style="stop-color:#f59e0b;stop-opacity:1" />
      <stop offset="100%" style="stop-color:#ea580c;stop-opacity:1" />
    </linearGradient>
  </defs>
  <rect width="100%" height="100%" fill="#0a0a0f"/>
  <path d="M 67.00 15.64 L 126.74 83.79 L 62.75 140.20 L 140.65 105.86 L 70.86 97.27 L 90.91 137.71 L 55.32 41.95 L 79.57 35.79 L 116.21 84.38 L 53.96 54.87 L 82.87 67.54 L 134.64 150.96 L 103.02 5.84 L 87.01 156.81 L 141.04 26.22 L 117.73 56.93 L 129.85 72.03 L 56.37 128.00 L 59.59 36.67 L 71.77 154.99 L 122.10 77.38 L 107.22 86.10 L 52.39 59.79 L 82.28 155.65 L 138.67 143.98 L 135.61 82.43 L 143.35 128.87 L 114.16 83.36 L 115.51 45.50 L 54.42 60.24 L 55.03 46.44 L 100.39 4.32 L 52.49 59.71 L 127.98 85.82 L 117.82 51.42 L 106.66 8.79 L 118.57 89.69 L 110.93 87.35 L 83.94 38.10 L 134.70 95.08 L 101.98 4.38 L 95.51 21.61 L 124.47 163.08 L 58.48 95.23 L 75.23 146.03 L 68.00 94.09 L 130.56 84.93 L 130.89 82.54 L 126.67 88.78 L 140.27 24.64 L 122.55 94.24 L 107.04 87.59 L 132.39 83.59 L 118.59 57.66 L 144.79 39.33 L 60.26 97.31 L 120.44 77.72 L 93.41 155.33 L 83.70 7.94 L 80.80 143.09 L 71.86 148.66 L 78.49 129.10 L 134.56 65.89 L 113.25 85.67 L 69.37 144.35 L 89.46 129.97 L 119.96 84.63 L 144.61 32.24 L 74.95 95.11 L 139.90 96.19 L 111.11 6.71 L 133.63 92.68 L 137.53 98.89 L 65.44 142.31 L 71.90 144.83 L 68.10 144.18 L 142.84 29.88 L 78.62 92.76 L 98.54 84.97 L 97.86 10.17 L 137.62 97.05 L 137.66 101.81 L 114.69 35.76 L 97.30 102.56 L 62.91 19.97 L 116.64 88.40 L 99.69 4.09 L 126.68 160.60 L 107.97 10.64 L 119.39 83.94 L 117.02 54.12 L 117.84 51.55 L 115.33 81.97 L 121.34 88.96 L 131.40 80.26 L 52.79 103.68 L 63.59 34.20 L 101.38 12.41 L 52.64 57.95 L 121.12 62.40 L 108.86 88.05 L 68.05 144.18 L 53.35 60.84 L 143.69 124.65 L 73.01 151.42 L 75.51 162.00 L 85.77 29.45 L 118.75 77.09 L 120.02 70.81 L 86.11 113.98 L 136.19 96.50 L 141.36 108.38 L 56.29 118.36 L 107.94 147.41 L 83.26 101.22 L 128.19 83.45 L 53.37 61.02 L 56.86 32.51 L 115.34 82.85 L 137.28 88.47 L 128.72 69.26 L 94.07 130.44 L 54.68 52.95 L 145.12 37.06 L 53.07 93.22 L 54.61 54.33 L 113.39 74.62 L 111.14 62.55 L 120.08 82.50 L 104.19 86.29 L 128.77 72.15 L 103.28 87.04 L 144.31 35.64 L 79.21 91.25 L 88.62 23.72 L 61.19 138.48 L 93.11 170.29 L 144.22 44.19 L 58.22 65.64 L 132.99 87.75 L 138.49 112.18 L 108.09 83.96 L 73.30 150.03 L 62.17 20.97 L 99.34 3.41 L 140.51 100.39 L 143.83 46.17 L 124.93 77.32 L 108.36 82.89 L 116.77 65.63 L 88.39 148.28 L 139.10 102.32 L 117.78 56.50 L 56.54 95.39 L 128.01 88.84 L 92.58 88.10 L 98.32 153.52 L 124.15 134.53 L 127.91 78.49 L 127.51 67.63 L 133.47 85.88 L 118.47 68.45 L 131.87 154.69 L 133.14 90.77 L 113.91 70.43 L 97.21 87.71 L 138.28 92.92 L 74.41 91.53 L 107.18 148.87 L 140.08 110.09 L 141.91 135.66 L 90.72 156.13 L 141.38 108.45 L 117.50 5.89 L 117.48 75.18 L 54.96 50.17 L 110.32 174.09 L 120.05 90.08 L 71.88 148.63 L 141.31 53.76 L 53.08 102.91 L 71.63 144.18 L 105.74 5.21 L 120.56 166.74 L 78.66 9.07 L 141.82 52.50 L 139.88 109.05 L 108.01 10.81 L 86.20 115.94 L 120.49 77.71 L 113.69 144.46 L 114.15 31.05 L 78.30 156.10 L 134.93 95.52 L 130.07 157.03 L 102.11 5.22 L 144.83 37.07 L 129.11 79.96 L 55.46 40.61 L 72.52 150.32 L 70.67 92.78 L 79.18 28.89 L 137.31 146.56 L 116.29 140.51 L 110.00 86.47 L 61.02 84.01 L 142.42 133.74 L 135.93 96.97 L 61.96 139.42 L 130.23 156.68 L 85.23 140.95 L 89.10 132.28 L 113.49 7.47 L 115.05 66.01 L 66.61 100.66 L 114.09 32.47 L 113.84 69.89 L 118.88 84.63 L 88.42 111.24 L 100.63 87.48 L 116.95 85.17 L 59.58 136.18 L 53.84 75.10 L 116.84 46.21 L 109.89 81.50 L 85.10 114.31 L 59.77 136.44 L 134.44 67.95 L 78.46 90.39 L 101.59 151.95 L 118.77 58.13 L 56.09 119.68 L 65.06 142.04 L 139.16 89.71 L 135.89 96.93 L 134.42 66.04 L 58.60 134.45 L 113.88 68.91 L 116.55 84.75 L 107.12 101.12 L 115.29 38.25 L 116.12 86.22 L 140.42 21.75 L 127.21 70.41 L 119.49 84.61 L 82.88 118.54 L 77.56 155.81 L 118.91 92.62 L 139.34 110.66 L 135.71 118.94 L 57.26 31.06 L 102.04 149.14 L 71.43 146.10 L 109.78 86.16 L 135.14 82.00 L 140.64 101.64 L 119.73 6.63 L 115.37 44.38 L 121.16 87.96 L 139.56 109.19 L 71.52 147.72 L 120.48 51.88 L 111.23 16.85 L 57.29 99.27 L 120.30 73.15 L 137.59 87.90 L 111.06 82.29 L 113.17 87.91 L 128.07 68.34 L 120.51 84.35 L 63.08 140.43 L 106.56 57.65 L 144.95 34.94 L 129.79 82.63 L 116.57 85.17 L 88.53 88.96 L 115.09 82.05 L 107.20 9.23 L 62.78 20.15 L 121.98 87.10 L 65.90 141.50 L 56.26 96.72 L 140.52 108.08 L 94.56 8.81 L 117.73 75.02 L 123.34 75.20 L 142.28 134.32 L 56.25 98.88 L 143.85 32.74 L 53.79 86.11 L 115.66 46.60 L 114.60 37.16 L 140.46 100.88 L 123.94 89.32 L 88.53 88.45 L 63.80 34.06 L 87.69 89.22 L 137.81 145.70 L 53.72 73.40 L 109.88 77.37 L 128.89 74.71 L 106.86 84.76 L 116.37 67.48 L 55.09 100.70 L 110.16 14.39 L 112.59 88.40 L 86.89 88.70 L 115.51 170.82 L 56.81 129.77 L 137.21 96.27 L 108.22 80.95 L 94.76 88.07 L 63.35 19.43 L 140.12 96.35 L 140.35 99.79 L 123.49 89.99 L 52.85 103.60 L 118.94 58.33 L 123.61 11.65 L 85.48 88.92 L 137.61 87.62 L 144.03 34.04 L 115.53 69.69 L 53.40 67.69 L 118.35 57.21 L 136.76 84.78 L 115.81 57.47 L 86.62 174.88 L 94.54 126.78 L 110.18 86.62 L 132.07 76.94 L 87.27 89.35 L 54.24 45.77 L 118.65 53.52 L 110.26 85.43 L 128.47 87.37 L 56.79 32.76 L 115.62 8.23 L 71.97 93.02 L 140.40 102.00 L 117.14 54.48 L 60.33 69.52 L 133.43 152.70 L 120.68 67.96 L 61.76 46.11 L 56.62 33.46 L 144.32 30.05 L 132.65 94.12 L 98.64 4.07 L 55.92 48.94 L 103.51 7.49 L 72.99 145.48 L 143.42 31.41 L 70.04 97.86 L 124.56 81.19 L 97.81 102.10 L 126.12 66.19 L 55.07 45.56 L 119.85 63.48 L 55.45 99.90 L 113.39 19.10 L 115.23 89.35 L 106.86 3.66 L 131.04 90.69 L 134.03 123.67 L 117.42 64.48 L 115.67 46.71 L 82.76 156.86 L 125.42 74.77 L 132.36 154.04 L 131.69 125.39 L 81.62 90.32 L 95.62 104.06 L 53.55 53.46 L 55.16 56.76 L 65.09 102.11 L 104.35 86.39 L 109.40 5.95 L 132.46 124.73 L 118.66 80.41 L 118.80 167.99 L 143.70 47.10 L 57.08 63.50 L 60.18 24.11 L 72.43 33.45 L 93.44 88.19 L 104.88 173.71 L 144.53 41.50 L 58.35 98.61 L 72.79 164.85 L 144.23 45.10 L 140.23 100.54 L 135.30 91.62 L 118.49 77.96 L 103.34 5.80 L 111.54 20.16 L 115.73 49.91 L 113.30 28.11 L 80.94 122.06 L 58.17 133.58 L 116.80 82.04 L 113.48 144.14 L 97.77 3.63 L 55.39 41.36 L 115.49 40.74 L 54.59 57.50 L 128.32 94.63 L 96.02 86.41 L 56.98 32.04 L 133.82 93.31 L 71.33 96.95 L 73.97 33.77 L 129.67 73.24 L 133.78 67.02 L 52.90 100.44 L 145.02 35.68 L 124.03 163.10 L 113.21 73.93 L 53.83 51.52 L 99.78 4.11 L 133.64 95.99 L 111.77 90.10 L 117.46 81.75 L 137.80 21.37 L 90.72 148.66 L 117.62 141.28 L 86.27 89.68 L 56.85 99.88 L 121.75 89.07 L 71.80 93.08 L 139.95 20.19 L 133.70 82.22 L 128.47 71.97 L 121.66 68.59 L 137.72 87.10 L 112.17 86.33 L 127.63 159.62 L 138.63 92.72 L 132.74 86.92 L 117.29 89.14 L 109.93 13.98 L 66.08 31.17 L 96.99 87.77 L 56.02 59.58 L 53.41 101.32 L 55.57 39.46 L 54.35 101.79 L 81.04 143.34 L 80.16 143.50 L 143.89 45.78 L 99.00 87.66 L 82.36 156.98 L 123.20 79.39 L 74.87 160.25 L 71.21 97.02 L 73.96 32.42 L 139.02 58.58 L 54.91 100.54 L 131.53 89.45 L 140.25 99.03 L 60.96 87.69 L 119.61 58.49 L 126.49 71.28 L 93.03 69.60 L 120.24 86.01 L 127.87 159.33 L 94.10 116.91 L 53.69 102.40 L 58.06 112.43 L 113.83 69.66 L 136.19 63.39 L 102.17 53.20 L 71.29 85.81 L 116.88 55.01 L 73.17 152.63 L 126.42 132.07 L 104.70 85.92 L 121.30 63.61 L 136.72 96.82 L 143.54 47.79 L 117.99 61.99 L 62.69 140.07 L 133.72 67.02 L 54.82 53.25 L 140.27 97.77 L 140.00 106.05 L 144.17 44.52 L 53.40 101.98 L 55.37 41.65 L 143.13 115.85 L 125.37 79.51 L 125.78 161.86 L 61.47 138.74 L 52.59 102.96 L 79.89 124.45 L 125.05 133.58 L 115.83 48.35 L 121.89 80.72 L 102.41 5.77 L 112.38 7.08 L 140.38 100.29 L 55.03 101.24 L 99.69 4.12 L 110.71 87.50 L 132.21 154.50 L 112.30 20.93 L 72.48 150.22 L 78.83 175.66 L 123.68 88.12 L 111.34 88.21 L 100.07 100.12 L 65.12 102.08 L 72.24 149.95 L 56.59 116.91 L 99.19 10.91 L 143.44 128.26 L 100.08 11.47 L 129.16 78.72 L 124.51 134.33 L 55.09 101.17 L 110.43 86.10 L 130.77 79.76 L 145.02 36.67 L 124.65 86.29 L 138.49 92.80 L 63.74 49.04 L 136.91 94.00 L 66.12 142.74 L 106.03 7.87 L 108.96 88.00 L 115.91 55.46 L 74.65 94.84 L 137.08 146.99 L 105.35 146.14 L 128.41 77.48 L 68.92 144.55 L 111.85 77.63 L 138.67 89.51 L 57.76 98.86 L 129.36 90.71 L 144.99 37.97 L 56.91 32.31 L 115.29 89.36 L 55.46 40.28 L 133.35 152.83 L 127.10 82.37 L 130.02 85.39 L 131.65 91.16 L 98.33 87.71 L 128.02 159.40 L 113.78 111.18 L 71.39 149.36 L 118.78 58.23 L 117.72 62.67 L 124.36 74.02 L 99.59 3.38 L 72.20 150.79 L 55.99 47.33 L 52.32 64.31 L 131.97 154.55 L 134.04 151.76 L 131.84 89.63 L 131.97 86.74 L 115.08 75.05 L 67.52 143.87 L 111.03 88.05 L 108.18 81.84 L 137.42 98.66 L 122.41 80.85 L 141.87 24.24 L 75.04 96.67 L 87.65 134.07 L 132.72 153.69 L 72.03 150.31 L 129.73 82.63 L 71.63 96.74 L 114.75 5.11 L 114.06 30.49 L 107.81 84.17 L 144.77 35.17 L 143.24 116.43 L 59.43 92.77 L 109.45 83.44 L 55.20 43.48 L 55.67 38.68 L 71.54 149.37 L 119.81 77.67 L 99.68 4.06 L 139.37 57.91 L 54.46 55.76 L 97.58 3.67 L 63.62 141.05 L 114.54 36.66 L 118.58 83.93 L 112.11 88.14 L 135.55 20.85 L 124.75 162.93 L 112.10 172.07 L 72.87 151.09 L 82.77 157.00 L 56.69 100.00 L 77.40 119.09 L 91.39 180.52 L 134.48 94.17 L 81.64 144.53 L 108.06 10.92 L 52.51 63.82 L 128.00 159.48 L 58.29 28.12 L 68.73 144.52 L 119.01 58.83 L 93.45 8.48 L 108.97 85.39 L 101.35 4.66 L 136.88 62.29 L 107.42 16.49 L 122.35 77.67 L 115.26 73.22 L 94.83 88.07 L 90.46 42.75 L 115.12 141.25 L 104.59 86.40 L 144.64 41.60 L 82.52 91.05 L 116.90 54.61 L 53.17 64.23 L 107.40 174.83 L 61.34 81.83 L 134.17 83.42 L 136.86 94.48 L 105.37 87.70 L 122.68 80.83 L 125.73 81.57 L 138.60 111.91 L 55.48 58.65 L 54.91 55.72 L 143.65 120.76 L 54.94 50.48 L 106.98 8.96 L 54.10 58.39 L 104.37 86.40 L 98.80 3.69 L 133.68 82.23 L 115.66 80.50 L 144.70 34.41 L 71.95 153.81 L 112.09 19.77 L 144.01 45.30 L 110.01 6.43 L 138.86 111.28 L 140.72 104.97 L 83.15 172.24 L 133.79 66.94 L 117.01 55.37 L 145.04 37.61 L 137.97 60.47 L 62.92 140.27 L 122.59 136.15 L 116.47 74.01 L 78.89 139.83 L 122.36 63.90 L 111.56 17.85 L 55.11 100.57 L 131.00 155.89 L 71.76 148.94 L 58.73 27.04 L 126.28 91.79 L 115.85 45.93 L 56.02 125.76 L 114.21 33.63 L 112.17 88.17 L 76.66 29.84 L 133.28 86.57 L 76.12 94.12 L 114.55 33.21 L 134.72 80.92 L 83.34 146.04 L 115.42 39.63 L 74.01 95.22 L 118.02 67.48 L 126.72 72.37 L 139.02 58.82 L 124.27 88.90 L 110.70 144.92 L 106.97 85.54 L 54.29 101.83 L 65.26 142.20 L 144.42 31.32 L 114.58 35.80 L 115.35 67.07 L 55.90 124.04 L 60.80 137.90 L 140.24 99.97 L 124.70 67.79 L 100.27 11.61 L 121.40 90.32 L 124.75 162.93 L 99.53 4.02 L 119.77 138.94 L 91.68 88.08 L 66.96 94.21 L 127.33 16.96 L 121.64 88.35 L 127.24 85.90 L 98.70 87.67 L 71.01 145.24 L 135.57 82.46 L 123.89 82.56 L 97.89 3.91 L 102.08 5.21 L 118.06 67.68 L 140.37 101.05 L 55.34 57.29 L 58.32 37.93 L 99.59 4.08 L 129.22 157.87 L 52.63 103.23 L 131.36 75.52 L 91.78 88.37 L 120.52 10.25 L 139.98 107.71 L 85.83 138.41 L 54.42 56.08 L 98.40 87.68 L 112.63 81.06 L 68.78 144.53 L 59.59 136.17 L 123.05 84.77 L 125.14 12.34 L 120.61 76.49 L 73.69 145.90 L 115.32 63.80 L 87.40 136.92 L 94.55 126.07 L 105.50 87.59 L 135.30 15.21 L 55.94 124.81 L 78.93 144.47 L 69.65 84.93 L 56.05 36.19 L 139.76 91.50 L 58.62 95.20 L 69.84 93.46 L 54.66 53.64 L 78.29 91.43 L 117.10 78.76 L 127.99 159.49 L 140.16 98.20 L 140.80 103.05 L 55.06 47.00 L 60.44 44.71 L 142.78 132.18 L 112.94 23.67 L 113.38 88.16 L 68.22 14.62 L 144.18 34.90 L 58.09 111.83 L 79.11 156.44 L 104.67 85.94 L 140.44 99.68 L 120.94 10.42 L 69.46 93.27 L 69.91 93.08 L 123.46 164.12 L 60.90 88.00 L 140.76 102.71 L 111.07 16.40 L 104.16 175.69 L 55.58 59.07 L 108.21 81.08 L 124.93 78.28 L 117.93 88.61 L 141.88 135.78 L 133.36 85.70 L 143.17 116.11 L 120.60 64.85 L 110.56 16.94 L 54.44 53.74 L 59.97 136.74 L 133.91 66.76 L 75.92 34.31 L 122.94 90.90 L 115.53 46.38 L 137.55 97.22 L 73.01 11.46 L 102.09 87.67 L 140.28 99.27 L 73.44 32.47 L 69.13 93.40 L 51.97 66.99 L 64.13 96.23 L 114.51 34.92 L 102.23 5.39 L 115.95 88.33 L 131.02 155.87 L 129.95 17.52 L 129.82 128.87 L 110.59 24.84 L 71.71 144.53 L 143.39 116.08 L 144.93 34.07 L 96.74 177.11 L 137.88 99.61 L 137.51 88.59 L 133.94 21.18 L 142.86 49.61 L 126.82 75.12 L 140.11 140.78 L 95.85 154.54 L 108.14 83.72 L 140.55 55.59 L 134.54 93.13 L 120.71 83.26 L 140.93 54.65 L 138.55 112.23 L 131.55 76.65 L 118.82 138.67 L 128.24 85.06 L 53.98 46.79 L 144.55 41.35 L 93.99 8.63 L 109.39 12.87 L 114.85 33.59 L 109.46 86.56 L 126.26 90.26 L 135.30 83.72 L 119.90 89.95 L 109.79 86.18 L 52.96 59.62 L 106.97 84.73 L 111.08 85.19 L 131.23 86.57 L 114.64 71.26 L 107.85 84.43 L 120.44 73.95 L 55.16 46.51 L 60.82 77.10 L 132.19 154.29 L 62.38 34.75 L 103.40 85.68 L 139.86 56.95 L 73.69 95.46 L 65.73 142.74 L 129.00 19.32 L 108.75 92.71 L 113.97 27.48 L 143.48 128.01 L 54.71 49.83 L 130.53 156.51 L 74.80 94.76 L 84.58 146.83 L 138.94 113.46 L 136.70 93.55 L 120.63 73.21 L 99.94 3.36 L 115.73 40.87 L 115.70 5.36 L 114.15 74.13 L 129.78 86.29 L 61.28 138.56 L 54.60 53.39 L 129.06 84.70 L 112.40 145.37 L 118.50 81.48 L 96.37 159.99 L 81.66 89.64 L 123.28 163.93 L 107.20 18.74 L 142.92 131.44 L 126.81 160.46 L 141.34 108.35 L 115.71 61.81 L 140.28 105.64 L 71.04 12.61 L 116.76 57.07 L 104.93 3.47 L 71.59 145.72 L 144.02 29.65 L 131.71 93.71 L 143.71 122.43 L 83.94 141.19 L 132.42 91.44 L 96.54 87.75 L 123.66 84.50 L 92.03 8.16 L 126.77 160.83 L 132.88 125.07 L 126.12 76.30 L 92.43 160.82 L 114.77 81.29 L 98.29 10.40 L 73.53 157.01 L 140.50 100.28 L 131.48 93.44 L 52.77 103.24 L 132.33 83.23 L 118.01 9.11 L 58.51 134.27 L 61.06 85.39 L 63.27 19.53 L 71.11 149.18 L 56.95 115.53 L 55.10 45.01 L 132.93 90.59 L 118.63 89.71 L 52.52 60.09 L 95.30 87.79 L 119.90 82.47 L 138.92 110.81 L 93.99 120.92 L 60.03 136.88 L 139.98 108.69 L 104.41 86.10 L 78.33 90.96 L 54.69 44.34 L 133.27 92.06 L 70.08 97.83 L 60.67 85.34 L 56.59 99.55 L 132.60 94.09 L 88.35 148.27 L 78.01 135.62 L 129.37 84.51 L 78.37 138.08 L 131.84 76.21 L 86.44 12.20 L 84.45 89.55 L 54.65 53.71 L 65.54 142.64 L 111.60 78.32 L 138.68 59.20 L 60.92 86.24 L 53.13 63.43 L 54.11 61.75 L 139.83 104.09 L 66.22 80.83 L 115.31 63.90 L 126.35 132.78 L 96.54 87.71 L 78.44 90.43 L 94.64 180.53 L 134.24 66.29 L 144.09 30.28 L 137.02 62.21 L 109.19 85.32 L 116.53 81.63 L 142.78 113.94 L 109.90 82.60 L 89.80 175.98 L 143.42 117.96 L 99.45 87.71 L 115.76 47.17 L 59.71 91.85 L 138.98 113.90 L 95.09 120.86 L 138.72 89.33 L 129.55 19.47 L 73.51 33.66 L 73.13 152.76 L 138.63 92.43 L 130.76 93.10 L 52.51 102.99 L 58.79 109.88 L 56.68 61.43 L 82.96 145.74 L 71.86 147.98 L 53.37 100.14 L 120.85 61.65 L 119.54 60.33 L 62.06 139.53 L 127.50 160.02 L 138.87 143.58 L 60.46 23.61 L 94.11 130.24 L 68.27 86.02 L 113.42 25.07 L 107.09 94.14 L 85.70 139.58 L 94.74 8.87 L 54.09 58.45 L 137.50 118.96 L 60.59 23.40 L 65.96 142.67 L 79.90 142.15 L 137.31 115.64 L 53.01 53.89 L 109.97 18.51 L 144.82 37.76 L 143.34 26.66 L 56.47 63.43 L 100.53 87.65 L 109.24 85.28 L 111.78 78.36 L 105.94 7.78 L 114.15 31.22 L 137.22 17.68 L 87.17 7.70 L 97.27 87.71 L 117.57 169.17 L 140.10 96.48 L 116.24 169.14 L 112.32 87.20 L 140.29 103.28 L 54.36 53.13 L 106.90 87.80 L 130.18 80.29 L 117.74 56.72 L 126.10 76.33 L 115.38 64.43 L 136.35 91.42 L 106.08 85.62 L 70.70 145.25 L 53.07 62.30 L 114.51 66.90 L 119.88 67.52 L 136.22 83.39 L 131.88 76.28 L 120.54 75.55 L 122.89 164.67 L 108.20 81.21 L 62.50 140.03 L 96.56 87.76 L 63.23 140.57 L 55.04 56.68 L 56.51 33.93 L 137.46 86.62 L 114.95 40.01 L 135.45 94.05 L 124.65 91.27 L 77.64 9.24 L 144.64 41.59 L 140.71 102.32 L 141.31 27.73 L 133.75 97.11 L 71.68 145.45 L 99.44 4.00 L 139.67 99.57 L 83.56 141.80 L 58.55 65.56 L 116.13 76.09 L 55.44 40.70 L 85.89 114.26 L 53.16 92.59 L 74.76 144.86 L 115.88 73.53 L 129.42 78.88 L 119.81 87.35 L 88.52 156.70 L 121.79 9.89 L 52.38 100.78 L 82.97 89.44 L 135.16 90.44 L 114.27 70.13 L 115.51 170.81 L 141.57 23.68 L 64.03 103.24 L 121.19 83.91 L 69.42 13.71 L 55.12 44.78 L 104.45 85.78 L 144.89 38.53 L 114.72 36.46 L 127.55 159.68 L 98.29 4.20 L 56.10 126.34 L 140.63 55.32 L 53.59 61.61 L 98.13 148.12 L 138.31 144.69 L 77.95 133.90 L 140.54 101.44 L 139.23 65.19 L 67.16 100.16 L 118.98 84.21 L 106.86 94.33 L 139.61 94.20 L 140.55 55.50 L 79.20 8.90 L 67.47 94.09 L 91.47 88.11 L 103.85 177.45 L 59.89 98.30 L 138.84 111.12 L 104.06 146.62 L 116.65 76.24 L 86.49 89.61 L 95.68 87.98 L 55.93 99.99 L 56.70 100.02 L 139.21 58.22 L 60.56 85.85 L 65.90 16.65 L 107.17 85.41 L 115.99 50.74 L 103.79 14.56 L 72.23 145.06 L 81.31 122.16 L 65.15 77.14 L 54.13 101.16 L 82.71 156.86 L 108.14 12.42 L 130.55 156.60 L 54.25 57.24 L 138.47 88.75 L 80.99 143.76 L 86.16 147.58 L 134.80 20.37 L 144.23 34.70 L 135.18 64.94 L 106.92 87.75 L 56.31 61.15 L 123.07 65.12 L 116.38 87.70 L 54.65 60.05 L 137.64 117.01 L 84.36 89.28 L 132.79 94.55 L 120.68 10.37 L 65.99 142.70 L 137.99 93.06 L 106.88 18.28 L 131.47 77.17 L 143.12 130.41 L 145.10 35.10 L 87.66 156.79 L 123.05 65.11 L 113.66 79.81 L 133.07 68.58 L 108.86 87.53 L 125.28 162.00 L 55.02 47.82 L 105.01 3.48 L 53.79 61.79 L 114.71 37.12 L 122.20 66.49 L 115.68 45.76 L 59.38 93.39 L 104.34 175.94 L 116.81 5.71 L 144.48 42.08 L 125.33 92.92 L 105.58 7.82 L 137.65 92.96 L 122.66 81.79 L 62.70 97.70 L 143.52 127.27 L 144.12 30.12 L 59.77 24.87 L 57.13 98.08 L 109.61 81.87 L 54.99 47.12 L 133.76 95.06 L 112.97 74.63 L 53.97 62.67 L 140.28 101.99 L 102.19 83.10 L 109.29 88.12 L 77.27 46.16 L 144.58 40.71 L 66.60 16.00 L 53.11 63.08 L 119.64 167.57 L 122.54 86.97 L 106.09 87.82 L 114.72 88.84 L 133.36 94.85 L 57.17 31.30 L 80.94 8.45 L 124.90 65.22 L 122.81 164.39 L 135.83 82.88 L 66.72 94.51 L 52.33 69.34 L 137.24 85.20 L 120.67 9.89 L 135.57 145.82 L 135.75 93.22 L 92.11 168.23 L 97.36 102.50 L 139.69 141.80 L 101.24 108.11 L 89.18 7.77 L 116.82 140.17 L 141.65 27.55 L 55.33 41.85 L 122.89 86.68 L 107.32 84.40 L 137.34 87.95 L 127.24 82.14 L 116.35 64.67 L 116.72 80.51 L 115.82 89.44 L 97.99 152.37 L 119.53 64.20 L 139.11 92.23 L 100.58 4.33 L 56.01 120.33 L 122.69 164.75 L 139.83 99.40 L 114.39 88.36 L 86.73 89.53 L 132.46 153.92 L 137.50 86.47 L 116.78 73.71 L 94.27 105.31 L 56.76 99.95 L 87.78 88.58 L 55.16 44.05 L 78.64 17.65 L 113.57 27.03 L 79.50 171.00 L 100.70 51.77 L 116.50 56.48 L 114.15 71.24 L 77.24 100.25 L 121.26 138.01 L 59.30 69.29 L 133.20 91.95 L 143.95 33.14 L 132.11 85.07 L 72.54 24.08 L 140.05 99.18 L 59.34 98.02 L 61.83 105.89 L 103.30 4.62 L 56.64 33.39 L 66.70 94.43 L 61.32 84.34 L 139.97 56.75 L 104.40 84.82 L 123.96 89.19 L 91.71 153.16 L 133.46 122.74 L 132.45 90.50 L 58.02 112.53 L 109.46 22.53 L 51.96 66.69 L 135.58 149.45 L 111.61 76.23 L 115.10 75.06 L 114.38 30.56 L 67.91 94.12 L 143.53 28.11 L 136.88 88.28 L 65.23 80.76 L 131.33 79.96 L 115.67 47.97 L 117.22 66.94 L 71.75 149.60 L 110.46 88.16 L 140.36 106.78 L 71.76 149.61 L 94.81 154.87 L 127.36 131.51 L 134.75 21.62 L 53.88 76.06 L 122.82 71.20 L 120.08 77.56 L 115.59 46.69 L 139.09 91.17 L 111.88 77.53 L 139.60 80.13 L 95.70 3.62 L 115.05 85.55 L 115.73 46.49 L 54.45 101.59 L 141.13 138.11 L 61.64 106.14 L 60.93 86.85 L 101.32 87.66 L 143.41 31.45 L 74.77 17.92 L 56.23 35.28 L 125.92 85.23 L 56.14 126.61 L 135.10 150.20 L 127.85 86.73 L 132.57 85.92 L 100.69 140.18 L 86.44 7.72 L 70.97 12.65 L 139.68 98.96 L 63.16 41.96 L 62.61 140.08 L 101.08 4.38 L 115.68 44.99 L 109.25 6.12 L 114.15 87.81 L 119.65 87.69 L 84.15 90.42 L 111.43 79.57 L 118.13 69.44 L 52.84 94.88 L 79.40 144.22 L 98.35 86.66 L 135.59 92.39 L 107.26 175.82 L 132.86 82.76 L 133.97 91.16 L 56.04 60.45 L 104.27 86.20 L 111.25 62.67 L 98.40 3.55 L 124.60 91.39 L 59.35 67.20 L 115.12 16.73 L 116.40 64.63 L 123.83 8.29 L 113.21 84.30 L 112.08 172.44 L 103.64 3.39 L 52.36 65.38 L 140.36 102.02 L 140.14 101.88 L 102.98 5.44 L 59.05 135.29 L 55.91 124.66 L 114.98 36.41 L 137.87 95.31 L 112.57 85.87 L 59.09 73.58 L 117.27 139.86 L 99.84 87.69 L 76.54 155.84 L 73.08 11.42 L 78.11 67.09 L 60.39 71.36 L 54.99 49.06 L 116.15 85.08 L 115.62 45.97 L 66.61 15.99 L 70.47 144.69 L 56.65 62.16 L 92.74 164.75 L 57.61 64.11 L 60.01 36.30 L 100.35 85.59 L 80.67 169.97 L 142.39 133.89 L 138.48 89.01 L 142.87 131.73 L 108.07 10.72 L 140.48 101.94 L 55.06 101.16 L 144.94 35.25 L 86.50 138.47 L 144.64 39.14 L 55.12 44.66 L 114.94 66.68 L 87.67 122.93 L 141.25 108.04 L 144.90 34.30 L 131.11 84.43 L 68.13 111.70 L 54.97 48.79 L 125.48 73.60 L 78.70 9.05 L 106.15 94.93 L 72.49 96.16 L 94.70 154.89 L 143.20 116.31 L 97.25 87.77 L 127.71 90.44 L 123.47 74.12 L 116.23 140.54 L 111.15 16.61 L 68.70 33.17 L 102.14 87.16 L 73.27 145.80 L 135.40 64.61 L 125.16 12.39 L 143.17 116.14 L 104.39 15.18 L 53.95 101.48 L 61.73 35.11 L 122.95 75.29 L 58.95 135.09 L 135.91 83.02 L 138.31 113.04 L 140.45 100.07 L 117.90 52.26 L 141.35 53.67 L 91.49 108.00 L 131.49 84.05 L 129.21 80.10 L 84.24 112.63 L 140.32 102.39 L 58.62 98.58 L 115.70 45.55 L 127.63 91.98 L 108.21 82.40 L 104.18 6.18 L 118.79 57.54 L 71.77 145.88 L 143.69 124.59 L 134.64 94.53 L 93.61 132.13 L 113.27 24.37 L 110.53 17.94 L 136.20 119.86 L 108.19 81.35 L 111.08 88.24 L 118.97 9.09 L 54.93 100.81 L 113.81 75.19 L 100.79 87.46 L 98.30 87.71 L 57.17 99.71 L 135.88 82.93 L 122.96 84.39 L 109.70 86.06 L 143.55 119.33 L 131.55 84.00 L 100.36 152.55 L 113.45 87.67 L 121.39 62.95 L 135.40 149.90 L 56.12 60.37 L 132.96 85.54 L 126.36 83.01 L 74.46 33.90 L 137.29 115.60 L 97.43 102.43 L 125.29 87.19 L 115.79 52.74 L 55.63 39.05 L 118.03 85.17 L 54.84 50.50 L 104.93 5.10 L 94.01 180.36 L 72.57 92.58 L 116.48 53.10 L 131.63 154.98 L 72.93 92.47 L 77.96 134.77 L 123.21 66.22 L 140.08 104.74 L 113.63 65.32 L 115.78 48.92 L 57.06 31.78 L 118.91 18.42 L 52.48 102.41 L 54.91 49.07 L 54.82 53.28 L 128.16 130.68 L 109.82 19.36 L 56.90 130.16 L 129.82 85.32 L 59.48 109.50 L 103.40 85.68 L 140.19 56.27 L 117.41 69.76 L 137.65 87.01 L 134.31 82.07 L 106.25 174.81 L 145.08 37.72 L 58.31 98.89 L 57.18 131.06 L 122.82 71.41 L 140.01 95.46 L 102.38 87.10 L 90.35 88.55 L 133.07 17.58 L 115.51 61.23 L 117.74 89.34 L 97.45 87.75 L 74.55 148.27 L 126.95 89.04 L 55.00 46.96 L 79.71 35.86 L 62.17 42.68 L 144.24 43.99 L 121.32 90.09 L 120.99 63.59 L 122.16 75.45 L 136.65 90.35 L 70.15 107.75 L 133.79 89.02 L 128.47 158.95 L 56.65 62.56 L 117.90 85.19 L 118.91 89.78 L 139.06 24.93 L 54.55 54.19 L 114.65 38.74 L 119.17 83.37 L 91.88 43.88 L 122.10 165.05 L 72.81 32.68 L 134.44 94.02 L 126.90 80.22 L 78.00 135.42 L 130.44 90.25 L 112.18 77.47 L 95.06 177.85 L 123.45 91.74 L 68.60 14.32 L 134.77 95.46 L 118.87 58.92 L 53.55 60.31 L 118.45 55.89 L 102.88 175.05 L 85.37 114.93 L 113.16 79.91 L 129.02 73.62 L 131.15 74.67 L 111.85 90.04 L 128.34 81.55 L 96.60 154.01 L 57.50 30.32 L 104.35 84.83 L 60.29 90.17 L 92.21 8.19 L 141.18 138.08 L 94.41 46.00 L 143.69 124.45 L 83.81 127.34 L 136.27 91.70 L 65.04 80.21 L 134.43 121.44 L 97.29 87.82 L 56.87 39.83 L 65.13 94.99 L 112.25 24.18 L 144.62 39.55 L 100.08 4.46 L 85.28 114.76 L 71.54 145.85 L 116.42 80.82 L 117.42 104.05 L 117.64 55.91 L 74.49 163.43 L 100.12 87.66 L 116.30 62.36 L 131.18 89.07 L 120.33 80.18 L 121.71 88.43 L 118.94 59.43 L 139.84 109.15 L 115.25 82.68 L 141.35 26.76 L 105.19 4.41 L 91.89 155.81 L 91.63 8.09 L 86.38 157.05 L 108.44 83.92 L 130.22 84.07 L 115.77 140.93 L 93.72 105.82 L 109.16 12.41 L 114.63 81.63 L 122.17 71.59 L 104.06 6.21 L 60.86 77.24 L 104.58 85.99 L 144.80 33.44 L 119.45 89.72 L 115.86 41.39 L 139.68 109.65 L 115.83 65.11 L 55.39 41.33 L 73.15 151.91 L 129.95 94.10 L 115.44 44.38 L 143.70 27.75 L 116.34 76.25 L 84.52 113.01 L 116.33 69.51 L 95.65 9.19 L 97.25 102.59 L 60.86 138.08 L 137.07 116.09 L 76.85 155.80 L 107.54 19.25 L 98.00 87.23 L 119.13 66.50 L 127.51 89.57 L 128.86 90.77 L 100.25 4.28 L 87.20 147.95 L 126.24 132.92 L 125.96 88.70 L 62.40 96.26 L 136.14 93.27 L 144.26 44.49 L 108.08 175.42 L 60.65 69.66 L 79.38 90.28 L 120.42 73.75 L 113.44 75.63 L 108.41 3.86 L 84.50 25.16 L 131.90 125.13 L 132.89 150.10 L 83.83 7.92 L 88.87 7.75 L 135.01 93.94 L 65.90 33.50 L 140.14 56.36 L 121.88 65.14 L 63.82 141.10 L 116.11 62.68 L 54.65 54.72 L 110.44 106.61 L 120.88 83.67 L 129.73 70.68 L 78.36 92.88 L 58.27 68.89 L 144.01 45.62 L 110.88 144.77 L 96.53 87.71 L 52.56 102.24 L 122.04 86.54 L 74.03 91.65 L 140.32 98.44 L 144.91 38.44 L 97.13 3.81 L 140.41 99.81 L 136.80 116.68 L 138.08 115.42 L 59.30 25.80 L 109.73 86.52 L 93.59 88.21 L 74.23 153.79 L 71.02 85.46 L 140.41 100.14 L 136.92 89.90 L 54.93 51.23 L 115.85 51.76 L 130.42 71.73 L 99.13 3.91 L 123.64 91.88 L 144.62 38.15 L 139.45 78.79 L 122.49 64.11 L 87.88 40.80 L 123.19 76.88 L 116.18 76.24 L 84.61 89.58 L 68.18 14.65 L 119.65 65.31 L 84.95 146.77 L 143.19 115.85 L 71.85 33.43 L 126.92 160.73 L 116.16 65.72 L 82.15 141.18 L 125.24 79.42 L 143.37 30.68 L 128.47 130.35 L 143.23 116.48 L 113.75 79.79 L 111.33 76.33 L 131.49 86.63 L 55.59 58.48 L 95.77 124.44 L 140.59 31.36 L 76.11 94.13 L 54.26 102.19 L 82.91 32.89 L 139.07 89.63 L 124.20 163.32 L 54.08 101.37 L 114.02 70.88 L 118.60 61.89 L 140.33 100.33 L 117.10 85.17 L 80.26 91.12 L 139.89 94.73 L 110.48 88.24 L 119.78 86.33 L 110.06 86.49 L 131.73 86.68 L 139.59 108.00 L 138.86 90.54 L 112.62 171.36 L 72.09 150.10 L 58.49 68.71 L 124.30 90.39 L 53.95 78.23 L 97.72 152.57 L 119.54 64.37 L 72.19 151.50 L 138.00 97.68 L 93.94 87.88 L 108.65 85.35 L 138.74 101.49 L 98.93 3.87 L 115.27 64.36 L 133.90 77.87 L 56.11 35.87 L 124.68 68.96 L 125.77 84.37 L 58.25 133.75 L 80.33 142.86 L 136.90 118.55 L 110.17 91.49 L 62.29 139.80 L 113.88 68.92 L 140.62 101.68 L 144.69 40.77 L 118.35 89.08 L 130.25 156.76 L 137.88 116.47 L 52.51 103.33 L 135.30 64.77 L 113.61 27.11 L 59.44 25.51 L 80.40 169.63 L 111.47 172.02 L 141.08 26.95 L 58.74 69.23 L 127.58 84.88 L 109.88 86.69 L 116.26 5.51 L 63.16 96.08 L 134.46 87.19 L 117.04 89.47 L 128.46 130.37 L 123.55 64.40 L 117.71 56.30 L 140.35 99.98 L 125.51 65.67 L 78.11 136.25 L 114.42 69.46 L 140.32 98.53 L 72.50 151.71 L 145.11 36.14 L 136.63 97.10 L 139.71 96.64 L 123.11 67.66 L 143.65 27.68 L 115.08 39.50 L 116.07 87.95 L 85.18 128.82 L 109.12 85.20 L 143.87 33.54 L 71.51 145.88 L 66.95 143.46 L 63.65 103.66 L 73.46 145.20 L 140.65 106.30 L 52.87 65.56 L 53.03 102.88 L 82.78 118.71 L 82.15 144.95 L 87.92 117.80 L 103.00 86.77 L 104.44 147.97 L 144.61 42.39 L 68.76 144.06 L 131.78 86.69 L 121.22 81.39 L 97.87 87.27 L 116.37 70.18 L 111.46 78.81 L 122.44 69.70 L 140.45 105.90 L 122.30 85.75 L 88.22 7.72 L 119.23 61.70 L 132.32 154.10 L 134.17 92.65 L 120.81 87.97 L 59.79 24.83 L 116.04 169.56 L 64.21 40.42 L 114.18 70.80 L 140.80 103.08 L 141.72 27.35 L 107.21 87.48 L 55.73 41.84 L 77.87 130.70 L 115.19 42.47 L 55.09 45.16 L 129.15 78.21 L 100.69 99.59 L 120.34 89.82 L 101.33 5.92 L 118.00 94.16 L 140.81 55.70 L 106.15 8.34 L 60.23 108.23 L 145.10 35.16 L 143.48 118.50 L 135.66 82.70 L 124.09 16.32 L 121.69 62.19 L 98.72 87.75 L 78.55 138.82 L 138.29 112.73 L 110.06 6.31 L 132.66 84.18 L 139.46 99.21 L 115.26 75.83 L 65.06 142.06 L 132.62 124.04 L 84.38 112.87 L 71.07 154.99 L 117.31 69.81 L 107.33 86.08 L 116.59 76.30 L 117.80 88.40 L 121.00 71.46 L 99.20 152.88 L 65.65 38.96 L 134.92 150.47 L 95.58 104.10 L 137.50 116.60 L 119.79 89.91 L 91.20 88.44 L 144.61 39.83 L 100.13 4.47 L 119.55 59.86 L 140.80 54.95 L 115.48 40.83 L 139.19 91.41 L 122.31 84.18 L 115.19 85.32 L 139.65 91.73 L 143.52 127.24 L 141.91 52.28 L 75.30 97.09 L 138.20 100.29 L 96.84 87.77 L 116.47 73.74 L 124.71 77.29 L 54.85 49.66 L 77.03 9.63 L 132.32 68.91 L 131.33 154.77 L 99.18 100.89 L 123.56 81.61 L 116.87 168.97 L 116.84 78.85 L 108.21 11.23 L 113.50 144.11 L 130.79 88.21 L 59.66 54.44 L 143.98 45.41 L 52.83 57.90 L 138.98 143.45 L 140.14 100.32 L 128.48 90.44 L 130.49 156.67 L 56.37 57.42 L 118.23 16.63 L 118.28 89.12 L 97.03 3.50 L 55.00 49.00 L 89.73 7.82 L 144.25 34.88 L 76.00 146.21 L 116.06 59.44 L 140.72 139.21 L 122.38 71.43 L 80.28 123.50 L 55.02 47.90 L 109.74 172.81 L 144.14 34.22 L 53.00 61.31 L 101.98 137.64 L 71.74 145.63 L 139.84 91.14 L 106.29 84.94 L 117.44 44.16 L 130.65 90.06 L 126.81 160.78 L 128.40 74.47 L 51.92 70.98 L 72.14 96.39 L 54.36 59.85 L 132.51 89.92 L 137.71 91.47 L 55.10 45.83 L 82.45 91.07 L 72.12 145.05 L 139.56 94.66 L 130.10 82.38 L 65.95 16.60 L 75.08 94.60 L 63.80 78.34 L 122.23 70.87 L 115.97 47.18 L 74.20 158.62 L 110.37 14.88 L 118.06 56.71 L 92.47 158.35 L 128.50 130.33 L 70.29 97.67 L 126.00 161.24 L 62.02 96.73 L 144.81 36.20 L 125.75 84.07 L 111.73 27.34 L 134.83 82.15 L 110.26 86.70 L 120.38 80.37 L 78.77 127.92 L 109.20 22.05 L 122.96 67.33 L 120.46 84.77 L 114.06 28.16 L 86.95 89.42 L 116.27 58.72 L 91.84 88.39 L 112.96 23.85 L 133.72 152.15 L 114.22 141.80 L 144.80 34.38 L 121.80 68.98 L 126.27 132.16 L 112.29 76.00 L 55.12 44.79 L 98.33 101.64 L 67.17 100.16 L 100.29 51.37 L 64.85 141.90 L 71.82 149.17 L 135.75 149.18 L 53.83 78.37 L 118.53 66.02 L 140.36 107.10 L 57.55 65.04 L 72.30 163.06 L 87.21 156.88 L 138.80 92.80 L 113.42 24.74 L 119.87 15.74 L 131.59 76.95 L 74.40 33.88 L 79.84 124.59 L 78.98 28.23 L 117.11 68.63 L 98.53 87.64 L 64.72 102.49 L 83.80 101.96 L 115.53 46.36 L 111.65 78.67 L 82.74 156.86 L 63.41 140.73 L 90.38 155.46 L 128.42 81.61 L 79.72 156.83 L 81.60 107.37 L 124.97 77.54 L 132.13 154.35 L 69.48 144.39 L 88.28 88.87 L 79.77 141.91 L 110.30 88.23 L 142.08 135.17 L 60.18 98.15 L 136.62 93.57 L 133.25 67.68 L 63.65 34.34 L 134.63 150.90 L 121.78 88.14 L 135.58 119.21 L 78.54 138.79 L 79.47 141.33 L 57.15 130.97 L 145.07 35.68 L 143.24 30.71 L 95.31 3.79 L 100.75 99.54 L 60.12 90.59 L 53.94 101.89 L 136.62 120.05 L 105.51 85.66 L 114.42 34.94 L 119.64 65.19 L 125.46 82.05 L 118.08 74.25 L 133.63 152.49 L 130.77 93.18 L 138.52 144.26 L 116.33 88.34 L 67.35 104.37 L 137.47 90.14 L 141.80 109.88 L 93.12 155.41 L 57.26 114.53 L 137.67 21.79 L 137.51 97.22 L 76.81 167.21 L 83.87 173.61 L 57.23 64.79 L 119.33 59.69 L 55.86 37.39 L 106.55 5.39 L 129.90 85.70 L 137.09 89.93 L 137.11 89.29 L 95.99 87.93 L 103.42 5.85 L 130.39 156.49 L 136.14 89.79 L 71.18 151.26 L 130.87 156.10" fill="none" stroke="url(#grad)" stroke-width="0.3" stroke-opacity="0.8"/>
</svg>