<?xml version="1.0" encoding="UTF-8"?>
<svg xmlns="http://www.w3.org/2000/svg" width="200" height="200" viewBox="0 0 200 200">
  <defs>
    <linearGradient id="grad" x1="0%" y1="0%" x2="100%" y2="100%">
      <stop offset="0%" style="stop-color:#f59e0b;stop-opacity:1" />
      <stop offset="100%" style="stop-color:#ea580c;stop-opacity:1" />
    </linearGradient>
  </defs>
  <rect width="100%" height="100%" fill="#0a0a0f"/>
  <path d="M 12.10 110.94 L 53.29 148.56 L 83.65 84.24 L 44.44 92.07 L 22.54 149.83 L 27.93 165.63 L 20.17 132.57 L 22.35 148.06 L 41.72 60.29 L 39.86 112.03 L 96.86 108.13 L 96.37 159.04 L 28.16 166.10 L 59.54 100.25 L 29.90 65.88 L 100.15 134.44 L 24.13 150.14 L 46.10 98.92 L 87.05 166.85 L 12.41 116.55 L 26.44 155.77 L 86.43 136.87 L 61.53 76.40 L 12.48 117.08 L 75.58 75.71 L 40.86 95.49 L 92.04 88.26 L 97.91 129.78 L 79.40 141.12 L 85.67 167.40 L 88.53 96.45 L 30.75 167.60 L 71.05 98.32 L 12.11 111.26 L 36.45 145.46 L 14.34 128.65 L 58.03 61.21 L 49.76 104.93 L 67.39 181.58 L 81.17 170.78 L 49.61 87.84 L 12.45 99.70 L 88.38 96.36 L 71.14 98.36 L 100.42 157.86 L 111.34 140.65 L 19.76 144.25 L 77.69 82.83 L 49.21 182.62 L 28.45 167.18 L 62.22 183.32 L 56.47 60.68 L 99.03 104.77 L 78.31 68.48 L 98.03 147.77 L 43.94 109.46 L 29.22 130.03 L 95.84 129.73 L 93.34 100.42 L 96.64 154.89 L 111.12 135.88 L 39.16 178.47 L 14.18 120.26 L 100.79 160.94 L 12.09 110.17 L 33.64 168.70 L 87.42 136.04 L 59.07 61.62 L 20.37 132.61 L 55.24 93.73 L 37.59 116.39 L 12.20 104.42 L 61.43 74.09 L 60.94 147.68 L 12.87 106.63 L 82.30 139.29 L 22.74 149.82 L 46.13 181.93 L 56.12 182.81 L 34.38 135.86 L 100.34 161.74 L 65.02 87.37 L 59.15 69.90 L 82.26 88.84 L 43.68 59.89 L 70.81 86.14 L 99.66 128.74 L 35.77 61.90 L 94.30 155.94 L 21.58 132.91 L 107.74 154.62 L 12.30 115.04 L 55.48 101.83 L 73.04 143.73 L 21.45 146.29 L 12.02 104.51 L 68.25 181.22 L 101.74 122.60 L 53.29 183.23 L 96.22 104.00 L 94.52 106.24 L 22.78 145.48 L 20.66 124.75 L 27.42 163.29 L 88.63 134.18 L 27.01 163.26 L 27.88 136.88 L 63.10 182.69 L 36.72 176.53 L 54.67 84.12 L 22.93 158.21 L 63.66 58.73 L 96.08 156.85 L 12.35 111.53 L 26.86 136.99 L 109.89 150.91 L 90.95 98.23 L 36.34 100.81 L 59.88 61.95 L 77.33 173.71 L 99.94 149.97 L 95.51 129.42 L 24.71 147.39 L 99.03 104.68 L 70.59 86.27 L 95.74 97.14 L 90.53 133.98 L 30.42 65.50 L 74.42 177.25 L 55.39 66.37 L 53.48 84.96 L 41.48 144.00 L 38.72 113.10 L 35.81 101.50 L 98.58 132.46 L 100.32 111.34 L 98.80 128.10 L 77.73 98.87 L 92.19 131.86 L 85.05 76.11 L 34.88 120.32 L 13.89 125.21 L 77.00 84.21 L 35.08 144.84 L 96.40 129.67 L 99.24 131.07 L 24.51 158.17 L 99.79 129.22 L 39.32 97.36 L 98.37 107.80 L 61.20 99.75 L 12.03 103.96 L 34.47 120.20 L 17.44 138.37 L 48.05 148.37 L 52.46 145.21 L 100.69 123.89 L 98.42 107.92 L 85.79 168.44 L 12.40 112.79 L 58.81 80.79 L 14.20 127.88 L 61.32 77.26 L 101.19 161.45 L 84.20 73.37 L 60.93 78.10 L 28.43 166.77 L 41.77 100.42 L 84.88 169.44 L 25.21 159.71 L 29.96 167.21 L 100.44 113.05 L 46.43 107.35 L 20.21 145.22 L 90.83 161.83 L 46.64 140.44 L 12.02 105.66 L 81.53 139.34 L 70.81 69.70 L 63.15 99.27 L 96.10 129.44 L 13.59 118.32 L 99.36 128.36 L 64.11 58.90 L 58.38 183.88 L 42.84 180.68 L 22.54 127.05 L 102.02 159.03 L 96.79 160.08 L 12.06 108.26 L 64.83 182.54 L 46.85 57.86 L 12.01 104.35 L 56.98 89.92 L 100.64 113.68 L 42.34 180.35 L 61.53 74.89 L 30.77 167.65 L 96.86 150.40 L 70.09 180.22 L 37.44 99.48 L 99.53 128.64 L 97.60 98.81 L 30.97 170.48 L 25.59 160.78 L 81.26 139.62 L 61.06 77.62 L 61.44 74.10 L 80.52 139.75 L 40.41 146.07 L 25.02 154.90 L 60.01 79.55 L 58.30 61.16 L 70.30 180.15 L 61.52 74.79 L 38.71 60.50 L 29.57 168.63 L 54.46 183.58 L 25.79 161.61 L 12.46 112.55 L 49.55 142.86 L 66.88 91.03 L 103.42 129.06 L 39.65 178.80 L 22.92 72.49 L 92.92 131.35 L 64.04 182.79 L 12.60 118.36 L 23.15 129.17 L 42.02 101.91 L 63.68 63.95 L 33.42 172.95 L 33.99 121.79 L 24.77 161.65 L 12.13 109.48 L 103.78 154.23 L 90.95 132.67 L 12.10 104.68 L 33.27 171.34 L 35.24 103.20 L 85.50 87.74 L 12.56 113.74 L 91.73 133.12 L 98.96 129.68 L 70.85 98.32 L 39.93 179.06 L 100.09 134.11 L 33.54 63.52 L 99.42 134.24 L 103.64 158.71 L 41.98 147.40 L 102.95 158.95 L 54.18 182.88 L 54.11 142.14 L 95.52 103.00 L 69.58 68.42 L 22.31 145.93 L 99.91 136.36 L 12.39 101.02 L 44.13 144.04 L 21.23 125.17 L 31.97 64.46 L 99.49 128.57 L 83.97 170.34 L 28.66 164.29 L 94.06 101.03 L 111.29 141.97 L 60.00 100.12 L 99.33 109.99 L 75.45 85.11 L 99.15 128.13 L 63.00 182.76 L 42.28 180.09 L 99.22 134.90 L 44.32 92.24 L 58.34 183.35 L 23.27 72.08 L 33.14 106.31 L 98.18 129.60 L 60.92 99.83 L 99.84 129.29 L 61.39 182.86 L 45.50 143.96 L 87.32 85.89 L 32.18 171.73 L 83.91 80.19 L 12.54 113.63 L 18.04 79.71 L 31.39 170.77 L 87.20 135.49 L 37.83 103.85 L 16.34 125.74 L 28.42 167.18 L 102.88 123.94 L 103.42 158.80 L 13.17 122.74 L 16.86 126.92 L 51.44 95.56 L 25.19 121.39 L 48.32 59.50 L 60.80 147.67 L 95.97 97.67 L 12.97 107.22 L 100.54 131.09 L 74.12 63.68 L 110.68 133.16 L 56.18 82.96 L 46.37 98.73 L 30.50 168.26 L 57.28 101.06 L 99.91 133.45 L 14.30 128.49 L 12.75 105.87 L 90.17 87.90 L 12.11 111.07 L 12.12 111.55 L 111.30 138.21 L 55.07 182.81 L 67.00 66.26 L 15.13 130.21 L 90.41 133.17 L 99.83 136.93 L 64.02 99.01 L 39.97 179.08 L 98.21 101.08 L 31.03 168.62 L 94.45 101.48 L 22.95 152.16 L 82.30 72.60 L 48.14 182.43 L 40.24 96.13 L 31.55 170.17 L 12.13 112.11 L 110.94 135.31 L 77.69 81.72 L 94.35 131.69 L 97.36 105.87 L 67.02 181.58 L 34.78 120.48 L 37.22 99.70 L 14.50 128.93 L 13.57 91.93 L 12.12 111.66 L 106.68 120.54 L 26.50 145.13 L 73.28 177.89 L 100.78 116.44 L 25.93 140.60 L 85.38 168.86 L 73.82 63.14 L 61.10 77.76 L 28.37 159.38 L 33.11 171.45 L 28.50 167.13 L 71.57 98.32 L 27.47 67.82 L 26.31 118.73 L 102.96 158.95 L 88.17 134.52 L 33.91 169.94 L 110.95 134.59 L 97.00 105.21 L 35.52 175.43 L 95.27 129.58 L 93.14 158.06 L 12.81 120.18 L 91.39 89.45 L 43.83 144.04 L 13.08 121.81 L 25.11 155.82 L 34.58 102.94 L 66.91 181.88 L 101.86 125.09 L 29.81 141.83 L 57.49 81.98 L 12.08 109.44 L 50.52 96.15 L 49.27 141.38 L 36.71 144.66 L 23.28 157.63 L 26.06 162.60 L 49.60 104.49 L 88.70 164.86 L 60.62 99.93 L 74.93 85.28 L 34.63 136.20 L 84.07 87.93 L 26.75 142.97 L 75.08 65.13 L 101.83 118.14 L 101.55 116.98 L 52.27 64.53 L 14.12 120.11 L 62.90 182.80 L 53.48 182.83 L 14.64 120.55 L 35.41 62.54 L 67.83 66.93 L 78.58 175.25 L 14.39 128.88 L 88.46 165.11 L 22.21 140.69 L 77.75 82.91 L 111.25 142.58 L 44.98 62.38 L 27.77 115.19 L 34.55 62.44 L 95.91 103.55 L 96.07 131.14 L 43.68 92.82 L 111.33 140.72 L 67.61 181.49 L 12.20 102.90 L 12.20 103.01 L 49.09 145.46 L 101.92 128.27 L 34.05 174.04 L 82.79 138.69 L 74.49 177.78 L 71.99 179.37 L 95.94 103.48 L 34.18 121.45 L 44.83 108.67 L 40.65 96.60 L 24.09 137.02 L 30.32 167.81 L 76.23 88.50 L 12.05 104.26 L 96.55 104.51 L 77.46 83.12 L 23.45 153.63 L 31.58 171.04 L 22.78 157.93 L 100.80 127.61 L 101.89 130.43 L 12.24 103.66 L 27.32 139.40 L 98.62 144.51 L 36.57 137.10 L 35.80 62.36 L 57.95 81.52 L 97.06 129.58 L 100.09 149.52 L 22.94 150.52 L 88.64 164.87 L 12.30 100.62 L 77.72 67.19 L 13.94 126.87 L 34.40 121.10 L 55.78 60.49 L 27.65 158.31 L 36.59 61.29 L 27.06 164.25 L 59.84 79.78 L 23.53 157.50 L 54.50 102.28 L 40.76 96.47 L 99.03 143.33 L 85.76 78.26 L 25.42 160.71 L 82.60 140.61 L 95.98 103.62 L 33.70 171.04 L 25.06 122.46 L 70.85 69.74 L 100.26 148.18 L 32.71 171.37 L 67.13 91.01 L 24.73 123.57 L 93.65 100.75 L 100.38 157.79 L 24.17 159.75 L 76.53 77.53 L 81.54 85.78 L 34.81 62.84 L 24.40 145.93 L 60.44 183.76 L 36.99 61.83 L 18.16 140.61 L 101.83 118.17 L 35.20 142.53 L 27.92 136.29 L 96.19 156.37 L 83.89 137.61 L 27.02 165.00 L 99.68 139.52 L 30.50 124.06 L 99.52 110.47 L 25.34 161.49 L 95.32 129.09 L 97.02 159.23 L 27.13 162.54 L 57.95 100.83 L 95.23 102.62 L 74.00 144.69 L 33.75 170.95 L 110.51 147.62 L 107.51 154.97 L 62.54 99.38 L 97.37 101.15 L 29.85 169.04 L 77.15 176.19 L 34.74 102.73 L 12.72 114.42 L 69.28 87.80 L 27.74 165.36 L 18.92 122.33 L 99.09 131.31 L 56.86 82.49 L 108.26 153.70 L 77.80 81.85 L 45.50 108.11 L 66.78 66.09 L 70.15 98.34 L 59.35 80.21 L 14.30 120.44 L 90.18 162.59 L 96.88 150.24 L 96.21 154.33 L 94.03 156.40 L 55.08 93.84 L 61.15 183.58 L 23.09 129.49 L 78.65 174.42 L 58.80 80.85 L 76.54 77.69 L 64.04 64.14 L 62.13 99.48 L 27.47 165.90 L 68.52 86.57 L 76.30 176.48 L 56.50 184.08 L 77.45 176.22 L 89.78 84.96 L 61.62 182.81 L 37.70 177.32 L 78.22 141.59 L 12.30 111.56 L 99.34 136.90 L 71.26 98.33 L 21.68 74.05 L 44.95 58.12 L 48.97 59.45 L 12.11 105.95 L 88.50 134.57 L 77.67 80.63 L 63.09 99.25 L 12.10 109.31 L 101.71 117.62 L 30.73 168.65 L 36.96 140.63 L 36.08 116.12 L 106.67 156.62 L 97.29 158.30 L 62.50 182.51 L 56.31 183.58 L 99.59 128.75 L 58.77 81.19 L 72.89 179.07 L 27.94 165.65 L 51.30 103.98 L 12.51 100.06 L 44.00 97.72 L 23.69 152.66 L 104.13 158.47 L 34.51 118.09 L 60.91 183.64 L 15.78 124.63 L 45.33 181.85 L 13.51 92.15 L 47.70 89.32 L 59.64 79.86 L 97.98 102.90 L 94.23 130.30 L 45.48 59.65 L 52.00 59.65 L 12.14 102.97 L 60.63 62.31 L 21.70 134.44 L 98.91 128.08 L 52.44 103.37 L 48.03 59.50 L 75.07 143.10 L 93.69 100.77 L 25.19 156.72 L 100.31 111.63 L 52.38 183.75 L 28.12 132.32 L 62.83 99.33 L 12.11 102.55 L 100.61 127.49 L 71.64 98.32 L 52.71 85.53 L 105.06 155.83 L 18.33 140.63 L 23.43 158.76 L 27.57 165.47 L 100.94 158.56 L 100.21 112.36 L 99.16 142.98 L 101.17 140.81 L 100.10 134.90 L 22.46 133.38 L 86.36 95.15 L 73.05 178.58 L 100.69 115.69 L 54.14 84.48 L 98.93 104.12 L 47.47 89.57 L 62.20 182.83 L 98.06 161.08 L 86.51 135.98 L 16.05 117.02 L 55.13 143.35 L 69.69 145.44 L 26.29 162.95 L 78.01 175.79 L 82.52 171.28 L 35.22 175.18 L 77.69 81.97 L 22.39 155.70 L 79.11 141.36 L 75.48 177.28 L 40.05 97.26 L 12.51 104.20 L 24.73 160.57 L 57.21 93.02 L 13.48 117.89 L 61.92 99.56 L 99.42 110.23 L 61.79 99.60 L 41.65 111.67 L 97.25 97.45 L 87.21 95.63 L 78.39 175.40 L 41.16 143.91 L 83.64 84.75 L 59.78 183.88 L 13.83 124.89 L 26.66 161.31 L 12.63 97.23 L 75.03 91.33 L 59.08 80.47 L 24.58 149.49 L 37.37 104.58 L 97.71 102.09 L 97.30 99.31 L 108.66 125.70 L 35.93 108.89 L 29.08 132.65 L 58.03 61.21 L 35.00 103.54 L 73.82 176.11 L 30.31 126.63 L 12.76 119.67 L 66.55 90.99 L 24.34 151.68 L 33.47 104.52 L 27.40 164.73 L 44.73 181.47 L 40.81 179.60 L 85.59 77.02 L 97.83 128.26 L 89.06 134.48 L 12.14 109.96 L 13.99 90.35 L 26.70 119.35 L 77.74 81.06 L 46.38 90.39 L 28.16 166.96 L 69.56 180.29 L 26.94 157.49 L 85.30 136.64 L 70.37 88.02 L 27.63 166.18 L 61.52 182.23 L 69.25 180.42 L 84.15 138.16 L 23.11 150.53 L 43.81 147.76 L 76.12 174.61 L 15.42 132.68 L 82.68 171.20 L 83.74 170.62 L 13.19 121.52 L 12.69 105.46 L 70.44 69.32 L 32.35 165.85 L 87.63 85.91 L 77.16 176.43 L 33.45 104.81 L 64.22 146.87 L 49.34 88.03 L 32.01 171.13 L 13.76 117.72 L 33.86 173.75 L 28.57 159.66 L 24.75 153.54 L 29.90 65.87 L 98.46 100.46 L 98.01 128.95 L 101.72 161.19 L 30.95 168.46 L 60.28 183.80 L 43.48 109.85 L 73.78 143.73 L 76.97 176.44 L 76.58 174.25 L 61.92 182.88 L 90.78 98.09 L 33.66 141.94 L 12.08 106.53 L 63.86 91.39 L 110.83 146.03 L 94.37 94.30 L 87.70 95.89 L 13.69 110.37 L 73.39 178.57 L 20.89 133.42 L 94.08 131.09 L 52.46 182.90 L 99.22 128.84 L 98.76 108.66 L 22.65 146.42 L 102.84 160.22 L 39.43 146.63 L 26.28 150.10 L 40.24 113.18 L 31.32 170.51 L 98.86 128.09 L 66.10 181.68 L 78.41 175.39 L 12.70 105.53 L 12.02 104.22 L 71.48 98.32 L 37.58 177.29 L 53.77 144.83 L 76.76 91.31 L 16.89 137.22 L 46.28 143.88 L 79.94 140.38 L 103.74 158.67 L 30.70 126.42 L 38.87 113.02 L 61.14 91.93 L 87.46 76.85 L 47.21 58.13 L 100.21 161.77 L 99.60 138.59 L 13.31 117.24 L 33.52 122.57 L 38.93 60.41 L 30.89 170.47 L 99.73 138.69 L 30.21 169.39 L 21.71 74.01 L 61.53 74.78 L 48.58 105.71 L 71.38 177.64 L 12.16 112.73 L 100.96 122.86 L 100.12 137.65 L 13.75 117.68 L 16.25 126.02 L 100.98 114.81 L 44.48 181.51 L 24.86 133.92 L 48.31 143.43 L 55.43 143.79 L 71.80 144.38 L 30.31 169.77 L 30.77 169.74 L 38.64 145.71 L 92.35 132.36 L 89.73 87.32 L 41.72 180.12 L 94.98 102.28 L 42.31 110.79 L 99.81 155.67 L 29.23 168.44 L 92.20 99.29 L 99.71 108.93 L 81.19 75.85 L 51.55 144.79 L 70.56 98.36 L 61.04 182.31 L 49.98 142.39 L 92.14 131.86 L 98.97 143.66 L 71.46 179.65 L 99.72 135.62 L 57.89 81.63 L 69.10 61.97 L 24.65 70.65 L 12.43 100.04 L 99.70 135.04 L 32.35 121.09 L 101.47 137.80 L 75.55 177.06 L 22.22 138.66 L 22.80 127.33 L 81.31 173.04 L 49.97 142.40 L 51.15 104.07 L 81.79 172.44 L 13.85 110.95 L 33.25 173.13 L 31.69 64.64 L 40.05 113.40 L 64.33 99.03 L 70.30 98.35 L 76.72 77.09 L 80.10 70.23 L 12.08 104.21 L 30.30 129.28 L 12.04 109.34 L 99.47 139.69 L 23.93 71.32 L 30.97 169.46 L 110.81 133.62 L 27.82 165.55 L 61.46 74.21 L 96.16 153.96 L 28.67 112.79 L 18.06 80.14 L 97.67 159.20 L 51.18 104.07 L 55.50 101.82 L 93.86 89.93 L 22.41 156.81 L 84.16 76.36 L 23.86 156.03 L 12.47 103.79 L 61.59 75.08 L 77.59 82.69 L 66.17 59.58 L 50.53 148.54 L 36.26 100.91 L 99.15 133.91 L 100.84 114.36 L 27.98 136.49 L 13.92 126.87 L 66.36 87.33 L 27.55 166.05 L 99.75 138.73 L 25.03 152.93 L 82.10 72.37 L 70.13 98.34 L 19.50 143.72 L 12.07 109.33 L 43.31 58.93 L 37.26 61.72 L 85.39 167.52 L 24.51 124.32 L 25.95 155.19 L 88.84 134.35 L 103.49 145.19 L 61.56 74.75 L 15.19 131.95 L 51.83 86.20 L 99.74 154.34 L 13.71 125.37 L 56.62 101.35 L 64.28 99.03 L 30.33 129.28 L 29.67 141.74 L 21.96 139.67 L 59.41 58.54 L 33.25 104.86 L 86.67 135.84 L 74.43 144.54 L 78.42 175.39 L 49.82 182.57 L 33.83 170.82 L 12.03 108.77 L 77.45 176.09 L 54.81 60.24 L 19.76 123.20 L 57.61 82.25 L 54.71 144.01 L 20.15 145.02 L 21.93 141.21 L 78.51 91.72 L 90.91 132.80 L 30.36 162.46 L 66.51 182.00 L 75.16 143.26 L 38.00 115.87 L 46.75 90.08 L 27.15 164.25 L 90.14 133.37 L 23.01 150.55 L 110.84 145.98 L 99.76 153.48 L 81.97 81.94 L 12.16 112.83 L 32.05 171.65 L 98.82 103.72 L 36.69 100.18 L 38.97 61.09 L 17.95 127.80 L 85.80 136.33 L 42.28 144.01 L 77.26 91.70 L 50.03 142.07 L 13.13 116.43 L 62.11 99.49 L 89.09 102.79 L 33.65 168.56 L 35.20 175.10 L 51.55 59.67 L 61.51 76.04 L 111.30 141.81 L 14.21 128.07 L 85.68 94.76 L 33.73 104.40 L 22.55 147.08 L 49.88 141.83 L 96.45 98.81 L 96.76 128.69 L 49.06 141.27 L 24.07 154.45 L 55.06 143.68 L 64.89 98.92 L 53.53 57.80 L 103.50 152.41 L 111.31 138.57 L 50.00 141.99 L 13.04 115.80 L 24.60 153.79 L 46.25 91.21 L 83.76 170.62 L 36.96 61.85 L 21.64 74.11 L 98.58 145.20 L 21.20 132.45 L 78.38 175.40 L 66.58 91.06 L 30.62 167.53 L 25.35 154.34 L 99.85 151.88 L 84.78 75.83 L 60.36 79.32 L 13.84 126.34 L 29.47 131.55 L 111.14 136.14 L 50.04 142.16 L 32.10 171.05 L 97.21 129.28 L 12.79 115.05 L 29.76 137.85 L 50.45 145.14 L 32.36 171.28 L 12.04 104.50 L 24.20 71.02 L 77.54 141.64 L 45.94 143.98 L 29.50 168.80 L 99.50 139.83 L 87.10 136.19 L 61.61 75.65 L 82.53 88.40 L 82.18 138.72 L 62.98 181.92 L 97.38 97.99 L 103.50 145.38 L 45.60 59.64 L 12.17 110.32 L 58.74 80.81 L 44.02 147.78 L 44.43 92.16 L 14.51 129.39 L 50.63 87.08 L 32.01 170.91 L 47.64 106.43 L 76.85 142.54 L 79.70 92.37 L 76.96 84.15 L 93.91 130.54 L 29.69 169.05 L 13.17 121.41 L 80.43 74.93 L 25.76 68.22 L 69.93 90.92 L 50.01 142.00 L 77.69 175.83 L 101.13 141.17 L 99.51 108.05 L 99.36 132.08 L 91.67 98.82 L 97.30 128.45 L 44.62 100.15 L 61.45 74.17 L 55.09 183.39 L 95.97 129.79 L 12.44 99.84 L 100.06 111.91 L 64.62 146.91 L 18.39 129.57 L 69.66 145.98 L 86.60 138.17 L 30.68 170.16 L 91.97 134.61 L 41.96 100.74 L 67.42 181.57 L 22.97 135.77 L 97.82 160.89 L 81.17 173.15 L 100.20 112.34 L 70.60 98.33 L 57.62 184.08 L 99.07 133.08 L 94.99 132.76 L 70.90 179.12 L 49.54 140.66 L 22.93 157.27 L 21.88 134.52 L 71.11 98.32 L 18.46 129.97 L 33.92 170.25 L 99.41 134.92 L 31.41 134.41 L 53.34 182.83 L 25.12 159.92 L 25.69 161.37 L 12.11 106.42 L 62.47 182.64 L 72.72 145.17 L 12.26 101.58 L 105.88 157.05 L 110.82 133.70 L 35.19 102.12 L 85.65 136.37 L 48.75 105.59 L 12.07 103.26 L 47.79 140.79 L 100.97 158.56 L 85.52 94.69 L 78.23 142.91 L 27.87 165.59 L 50.09 142.39 L 23.05 130.94 L 22.93 147.44 L 15.54 131.66 L 99.74 154.06 L 81.41 172.21 L 72.19 179.30 L 101.73 117.72 L 87.11 166.86 L 54.86 83.98 L 38.07 61.40 L 27.33 125.05 L 58.91 100.49 L 24.91 157.08 L 24.96 160.92 L 43.36 109.79 L 98.19 128.17 L 22.59 157.18 L 52.81 183.24 L 75.45 88.46 L 28.60 127.49 L 26.51 163.77 L 96.66 129.61 L 24.86 149.55 L 52.74 103.20 L 44.78 108.72 L 21.47 134.13 L 25.19 145.15 L 30.86 169.76 L 99.37 134.12 L 84.10 168.39 L 99.90 129.57 L 13.43 123.91 L 99.52 140.69 L 59.48 70.19 L 28.38 134.99 L 14.33 128.59 L 50.06 142.20 L 63.83 58.75 L 93.97 101.08 L 43.62 109.61 L 94.11 106.00 L 78.29 175.55 L 101.44 158.88 L 58.37 81.58 L 61.50 76.25 L 31.42 171.14 L 61.30 77.14 L 61.35 77.07 L 30.89 168.98 L 93.42 131.42 L 94.72 130.09 L 95.40 96.39 L 59.20 80.42 L 12.00 106.33 L 86.10 136.85 L 60.38 62.19 L 34.55 174.52 L 86.11 136.90 L 23.58 152.09 L 99.92 132.41 L 99.01 109.24 L 55.10 93.82 L 12.14 105.73 L 61.49 75.08 L 66.04 98.70 L 111.01 134.98 L 86.63 95.30 L 13.60 125.23 L 26.98 157.33 L 51.34 103.93 L 94.65 90.24 L 64.94 91.17 L 60.27 79.06 L 69.16 68.05 L 61.65 58.23 L 29.24 66.30 L 68.71 98.41 L 71.62 177.50 L 95.10 95.56 L 78.53 174.28 L 75.44 75.65 L 25.30 157.38 L 61.43 74.09 L 47.25 182.27 L 103.73 153.80 L 98.19 99.90 L 57.56 100.95 L 101.02 158.59 L 65.46 65.12 L 27.70 160.88 L 78.00 68.09 L 72.61 179.05 L 103.39 158.81 L 97.01 149.99 L 21.29 133.79 L 52.18 59.75 L 51.69 182.88 L 15.36 132.38 L 101.62 136.05 L 88.73 96.57 L 13.49 123.21 L 90.98 132.92 L 61.50 76.25 L 97.00 105.24 L 100.75 119.15 L 75.61 85.56 L 81.99 172.01 L 30.81 169.78 L 52.91 141.48 L 99.52 141.18 L 94.30 155.92 L 86.55 86.35 L 105.63 157.30 L 25.88 161.43 L 101.04 115.04 L 53.18 59.91 L 12.09 104.06 L 68.42 98.48 L 83.36 93.67 L 56.24 182.82 L 70.39 98.33 L 50.87 95.94 L 75.91 98.64 L 90.43 133.86 L 12.12 104.98 L 84.55 75.48 L 12.27 100.87 L 83.66 83.94 L 98.67 144.83 L 23.97 128.56 L 28.69 167.58 L 97.51 131.35 L 13.30 123.61 L 24.30 159.94 L 26.17 159.84 L 98.17 130.20 L 42.55 139.05 L 92.14 131.87 L 24.98 148.54 L 58.62 92.24 L 87.41 135.21 L 101.33 116.08 L 26.30 155.75 L 99.36 137.28 L 63.81 59.77 L 97.34 99.27 L 97.73 99.24 L 98.55 128.12 L 44.63 59.75 L 13.59 125.10 L 85.85 167.37 L 62.76 63.41 L 98.14 131.84 L 34.61 119.98 L 40.13 112.97 L 21.31 147.13 L 52.98 141.51 L 76.54 174.30 L 13.59 125.20 L 101.42 161.32 L 100.52 158.02 L 71.72 98.32 L 30.10 166.97 L 18.64 79.50 L 65.78 181.62 L 93.93 130.68 L 12.12 106.52 L 96.62 104.60 L 42.91 60.03 L 82.56 140.63 L 12.20 103.47 L 61.25 182.27 L 43.62 180.71 L 59.67 80.21 L 54.33 142.51 L 25.76 69.40 L 50.18 95.93 L 64.06 146.95 L 26.51 68.84 L 81.08 76.11 L 38.55 115.18 L 26.30 160.25 L 36.46 176.33 L 34.60 103.14 L 98.43 101.99 L 12.15 104.35 L 96.47 152.84 L 28.99 112.16 L 15.78 123.44 L 49.73 141.66 L 61.20 99.63 L 39.53 60.90 L 26.67 163.54 L 27.47 164.87 L 25.12 159.93 L 18.53 141.49 L 13.07 116.23 L 13.19 108.28 L 105.49 155.94 L 94.00 101.11 L 23.88 71.37 L 29.39 165.68 L 93.76 100.85 L 89.86 79.73 L 25.46 131.04 L 70.42 62.78 L 58.37 184.02 L 52.07 93.54 L 73.12 91.09 L 25.70 159.83 L 108.62 153.00 L 22.22 142.83 L 49.86 141.80 L 82.96 170.56 L 52.29 57.77 L 24.26 127.60 L 101.72 117.69 L 24.54 137.65 L 44.41 92.19 L 12.36 100.15 L 38.91 178.25 L 59.18 80.47 L 92.38 99.45 L 12.93 115.53 L 85.03 136.86 L 49.83 141.74 L 99.31 134.43 L 77.53 80.38 L 22.87 158.12 L 100.35 132.61 L 82.26 72.55 L 63.21 99.25 L 96.76 104.85 L 61.46 99.66 L 98.15 128.18 L 91.38 132.39 L 101.32 116.07 L 81.04 76.31 L 26.74 143.08 L 97.83 128.26 L 97.48 148.49 L 64.14 99.02 L 93.96 101.06 L 25.43 157.50 L 85.27 76.94 L 46.02 99.08 L 42.56 110.58 L 64.10 182.43 L 57.10 82.27 L 12.32 100.46 L 90.48 97.60 L 26.50 161.57 L 54.75 184.00 L 43.00 101.41 L 51.26 148.57 L 62.96 99.30 L 22.24 152.68 L 40.45 179.38 L 12.27 103.10 L 63.24 183.20 L 99.59 136.12 L 96.60 157.12 L 74.69 98.52 L 19.25 131.11 L 46.57 90.93 L 51.82 64.35 L 56.44 184.08 L 25.28 160.03 L 102.03 159.03 L 85.52 136.47 L 24.19 150.67 L 28.57 166.87 L 97.67 146.13 L 100.19 111.07 L 44.61 139.87 L 101.40 118.68 L 30.38 169.07 L 76.22 176.22 L 82.57 72.86 L 54.21 102.41 L 81.47 71.62 L 89.66 133.43 L 97.85 128.25 L 42.57 93.90 L 55.65 83.41 L 28.03 166.80 L 100.07 110.51 L 61.72 99.62 L 16.54 136.22 L 61.45 74.14 L 27.19 68.07 L 99.84 129.36 L 33.39 171.30 L 23.85 150.71 L 89.51 133.83 L 99.18 130.23 L 47.74 182.20 L 34.08 121.60 L 21.79 73.90 L 57.95 81.59 L 83.70 170.61 L 55.72 66.59 L 25.50 161.74 L 101.70 117.58 L 46.91 106.92 L 43.94 181.05 L 39.64 141.03 L 94.43 155.70 L 17.95 128.91 L 85.34 137.40 L 40.85 112.23 L 45.33 99.60 L 20.67 146.13 L 64.81 182.12 L 69.44 145.31 L 43.30 93.90 L 99.56 141.16 L 12.12 102.11 L 55.14 183.30 L 93.53 90.26 L 70.61 62.87 L 77.92 68.17 L 94.73 154.87 L 61.53 74.83 L 61.79 99.58 L 96.78 104.84 L 85.23 136.71 L 22.03 138.40 L 48.55 146.19 L 100.13 149.17 L 97.08 156.03 L 26.00 69.16 L 83.47 140.14 L 101.34 116.12 L 57.92 184.02 L 43.41 59.93 L 21.41 125.73 L 20.12 132.18 L 61.59 75.07 L 45.67 90.99 L 63.81 182.37 L 73.31 72.57 L 97.25 149.06 L 12.49 112.55 L 15.03 121.60 L 26.19 160.95 L 99.22 109.73 L 92.12 90.16 L 52.70 64.75 L 74.82 142.90 L 24.82 159.24 L 99.86 156.06 L 21.97 139.40 L 12.25 97.58 L 20.88 146.59 L 61.43 74.08 L 42.62 93.83 L 33.81 173.80 L 22.38 155.58 L 42.46 60.12 L 69.81 98.38 L 93.99 130.75 L 90.08 133.33 L 25.26 157.05 L 101.74 134.27 L 33.10 123.38 L 89.89 134.11 L 53.00 57.79 L 55.41 143.16 L 12.12 109.38 L 83.32 93.68 L 101.34 139.28 L 17.43 128.00 L 85.31 136.64 L 49.07 143.15 L 84.97 169.34 L 94.53 92.81 L 15.20 115.01 L 23.38 153.26 L 100.31 157.69 L 12.48 113.26 L 101.38 158.83 L 99.42 107.77 L 43.77 100.39 L 98.86 108.90 L 78.21 91.90 L 23.21 158.50 L 24.30 125.13 L 46.33 145.82 L 26.13 138.94 L 46.09 182.15 L 53.56 85.43 L 50.03 142.21 L 101.53 116.89 L 64.80 59.12 L 12.51 117.74 L 24.92 148.06 L 22.28 154.15 L 28.24 167.04 L 101.26 158.77 L 97.45 128.39 L 102.00 159.02 L 85.07 136.80 L 64.65 98.98 L 28.08 162.57 L 90.70 132.97 L 24.14 128.14 L 93.86 100.97 L 97.97 129.46 L 56.01 83.09 L 99.99 150.46 L 35.69 107.64 L 101.20 158.74 L 49.41 105.18 L 108.96 152.27 L 14.42 128.99 L 12.16 106.24 L 65.49 98.78 L 42.64 101.71 L 12.09 108.25 L 32.96 63.54 L 26.73 143.11 L 61.14 183.59 L 34.09 108.86 L 64.87 146.69 L 74.55 177.87 L 74.67 74.44 L 33.51 168.34 L 29.71 111.25 L 96.57 151.06 L 99.82 129.30 L 50.19 104.70 L 29.75 168.08 L 101.81 123.87 L 96.47 104.36 L 62.61 99.37 L 60.41 78.98 L 78.34 175.16 L 12.66 105.26 L 92.34 131.72 L 96.21 130.07 L 100.14 157.26 L 99.65 137.36 L 78.51 92.04 L 31.14 65.00 L 78.38 172.93 L 16.91 135.81 L 58.36 81.21 L 91.17 161.29 L 97.72 102.12 L 86.95 86.00 L 40.48 112.92 L 31.19 170.47 L 81.13 71.29 L 56.74 148.36 L 104.01 158.53 L 100.04 156.90 L 24.54 151.49 L 15.22 131.62 L 63.27 182.72 L 12.05 105.30 L 55.84 57.32 L 12.24 101.15 L 45.99 57.88 L 49.59 59.51 L 67.89 98.48 L 13.99 119.73 L 64.73 98.96 L 60.66 183.37 L 91.90 99.03 L 99.56 135.79 L 71.13 90.90 L 48.25 182.45 L 12.21 102.60 L 92.22 132.90 L 24.07 151.22 L 33.80 104.29 L 95.20 102.55 L 42.48 110.65 L 71.25 145.61 L 31.09 134.24 L 99.79 152.84 L 27.11 157.47 L 59.17 100.39 L 76.34 142.35 L 27.07 140.10 L 67.31 181.61 L 45.14 181.49 L 83.32 76.36 L 28.50 167.10 L 21.72 134.73 L 28.19 159.10 L 59.93 79.62 L 61.27 77.27 L 56.18 82.99 L 25.67 161.98 L 39.77 60.83 L 27.96 165.76 L 99.87 131.80 L 99.71 137.02 L 45.62 143.95 L 101.69 161.21 L 22.68 157.51 L 93.99 93.62 L 47.86 106.27 L 60.82 72.42 L 38.07 62.52 L 58.42 81.10 L 15.76 133.43 L 12.09 110.25 L 12.08 108.02 L 99.45 105.78 L 99.88 108.24 L 26.30 162.96 L 97.81 106.68 L 30.94 170.39 L 64.56 91.19 L 23.31 152.92 L 102.10 159.03 L 25.81 162.20 L 41.60 147.22 L 50.09 183.34 L 76.80 78.10 L 101.67 135.34 L 43.29 110.06 L 46.57 143.89 L 69.61 180.59 L 29.68 168.66 L 29.28 168.51 L 58.84 80.78 L 49.31 143.04 L 26.19 68.98 L 12.16 112.74 L 27.88 67.47 L 58.12 100.55 L 61.27 77.42 L 23.01 158.30 L 76.57 142.07 L 38.32 98.40 L 70.03 98.34 L 19.58 143.56 L 30.93 108.89 L 89.55 97.16 L 28.34 167.00 L 109.59 128.51 L 65.23 182.02 L 47.87 57.73 L 85.15 74.89 L 81.73 172.25 L 22.28 154.20 L 98.97 141.07 L 84.23 88.39 L 80.67 139.86 L 99.32 131.87 L 95.19 129.64 L 51.61 86.89 L 90.69 81.27 L 105.85 157.08 L 58.35 81.22 L 49.97 104.84 L 98.81 103.98 L 62.26 63.13 L 49.90 142.57 L 83.25 171.06 L 101.36 116.22 L 62.99 183.11 L 97.75 128.29 L 101.05 115.08 L 25.80 161.57 L 103.63 115.96 L 26.08 162.50 L 70.65 144.86 L 43.25 93.95 L 71.55 145.51 L 80.86 92.70 L 12.33 111.82 L 13.67 125.53 L 61.75 183.44 L 33.34 122.92 L 99.25 128.22 L 22.48 135.14 L 50.39 182.89 L 42.98 180.74 L 20.85 146.02 L 97.91 106.88 L 92.79 132.56 L 80.35 140.38 L 69.89 68.78 L 51.96 103.18 L 88.84 83.73 L 13.40 109.21 L 23.12 158.41 L 85.40 136.56 L 58.31 184.02 L 14.48 121.13 L 95.87 157.03 L 49.49 87.92 L 77.26 83.81 L 84.46 77.19 L 97.28 129.59 L 15.77 124.36 L 46.09 96.30 L 41.18 95.28 L 26.61 163.05 L 12.31 100.53 L 99.75 154.26 L 29.93 169.15 L 71.43 70.36 L 25.59 157.85 L 23.77 137.08 L 15.01 121.56 L 41.99 102.31 L 96.67 104.68 L 82.09 88.75 L 12.55 112.01 L 70.58 180.10 L 15.32 115.29 L 32.05 134.54 L 96.98 105.20 L 61.45 74.23 L 48.84 88.42 L 79.14 140.56 L 28.51 167.28 L 105.52 118.89 L 89.75 163.20 L 71.01 62.10 L 68.58 180.60 L 32.31 143.47 L 92.48 131.60 L 65.67 90.79 L 85.26 77.03 L 89.29 86.44 L 86.49 95.22 L 16.00 125.32 L 66.83 98.61 L 96.37 131.01 L 66.46 146.22 L 70.62 179.54 L 27.45 164.79 L 25.34 131.57 L 90.54 103.61 L 12.03 105.18 L 106.30 155.73 L 111.64 137.06 L 59.60 79.97 L 37.79 61.51 L 32.49 64.14 L 77.76 81.25 L 99.38 141.60 L 98.21 161.44 L 99.85 133.82 L 98.75 130.55 L 29.02 137.41 L 12.08 110.30 L 40.86 138.73 L 22.20 139.18 L 55.38 143.24 L 98.88 128.09 L 25.11 145.74 L 35.25 142.55 L 101.86 129.28 L 98.65 144.73 L 46.87 57.85 L 58.40 81.13 L 100.13 112.14 L 32.25 64.25 L 111.16 136.27 L 33.58 171.36 L 34.27 136.02 L 14.27 117.97 L 97.98 147.22 L 60.72 78.47 L 15.72 133.77 L 12.46 117.30 L 31.77 171.50 L 96.39 152.93 L 27.46 138.44 L 97.98 161.04 L 97.93 145.61 L 25.39 159.90 L 13.63 110.15 L 74.44 143.08 L 88.91 86.52 L 56.36 82.87 L 51.36 182.73 L 85.70 168.13 L 39.69 113.82 L 60.39 100.00 L 101.12 158.76 L 27.15 165.28 L 24.22 138.80 L 12.19 113.37 L 95.14 131.30 L 55.97 142.59 L 67.06 181.99 L 31.23 170.63 L 14.12 90.46 L 12.63 118.77 L 86.24 135.93 L 44.83 108.68 L 82.94 82.46 L 70.88 98.33 L 41.74 111.58 L 99.80 152.77 L 85.94 167.61 L 30.27 129.17 L 82.19 83.11 L 97.54 158.91 L 101.81 132.87 L 98.74 160.51 L 25.92 159.05 L 31.62 170.34 L 99.12 128.12 L 65.38 65.04 L 100.44 157.92 L 96.15 98.07 L 94.85 154.88 L 74.36 73.90 L 48.82 63.19 L 99.31 138.62 L 55.39 143.79 L 24.21 133.89 L 41.08 60.45 L 30.36 117.78 L 65.88 65.38 L 62.94 99.30 L 85.95 167.56 L 58.03 100.58 L 97.21 128.49 L 48.29 143.45 L 13.23 108.48 L 101.88 131.13 L 63.90 99.09 L 82.41 138.57 L 61.55 183.49 L 54.69 84.13 L 95.16 102.49 L 12.02 107.31 L 49.80 104.93 L 54.07 102.50 L 27.46 140.06 L 52.07 86.00 L 20.47 132.71 L 59.18 100.34 L 105.52 157.41 L 54.42 142.64 L 61.36 74.13 L 23.11 158.40 L 29.01 164.87 L 83.42 138.02 L 24.86 156.29 L 73.59 88.41 L 34.20 121.41 L 95.80 152.67 L 100.44 157.90 L 42.87 101.52 L 46.69 107.15 L 37.43 143.21 L 20.89 145.19 L 22.72 157.76 L 63.14 182.67 L 84.64 169.35 L 94.82 102.07 L 40.88 95.58 L 35.34 106.95 L 81.91 85.44 L 96.43 98.73 L 64.83 182.25 L 47.27 145.74 L 96.29 151.79 L 66.71 66.03 L 101.72 158.97 L 102.86 158.97 L 102.58 121.98 L 61.54 62.55 L 66.95 90.93 L 98.68 144.86 L 14.66 84.51 L 49.91 104.86 L 21.96 143.29 L 12.42 100.53 L 75.84 64.64 L 80.55 74.78 L 62.73 182.73 L 57.99 100.59 L 98.86 105.73 L 57.44 100.98 L 15.57 115.92 L 26.22 151.24 L 24.90 154.91 L 30.33 169.82 L 36.34 100.80 L 44.66 146.46 L 44.96 147.96 L 83.79 137.69 L 31.31 170.60 L 24.18 137.09 L 23.71 133.34 L 36.11 61.72 L 30.30 142.18 L 98.41 129.75 L 12.60 114.04 L 35.87 118.81 L 97.51 97.48 L 27.32 115.75 L 99.90 156.36 L 55.99 57.24 L 53.71 59.91 L 97.03 128.56 L 95.27 102.53 L 12.13 111.35 L 83.52 170.86 L 76.95 142.14 L 96.75 97.89 L 61.54 76.02 L 100.62 144.61 L 29.23 132.16 L 95.62 103.01 L 99.32 138.15 L 60.94 78.16 L 96.52 128.82 L 107.36 155.13 L 18.26 140.85 L 30.62 65.36 L 98.01 146.51 L 12.13 111.79 L 82.94 78.28 L 101.45 116.58 L 52.43 103.36 L 12.50 113.44 L 75.66 177.14 L 28.28 164.13 L 98.22 161.14 L 109.78 150.18 L 12.11 102.51 L 77.88 141.53 L 25.68 159.57 L 31.09 140.73 L 78.26 174.70 L 94.00 93.60 L 85.29 136.65 L 77.97 79.95 L 58.16 184.03 L 26.53 162.76 L 95.84 103.44 L 23.12 158.41 L 23.01 135.84 L 49.49 140.64 L 29.46 111.60 L 30.43 129.01 L 17.45 138.76 L 53.98 84.60 L 99.37 134.68 L 89.56 133.71 L 31.07 142.69 L 25.52 158.69 L 60.48 78.87 L 84.59 169.56 L 26.25 160.09 L 24.67 154.60 L 26.10 161.50 L 71.49 98.32 L 84.89 94.37 L 68.88 98.43 L 99.81 138.70 L 12.32 102.13 L 61.47 74.69 L 49.88 142.59 L 42.50 139.25 L 40.39 112.75 L 69.32 98.37 L 76.41 77.40 L 101.76 158.97 L 44.07 62.28 L 60.24 183.81 L 49.01 88.45 L 21.60 74.16 L 78.91 67.87 L 96.62 151.64 L 61.28 77.24 L 95.50 102.94 L 85.00 76.03 L 99.14 131.34 L 68.51 98.48 L 99.69 107.09 L 92.48 104.83 L 30.87 169.16 L 26.41 137.64 L 76.65 174.23 L 105.11 157.77 L 95.19 94.05 L 98.89 108.95 L 30.60 126.94 L 26.78 156.45 L 90.74 88.52 L 54.85 83.99 L 24.62 148.95 L 27.31 164.84 L 73.02 178.10 L 32.08 171.59 L 57.51 184.05 L 36.96 137.27 L 52.06 86.02 L 48.75 143.27 L 47.66 58.06 L 15.29 122.26 L 22.83 158.05 L 100.79 127.70 L 85.20 169.06 L 13.31 108.82 L 12.23 101.24 L 28.46 167.17 L 25.16 162.34 L 86.83 167.18 L 101.51 116.79 L 27.05 136.11 L 49.81 96.47 L 24.88 159.78 L 61.61 62.57 L 12.60 95.99 L 42.66 93.72 L 26.53 162.80 L 22.35 73.43 L 24.26 151.57 L 61.11 99.78 L 82.58 139.15 L 23.13 157.46 L 12.26 113.56 L 22.72 133.07 L 12.22 102.17 L 32.43 106.38 L 54.88 65.99 L 97.32 105.79 L 101.12 115.31 L 108.79 152.90 L 93.28 100.36 L 26.70 163.14 L 25.84 162.25 L 33.99 118.65 L 29.52 168.83 L 18.81 78.76 L 12.12 106.49 L 86.53 136.10 L 84.91 76.03 L 87.72 134.84 L 75.14 143.27 L 98.42 104.27 L 111.32 138.84 L 101.32 116.06 L 77.69 81.79 L 67.80 181.16 L 60.69 99.89 L 85.66 136.51 L 94.91 130.22 L 50.23 59.55 L 82.26 138.67 L 25.99 160.68 L 20.08 132.32 L 58.13 61.10" fill="none" stroke="url(#grad)" stroke-width="0.3" stroke-opacity="0.8"/>
</svg>