<?xml version="1.0" encoding="UTF-8"?>
<svg xmlns="http://www.w3.org/2000/svg" width="200" height="200" viewBox="0 0 200 200">
  <defs>
    <linearGradient id="grad" x1="0%" y1="0%" x2="100%" y2="100%">
      <stop offset="0%" style="stop-color:#f59e0b;stop-opacity:1" />
      <stop offset="100%" style="stop-color:#ea580c;stop-opacity:1" />
    </linearGradient>
  </defs>
  <rect width="100%" height="100%" fill="#0a0a0f"/>
  <path d="M 89.33 114.49 L 94.20 92.98 L 78.93 151.58 L 99.32 110.01 L 89.91 108.10 L 49.89 79.79 L 106.70 83.59 L 135.75 88.17 L 70.36 75.86 L 45.89 121.58 L 98.15 91.57 L 72.73 112.14 L 109.64 44.72 L 102.15 93.45 L 36.56 76.33 L 133.35 87.60 L 129.61 91.76 L 119.23 88.64 L 99.07 96.58 L 150.94 119.85 L 93.34 79.47 L 92.60 108.84 L 51.88 84.29 L 30.11 137.93 L 82.87 104.60 L 74.89 86.87 L 93.45 93.13 L 85.49 117.72 L 120.75 89.13 L 75.84 105.69 L 98.00 84.19 L 62.91 111.57 L 149.66 120.05 L 102.17 85.45 L 118.08 83.14 L 49.92 80.64 L 43.84 122.33 L 68.59 108.93 L 145.48 50.02 L 139.05 87.80 L 103.83 76.43 L 106.51 116.44 L 30.08 137.93 L 97.96 85.58 L 104.49 69.58 L 73.34 86.38 L 63.34 111.13 L 70.18 108.28 L 76.86 109.47 L 149.53 104.02 L 113.24 110.35 L 89.45 105.48 L 125.64 89.11 L 74.97 75.93 L 76.96 77.56 L 109.96 88.09 L 159.64 111.45 L 78.34 105.23 L 105.48 120.34 L 81.26 102.94 L 111.52 77.33 L 107.05 103.44 L 149.27 111.71 L 65.34 111.13 L 147.39 113.27 L 64.42 76.76 L 105.38 102.06 L 96.17 92.96 L 91.81 94.43 L 84.65 151.60 L 138.29 86.79 L 114.26 98.72 L 84.87 76.82 L 126.92 49.21 L 120.71 87.68 L 127.08 90.74 L 41.54 136.88 L 82.66 106.41 L 117.89 97.47 L 73.28 150.93 L 87.82 109.55 L 116.34 123.31 L 113.89 89.46 L 92.64 96.64 L 90.17 153.59 L 107.44 95.78 L 80.79 150.55 L 152.23 119.38 L 146.67 100.52 L 52.60 142.49 L 109.32 110.94 L 103.38 106.44 L 109.37 121.70 L 117.81 123.46 L 110.81 76.83 L 88.07 116.39 L 83.02 106.40 L 90.32 154.83 L 95.86 79.27 L 122.79 94.15 L 29.82 135.76 L 104.35 118.12 L 93.14 119.78 L 135.29 102.52 L 109.45 92.06 L 101.51 140.20 L 132.56 89.45 L 85.42 77.34 L 61.35 76.60 L 86.86 105.40 L 41.35 92.58 L 126.63 48.97 L 85.96 100.89 L 103.78 83.92 L 140.92 86.76 L 94.54 93.71 L 74.25 151.24 L 32.73 77.72 L 53.57 83.69 L 91.70 119.56 L 113.09 44.00 L 164.34 72.61 L 97.79 131.37 L 105.42 108.60 L 118.28 118.54 L 107.83 86.23 L 81.90 102.63 L 111.83 101.24 L 104.91 104.14 L 162.27 119.77 L 73.52 106.93 L 119.00 91.25 L 109.03 105.23 L 133.69 88.87 L 85.86 110.39 L 166.48 121.26 L 47.06 81.03 L 118.37 93.31 L 90.66 154.46 L 112.73 96.79 L 149.68 120.08 L 136.54 47.87 L 149.53 104.01 L 113.72 79.29 L 102.03 83.07 L 80.69 80.14 L 130.49 123.52 L 133.75 47.52 L 120.63 95.38 L 104.70 106.55 L 98.13 110.09 L 86.75 113.35 L 41.49 75.29 L 70.43 110.36 L 103.47 104.39 L 89.40 77.33 L 170.11 65.61 L 143.85 115.88 L 141.26 86.64 L 121.89 90.81 L 117.16 94.16 L 113.65 56.26 L 113.38 78.68 L 48.62 94.90 L 142.55 116.02 L 109.42 111.37 L 88.98 129.65 L 87.96 102.30 L 56.90 75.67 L 71.43 148.09 L 124.16 93.32 L 90.51 57.14 L 112.12 97.92 L 73.41 119.39 L 144.79 83.59 L 124.70 90.26 L 167.83 68.95 L 68.22 109.66 L 102.46 92.81 L 158.33 106.77 L 89.26 139.82 L 33.07 76.47 L 168.02 59.43 L 86.77 156.04 L 60.87 99.18 L 169.36 66.87 L 135.24 96.74 L 93.64 96.37 L 161.15 74.63 L 74.67 148.94 L 101.05 110.94 L 164.29 123.48 L 74.48 77.44 L 125.78 87.22 L 78.94 76.24 L 141.51 123.57 L 78.75 112.74 L 51.25 148.86 L 97.93 111.66 L 94.51 92.07 L 79.24 113.60 L 81.07 150.63 L 112.73 86.34 L 41.46 92.88 L 109.49 45.34 L 152.48 51.89 L 48.46 94.59 L 128.15 124.25 L 150.92 124.76 L 89.60 153.29 L 139.93 87.40 L 123.58 122.56 L 103.54 97.85 L 74.24 84.23 L 109.69 43.93 L 87.04 127.15 L 167.03 67.43 L 113.90 99.67 L 95.82 105.26 L 94.03 96.23 L 66.35 111.24 L 39.75 133.26 L 102.94 84.03 L 109.40 103.67 L 100.66 79.65 L 68.43 85.83 L 34.84 76.35 L 93.10 99.11 L 113.23 49.39 L 95.56 81.95 L 69.17 110.47 L 88.52 124.91 L 102.18 87.62 L 125.27 93.90 L 117.59 84.33 L 156.17 116.13 L 95.79 79.80 L 68.18 85.82 L 87.15 134.28 L 124.46 48.46 L 100.68 52.59 L 30.84 139.07 L 87.70 116.28 L 78.32 114.69 L 109.73 102.48 L 170.19 63.69 L 106.96 85.30 L 73.73 151.30 L 44.55 81.93 L 98.44 105.80 L 77.76 149.75 L 150.06 101.63 L 90.30 108.26 L 90.91 77.86 L 109.49 91.50 L 72.10 77.18 L 79.41 107.63 L 109.46 46.15 L 87.79 122.21 L 137.78 99.67 L 65.91 146.74 L 69.73 148.64 L 88.19 115.92 L 118.91 92.58 L 47.93 82.63 L 81.05 104.28 L 113.32 114.42 L 71.90 109.76 L 160.62 119.31 L 88.96 125.38 L 164.29 72.25 L 129.16 46.64 L 163.51 123.91 L 88.33 108.03 L 62.81 75.67 L 91.89 95.63 L 105.23 97.78 L 150.40 120.34 L 79.44 134.60 L 83.31 151.23 L 165.95 121.06 L 149.34 103.97 L 113.64 99.00 L 96.51 120.09 L 97.31 92.66 L 120.09 93.11 L 46.46 139.85 L 167.44 69.35 L 69.19 148.62 L 82.73 136.37 L 63.04 84.98 L 59.26 100.05 L 129.11 90.72 L 77.24 154.68 L 119.97 89.29 L 137.22 99.50 L 135.18 114.67 L 95.60 94.76 L 164.14 72.52 L 104.89 110.36 L 104.41 99.50 L 122.18 85.43 L 91.07 156.29 L 98.75 138.90 L 82.29 150.97 L 115.46 82.29 L 124.99 48.02 L 149.34 81.67 L 49.48 95.42 L 46.95 81.10 L 151.19 117.30 L 90.72 154.33 L 103.98 111.07 L 163.82 120.24 L 97.32 86.98 L 71.40 150.75 L 91.82 110.06 L 124.54 113.66 L 103.47 95.78 L 147.28 116.46 L 82.81 151.11 L 143.44 85.38 L 152.85 80.24 L 157.02 62.00 L 149.36 111.10 L 125.35 90.16 L 149.83 104.84 L 144.77 56.70 L 102.63 121.14 L 115.97 89.52 L 121.82 87.45 L 99.50 91.56 L 109.22 110.56 L 50.64 80.26 L 70.93 77.01 L 153.39 117.63 L 113.87 95.99 L 101.50 61.44 L 107.66 84.53 L 146.45 83.89 L 152.11 59.52 L 130.47 72.62 L 61.76 111.93 L 112.25 91.98 L 85.13 112.40 L 97.46 79.10 L 113.16 100.31 L 114.26 122.91 L 105.35 101.09 L 125.20 92.75 L 70.71 86.21 L 90.50 111.77 L 138.54 122.64 L 112.66 88.67 L 136.57 100.53 L 47.55 80.82 L 162.15 73.65 L 108.89 80.49 L 162.65 71.31 L 75.50 112.64 L 42.17 122.82 L 97.03 88.47 L 89.54 101.59 L 33.11 130.08 L 45.00 139.10 L 102.68 113.54 L 108.26 82.87 L 166.00 59.09 L 137.06 88.39 L 121.27 93.65 L 148.60 81.38 L 48.28 148.24 L 84.66 151.63 L 116.92 84.03 L 104.06 109.96 L 113.34 84.30 L 126.30 49.07 L 109.92 44.62 L 149.48 51.46 L 67.90 147.29 L 124.62 86.61 L 68.37 88.74 L 135.18 88.60 L 126.74 87.68 L 106.05 104.13 L 88.25 136.92 L 90.22 149.69 L 136.07 98.77 L 49.74 95.15 L 88.61 123.12 L 108.55 121.72 L 32.71 128.60 L 32.15 130.94 L 124.86 88.56 L 80.16 106.40 L 127.24 91.75 L 126.45 48.46 L 94.97 112.36 L 45.20 121.19 L 141.47 84.98 L 96.50 114.39 L 44.06 94.71 L 74.29 106.79 L 109.28 45.69 L 43.53 146.68 L 115.37 88.66 L 87.13 143.22 L 64.56 110.68 L 55.63 116.62 L 110.93 98.48 L 97.34 82.31 L 127.97 51.80 L 68.85 110.90 L 93.11 119.49 L 109.33 45.50 L 139.98 105.97 L 96.61 114.29 L 47.62 92.69 L 111.91 94.02 L 81.07 103.07 L 110.52 100.71 L 97.35 86.32 L 144.18 84.67 L 117.56 95.97 L 98.13 59.38 L 121.96 53.06 L 98.24 120.49 L 115.92 90.03 L 135.07 88.23 L 116.82 112.39 L 120.53 94.74 L 68.19 147.21 L 110.82 98.41 L 44.15 122.31 L 97.72 85.02 L 97.12 78.42 L 102.62 87.48 L 102.49 105.70 L 109.30 87.85 L 121.30 49.80 L 103.44 96.31 L 97.15 102.63 L 109.36 45.48 L 101.45 58.06 L 112.32 88.50 L 147.17 117.54 L 108.31 99.49 L 107.21 80.98 L 157.75 76.04 L 91.56 112.96 L 132.28 90.12 L 71.48 108.46 L 121.19 49.98 L 149.34 110.94 L 129.26 91.98 L 91.73 78.38 L 161.84 73.84 L 82.82 85.67 L 108.84 92.29 L 133.53 88.70 L 81.28 107.75 L 109.32 45.57 L 48.56 119.71 L 37.28 132.20 L 170.38 63.75 L 119.95 96.17 L 95.50 119.81 L 112.42 73.54 L 108.85 101.73 L 94.55 71.72 L 159.69 124.14 L 88.64 99.01 L 112.53 88.45 L 142.18 55.83 L 118.13 70.81 L 74.47 105.51 L 99.15 140.60 L 102.86 113.19 L 108.12 92.35 L 139.25 99.39 L 52.64 80.14 L 126.07 90.99 L 125.24 87.14 L 83.58 114.60 L 76.72 149.48 L 73.15 150.76 L 110.01 44.91 L 111.66 69.94 L 63.53 111.41 L 73.89 151.08 L 77.27 108.30 L 99.30 113.99 L 110.00 44.67 L 101.11 141.57 L 60.36 113.53 L 93.84 78.88 L 49.44 118.86 L 112.38 100.70 L 95.02 102.99 L 139.13 124.42 L 135.00 89.06 L 83.67 116.14 L 100.07 142.68 L 51.61 96.20 L 121.47 84.64 L 34.50 141.06 L 104.77 121.53 L 126.43 124.10 L 129.89 88.70 L 147.80 83.04 L 109.94 98.34 L 62.99 94.30 L 160.25 119.30 L 80.85 146.04 L 82.04 102.71 L 151.35 105.62 L 112.76 86.99 L 100.77 104.19 L 146.32 116.29 L 59.41 96.99 L 47.24 120.14 L 66.00 149.53 L 71.30 86.30 L 105.88 84.23 L 129.26 124.29 L 102.51 88.44 L 127.55 88.09 L 88.93 107.86 L 42.64 122.87 L 125.49 92.96 L 116.65 86.86 L 115.88 111.06 L 133.40 89.61 L 135.20 89.17 L 120.37 123.69 L 32.16 77.42 L 154.90 117.47 L 80.28 115.36 L 111.30 98.94 L 84.62 151.66 L 163.88 123.81 L 105.32 104.31 L 82.48 104.06 L 120.96 89.02 L 122.33 94.65 L 67.88 150.09 L 49.66 79.73 L 87.77 117.88 L 85.55 76.89 L 105.29 81.38 L 59.94 137.36 L 58.37 99.71 L 147.63 81.75 L 109.36 46.06 L 155.56 118.10 L 90.36 155.23 L 132.77 123.24 L 116.87 125.30 L 146.20 57.20 L 86.03 143.92 L 52.48 117.35 L 101.04 108.60 L 153.60 52.67 L 139.42 107.38 L 85.89 152.05 L 59.76 97.84 L 112.81 85.73 L 124.49 88.99 L 100.16 95.37 L 130.46 120.94 L 133.89 50.61 L 87.78 133.11 L 49.70 95.69 L 56.64 75.24 L 105.16 112.45 L 100.05 92.92 L 40.81 145.72 L 124.64 90.79 L 77.48 109.80 L 90.14 155.51 L 137.86 86.50 L 53.61 116.59 L 126.15 48.96 L 49.98 94.94 L 131.00 88.68 L 72.92 111.43 L 111.42 97.44 L 43.03 122.27 L 130.85 90.09 L 99.19 123.95 L 96.14 79.74 L 64.61 89.56 L 54.03 83.77 L 91.00 94.75 L 119.24 95.47 L 90.95 156.27 L 138.84 86.10 L 90.83 101.10 L 115.94 98.53 L 58.21 144.28 L 121.49 87.56 L 101.75 56.21 L 116.79 96.61 L 110.43 43.85 L 92.15 97.65 L 47.35 119.65 L 72.90 77.88 L 100.91 141.77 L 104.38 69.53 L 143.46 56.25 L 125.14 90.88 L 128.41 49.42 L 135.70 98.53 L 131.61 124.14 L 121.33 90.97 L 92.33 124.86 L 70.34 150.40 L 108.59 99.70 L 117.50 92.60 L 89.71 111.74 L 59.18 115.02 L 162.04 66.40 L 110.00 69.19 L 67.43 101.06 L 146.88 102.98 L 115.13 122.65 L 113.73 79.22 L 119.62 96.53 L 96.28 125.35 L 89.31 107.79 L 65.97 75.76 L 84.60 107.45 L 86.11 105.20 L 33.42 129.65 L 94.17 96.12 L 147.06 119.90 L 65.79 110.37 L 154.74 60.72 L 128.14 49.42 L 155.76 53.37 L 111.59 70.53 L 102.36 81.99 L 102.74 113.52 L 72.02 108.63 L 70.11 150.39 L 77.41 114.76 L 150.56 117.07 L 124.92 48.62 L 162.41 124.16 L 150.71 120.08 L 83.61 101.86 L 144.76 56.70 L 109.52 43.87 L 90.72 77.52 L 113.51 47.84 L 103.63 119.68 L 116.48 87.01 L 67.34 85.69 L 124.76 86.61 L 110.11 46.59 L 123.69 92.65 L 149.73 104.84 L 109.45 119.64 L 144.31 56.54 L 74.00 151.82 L 110.16 88.11 L 33.88 129.10 L 113.80 79.02 L 72.18 87.55 L 50.28 79.87 L 80.49 109.63 L 170.10 67.31 L 90.00 100.49 L 129.56 91.18 L 125.96 87.84 L 92.07 96.91 L 35.10 79.36 L 50.93 85.93 L 64.23 110.95 L 102.12 116.21 L 138.32 88.13 L 87.15 77.73 L 104.60 85.31 L 70.51 102.15 L 117.87 49.11 L 124.12 89.65 L 79.77 114.70 L 76.92 76.07 L 109.23 122.48 L 151.79 106.12 L 108.22 89.87 L 106.98 105.96 L 112.73 88.76 L 99.50 115.19 L 48.90 95.10 L 149.85 119.94 L 89.48 94.50 L 109.73 44.24 L 133.50 89.37 L 65.94 149.59 L 56.04 100.16 L 140.08 117.37 L 88.48 122.54 L 80.14 114.17 L 85.07 113.36 L 108.66 91.25 L 114.17 83.28 L 83.78 104.55 L 82.70 106.93 L 66.59 149.26 L 37.76 80.18 L 82.15 112.02 L 85.95 115.82 L 44.75 121.78 L 152.74 108.13 L 124.95 88.30 L 87.71 99.51 L 95.63 134.80 L 92.80 109.02 L 102.39 110.36 L 109.32 100.32 L 50.53 80.44 L 115.11 96.86 L 146.53 119.90 L 115.85 123.21 L 162.81 123.63 L 31.78 129.50 L 103.38 108.57 L 104.41 51.09 L 122.44 95.18 L 127.61 88.34 L 137.45 99.66 L 44.65 75.17 L 157.05 77.14 L 82.98 105.50 L 111.43 90.29 L 52.19 137.25 L 33.57 141.66 L 111.10 95.07 L 96.84 93.19 L 70.67 104.64 L 90.28 155.71 L 117.53 125.37 L 123.50 94.15 L 127.46 92.80 L 142.52 49.38 L 161.61 75.78 L 110.61 80.93 L 49.49 95.60 L 167.58 123.15 L 87.33 99.46 L 98.67 90.53 L 95.91 109.77 L 32.61 78.25 L 65.85 111.02 L 63.12 145.78 L 127.14 88.18 L 133.40 89.64 L 164.51 62.04 L 53.47 80.11 L 59.11 75.72 L 111.70 91.58 L 159.28 124.63 L 74.41 137.55 L 80.81 154.79 L 126.76 48.64 L 155.15 78.02 L 90.67 154.02 L 70.61 109.04 L 150.11 105.12 L 148.47 119.64 L 78.77 76.11 L 59.46 97.71 L 66.21 85.52 L 168.19 122.29 L 102.91 93.45 L 90.82 108.16 L 130.10 90.61 L 77.32 109.68 L 122.30 94.31 L 98.75 79.16 L 78.64 134.96 L 125.87 81.39 L 86.68 150.64 L 131.58 124.41 L 123.66 91.40 L 66.65 109.77 L 96.55 92.10 L 63.03 93.13 L 107.19 71.26 L 149.44 117.14 L 117.36 95.22 L 37.42 125.47 L 87.68 152.54 L 99.30 140.11 L 65.73 103.32 L 163.93 123.83 L 75.92 154.00 L 157.15 118.50 L 145.26 102.04 L 54.22 97.70 L 93.42 94.07 L 150.48 119.90 L 39.29 124.73 L 69.87 110.64 L 98.35 106.20 L 102.44 114.31 L 103.35 95.79 L 53.18 80.09 L 134.72 88.88 L 95.16 110.85 L 152.20 117.40 L 105.67 101.22 L 105.58 106.57 L 112.26 82.38 L 75.97 108.81 L 71.54 111.72 L 61.03 151.23 L 136.52 98.90 L 48.34 90.94 L 40.53 90.17 L 105.58 108.36 L 71.65 111.78 L 37.46 80.12 L 71.68 148.24 L 109.36 46.03 L 57.11 150.71 L 98.19 89.72 L 46.11 76.08 L 137.25 114.93 L 104.63 65.43 L 109.63 122.54 L 43.13 146.40 L 32.36 76.74 L 89.55 130.05 L 66.11 149.69 L 123.91 113.28 L 110.16 85.78 L 93.96 116.80 L 120.03 112.60 L 39.76 80.78 L 111.01 43.99 L 88.25 156.12 L 72.70 148.42 L 29.86 135.12 L 144.64 116.01 L 158.66 118.81 L 120.89 92.93 L 146.25 119.40 L 116.09 118.67 L 121.86 92.73 L 100.94 82.13 L 90.48 155.32 L 90.41 125.07 L 121.81 85.77 L 97.40 114.70 L 32.39 77.44 L 73.25 150.97 L 90.08 150.28 L 100.72 67.00 L 85.47 102.78 L 149.89 105.07 L 88.56 78.15 L 126.99 88.71 L 59.24 113.01 L 88.00 136.56 L 76.56 112.08 L 73.45 150.81 L 61.37 114.67 L 129.55 113.83 L 107.57 90.77 L 112.83 93.92 L 109.39 105.02 L 124.09 48.23 L 152.41 102.62 L 146.18 83.20 L 147.93 82.77 L 57.58 99.36 L 59.89 93.72 L 117.71 94.34 L 123.22 50.51 L 123.08 85.81 L 119.30 96.22 L 90.98 99.73 L 91.13 94.67 L 90.06 153.51 L 125.07 88.53 L 87.92 98.85 L 85.78 87.97 L 60.19 112.55 L 125.54 93.79 L 68.82 110.77 L 111.85 122.32 L 98.57 59.85 L 96.24 95.65 L 122.20 48.40 L 137.34 88.42 L 86.52 115.24 L 90.40 111.06 L 92.88 78.60 L 49.59 76.10 L 101.60 140.30 L 123.91 89.60 L 119.07 123.56 L 32.89 77.71 L 132.02 49.89 L 87.64 77.47 L 128.79 88.46 L 137.30 123.36 L 97.00 87.64 L 136.54 88.78 L 51.62 149.21 L 79.71 104.32 L 80.26 103.75 L 100.75 86.86 L 134.66 109.65 L 145.48 105.27 L 113.76 122.94 L 147.74 116.76 L 161.94 66.24 L 119.56 93.51 L 59.13 84.57 L 148.02 119.75 L 92.55 106.65 L 43.47 81.66 L 123.86 50.67 L 159.21 118.99 L 90.46 105.14 L 128.78 92.19 L 104.22 108.98 L 97.14 90.65 L 147.57 119.82 L 146.61 118.30 L 63.33 76.58 L 109.70 46.35 L 91.84 97.27 L 60.84 100.45 L 87.02 105.54 L 71.53 86.34 L 80.83 107.69 L 90.41 155.59 L 50.34 79.73 L 123.39 91.85 L 158.27 77.40 L 128.81 51.63 L 83.04 107.47 L 153.06 80.11 L 73.61 112.43 L 106.40 103.00 L 149.83 120.41 L 133.70 114.48 L 137.62 104.87 L 49.19 118.42 L 104.61 109.82 L 49.67 79.50 L 89.70 102.99 L 99.60 141.82 L 115.66 90.01 L 118.73 49.32 L 48.33 92.93 L 90.58 154.58 L 163.09 120.01 L 137.73 86.87 L 47.11 143.64 L 120.33 84.09 L 101.67 113.62 L 99.56 91.81 L 112.47 100.84 L 48.06 140.56 L 153.57 79.76 L 83.55 102.44 L 110.26 94.97 L 133.48 90.23 L 119.03 82.62 L 90.15 155.36 L 90.41 155.51 L 106.19 80.07 L 62.84 111.35 L 49.18 80.33 L 69.93 85.96 L 121.34 112.72 L 97.27 86.62 L 116.11 121.63 L 116.83 94.23 L 62.98 111.29 L 96.40 108.20 L 110.18 121.84 L 128.01 88.09 L 167.19 121.57 L 132.89 114.39 L 63.89 101.58 L 135.51 89.37 L 144.72 49.59 L 95.14 134.37 L 146.28 124.18 L 97.70 115.64 L 130.78 114.12 L 101.56 140.61 L 52.75 116.55 L 142.67 100.76 L 95.86 109.24 L 72.05 133.55 L 133.23 90.31 L 88.74 103.01 L 79.17 151.25 L 106.82 98.26 L 114.29 98.76 L 96.85 113.16 L 109.52 46.07 L 91.08 156.32 L 109.86 44.98 L 107.63 120.55 L 129.22 91.99 L 120.78 89.97 L 133.51 88.71 L 125.30 96.80 L 105.85 81.39 L 90.87 156.12 L 120.38 49.52 L 76.91 109.63 L 66.42 149.49 L 76.10 154.48 L 118.77 96.15 L 86.96 99.74 L 137.73 99.84 L 48.42 75.73 L 149.93 51.59 L 149.22 101.29 L 104.49 65.31 L 35.45 79.51 L 50.69 87.31 L 161.46 64.41 L 100.39 78.91 L 110.69 73.86 L 102.16 111.95 L 101.73 79.15 L 94.86 126.05 L 131.26 98.61 L 95.34 91.55 L 134.10 50.58 L 89.00 98.28 L 142.94 85.25 L 123.51 86.08 L 98.61 115.54 L 107.17 104.10 L 100.53 106.36 L 135.55 89.23 L 168.63 60.02 L 93.24 99.18 L 68.09 75.64 L 96.93 87.21 L 84.93 105.95 L 111.19 82.59 L 87.87 110.93 L 51.62 83.34 L 70.73 135.94 L 50.79 95.62 L 148.41 103.82 L 50.79 80.43 L 101.98 120.77 L 74.42 111.36 L 98.20 58.84 L 90.16 99.99 L 69.52 110.53 L 106.98 76.20 L 161.27 55.23 L 50.09 95.80 L 119.32 84.33 L 136.13 98.68 L 110.71 73.34 L 33.83 76.24 L 84.27 105.30 L 90.69 154.41 L 86.82 88.11 L 86.60 112.13 L 90.92 105.50 L 134.04 50.39 L 133.44 50.18 L 90.00 100.25 L 40.42 124.53 L 97.22 84.63 L 49.36 95.57 L 128.17 90.09 L 145.12 114.55 L 167.90 124.20 L 94.13 109.74 L 130.54 52.44 L 98.33 97.60 L 122.46 85.37 L 106.31 101.51 L 109.78 44.96 L 47.35 119.92 L 99.87 83.41 L 32.61 77.29 L 139.27 85.80 L 66.01 110.62 L 109.98 73.77 L 158.76 76.09 L 85.67 89.72 L 103.56 88.19 L 115.70 82.30 L 36.01 79.70 L 88.87 109.99 L 89.54 130.10 L 92.52 83.75 L 34.04 78.98 L 103.09 146.32 L 77.52 108.35 L 29.84 136.69 L 147.50 119.83 L 140.19 62.41 L 89.75 80.00 L 96.18 91.79 L 115.56 98.36 L 43.04 75.43 L 75.60 105.91 L 94.76 101.07 L 99.12 116.81 L 31.77 131.54 L 55.42 114.72 L 98.06 112.69 L 115.80 96.58 L 146.53 118.57 L 160.39 119.33 L 88.79 77.41 L 79.30 123.35 L 101.07 60.94 L 150.57 120.27 L 150.47 81.16 L 52.86 83.56 L 150.83 106.11 L 119.45 88.85 L 102.89 113.13 L 104.46 79.76 L 129.64 66.50 L 156.07 105.21 L 65.21 110.31 L 127.09 52.05 L 104.24 79.87 L 97.44 83.38 L 90.14 108.36 L 53.87 80.31 L 125.80 49.20 L 98.28 137.61 L 159.34 119.02 L 89.97 155.17 L 108.66 100.61 L 103.04 63.93 L 79.65 112.58 L 116.12 94.13 L 63.56 111.53 L 77.19 105.89 L 125.44 50.95 L 104.49 105.13 L 108.57 89.67 L 108.34 81.30 L 53.80 80.89 L 110.43 84.13 L 110.39 50.07 L 157.50 118.54 L 75.62 108.79 L 100.12 121.22 L 107.56 86.13 L 82.72 104.52 L 103.01 117.79 L 86.80 112.75 L 57.66 83.63 L 155.51 118.10 L 150.30 104.89 L 106.38 92.84 L 98.14 95.25 L 79.53 104.41 L 108.13 86.13 L 108.90 87.12 L 37.91 133.28 L 150.35 120.77 L 166.49 121.24 L 106.96 85.57 L 87.39 129.00 L 120.08 95.73 L 108.11 121.54 L 99.77 87.23 L 74.43 107.43 L 108.78 43.52 L 107.92 104.39 L 122.85 123.92 L 75.26 112.73 L 81.64 155.02 L 122.96 93.08 L 119.62 84.31 L 133.74 47.32 L 73.15 150.70 L 124.92 48.02 L 119.74 90.38 L 128.73 88.28 L 114.12 99.08 L 118.60 88.96 L 162.77 73.84 L 103.70 99.42 L 96.94 115.14 L 108.91 80.60 L 112.97 72.62 L 166.54 123.06 L 144.87 104.82 L 106.95 105.89 L 128.50 88.56 L 166.78 123.37 L 94.03 55.36 L 110.69 122.68 L 46.23 81.14 L 99.58 59.24 L 131.88 89.60 L 109.51 76.96 L 148.75 104.21 L 124.74 96.65 L 95.03 95.97 L 90.97 156.46 L 102.29 116.13 L 159.99 119.15 L 85.75 100.41 L 60.32 112.48 L 73.77 151.72 L 51.27 117.57 L 109.47 45.85 L 101.25 81.68 L 32.73 78.26 L 108.26 84.72 L 133.18 50.83 L 168.90 67.58 L 82.98 145.34 L 77.48 76.12 L 40.47 89.25 L 105.80 101.57 L 94.80 79.35 L 128.87 51.85 L 109.48 75.44 L 133.69 114.47 L 113.10 84.20 L 109.67 45.14 L 138.94 85.88 L 105.70 90.35 L 57.56 99.02 L 112.68 100.66 L 106.75 105.73 L 143.72 104.04 L 76.95 108.24 L 48.88 94.89 L 30.99 139.49 L 108.71 86.63 L 98.33 118.55 L 95.19 119.84 L 108.96 80.68 L 153.87 118.13 L 136.51 88.36 L 161.69 119.60 L 97.87 90.71 L 165.86 71.18 L 94.98 91.77 L 72.93 108.00 L 110.26 46.64 L 67.58 101.00 L 104.14 93.65 L 154.73 117.92 L 154.75 79.08 L 74.08 151.34 L 83.02 87.62 L 108.87 80.54 L 101.77 117.45 L 59.11 113.70 L 87.70 117.18 L 84.62 117.80 L 114.53 48.14 L 157.70 118.59 L 138.60 107.75 L 114.12 93.13 L 87.74 132.49 L 115.18 55.45 L 110.75 46.87 L 99.02 88.57 L 104.09 80.34 L 146.84 117.94 L 114.04 122.64 L 75.60 105.82 L 139.13 87.77 L 139.40 87.48 L 163.52 69.14 L 49.82 98.34 L 81.84 116.78 L 61.80 151.00 L 40.10 80.87 L 109.27 44.17 L 73.84 151.43 L 112.40 47.47 L 84.25 110.65 L 109.89 99.65 L 164.86 71.16 L 100.69 88.75 L 67.83 150.08 L 32.74 78.39 L 89.84 139.69 L 104.47 84.29 L 126.65 49.11 L 49.84 83.01 L 118.83 92.75 L 111.03 69.84 L 116.98 119.53 L 73.01 112.21 L 97.51 87.31 L 123.81 93.53 L 98.38 96.04 L 76.84 105.90 L 137.40 84.79 L 110.28 74.08 L 95.97 78.37 L 118.20 48.61 L 113.83 82.73 L 138.03 88.23 L 85.44 77.01 L 88.81 117.66 L 115.62 85.29 L 121.65 87.13 L 64.78 75.53 L 102.88 94.31 L 83.00 102.20 L 67.29 112.42 L 80.00 115.11 L 38.95 75.14 L 104.32 110.43 L 76.57 114.14 L 91.75 98.41 L 87.77 132.16 L 53.54 83.52 L 93.19 78.85 L 39.35 76.09 L 140.92 104.17 L 75.06 112.80 L 79.02 104.09 L 108.40 96.29 L 83.41 107.66 L 59.85 97.91 L 159.69 119.11 L 109.25 111.23 L 125.65 48.43 L 84.39 104.30 L 30.50 133.31 L 84.85 117.87 L 125.46 93.82 L 48.91 118.35 L 90.09 107.87 L 84.91 101.14 L 82.24 102.61 L 130.08 88.75 L 109.24 43.98 L 142.14 55.83 L 128.87 91.68 L 52.93 82.30 L 90.02 78.73 L 45.61 75.69 L 79.58 105.84 L 120.88 123.63 L 151.65 79.70 L 89.63 138.44 L 99.01 96.76 L 117.75 91.01 L 95.60 79.70 L 81.03 107.92 L 56.37 115.50 L 119.47 112.25 L 120.20 84.03 L 146.91 117.83 L 84.20 104.34 L 70.75 86.22 L 90.69 154.42 L 50.17 95.24 L 125.47 52.37 L 106.62 87.69 L 82.68 117.10 L 76.84 105.95 L 97.28 143.57 L 63.37 85.15 L 126.61 87.71 L 54.49 149.53 L 88.98 98.15 L 118.94 92.03 L 75.17 151.37 L 110.37 91.08 L 91.28 88.71 L 91.31 95.68 L 90.68 98.65 L 89.14 105.53 L 119.28 83.73 L 49.83 95.43 L 45.49 75.64 L 86.53 99.96 L 91.89 99.15 L 74.52 77.50 L 166.85 58.34 L 101.81 92.03 L 77.24 147.13 L 109.86 46.42 L 44.48 121.39 L 138.28 100.09 L 76.04 106.38 L 53.63 81.01 L 87.63 132.87 L 90.46 115.15 L 140.55 87.10 L 46.49 82.32 L 112.53 73.08 L 131.29 91.22 L 29.44 135.20 L 73.57 151.53 L 98.76 142.47 L 97.98 83.94 L 90.51 154.65 L 138.26 99.06 L 83.94 110.13 L 97.22 93.86 L 126.84 49.09 L 57.88 83.63 L 107.40 101.19 L 52.98 97.00 L 110.03 44.54 L 113.52 99.70 L 167.77 122.13 L 81.83 106.51 L 103.40 120.29 L 89.45 97.71 L 90.65 156.35 L 125.27 49.12 L 126.68 48.63 L 141.70 86.26 L 109.26 44.29 L 149.52 104.02 L 86.67 155.68 L 126.66 48.64 L 40.31 89.89 L 127.90 113.77 L 115.75 93.62 L 113.28 86.56 L 76.34 105.62 L 148.57 103.94 L 91.60 95.40 L 87.60 143.27 L 85.01 151.77 L 69.86 147.66 L 93.31 96.23 L 124.61 52.55 L 93.10 79.67 L 162.89 124.09 L 150.53 120.04 L 114.82 114.44 L 101.33 60.62 L 50.95 75.21 L 111.40 88.44 L 74.73 106.86 L 51.92 80.26 L 93.67 97.02 L 117.06 94.59 L 80.04 76.38 L 86.24 85.57 L 130.58 46.77 L 62.69 75.16 L 70.69 110.03 L 59.43 113.24 L 91.14 125.43 L 89.91 108.99 L 124.22 124.01 L 100.36 106.62 L 155.94 125.24 L 39.51 144.68 L 97.34 83.00 L 135.68 88.86 L 98.39 107.94 L 92.85 118.26 L 101.99 140.72 L 96.00 90.37 L 106.25 86.96 L 141.31 115.50 L 98.53 86.81 L 76.58 114.05 L 66.66 111.29 L 93.13 113.93 L 134.13 88.71 L 148.94 82.35 L 96.32 143.74 L 111.99 70.86 L 97.36 90.62 L 96.47 120.54 L 64.83 111.25 L 103.33 107.58 L 126.76 92.64 L 90.08 155.61 L 99.48 105.11 L 86.44 107.81 L 61.61 99.67 L 88.11 115.08 L 74.54 87.01 L 86.74 155.91 L 96.47 78.63 L 98.14 120.18 L 109.79 103.08 L 148.00 119.74 L 94.21 143.96 L 116.64 48.76 L 110.87 59.14 L 166.31 121.17 L 92.20 106.16 L 159.62 111.20 L 81.11 115.50 L 90.64 130.96 L 102.00 62.78 L 49.34 118.70 L 90.25 154.93 L 120.60 84.30 L 58.44 137.24 L 154.28 78.04 L 135.70 98.54 L 126.82 87.71 L 101.75 88.64 L 51.08 83.10 L 89.20 99.32 L 63.43 112.19 L 84.65 105.82 L 100.60 89.22 L 90.41 130.68 L 81.14 151.09 L 75.29 75.96 L 147.82 125.18 L 115.70 111.03 L 101.56 111.17 L 154.22 117.81 L 100.58 104.01 L 130.38 91.61 L 104.39 83.63 L 103.60 80.33 L 125.66 88.41 L 83.86 114.81 L 161.86 69.91 L 93.69 115.45 L 126.19 49.05 L 53.84 75.38 L 79.50 111.62 L 128.72 122.98 L 78.41 110.36 L 134.57 47.51 L 87.69 129.30 L 109.41 103.71 L 115.10 94.13 L 36.05 127.13 L 106.08 80.06 L 91.18 108.33 L 157.82 77.07 L 76.95 113.55 L 97.86 107.62 L 77.76 105.66 L 93.93 92.37 L 104.62 80.19 L 109.60 44.06 L 107.26 84.87 L 70.91 150.47 L 108.88 104.04 L 39.39 75.68 L 49.14 95.23 L 93.21 106.93 L 96.41 92.79 L 99.35 59.89 L 98.25 90.36 L 111.48 77.57 L 112.08 101.15 L 48.84 80.06 L 103.39 104.55 L 49.95 80.48 L 49.84 80.38 L 71.83 109.12 L 103.20 75.31 L 109.08 55.50 L 121.31 90.69 L 88.12 114.01 L 126.37 92.62 L 98.51 140.91 L 135.33 88.56 L 104.24 82.63 L 112.66 78.33 L 112.88 111.83 L 74.37 106.93 L 77.06 76.21 L 115.59 89.40 L 127.14 46.28 L 76.79 112.01 L 81.02 136.69 L 88.34 129.48 L 104.21 82.02 L 82.46 106.27 L 118.00 95.01 L 142.15 86.27 L 109.36 85.52 L 116.91 119.01 L 83.38 104.75 L 105.28 110.10 L 111.74 97.29 L 33.51 76.88 L 110.26 91.88 L 131.22 98.60 L 31.21 77.20 L 138.44 99.16 L 77.99 104.08 L 49.31 82.91 L 53.07 142.54 L 86.09 121.89 L 149.30 104.05 L 153.74 78.63 L 110.26 89.07 L 79.17 104.31 L 89.82 100.18 L 137.06 100.72 L 100.97 140.56 L 99.59 120.85 L 48.39 91.80 L 97.98 109.71 L 88.87 126.16 L 74.13 112.64 L 122.75 91.35 L 115.22 121.76 L 103.30 64.23 L 110.96 85.75 L 91.82 96.93 L 89.04 78.36 L 110.93 101.77 L 113.59 111.29 L 137.62 99.77 L 135.95 88.64 L 126.08 123.59 L 109.77 44.29 L 136.39 124.59 L 102.64 103.97 L 149.18 110.15 L 98.21 59.53 L 90.30 105.15 L 127.57 49.28 L 120.95 84.36 L 101.91 105.62 L 91.75 55.97 L 119.81 88.41 L 127.96 49.39 L 51.19 117.99 L 126.54 124.14 L 128.60 49.36 L 109.75 83.28 L 37.55 128.24 L 139.84 119.02 L 60.05 114.03 L 101.76 102.57 L 159.12 54.18 L 149.67 105.11 L 134.45 123.40 L 99.02 119.39 L 118.12 95.02 L 71.39 102.32 L 136.31 87.88 L 149.19 104.69 L 160.74 124.02 L 128.72 64.33 L 122.16 85.11 L 94.50 97.79 L 86.83 114.97 L 100.65 119.63 L 87.89 129.73 L 139.37 115.21 L 123.41 94.54 L 97.97 85.59 L 93.72 78.76 L 98.84 138.50 L 110.18 85.80 L 48.68 118.03 L 84.54 144.73 L 32.17 140.74 L 123.12 90.46 L 163.79 72.77 L 70.10 150.38 L 114.28 122.78 L 131.40 114.19 L 91.94 119.03 L 47.02 120.22 L 112.79 78.16 L 120.20 48.80 L 80.68 155.22 L 79.20 104.00 L 103.15 85.75 L 111.87 73.67 L 136.40 98.49 L 148.53 55.06 L 154.27 124.98 L 52.43 142.31 L 61.07 113.43 L 109.24 89.55 L 158.30 118.74 L 29.76 137.15 L 127.65 92.75 L 64.40 101.65 L 45.94 96.68 L 111.98 100.07 L 101.89 114.07 L 152.09 51.92 L 104.38 119.26 L 170.11 64.91 L 165.04 57.16 L 146.64 119.91 L 86.91 126.08 L 74.21 108.85 L 80.94 116.44 L 76.64 76.05 L 80.05 105.09 L 77.59 112.05 L 86.64 127.41 L 148.01 51.62 L 43.86 76.08 L 105.53 108.42 L 155.70 118.16 L 56.27 114.78 L 89.92 112.98 L 149.88 120.46 L 108.17 120.82 L 82.62 104.57 L 121.43 122.48 L 79.03 150.18 L 76.13 116.28 L 62.97 112.06 L 112.40 94.24 L 74.19 112.75 L 93.72 112.88 L 77.38 105.08 L 74.05 112.62 L 124.01 93.42 L 70.17 150.49 L 72.63 112.10 L 133.05 124.46 L 50.99 80.16 L 122.61 52.86 L 43.18 122.14 L 102.57 85.96 L 29.81 136.38 L 144.97 102.45 L 90.21 118.24 L 101.82 116.94 L 160.80 124.02 L 103.16 84.14 L 120.44 87.71 L 36.75 79.93 L 152.13 80.67 L 107.01 91.73 L 95.99 93.62 L 42.68 137.83 L 89.79 140.40 L 157.82 62.50 L 109.29 45.85 L 127.41 87.90 L 121.16 120.28 L 75.85 109.11 L 92.01 112.00 L 50.62 141.72 L 90.62 95.06 L 109.33 90.44 L 85.15 151.76 L 155.97 61.45 L 116.96 85.11 L 150.08 104.21 L 157.05 114.84 L 32.16 131.04 L 97.69 84.56 L 123.28 64.79 L 75.03 75.95 L 62.07 81.31 L 68.09 110.42 L 106.09 60.95 L 134.05 50.41 L 70.61 153.34 L 82.61 150.99 L 146.90 124.78 L 136.95 86.85 L 102.25 120.84 L 70.26 147.77 L 69.83 111.28 L 68.89 150.24 L 53.56 81.23 L 150.19 119.70 L 94.65 92.15 L 56.14 114.98 L 137.16 88.39 L 130.38 89.46 L 101.07 112.03 L 74.50 112.78 L 71.04 102.12 L 90.85 155.93 L 66.87 146.85 L 133.48 89.49 L 98.99 142.43 L 76.21 154.55 L 72.19 75.77 L 84.42 150.70 L 96.60 115.17 L 95.96 96.22 L 85.77 119.80 L 90.01 155.27 L 170.38 65.70 L 53.76 80.65 L 42.20 137.51 L 88.60 155.87 L 166.73 121.74 L 169.94 66.14 L 118.74 89.62 L 52.75 82.70 L 90.50 105.72 L 112.27 75.09 L 97.77 82.26 L 67.64 150.05 L 120.62 78.92 L 163.75 120.22 L 119.81 90.19 L 119.45 53.86 L 31.60 140.24 L 51.54 83.18 L 122.47 53.04 L 133.62 50.63 L 104.32 104.47 L 109.07 95.80 L 164.72 71.89 L 86.05 152.05 L 63.30 111.58 L 113.37 93.78 L 137.28 99.18 L 102.75 90.47 L 82.91 76.65 L 137.51 115.06 L 89.41 93.97 L 72.67 109.82 L 53.27 81.63 L 69.96 79.18 L 97.06 87.11 L 90.80 156.05 L 124.07 48.34 L 90.28 155.52 L 87.73 99.01 L 88.57 81.29 L 106.26 85.02 L 149.67 104.23 L 99.39 119.13 L 158.37 118.75 L 128.66 91.62 L 129.60 95.42 L 165.82 123.35 L 116.01 95.56 L 105.97 74.59 L 123.67 96.36 L 119.46 91.48 L 98.67 142.65 L 48.26 79.63 L 161.19 65.28 L 138.95 87.77 L 77.40 107.94 L 90.51 144.76 L 98.73 138.75 L 145.71 116.19 L 60.38 98.16 L 110.53 97.44 L 116.75 92.78 L 62.12 101.07 L 98.61 58.41 L 116.03 89.71 L 136.87 48.30 L 108.68 55.60 L 105.19 102.67 L 140.03 124.39 L 109.17 121.73 L 71.16 111.44 L 90.13 113.63 L 133.14 114.41 L 89.94 102.36 L 143.02 124.41 L 159.06 76.61 L 150.62 125.26 L 127.47 51.62 L 126.35 89.46 L 150.15 119.68 L 162.54 73.51 L 81.34 116.60 L 139.63 101.70 L 95.35 80.76 L 90.82 156.64 L 109.55 86.94 L 89.47 129.99 L 111.69 91.58 L 112.62 100.71 L 93.57 133.09 L 124.16 94.42 L 38.95 124.63 L 49.23 82.75 L 86.50 133.10 L 70.15 150.38 L 90.12 58.40 L 127.30 46.51 L 141.42 86.65 L 87.83 98.93 L 117.18 92.91 L 81.28 87.39 L 109.12 43.92 L 85.79 116.98 L 131.35 123.52 L 163.78 73.18 L 162.12 67.64 L 112.43 97.19 L 109.79 114.06 L 98.38 94.22 L 132.49 49.97 L 88.96 88.39 L 52.30 92.61 L 73.90 106.50 L 119.29 83.71 L 107.59 102.27 L 106.90 55.44 L 81.98 116.25 L 86.07 77.18 L 117.66 97.62 L 138.56 100.46 L 89.14 137.49 L 106.77 122.02 L 83.90 77.61 L 106.29 107.29 L 64.00 112.56 L 101.24 62.40 L 53.12 149.23 L 49.97 94.79 L 132.22 90.25 L 109.63 45.17 L 167.88 69.11 L 89.23 99.13 L 98.18 141.12 L 59.42 96.88 L 126.02 52.26 L 162.36 55.89 L 136.97 99.33 L 96.46 90.15 L 116.42 97.17 L 118.73 93.81 L 128.79 91.81 L 51.66 80.34 L 112.20 68.37 L 77.25 108.09 L 42.61 122.50 L 151.89 80.15 L 94.75 78.23 L 109.87 44.72 L 104.92 86.07 L 57.83 113.84 L 90.44 155.55 L 77.96 76.65 L 162.35 72.04 L 128.14 89.90 L 95.74 93.20 L 103.98 102.74 L 43.28 146.41 L 47.20 92.85 L 101.85 62.53 L 90.49 153.81 L 91.38 156.66 L 126.57 92.41 L 124.15 93.43 L 65.23 110.37 L 51.86 144.92 L 138.30 101.23 L 130.53 91.49 L 130.82 88.63 L 112.46 74.06 L 53.34 80.26 L 151.77 80.88 L 115.74 96.64 L 115.70 53.92 L 130.48 123.02 L 102.19 114.77 L 105.54 96.87 L 69.80 150.44 L 90.61 90.50 L 91.52 104.61 L 104.40 65.23 L 146.95 102.70 L 107.97 85.50 L 35.21 128.23 L 121.10 84.98 L 128.23 88.14 L 68.12 109.11 L 115.58 94.07 L 145.63 50.40 L 88.96 100.25 L 116.51 68.79 L 99.56 59.26 L 80.14 146.30 L 140.67 102.97 L 110.96 101.38 L 53.86 116.26 L 111.97 100.42" fill="none" stroke="url(#grad)" stroke-width="0.3" stroke-opacity="0.8"/>
</svg>