<?xml version="1.0" encoding="UTF-8"?>
<svg xmlns="http://www.w3.org/2000/svg" width="200" height="200" viewBox="0 0 200 200">
  <defs>
    <linearGradient id="grad" x1="0%" y1="0%" x2="100%" y2="100%">
      <stop offset="0%" style="stop-color:#f59e0b;stop-opacity:1" />
      <stop offset="100%" style="stop-color:#ea580c;stop-opacity:1" />
    </linearGradient>
  </defs>
  <rect width="100%" height="100%" fill="#0a0a0f"/>
  <path d="M 2.72 54.51 L 116.99 187.71 L 183.86 65.24 L 66.74 72.30 L 97.37 91.16 L 122.20 95.23 L 110.58 43.71 L 33.35 140.15 L 13.00 145.65 L 19.53 55.83 L 113.47 175.55 L 164.22 78.44 L 117.43 92.94 L 111.27 48.19 L 39.89 136.09 L 197.07 146.17 L 123.67 0.50 L 123.05 198.31 L 118.27 186.17 L 184.12 63.79 L 61.80 71.33 L 88.61 128.24 L 107.11 1.88 L 104.37 156.14 L 92.67 117.31 L 122.97 121.36 L 134.15 110.16 L 124.38 73.59 L 80.50 97.69 L 116.64 125.67 L 116.42 115.97 L 188.94 128.12 L 56.30 60.60 L 43.22 149.49 L 70.27 62.69 L 55.86 133.94 L 199.03 141.38 L 9.41 49.65 L 110.62 172.16 L 148.28 89.54 L 156.26 113.00 L 108.97 9.83 L 107.54 174.47 L 124.72 104.85 L 126.59 114.95 L 131.09 110.89 L 129.98 85.41 L 124.80 87.71 L 108.48 105.58 L 112.31 104.19 L 89.05 102.30 L 71.34 134.18 L 38.25 50.99 L 93.29 99.16 L 40.25 146.73 L 103.93 169.55 L 166.32 118.13 L 9.49 156.54 L 174.50 77.33 L 106.59 63.75 L 41.78 138.90 L 115.30 4.29 L 115.28 195.66 L 41.88 61.13 L 106.55 136.06 L 178.90 124.00 L 106.29 183.21 L 124.75 105.74 L 90.90 118.54 L 138.74 121.48 L 127.52 68.09 L 72.68 102.07 L 132.79 131.38 L 137.10 72.17 L 76.87 92.23 L 114.36 126.93 L 96.15 100.15 L 112.24 69.64 L 68.84 116.76 L 156.39 131.03 L 126.34 46.98 L 49.15 117.00 L 164.21 143.39 L 134.48 37.84 L 38.29 114.61 L 165.97 151.92 L 142.02 33.77 L 31.79 110.46 L 164.26 158.30 L 149.09 32.86 L 28.30 105.32 L 160.32 162.98 L 155.46 34.21 L 27.26 99.73 L 154.89 166.00 L 160.77 37.40 L 28.52 94.17 L 148.44 167.16 L 164.53 42.23 L 32.27 89.09 L 141.32 166.00 L 165.98 48.79 L 39.10 85.07 L 133.74 161.56 L 163.79 57.57 L 50.52 82.90 L 125.49 151.74 L 155.12 70.54 L 71.80 83.35 L 107.08 122.23 L 179.94 127.23 L 10.21 153.77 L 193.48 64.82 L 80.00 73.29 L 108.69 63.87 L 51.44 131.60 L 188.53 140.51 L 120.43 11.43 L 8.47 141.02 L 198.38 1.59 L 13.00 59.15 L 196.11 53.19 L 38.33 64.27 L 112.54 155.72 L 138.57 93.75 L 100.26 166.89 L 145.28 115.88 L 118.59 54.61 L 55.86 120.61 L 166.79 138.09 L 128.15 36.07 L 37.63 121.02 L 173.86 150.11 L 136.66 27.44 L 26.92 117.93 L 174.74 158.98 L 145.04 23.84 L 20.43 112.86 L 172.07 165.85 L 153.11 23.39 L 16.88 106.71 L 167.15 171.09 L 160.54 25.19 L 15.73 100.10 L 160.75 174.73 L 166.98 28.78 L 16.82 93.48 L 153.33 176.58 L 171.95 33.97 L 20.29 87.31 L 145.29 176.21 L 174.71 40.79 L 26.68 82.20 L 136.91 172.73 L 173.95 49.59 L 37.23 79.03 L 128.41 164.29 L 167.13 61.49 L 55.15 79.31 L 118.95 146.20 L 146.54 82.86 L 109.64 69.65 L 63.52 122.64 L 168.80 133.68 L 122.97 33.15 L 34.62 127.51 L 183.31 150.16 L 132.35 18.82 L 19.17 125.79 L 187.03 161.60 L 142.03 12.58 L 9.91 120.70 L 185.32 170.47 L 151.70 10.72 L 4.37 113.85 L 180.51 177.55 L 161.02 11.67 L 1.51 106.13 L 173.72 183.07 L 169.64 14.68 L 0.94 98.05 L 165.60 186.99 L 177.18 19.39 L 2.58 90.09 L 156.61 189.07 L 183.12 25.65 L 6.65 82.71 L 147.08 188.81 L 186.63 33.54 L 13.79 76.57 L 137.36 185.13 L 186.14 43.49 L 25.56 72.81 L 127.80 175.69 L 178.25 56.82 L 45.92 73.73 L 118.35 154.53 L 153.73 79.01 L 101.62 68.71 L 11.40 159.13 L 68.44 66.08 L 68.67 124.61 L 174.21 132.20 L 119.00 24.87 L 25.01 136.07 L 198.24 154.31 L 9.25 136.28 L 199.49 184.46 L 192.40 192.29 L 183.47 198.58 L 187.64 4.04 L 195.83 11.01 L 4.94 64.57 L 127.78 193.72 L 196.06 48.49 L 29.76 64.68 L 117.40 169.57 L 166.93 73.03 L 82.26 78.28 L 79.65 114.07 L 145.84 125.65 L 126.74 58.84 L 61.92 109.68 L 149.20 136.81 L 134.97 53.52 L 54.78 106.02 L 148.40 142.94 L 141.02 52.30 L 51.78 101.94 L 145.30 146.47 L 145.62 53.73 L 51.91 97.71 L 140.58 147.71 L 148.56 57.46 L 55.18 93.66 L 134.40 146.23 L 149.13 63.85 L 62.79 90.04 L 125.85 140.41 L 145.18 75.83 L 83.03 84.88 L 68.75 128.77 L 190.49 136.11 L 11.78 149.32 L 199.07 58.26 L 54.44 65.70 L 86.05 130.64 L 26.82 45.09 L 76.79 124.85 L 179.47 131.29 L 115.66 14.40 L 2.84 146.77 L 22.23 56.73 L 113.06 172.24 L 159.62 81.20 L 106.11 61.55 L 35.86 142.65 L 5.81 47.17 L 109.84 172.94 L 143.99 92.55 L 107.43 37.74 L 4.76 155.76 L 46.72 60.27 L 83.93 132.26 L 30.15 45.08 L 81.56 119.20 L 157.80 125.57 L 120.56 43.38 L 44.69 124.80 L 176.37 144.25 L 129.72 26.16 L 27.21 124.53 L 182.26 156.28 L 138.91 18.32 L 16.85 120.48 L 182.01 165.40 L 148.13 15.41 L 10.58 114.44 L 178.28 172.60 L 157.05 15.56 L 7.18 107.36 L 172.36 178.21 L 165.36 17.91 L 6.12 99.83 L 165.00 182.24 L 172.67 22.01 L 7.28 92.30 L 156.66 184.50 L 178.50 27.69 L 10.80 85.25 L 147.71 184.53 L 182.11 34.98 L 17.22 79.28 L 138.49 181.44 L 182.16 44.20 L 27.82 75.36 L 129.31 173.30 L 175.88 56.41 L 45.76 75.32 L 120.11 155.45 L 156.36 75.68 L 85.25 80.45 L 105.98 82.92 L 81.49 105.59 L 128.24 125.68 L 135.04 81.83 L 116.38 100.21 L 133.40 118.30 L 129.64 77.31 L 87.53 87.87 L 31.36 152.76 L 80.76 68.60 L 88.11 98.45 L 92.83 105.99 L 108.75 89.42 L 144.92 113.15 L 116.01 50.12 L 49.18 126.73 L 178.33 141.18 L 125.81 24.07 L 25.45 129.19 L 188.68 155.92 L 135.59 12.77 L 12.15 125.93 L 190.14 166.67 L 145.67 8.21 L 4.12 119.84 L 187.00 175.17 L 155.65 7.46 L 159.81 7.96 L 179.14 183.65 L 169.04 10.61 L 171.17 188.46 L 177.31 15.03 L 162.13 191.58 L 184.17 21.02 L 1.28 84.03 L 151.00 192.56 L 188.89 28.59 L 7.40 77.06 L 140.93 190.24 L 190.20 38.03 L 17.54 72.07 L 130.94 183.06 L 185.36 50.31 L 34.72 70.98 L 121.38 166.47 L 167.68 68.53 L 68.34 77.77 L 98.01 113.08 L 51.01 139.79 L 108.09 195.47 L 82.06 72.29 L 104.91 50.20 L 11.27 43.65 L 159.26 86.02 L 109.47 111.06 L 102.97 88.94 L 84.50 101.83 L 114.23 123.06 L 124.50 118.03 L 148.36 108.71 L 108.66 15.35 L 29.02 52.19 L 104.16 133.91 L 10.22 36.55 L 84.50 133.96 L 22.72 40.03 L 56.46 142.95 L 57.73 57.62 L 18.46 161.21 L 92.27 64.72 L 3.19 170.10 L 88.56 64.20 L 13.68 165.66 L 92.79 136.96 L 10.07 33.99 L 84.70 135.26 L 11.01 33.61 L 88.10 135.10 L 9.80 33.31 L 87.88 134.82 L 12.29 34.62 L 84.42 135.65 L 7.45 31.72 L 90.90 135.28 L 13.96 35.90 L 76.92 137.62 L 190.26 78.09 L 96.25 48.53 L 42.54 47.80 L 54.28 145.06 L 57.14 56.24 L 31.86 156.75 L 97.17 55.46 L 194.34 74.47 L 98.37 47.46 L 180.59 81.25 L 100.60 15.73 L 145.83 98.90 L 42.51 48.97 L 52.63 142.75 L 57.31 59.38 L 21.82 159.77 L 88.87 66.47 L 5.46 167.83 L 98.11 56.45 L 188.26 76.85 L 97.13 36.32 L 155.63 96.86 L 97.68 9.89 L 93.27 139.20 L 34.92 44.40 L 57.96 143.79 L 51.26 53.16 L 49.45 148.44 L 53.97 53.62 L 51.55 148.02 L 46.80 49.81 L 53.24 145.76 L 57.00 55.95 L 35.91 155.15 L 92.70 61.43 L 9.35 31.98 L 91.34 137.19 L 40.04 46.85 L 53.39 144.85 L 60.13 58.21 L 16.27 161.46 L 96.95 59.66 L 197.68 72.48 L 100.41 50.17 L 177.56 80.73 L 105.90 37.41 L 20.12 47.35 L 104.23 140.38 L 199.23 129.61 L 97.25 132.30 L 164.34 123.71 L 115.51 29.74 L 27.45 138.31 L 123.03 6.32 L 1.66 140.00 L 198.64 2.94 L 12.65 59.51 L 196.46 52.48 L 36.89 64.07 L 113.11 158.04 L 144.62 89.52 L 150.43 112.95 L 112.07 32.83 L 25.56 142.61 L 3.39 52.82 L 115.01 183.90 L 176.43 70.85 L 83.42 76.32 L 107.18 56.60 L 35.20 142.20 L 0.94 152.72 L 30.28 55.98 L 108.12 151.36 L 175.15 118.88 L 101.52 154.38 L 154.86 117.55 L 114.34 36.47 L 33.00 136.71 L 198.06 149.53 L 126.52 1.34 L 195.75 198.25 L 2.12 60.54 L 123.37 193.37 L 27.27 61.95 L 115.86 170.79 L 165.56 75.31 L 92.46 74.43 L 39.17 144.20 L 26.33 50.41 L 103.74 133.43 L 11.73 38.89 L 94.76 125.49 L 146.12 121.01 L 122.68 57.57 L 60.36 114.26 L 155.97 136.63 L 131.76 47.03 L 48.54 112.17 L 158.56 145.39 L 138.95 42.39 L 41.81 108.65 L 157.62 151.54 L 145.35 41.06 L 38.30 104.24 L 154.43 155.82 L 150.91 42.08 L 37.37 99.45 L 149.73 158.33 L 155.31 45.00 L 38.86 94.70 L 143.96 158.86 L 158.06 49.68 L 43.02 90.45 L 137.39 156.90 L 158.35 56.33 L 50.67 87.21 L 129.96 151.25 L 154.63 65.95 L 64.31 85.48 L 119.58 138.28 L 139.61 87.77 L 126.09 114.44 L 154.12 109.35 L 25.12 46.58 L 87.67 131.08 L 25.98 44.32 L 76.70 124.81 L 179.21 131.23 L 115.72 14.80 L 3.36 146.47 L 22.92 57.08 L 113.07 171.56 L 158.98 81.52 L 103.27 52.23 L 22.46 45.97 L 97.68 120.39 L 109.77 101.81 L 105.61 107.27 L 118.87 81.39 L 122.35 92.49 L 105.84 16.03 L 179.69 75.99 L 103.26 53.82 L 21.54 45.70 L 99.01 120.44 L 78.74 118.71 L 157.42 126.47 L 121.60 44.46 L 46.11 123.08 L 173.47 143.74 L 130.56 29.04 L 30.03 122.36 L 178.54 155.04 L 139.39 21.92 L 20.40 118.35 L 178.08 163.63 L 148.16 19.33 L 14.61 112.55 L 174.40 170.36 L 156.57 19.63 L 11.59 105.81 L 168.67 175.51 L 164.29 22.05 L 10.88 98.69 L 161.57 179.05 L 170.95 26.19 L 12.41 91.66 L 153.56 180.75 L 176.03 31.91 L 16.37 85.19 L 144.98 180.12 L 178.71 39.27 L 23.39 79.92 L 136.16 176.13 L 177.51 48.69 L 34.93 76.88 L 127.35 166.62 L 169.39 61.51 L 54.78 77.94 L 117.67 145.90 L 144.29 85.74 L 109.38 56.94 L 44.65 135.14 L 195.80 144.08 L 122.22 0.37 L 121.16 197.31 L 116.43 182.71 L 178.12 68.56 L 74.47 75.09 L 44.04 147.35 L 68.32 63.61 L 75.72 117.43 L 155.27 127.55 L 123.66 47.69 L 49.83 119.18 L 166.81 142.30 L 132.23 35.63 L 36.52 117.63 L 170.25 152.10 L 140.26 30.02 L 28.48 113.71 L 169.34 159.49 L 147.99 28.16 L 23.82 108.44 L 165.76 165.11 L 155.19 28.86 L 21.74 102.49 L 160.41 169.13 L 161.53 31.51 L 21.96 96.35 L 153.87 171.44 L 166.60 35.84 L 24.49 90.49 L 146.55 171.71 L 169.76 41.78 L 29.72 85.41 L 138.75 169.25 L 170.00 49.55 L 38.56 81.85 L 130.66 162.70 L 165.42 59.98 L 53.32 80.90 L 121.77 148.76 L 151.27 76.76 L 86.94 81.18 L 108.16 60.53 L 44.73 136.05 L 198.32 144.43 L 5.08 146.46 L 19.52 56.12 L 113.77 176.00 L 165.59 77.45 L 111.30 85.75 L 140.13 111.88 L 118.68 59.74 L 61.65 117.04 L 159.43 135.20 L 128.81 43.74 L 45.54 116.48 L 165.05 146.06 L 136.70 36.39 L 36.19 113.49 L 165.62 153.87 L 144.10 33.38 L 30.67 108.99 L 163.17 159.72 L 150.98 33.20 L 27.94 103.68 L 158.75 163.91 L 157.06 35.12 L 27.58 98.07 L 152.99 166.40 L 161.96 38.79 L 29.54 92.62 L 146.33 166.94 L 165.12 44.10 L 34.11 87.80 L 139.07 164.92 L 165.65 51.24 L 42.09 84.24 L 131.36 159.18 L 161.94 60.91 L 55.49 82.83 L 122.55 146.88 L 149.95 76.68 L 86.19 81.90 L 96.74 79.76 L 29.24 150.03 L 49.71 58.96 L 98.38 84.83 L 51.05 135.65 L 113.81 8.68 L 13.44 51.11 L 188.01 65.48 L 73.02 72.73 L 29.45 155.98 L 93.11 130.65 L 199.71 135.83 L 43.56 56.46 L 81.49 121.10 L 164.54 126.67 L 118.27 34.08 L 34.05 132.36 L 190.50 149.39 L 128.26 11.90 L 12.83 132.79 L 197.85 163.56 L 138.97 2.71 L 0.84 127.92 L 196.76 175.56 L 191.63 183.90 L 165.29 0.71 L 183.02 191.47 L 175.26 4.17 L 173.91 196.42 L 184.20 9.35 L 163.82 199.63 L 193.37 18.30 L 197.23 25.76 L 198.15 30.02 L 5.21 69.59 L 134.34 194.36 L 196.06 41.91 L 20.29 66.48 L 123.90 180.94 L 182.83 58.63 L 48.65 70.85 L 113.68 147.91 L 131.73 97.70 L 105.96 8.42 L 171.46 80.78 L 104.58 32.74 L 197.46 66.45 L 105.75 73.12 L 53.68 131.81 L 189.91 139.91 L 17.89 142.31 L 1.48 56.31 L 119.36 191.52 L 35.58 62.15 L 111.80 156.95 L 135.63 96.07 L 101.71 193.81 L 151.56 105.61 L 101.60 175.57 L 160.23 117.23 L 111.19 19.32 L 6.08 47.94 L 110.47 174.99 L 150.48 88.50 L 149.88 112.56 L 111.98 32.96 L 25.51 142.72 L 2.84 52.61 L 115.04 184.53 L 177.12 70.48 L 82.45 76.18 L 109.89 66.74 L 59.50 125.44 L 174.95 135.84 L 122.18 26.44 L 27.62 131.69 L 191.24 153.68 L 132.17 10.86 L 11.07 129.78 L 195.00 165.95 L 142.69 4.39 L 1.30 124.06 L 150.28 2.78 L 190.01 180.11 L 160.69 3.20 L 183.28 186.92 L 170.54 5.89 L 174.92 192.18 L 179.47 10.39 L 165.46 195.77 L 187.06 16.46 L 155.28 197.35 L 192.63 24.10 L 194.14 27.90 L 4.47 73.46 L 138.64 193.85 L 194.49 38.33 L 16.32 68.88 L 128.27 184.67 L 187.11 52.18 L 37.11 69.37 L 118.50 163.07 L 162.06 74.37 L 83.75 79.31 L 90.05 96.88 L 77.85 120.25 L 162.11 127.33 L 120.09 38.45 L 39.40 127.94 L 182.47 146.92 L 129.54 19.98 L 20.91 127.71 L 188.59 159.63 L 139.34 11.85 L 10.08 123.24 L 188.04 169.29 L 149.27 8.96 L 3.52 116.62 L 183.83 177.01 L 158.95 9.25 L 179.38 181.53 L 166.80 11.29 L 171.79 186.54 L 175.11 15.35 L 163.06 189.88 L 0.62 88.94 L 156.35 191.08 L 185.24 24.93 L 4.98 81.43 L 146.57 190.62 L 188.64 33.12 L 12.52 75.27 L 136.63 186.58 L 187.77 43.45 L 24.96 71.68 L 126.93 176.35 L 178.86 57.42 L 46.78 73.23 L 117.34 153.13 L 150.96 81.69 L 121.29 93.61 L 108.08 31.06 L 1.80 156.51 L 36.42 56.10 L 103.39 126.57 L 142.00 119.60 L 124.07 63.19 L 66.86 108.97 L 145.68 133.71 L 133.74 57.80 L 59.76 104.57 L 144.13 139.79 L 139.86 57.34 L 57.70 100.13 L 140.15 142.59 L 143.96 59.98 L 59.53 95.68 L 134.15 142.33 L 145.68 65.83 L 66.25 91.29 L 124.83 137.35 L 142.60 78.94 L 93.24 77.57 L 63.29 127.11 L 179.93 134.96 L 118.99 18.96 L 19.01 138.96 L 8.65 139.38 L 197.15 195.35 L 195.04 2.86 L 6.62 60.76 L 123.10 191.45 L 192.88 54.71 L 41.24 65.88 L 112.63 153.15 L 134.88 96.09 L 102.03 193.33 L 149.93 105.70 L 102.77 178.79 L 180.69 120.60 L 99.89 146.50 L 29.15 42.25 L 56.62 143.64 L 56.21 56.18 L 30.97 157.03 L 98.58 53.97 L 184.08 78.83 L 99.26 20.55 L 157.28 94.01 L 100.85 6.98 L 139.86 102.52 L 106.67 7.07 L 167.59 82.42 L 109.69 55.85 L 44.33 135.06 L 195.51 144.17 L 122.43 0.90 L 122.63 199.50 L 196.10 55.36 L 43.31 64.60 L 109.97 145.71 L 172.90 115.97 L 99.81 154.55 L 189.35 126.40 L 100.57 139.44 L 14.15 40.09 L 92.50 127.81 L 181.23 129.28 L 14.71 150.17 L 195.57 61.94 L 66.75 69.71 L 85.66 111.53 L 132.65 123.33 L 132.21 76.23 L 84.71 89.49 L 108.20 89.20 L 104.96 106.38 L 123.87 89.27 L 107.59 35.35 L 3.32 156.29 L 48.82 61.12 L 68.38 138.11 L 45.13 51.39 L 49.88 144.46 L 61.66 60.90 L 34.12 148.90 L 104.10 162.35 L 126.03 116.07 L 132.72 110.56 L 127.22 78.80 L 92.92 81.33 L 113.40 92.85 L 118.86 69.10 L 73.26 108.32 L 140.79 129.82 L 132.63 63.90 L 66.92 101.57 L 136.36 135.46 L 139.06 66.54 L 68.76 95.26 L 127.56 135.13 L 141.01 76.58 L 84.86 85.61 L 37.06 151.28 L 110.60 76.56 L 79.11 107.06 L 133.77 126.72 L 133.56 73.09 L 78.84 93.25 L 112.00 124.58 L 174.02 122.82 L 0.06 40.88 L 106.32 159.77 L 176.51 119.52 L 101.35 152.71 L 175.00 122.42 L 5.88 41.21 L 70.26 68.36 L 53.80 136.16 L 112.03 3.07 L 109.89 181.00 L 153.23 87.61 L 152.63 111.82 L 109.62 17.91 L 111.89 199.22 L 52.44 62.97 L 67.81 133.69 L 13.61 42.55 L 102.39 134.06 L 192.61 132.16 L 197.31 65.17 L 93.95 68.62 L 171.04 86.23 L 106.39 37.43 L 8.48 43.58 L 63.93 66.51 L 44.06 147.93 L 69.64 63.60 L 74.90 118.12 L 157.12 127.98 L 123.15 45.52 L 47.49 120.89 L 169.96 143.39 L 131.85 32.46 L 33.31 119.54 L 173.85 153.71 L 140.22 26.39 L 24.74 115.51 L 173.01 161.55 L 148.39 24.32 L 19.69 109.97 L 169.31 167.61 L 156.10 24.92 L 17.27 103.66 L 163.75 172.07 L 163.02 27.52 L 17.14 97.10 L 156.95 174.88 L 168.75 31.80 L 19.28 90.73 L 149.31 175.73 L 172.70 37.66 L 24.00 85.07 L 141.18 174.02 L 173.95 45.27 L 32.09 80.81 L 132.82 168.52 L 170.75 55.24 L 45.43 79.08 L 124.22 156.54 L 159.36 69.71 L 70.10 81.44 L 106.39 121.64 L 159.68 121.62 L 115.81 35.14 L 33.29 135.14 L 195.20 149.46 L 126.15 7.01 L 5.60 136.72 L 194.89 192.25 L 186.07 198.88 L 190.94 4.44 L 198.83 11.89 L 129.79 197.77 L 198.21 47.08 L 27.15 63.65 L 117.66 172.30 L 169.91 71.29 L 77.79 77.48 L 35.32 152.99 L 107.35 69.52 L 55.09 130.03 L 185.44 138.71 L 120.10 14.33 L 124.78 4.12 L 199.51 194.90 L 196.84 2.71 L 10.59 59.92 L 22.17 61.00 L 117.41 177.04 L 174.16 69.46 L 74.30 76.05 L 84.54 112.89 L 137.84 123.61 L 129.48 68.94 L 73.58 99.89 L 129.20 131.08 L 137.92 76.74 L 85.38 86.51 L 38.74 150.21 L 131.21 106.67 L 125.51 77.38 L 88.11 88.73 L 31.98 152.30 L 79.60 68.43 L 92.48 89.09 L 124.80 91.95 L 104.35 6.17 L 100.90 132.83 L 158.75 121.99 L 116.66 37.71 L 36.68 132.62 L 190.41 147.77 L 126.69 11.91 L 12.99 134.24 L 199.57 162.93 L 3.00 131.40 L 198.15 178.21 L 192.44 186.46 L 184.56 193.12 L 176.26 2.23 L 175.24 198.22 L 185.45 7.49 L 193.14 14.32 L 198.57 22.74 L 137.99 198.87 L 133.25 195.61 L 197.51 42.32 L 20.41 65.36 L 122.70 180.70 L 182.16 60.18 L 51.74 71.15 L 112.00 142.73 L 148.97 107.73 L 11.33 157.46 L 161.40 85.50 L 114.88 104.46 L 87.26 125.84 L 188.38 132.40 L 19.85 49.97 L 107.37 157.92 L 168.56 112.51 L 94.84 131.45 L 187.28 131.07 L 13.59 46.77 L 170.78 78.37 L 107.34 65.54 L 48.35 134.43 L 195.24 142.66 L 7.91 145.41 L 14.33 55.58 L 193.12 58.91 L 51.91 66.85 L 105.45 126.81 L 190.98 131.23 L 198.85 64.29 L 91.31 71.10 L 15.39 159.27 L 98.91 60.16 L 188.16 75.91 L 97.57 34.30 L 150.66 99.42 L 97.62 176.74 L 172.72 111.97 L 95.82 153.78 L 187.26 120.29 L 93.72 138.13 L 7.59 32.76 L 87.93 134.28 L 16.87 37.15 L 71.37 139.35 L 63.70 57.45 L 38.58 154.46 L 84.92 63.64 L 18.31 163.47 L 97.25 53.58 L 192.86 75.34 L 97.65 46.68 L 185.88 79.15 L 96.78 36.15 L 96.10 153.04 L 188.74 121.25 L 77.62 62.79 L 11.90 164.61 L 95.49 60.41 L 172.78 86.79 L 100.71 12.87 L 143.49 100.21 L 100.98 185.38 L 177.88 116.81 L 98.19 158.97 L 187.54 125.41 L 100.69 141.29 L 13.08 37.43 L 72.04 138.49 L 69.59 60.53 L 13.37 163.25 L 97.92 57.97 L 190.33 75.79 L 97.06 41.60 L 189.49 78.04 L 96.38 46.57 L 199.21 73.12 L 97.97 51.27 L 185.83 78.62 L 97.43 31.34 L 152.06 99.02 L 97.64 186.31 L 158.40 104.20 L 96.89 166.84 L 183.14 118.90 L 164.16 91.33 L 101.61 10.79 L 138.83 101.87 L 106.54 6.90 L 167.88 82.36 L 109.73 55.92 L 44.52 134.93 L 195.22 144.06 L 13.38 142.96 L 8.80 56.55 L 117.81 186.39 L 183.75 64.44 L 63.75 71.77 L 66.89 137.63 L 46.87 53.31 L 48.06 145.70 L 64.73 61.87 L 55.89 134.23 L 112.82 9.45 L 14.54 50.49 L 183.84 68.68 L 84.09 75.09 L 108.50 58.67 L 43.68 136.40 L 198.85 144.89 L 4.72 146.43 L 118.25 194.68 L 34.92 60.62 L 110.54 154.71 L 117.26 107.40 L 165.17 121.82 L 113.25 22.78 L 117.99 2.21 L 118.28 198.68 L 113.51 178.71 L 167.45 76.79 L 109.46 83.04 L 109.69 87.47 L 106.96 96.91 L 105.12 91.45 L 116.49 113.59 L 193.48 130.29 L 61.59 62.68 L 20.64 158.84 L 93.72 64.74 L 181.13 82.29 L 97.39 28.66 L 152.56 99.03 L 97.63 188.46 L 156.64 103.49 L 97.04 165.21 L 186.55 121.61 L 97.84 149.22 L 197.60 126.02 L 96.48 154.67 L 189.39 122.23 L 97.21 154.93 L 191.59 124.23 L 97.46 145.36 L 28.01 41.34 L 65.55 141.53 L 72.09 61.16 L 13.27 163.72 L 95.93 60.09 L 168.67 88.73 L 102.43 14.79 L 141.76 99.22 L 101.06 187.52 L 171.40 112.45 L 95.69 140.72 L 5.63 31.94 L 89.39 133.70 L 21.23 39.96 L 56.87 141.23 L 54.50 57.69 L 32.71 155.85 L 100.68 54.62 L 182.91 77.37 L 99.98 20.48 L 152.10 95.97 L 99.09 4.57 L 153.32 97.33 L 98.03 5.37 L 166.11 91.55 L 98.70 14.97 L 160.27 93.34 L 100.44 8.23 L 142.73 101.29 L 102.38 184.30 L 172.32 113.46 L 95.14 135.71 L 18.58 41.77 L 75.66 136.86 L 68.52 60.35 L 13.65 162.62 L 99.42 57.70 L 185.08 77.26 L 99.13 22.68 L 159.43 92.90 L 102.25 11.05 L 137.95 101.64 L 106.79 9.78 L 170.09 80.83 L 103.18 26.43 L 157.67 89.63 L 127.10 89.78 L 107.27 34.03 L 0.12 158.14 L 47.79 60.25 L 64.59 138.86 L 49.45 54.27 L 45.65 149.48 L 63.05 58.43 L 17.12 162.18 L 91.53 64.89 L 5.38 169.12 L 86.93 64.48 L 13.32 165.44 L 81.85 64.18 L 9.81 165.52 L 97.31 57.85 L 194.30 74.19 L 98.49 47.03 L 179.52 81.73 L 101.50 15.81 L 143.13 99.37 L 100.61 188.71 L 168.10 110.34 L 96.15 147.03 L 197.74 125.46 L 168.87 90.32 L 97.97 19.58 L 148.98 102.21 L 100.06 183.92 L 179.85 117.93 L 98.14 156.41 L 191.68 126.13 L 98.72 136.40 L 185.87 130.14 L 11.67 45.91 L 173.12 77.15 L 117.16 83.68 L 108.15 54.65 L 37.29 140.26 L 12.12 148.15 L 19.46 53.83 L 181.54 68.86 L 80.73 75.28 L 114.58 95.98 L 97.10 98.73 L 99.42 95.95 L 106.53 50.19 L 24.23 148.58 L 23.04 50.97 L 106.71 151.77 L 130.64 115.23 L 131.17 85.86 L 118.28 113.54 L 180.18 125.25 L 26.73 49.58 L 101.58 123.87 L 109.74 94.56 L 162.77 114.12 L 105.92 199.08 L 99.17 61.28 L 188.83 75.21 L 97.52 37.36 L 151.36 98.79 L 97.70 184.68 L 160.32 105.03 L 96.73 167.90 L 179.72 116.34 L 94.91 141.14 L 34.73 44.47 L 55.82 144.16 L 56.44 56.12 L 32.09 156.62 L 97.35 55.26 L 192.77 75.18 L 97.66 46.21 L 185.52 79.36 L 96.85 35.28 L 159.02 95.34 L 97.87 13.59 L 150.87 101.95 L 99.41 192.06 L 157.16 105.22 L 98.96 186.16 L 165.81 108.41 L 98.07 193.33 L 153.76 103.02 L 99.08 193.75 L 153.91 104.32 L 99.50 182.19 L 180.57 118.25 L 98.07 156.20 L 191.98 126.06 L 98.49 136.63 L 189.43 131.43 L 108.24 185.60 L 145.99 92.89 L 106.54 32.91 L 109.33 198.89 L 68.77 68.34 L 24.23 156.29 L 89.33 68.72 L 9.19 163.56 L 105.71 70.07 L 47.17 136.13 L 199.84 143.92 L 0.25 50.70 L 114.30 185.66 L 176.38 71.61 L 87.91 75.70 L 106.34 57.97 L 32.40 144.40 L 4.53 46.12 L 109.40 172.44 L 140.00 95.11 L 99.18 165.26 L 164.26 118.93 L 110.88 13.63 L 113.00 199.93 L 46.50 61.09 L 97.25 117.20 L 86.78 108.01 L 121.44 123.14 L 147.23 108.52 L 109.08 19.40 L 110.34 191.71 L 68.31 69.22 L 34.97 153.88 L 104.91 63.88 L 31.29 146.05 L 28.07 52.67 L 105.60 141.88 L 130.34 117.16 L 131.66 85.07 L 109.18 57.16 L 44.25 135.53 L 196.70 144.36 L 7.35 144.69 L 14.02 56.17 L 193.97 57.75 L 48.89 66.09 L 107.62 134.95 L 148.08 117.16 L 117.97 50.80 L 51.38 123.70 L 172.86 140.28 L 127.47 29.81 L 31.24 124.78 L 181.00 153.34 L 136.57 20.25 L 19.54 121.50 L 181.97 163.00 L 145.75 16.33 L 12.43 115.89 L 178.99 170.60 L 154.72 15.82 L 8.40 109.06 L 173.58 176.55 L 163.15 17.65 L 6.79 101.65 L 166.58 180.95 L 170.68 21.33 L 7.42 94.14 L 158.49 183.63 L 176.86 26.60 L 10.34 86.99 L 149.72 184.23 L 181.04 33.46 L 15.98 80.75 L 140.59 181.99 L 182.06 42.13 L 25.39 76.27 L 131.43 175.31 L 177.64 53.43 L 41.07 75.10 L 122.37 160.52 L 162.49 70.08 L 71.11 79.89 L 94.38 119.61 L 117.38 120.84 L 104.29 91.65 L 104.14 41.02 L 31.62 50.26 L 78.08 135.45 L 70.99 61.93 L 27.48 152.63 L 157.23 89.17 L 109.07 105.49 L 112.83 101.18 L 92.97 92.79 L 122.21 88.01 L 118.11 69.77 L 73.93 108.27 L 140.23 129.44 L 132.57 64.61 L 67.77 101.12 L 135.25 134.95 L 139.03 67.90 L 70.52 94.37 L 125.05 133.75 L 139.93 80.96 L 109.25 85.10 L 102.39 39.76 L 102.81 169.81 L 143.31 115.05 L 119.22 57.53 L 59.39 117.96 L 161.63 136.41 L 128.95 41.41 L 43.10 117.57 L 167.41 147.43 L 136.96 33.91 L 33.54 114.50 L 167.96 155.44 L 144.60 30.84 L 27.85 109.83 L 165.39 161.51 L 151.77 30.64 L 24.96 104.29 L 160.80 165.94 L 158.19 32.57 L 24.43 98.41 L 154.85 168.70 L 163.47 36.24 L 26.20 92.66 L 147.99 169.55 L 167.08 41.54 L 30.51 87.51 L 140.54 167.94 L 168.15 48.59 L 38.08 83.59 L 132.71 162.76 L 165.16 57.98 L 50.66 81.81 L 124.25 151.57 L 154.74 72.09 L 74.90 82.96 L 85.89 129.49 L 24.69 45.52 L 69.47 138.65 L 79.88 65.13 L 28.40 151.72 L 158.46 88.13 L 130.55 111.62 L 130.52 88.23 L 158.11 113.63 L 14.27 154.63 L 181.48 73.39 L 116.87 89.79 L 107.78 33.82 L 2.88 156.31 L 183.01 71.08 L 100.84 64.42 L 194.36 70.25 L 113.84 80.23 L 97.79 73.65 L 35.93 48.99 L 90.24 106.04 L 82.19 130.46 L 28.63 46.69 L 74.05 127.48 L 190.47 135.11 L 4.90 47.34 L 110.43 176.08 L 151.43 88.03 L 151.27 112.33 L 110.91 26.66 L 9.21 150.15 L 112.94 187.17 L 173.73 74.31 L 102.72 68.64 L 20.99 153.18 L 174.52 78.15 L 98.90 39.11 L 140.22 103.84 L 107.95 17.23 L 192.78 66.68 L 92.51 70.77 L 5.27 165.70 L 108.29 74.62 L 68.98 118.80 L 160.13 130.85 L 124.39 42.69 L 44.63 121.17 L 171.37 145.23 L 133.00 30.82 L 31.36 119.36 L 174.46 155.18 L 141.40 25.39 L 23.32 115.03 L 173.13 162.80 L 149.58 23.74 L 18.62 109.31 L 169.10 168.69 L 157.27 24.64 L 16.50 102.88 L 163.30 172.98 L 164.13 27.48 L 16.64 96.26 L 156.31 175.60 L 169.74 31.99 L 19.08 89.90 L 148.54 176.21 L 173.48 38.08 L 24.15 84.31 L 140.32 174.15 L 174.36 45.96 L 32.73 80.23 L 131.90 168.09 L 170.49 56.31 L 46.94 78.87 L 123.19 155.01 L 157.63 71.71 L 74.24 81.74 L 77.97 133.75 L 78.03 66.27 L 74.15 118.35 L 157.86 128.34 L 123.13 44.72 L 46.64 121.35 L 170.88 143.83 L 131.85 31.51 L 32.33 120.01 L 174.81 154.25 L 140.31 25.40 L 23.68 115.92 L 173.93 162.17 L 148.59 23.32 L 18.57 110.29 L 170.17 168.32 L 156.42 23.92 L 16.10 103.88 L 164.54 172.87 L 163.48 26.53 L 15.91 97.21 L 157.64 175.78 L 169.36 30.83 L 18.00 90.72 L 149.91 176.74 L 173.48 36.71 L 22.64 84.93 L 141.69 175.17 L 174.92 44.31 L 30.61 80.51 L 133.24 169.86 L 171.98 54.23 L 43.74 78.61 L 124.63 158.18 L 161.00 68.45 L 67.62 80.93 L 110.09 128.65 L 162.99 119.75 L 112.30 21.52 L 8.03 149.30 L 113.65 186.50 L 175.36 72.78 L 93.93 71.27 L 1.75 167.75 L 108.97 74.80 L 71.47 116.17 L 154.35 129.65 L 126.05 49.17 L 51.48 116.07 L 162.07 142.08 L 134.18 40.12 L 40.74 113.71 L 163.85 150.46 L 141.55 36.10 L 34.38 109.70 L 162.23 156.67 L 148.37 35.19 L 31.02 104.75 L 158.43 161.14 L 154.45 36.54 L 30.12 99.39 L 153.17 163.93 L 159.43 39.72 L 31.55 94.09 L 146.89 164.82 L 162.81 44.57 L 35.52 89.30 L 139.94 163.32 L 163.80 51.20 L 42.69 85.59 L 132.45 158.40 L 161.00 60.22 L 54.80 83.72 L 123.93 147.67 L 151.13 74.45 L 80.03 83.47 L 107.70 89.00 L 101.84 93.81 L 122.59 91.83 L 105.22 12.46 L 102.59 141.18 L 37.91 47.10 L 60.67 136.57 L 106.04 186.70 L 126.79 104.84 L 109.13 110.08 L 93.64 91.76 L 122.93 97.32 L 116.88 63.48 L 65.09 116.26 L 156.95 133.25 L 128.14 46.41 L 48.42 115.66 L 162.84 144.31 L 136.00 38.86 L 38.96 112.83 L 163.64 152.09 L 143.23 35.71 L 33.41 108.54 L 161.41 157.84 L 149.89 35.41 L 30.68 103.46 L 157.21 161.91 L 155.73 37.23 L 30.35 98.08 L 151.67 164.26 L 160.37 40.82 L 32.37 92.86 L 145.21 164.62 L 163.25 46.07 L 37.03 88.29 L 138.13 162.40 L 163.47 53.20 L 45.18 84.95 L 130.50 156.37 L 159.37 63.05 L 59.09 83.66 L 121.22 143.33 L 146.07 80.70 L 109.66 85.22 L 103.51 38.37 L 32.91 49.94 L 67.11 133.52 L 16.01 44.26 L 103.00 136.04 L 12.11 38.07 L 85.89 133.06 L 25.70 42.12 L 64.91 134.01 L 1.58 160.75 L 169.84 80.60 L 101.81 22.59 L 149.77 95.22 L 100.24 2.63 L 142.59 102.15 L 103.52 185.79 L 149.67 106.22 L 103.63 180.67 L 164.53 109.49 L 96.34 138.84 L 18.02 39.95 L 58.61 141.32 L 55.12 57.09 L 26.65 158.42 L 101.90 54.81 L 186.77 73.98 L 101.88 50.13 L 181.49 77.13 L 99.24 24.82 L 159.70 92.52 L 103.12 15.08 L 142.99 97.93 L 100.18 198.03 L 148.93 104.71 L 102.25 178.70 L 178.42 121.22 L 102.04 153.05 L 150.23 116.96 L 116.44 45.97 L 45.12 128.50 L 182.06 143.33 L 126.19 20.32 L 21.60 130.65 L 191.93 158.11 L 136.27 9.35 L 8.46 126.99 L 192.92 168.96 L 146.68 5.07 L 0.53 120.53 L 188.61 178.67 L 159.86 4.91 L 182.09 185.40 L 169.52 7.49 L 173.95 190.57 L 178.26 11.87 L 164.69 194.07 L 185.66 17.83 L 154.71 195.57 L 150.30 195.45 L 192.07 27.83 L 5.24 75.03 L 139.88 192.69 L 192.98 37.79 L 16.23 70.17 L 129.63 184.58 L 186.97 50.87 L 35.15 69.78 L 119.92 165.61 L 165.85 70.95 L 74.24 78.53 L 101.53 84.70 L 56.43 131.22 L 189.48 138.94 L 17.69 143.17 L 4.43 55.09 L 23.76 58.22 L 113.81 171.87 L 161.66 79.39 L 119.21 95.26 L 117.78 66.12 L 68.90 112.72 L 149.85 131.59 L 129.95 53.99 L 56.28 109.88 L 152.23 140.64 L 137.22 49.58 L 49.95 106.35 L 151.16 146.36 L 143.11 48.60 L 47.11 102.24 L 147.97 149.89 L 147.82 50.01 L 47.06 97.92 L 143.30 151.39 L 151.07 53.48 L 49.79 93.79 L 137.45 150.51 L 152.24 59.10 L 55.97 90.23 L 130.25 146.26 L 150.03 67.97 L 68.23 87.39 L 118.57 134.70 L 130.43 96.82 L 105.73 7.80 L 66.37 65.37 L 44.57 142.32 L 107.84 188.79 L 146.00 93.26 L 104.81 21.65 L 103.44 152.77 L 104.91 110.06 L 98.39 77.14 L 11.51 160.43 L 135.09 101.57 L 108.61 26.03 L 13.94 47.57 L 173.90 76.20 L 119.35 92.38 L 107.83 30.72 L 0.10 157.57 L 181.28 72.30 L 106.90 77.28 L 69.76 118.68 L 159.70 130.46 L 124.22 43.10 L 45.05 121.11 L 171.14 144.96 L 132.84 31.08 L 31.67 119.37 L 174.34 154.96 L 141.23 25.57 L 23.56 115.08 L 173.07 162.60 L 149.41 23.86 L 18.82 109.39 L 169.09 168.51 L 157.10 24.72 L 16.65 102.98 L 163.33 172.82 L 163.96 27.53 L 16.76 96.37 L 156.37 175.46 L 169.57 32.01 L 19.16 90.01 L 148.62 176.10 L 173.34 38.07 L 24.19 84.42 L 140.41 174.08 L 174.26 45.91 L 32.71 80.32 L 132.01 168.09 L 170.47 56.20 L 46.80 78.92 L 123.32 155.15 L 157.80 71.48 L 73.76 81.72 L 85.35 129.95 L 25.92 45.52 L 61.76 137.88 L 45.74 54.87 L 90.00 105.06 L 77.13 132.83 L 164.90 87.02 L 123.95 82.62 L 102.39 44.74 L 177.11 79.23 L 103.00 24.07 L 154.15 91.75 L 113.69 62.48 L 60.84 121.75 L 167.46 135.06 L 124.93 35.11 L 36.79 124.55 L 178.64 149.56 L 133.91 23.24 L 23.34 122.29 L 181.24 159.91 L 143.00 18.04 L 15.19 117.29 L 179.25 167.95 L 151.95 16.68 L 10.40 110.82 L 174.51 174.28 L 160.44 17.89 L 8.17 103.63 L 167.99 179.05 L 168.14 21.04 L 8.20 96.21 L 160.27 182.16 L 174.63 25.84 L 10.47 89.03 L 151.76 183.32 L 179.33 32.20 L 15.32 82.59 L 142.80 181.89 L 181.24 40.29 L 23.56 77.63 L 133.72 176.59 L 178.52 50.69 L 37.16 75.44 L 124.73 164.53 L 167.07 65.33 L 61.57 78.38 L 113.22 136.46 L 170.41 114.84 L 100.10 156.80 L 171.74 121.32 L 9.29 43.70 L 168.92 80.25 L 99.52 27.65 L 159.56 92.17 L 104.47 22.96 L 103.29 154.22 L 101.73 105.29 L 96.89 102.02 L 114.34 73.12 L 76.94 107.70 L 136.94 127.80 L 132.84 68.82 L 72.92 97.73 L 127.05 131.75 L 138.66 79.30 L 94.49 76.30 L 27.93 151.12 L 104.04 153.88 L 87.63 124.08 L 175.50 128.17 L 114.49 15.79 L 2.08 148.28 L 115.30 187.98 L 181.00 68.36 L 77.14 74.90 L 36.87 147.82 L 37.75 52.57 L 81.54 120.79 L 163.37 126.44 L 118.63 35.71 L 35.92 131.09 L 188.10 148.47 L 128.45 14.32 L 15.27 131.44 L 195.29 162.31 L 138.91 5.29 L 3.49 126.74 L 194.78 172.74 L 151.14 1.98 L 190.26 181.12 L 161.60 2.60 L 183.33 187.88 L 171.49 5.45 L 174.81 193.09 L 180.44 10.08 L 165.22 196.61 L 188.01 16.29 L 154.92 198.10 L 193.52 24.07 L 194.98 27.93 L 4.15 72.83 L 138.15 194.31 L 195.09 38.55 L 16.37 68.37 L 127.73 184.68 L 187.11 52.73 L 37.98 69.25 L 117.92 161.91 L 160.26 75.90 L 89.10 78.02 L 105.94 49.38 L 19.86 151.36 L 107.75 173.52 L 125.46 104.31 L 162.73 112.74 L 33.26 48.76 L 88.59 110.72 L 122.15 122.48 L 138.70 109.36 L 117.04 57.61 L 58.29 120.56 L 166.02 136.63 L 127.11 36.86 L 38.54 121.58 L 174.19 149.29 L 135.69 27.34 L 27.09 118.78 L 175.63 158.52 L 144.18 23.26 L 20.14 113.83 L 173.25 165.67 L 152.39 22.50 L 16.24 107.70 L 168.50 171.16 L 160.02 24.07 L 14.78 101.03 L 162.17 175.08 L 166.72 27.48 L 15.55 94.29 L 154.78 177.24 L 172.02 32.50 L 18.68 87.94 L 146.71 177.26 L 175.23 39.12 L 24.60 82.55 L 138.28 174.34 L 175.16 47.64 L 34.45 78.96 L 129.73 166.81 L 169.51 58.99 L 50.95 78.60 L 120.68 150.72 L 152.38 77.30 L 89.65 79.33 L 112.95 68.56 L 68.19 116.84 L 156.76 131.39 L 126.49 46.59 L 48.73 117.07 L 164.47 143.66 L 134.62 37.53 L 37.94 114.65 L 166.17 152.16 L 142.17 33.51 L 31.48 110.46 L 164.41 158.54 L 149.25 32.64 L 28.02 105.29 L 160.43 163.21 L 155.64 34.03 L 26.99 99.68 L 154.96 166.22 L 160.96 37.24 L 28.28 94.10 L 148.49 167.38 L 164.73 42.09 L 32.04 89.00 L 141.34 166.21 L 166.18 48.68 L 38.90 84.97 L 133.74 161.75 L 163.98 57.48 L 50.34 82.81 L 125.49 151.90 L 155.28 70.47 L 71.64 83.30 L 107.34 122.72 L 189.42 130.47 L 199.59 63.73 L 88.96 72.29 L 64.95 126.10 L 177.50 133.99 L 119.19 21.66 L 21.84 137.41 L 126.77 5.31 L 1.74 136.31 L 192.58 195.25 L 188.00 1.45 L 196.64 8.36 L 130.86 199.64 L 16.23 62.14 L 121.45 184.59 L 185.33 59.95 L 51.72 69.72 L 110.25 139.51 L 129.51 115.12 L 130.90 90.65 L 106.15 27.48" fill="none" stroke="url(#grad)" stroke-width="0.3" stroke-opacity="0.8"/>
</svg>