<?xml version="1.0" encoding="UTF-8"?>
<svg xmlns="http://www.w3.org/2000/svg" width="200" height="200" viewBox="0 0 200 200">
  <defs>
    <linearGradient id="grad" x1="0%" y1="0%" x2="100%" y2="100%">
      <stop offset="0%" style="stop-color:#f59e0b;stop-opacity:1" />
      <stop offset="100%" style="stop-color:#ea580c;stop-opacity:1" />
    </linearGradient>
  </defs>
  <rect width="100%" height="100%" fill="#0a0a0f"/>
  <path d="M 134.09 106.89 L 108.59 110.92 L 130.24 98.98 L 89.31 112.97 L 125.17 108.73 L 141.64 105.64 L 147.34 104.24 L 124.85 96.31 L 94.09 112.48 L 87.01 111.86 L 133.77 106.95 L 78.33 88.24 L 100.98 111.73 L 113.43 109.27 L 134.47 99.20 L 139.22 106.30 L 43.53 116.77 L 113.45 110.29 L 144.02 93.71 L 116.21 94.00 L 106.81 111.14 L 80.60 84.97 L 113.48 109.21 L 112.76 108.88 L 142.61 105.21 L 114.97 93.73 L 140.85 105.88 L 131.59 97.45 L 55.39 116.02 L 131.60 103.76 L 150.83 95.70 L 155.78 100.22 L 114.78 93.69 L 115.04 93.75 L 155.86 100.10 L 50.86 116.36 L 130.53 107.24 L 134.04 107.22 L 45.99 116.45 L 122.82 89.87 L 144.12 105.04 L 147.37 104.05 L 135.20 107.01 L 149.48 95.70 L 87.61 113.16 L 134.86 106.50 L 149.68 95.76 L 155.39 98.25 L 154.29 97.33 L 146.03 94.22 L 113.54 92.78 L 154.71 97.60 L 155.90 98.93 L 134.93 107.12 L 125.31 106.25 L 117.15 108.27 L 131.74 107.58 L 154.10 101.76 L 67.09 114.22 L 127.91 107.65 L 119.54 89.51 L 132.60 107.43 L 130.06 102.31 L 120.77 107.18 L 144.53 105.13 L 148.80 95.03 L 112.71 88.58 L 67.82 115.02 L 137.81 92.36 L 45.32 116.53 L 75.74 114.30 L 99.87 87.03 L 131.24 103.93 L 143.08 105.48 L 63.42 83.42 L 140.70 105.91 L 140.95 105.58 L 131.31 107.65 L 60.29 83.14 L 128.55 104.99 L 114.37 107.51 L 139.57 105.57 L 147.84 104.10 L 155.30 98.09 L 86.00 111.99 L 155.46 100.65 L 78.32 112.97 L 122.41 94.61 L 145.04 93.97 L 78.51 114.06 L 96.76 86.63 L 130.40 107.26 L 113.69 88.71 L 124.06 106.59 L 156.01 99.57 L 113.86 110.27 L 84.12 88.94 L 112.06 110.46 L 155.95 99.72 L 132.44 103.32 L 149.87 103.62 L 95.17 112.42 L 130.12 102.20 L 73.90 84.37 L 73.06 113.55 L 111.25 110.56 L 155.89 98.94 L 92.14 112.75 L 51.58 116.31 L 115.24 93.79 L 65.96 114.39 L 128.48 105.27 L 145.51 104.67 L 147.07 104.48 L 75.05 114.31 L 93.32 86.30 L 103.20 87.34 L 128.58 96.31 L 128.51 103.30 L 151.37 103.08 L 120.91 94.26 L 73.61 114.51 L 70.39 84.02 L 139.31 92.67 L 130.25 102.08 L 156.01 99.41 L 77.61 114.12 L 56.75 115.33 L 106.22 110.53 L 117.22 109.06 L 84.38 112.22 L 125.97 95.52 L 150.94 103.21 L 104.90 87.55 L 52.76 116.22 L 62.04 115.48 L 114.26 108.95 L 76.54 114.21 L 138.12 92.63 L 149.81 95.81 L 116.79 109.90 L 94.33 112.51 L 148.93 95.49 L 96.25 110.59 L 115.66 110.04 L 112.17 107.93 L 113.80 88.63 L 130.98 91.29 L 79.55 84.89 L 50.85 116.05 L 106.76 110.05 L 103.19 109.55 L 113.71 109.34 L 127.32 97.23 L 153.67 101.49 L 124.83 106.38 L 99.64 87.00 L 147.48 104.03 L 63.95 83.45 L 144.09 104.87 L 86.99 111.86 L 153.17 101.74 L 98.74 86.91 L 149.58 102.85 L 96.49 112.29 L 119.72 89.54 L 141.96 105.63 L 51.25 116.33 L 51.78 115.84 L 150.31 96.01 L 155.69 100.42 L 76.10 114.26 L 150.93 95.73 L 102.96 111.59 L 130.91 107.43 L 132.73 107.51 L 54.54 115.63 L 80.14 112.72 L 137.38 92.28 L 71.54 114.70 L 113.76 109.11 L 88.09 113.09 L 105.77 109.10 L 148.86 95.45 L 143.82 93.95 L 43.55 116.80 L 81.06 112.61 L 124.90 108.34 L 142.60 105.22 L 120.92 109.34 L 154.27 97.33 L 152.75 96.49 L 74.37 87.79 L 116.93 109.88 L 86.40 113.32 L 116.24 109.15 L 128.46 97.79 L 150.21 95.98 L 149.92 103.11 L 125.07 106.08 L 121.77 108.78 L 155.51 98.30 L 152.07 101.73 L 74.69 87.83 L 115.95 107.17 L 130.03 107.53 L 148.60 94.94 L 74.69 113.37 L 138.74 105.75 L 144.29 94.07 L 154.13 98.83 L 129.61 107.38 L 83.92 113.53 L 153.62 102.04 L 121.26 105.89 L 113.70 110.29 L 153.63 102.03 L 60.35 115.55 L 144.86 94.22 L 81.01 112.61 L 130.62 104.20 L 58.91 115.75 L 129.61 90.92 L 115.06 110.13 L 97.53 86.71 L 81.37 113.79 L 87.03 85.64 L 148.31 104.09 L 128.10 103.51 L 121.45 94.39 L 147.18 104.18 L 49.78 116.19 L 81.15 85.05 L 118.81 94.60 L 131.68 107.59 L 108.16 92.43 L 125.13 96.40 L 154.67 101.41 L 127.29 97.24 L 52.79 115.82 L 144.62 104.39 L 113.80 110.29 L 101.10 111.79 L 85.26 85.47 L 147.16 104.11 L 100.33 111.87 L 90.40 111.44 L 120.10 109.46 L 81.19 112.59 L 125.08 108.06 L 136.48 92.11 L 62.73 83.36 L 49.84 116.27 L 126.11 96.74 L 121.58 89.80 L 154.21 97.26 L 122.93 108.96 L 127.52 108.27 L 143.22 93.52 L 45.52 116.50 L 124.57 108.13 L 147.27 94.56 L 117.77 94.36 L 84.35 88.96 L 140.69 92.96 L 154.86 97.73 L 143.79 105.32 L 84.05 113.54 L 117.73 94.34 L 53.43 116.13 L 114.60 92.98 L 121.52 105.79 L 155.96 99.12 L 150.78 103.30 L 133.02 107.07 L 130.38 107.26 L 56.94 115.88 L 65.23 114.43 L 152.14 102.75 L 43.71 116.80 L 152.39 97.07 L 81.58 85.11 L 44.24 116.79 L 120.47 89.64 L 126.83 108.06 L 143.68 93.92 L 99.25 111.95 L 96.42 110.56 L 155.16 97.97 L 152.60 97.20 L 84.13 112.26 L 77.01 114.18 L 146.55 104.62 L 129.72 90.92 L 125.34 106.24 L 78.50 88.26 L 109.03 88.04 L 133.08 107.38 L 81.45 112.56 L 118.95 107.86 L 77.59 84.72 L 139.35 105.62 L 122.75 89.97 L 145.01 104.65 L 44.49 116.63 L 96.27 90.55 L 43.85 116.80 L 75.48 113.27 L 149.73 103.18 L 141.14 105.48 L 54.85 115.59 L 143.28 105.43 L 100.88 111.78 L 48.10 116.23 L 76.53 114.18 L 121.28 108.84 L 140.96 105.28 L 150.89 96.28 L 71.06 113.78 L 131.21 91.17 L 66.15 115.16 L 82.63 112.41 L 121.00 108.85 L 115.63 88.96 L 59.52 115.09 L 117.61 94.32 L 59.15 83.04 L 151.47 95.93 L 116.75 94.12 L 61.60 83.26 L 58.38 115.79 L 76.72 114.21 L 112.08 107.95 L 69.39 113.97 L 154.23 99.15 L 146.41 104.41 L 116.64 94.10 L 148.24 103.33 L 152.16 96.91 L 52.75 115.74 L 100.47 91.17 L 84.24 113.50 L 65.95 114.35 L 114.38 107.51 L 150.20 103.48 L 116.50 109.42 L 105.61 110.57 L 86.16 113.31 L 74.02 114.46 L 121.63 108.52 L 59.27 83.05 L 93.23 112.62 L 145.93 94.53 L 120.33 94.98 L 127.65 108.25 L 60.80 83.18 L 46.47 116.40 L 137.15 92.44 L 78.55 88.27 L 121.06 107.36 L 137.60 106.63 L 127.15 108.42 L 100.11 87.00 L 154.89 97.75 L 127.91 105.46 L 52.55 116.24 L 44.26 116.67 L 106.48 111.11 L 123.11 94.78 L 44.81 116.59 L 60.36 83.15 L 121.66 108.79 L 80.35 113.87 L 129.82 102.45 L 137.76 92.36 L 131.09 100.53 L 149.17 103.84 L 151.00 102.25 L 66.04 114.34 L 74.25 87.78 L 45.22 116.73 L 108.40 108.66 L 124.19 90.19 L 152.65 96.45 L 132.36 91.53 L 153.95 101.88 L 64.96 83.56 L 126.85 108.06 L 47.99 116.56 L 144.17 104.86 L 146.64 104.44 L 139.33 106.14 L 62.39 83.32 L 137.16 92.44 L 125.10 104.72 L 124.41 96.16 L 121.10 94.31 L 101.96 111.63 L 125.38 108.69 L 127.64 90.59 L 148.43 94.91 L 67.76 115.02 L 79.70 112.77 L 132.38 103.69 L 153.79 101.50 L 125.98 108.61 L 127.86 103.62 L 117.47 108.20 L 153.55 101.55 L 155.17 98.03 L 111.81 110.49 L 108.33 88.03 L 138.78 92.78 L 153.27 101.69 L 74.35 87.79 L 66.26 114.31 L 93.83 90.20 L 78.93 112.90 L 62.72 83.35 L 132.44 103.66 L 56.98 115.86 L 140.70 93.20 L 134.86 106.71 L 46.69 116.65 L 141.03 105.94 L 116.39 109.14 L 143.55 104.93 L 113.81 109.74 L 130.64 101.75 L 136.21 106.82 L 100.09 87.00 L 117.21 109.80 L 77.57 88.16 L 143.24 93.52 L 129.87 104.78 L 45.71 116.71 L 118.51 109.17 L 100.33 111.81 L 98.08 112.13 L 132.50 107.44 L 114.63 107.46 L 56.43 115.94 L 113.73 109.12 L 77.51 114.15 L 74.18 114.46 L 152.28 101.61 L 54.04 115.61 L 113.26 107.71 L 154.13 101.75 L 128.33 97.70 L 148.11 104.01 L 125.94 95.51 L 131.26 107.66 L 125.67 107.98 L 154.23 99.29 L 127.96 108.31 L 140.94 105.79 L 79.95 84.93 L 138.66 92.54 L 74.53 87.81 L 144.12 104.53 L 125.42 90.37 L 97.22 112.21 L 123.38 108.29 L 152.69 102.22 L 118.14 93.67 L 153.90 97.09 L 44.67 116.60 L 149.75 95.32 L 128.16 107.60 L 138.25 92.66 L 132.41 107.58 L 73.88 113.46 L 90.70 112.89 L 103.83 111.41 L 50.25 116.12 L 145.61 94.11 L 127.10 108.44 L 118.92 89.42 L 118.25 106.62 L 85.45 112.06 L 136.00 106.92 L 121.94 107.14 L 137.40 106.01 L 76.14 114.26 L 81.36 113.79 L 93.41 86.31 L 141.55 93.14 L 95.12 110.75 L 103.56 109.46 L 137.94 106.57 L 134.48 99.21 L 75.35 84.51 L 57.10 115.85 L 146.86 94.46 L 134.87 107.07 L 79.03 112.89 L 43.68 116.80 L 113.32 92.74 L 126.12 104.35 L 154.23 99.36 L 83.05 113.63 L 76.19 114.25 L 141.50 105.67 L 128.38 105.30 L 129.42 104.94 L 80.10 113.90 L 130.56 101.76 L 134.27 91.88 L 121.08 89.62 L 153.75 98.15 L 128.85 108.15 L 116.93 109.88 L 106.18 111.14 L 75.50 113.30 L 129.23 102.90 L 77.10 88.10 L 129.46 98.34 L 124.36 90.21 L 95.01 112.45 L 116.30 109.14 L 141.74 105.67 L 99.40 91.01 L 124.60 104.89 L 105.58 111.29 L 153.64 102.05 L 71.01 113.82 L 94.63 112.42 L 128.36 105.31 L 137.43 92.29 L 147.47 104.21 L 143.32 93.55 L 129.87 98.63 L 114.58 109.29 L 128.66 103.22 L 103.87 109.42 L 129.44 102.76 L 65.95 115.17 L 153.11 96.66 L 112.93 88.52 L 53.89 115.70 L 148.98 95.51 L 124.69 104.86 L 144.74 104.72 L 138.27 106.41 L 130.00 98.72 L 155.29 98.15 L 76.88 88.08 L 64.78 115.27 L 113.38 92.75 L 131.08 100.64 L 105.28 111.31 L 112.23 110.47 L 112.85 93.30 L 115.82 93.92 L 142.43 93.34 L 97.06 86.67 L 136.43 92.30 L 129.92 102.36 L 140.96 93.02 L 129.07 107.46 L 151.33 96.49 L 61.34 115.56 L 141.22 105.90 L 130.24 104.63 L 147.38 104.06 L 67.93 114.17 L 88.99 89.55 L 52.38 115.78 L 152.30 96.28 L 155.41 98.24 L 104.22 111.43 L 146.12 104.50 L 91.59 86.07 L 155.35 98.15 L 111.36 88.32 L 125.34 108.64 L 44.74 116.60 L 109.02 88.03 L 99.26 111.98 L 121.94 95.41 L 78.66 114.03 L 86.70 85.62 L 109.92 109.43 L 96.65 112.27 L 138.50 105.79 L 133.75 102.88 L 50.90 116.22 L 118.51 89.26 L 59.20 115.68 L 138.00 92.61 L 145.96 94.20 L 50.37 116.11 L 150.48 96.10 L 76.98 88.09 L 137.39 92.28 L 147.79 94.71 L 127.53 97.34 L 138.20 92.65 L 105.94 87.67 L 98.12 86.78 L 66.86 83.73 L 103.79 111.48 L 80.98 112.62 L 123.44 108.51 L 66.83 83.72 L 124.04 106.60 L 139.75 106.20 L 147.54 104.03 L 123.15 95.75 L 52.55 116.24 L 146.77 104.20 L 120.57 108.94 L 152.74 101.31 L 154.04 97.17 L 153.70 101.58 L 78.97 114.03 L 102.00 111.70 L 146.39 104.66 L 94.25 112.53 L 148.77 95.43 L 151.83 96.73 L 132.65 107.42 L 130.41 107.25 L 92.31 112.69 L 113.82 109.32 L 111.62 93.06 L 126.84 90.60 L 137.59 106.50 L 111.97 110.52 L 61.70 114.85 L 122.97 89.90 L 112.84 108.87 L 136.90 106.38 L 48.37 116.53 L 150.07 102.66 L 153.32 97.74 L 77.51 88.15 L 81.94 88.67 L 152.98 97.45 L 136.50 92.11 L 89.54 111.52 L 153.77 97.03 L 142.22 105.56 L 117.35 89.20 L 130.30 98.98 L 153.34 96.76 L 61.08 83.21 L 82.88 85.21 L 120.35 108.69 L 128.41 90.86 L 144.55 104.76 L 109.21 109.57 L 145.64 94.44 L 92.69 86.19 L 138.60 92.52 L 105.17 109.22 L 123.27 89.93 L 131.48 103.82 L 140.86 105.59 L 66.43 114.34 L 130.01 104.45 L 78.94 114.01 L 53.88 116.03 L 60.10 115.66 L 70.99 113.83 L 127.58 108.30 L 79.96 84.91 L 46.66 116.38 L 49.13 116.12 L 108.68 88.07 L 116.61 89.10 L 155.97 99.24 L 112.87 92.66 L 82.20 88.70 L 113.43 109.26 L 141.28 93.08 L 130.83 101.39 L 72.80 84.24 L 130.81 99.65 L 135.94 106.52 L 147.53 104.03 L 129.58 96.66 L 130.57 101.83 L 100.29 91.14 L 123.38 108.98 L 85.94 89.16 L 127.30 97.24 L 132.08 106.98 L 149.75 95.80 L 47.10 116.33 L 149.11 103.87 L 128.31 107.58 L 155.37 100.78 L 43.92 116.78 L 107.45 111.05 L 108.02 92.41 L 142.64 105.21 L 79.21 84.86 L 75.55 84.53 L 118.51 109.62 L 116.95 109.40 L 130.71 104.16 L 105.44 111.23 L 155.34 98.13 L 76.77 114.16 L 123.07 95.73 L 92.96 86.26 L 126.78 108.48 L 98.41 112.08 L 154.21 99.06 L 116.53 109.12 L 155.81 98.81 L 130.95 101.30 L 84.47 112.21 L 151.70 96.03 L 132.37 106.93 L 119.80 109.04 L 149.38 95.66 L 88.67 85.82 L 122.12 89.76 L 94.11 90.24 L 43.51 116.79 L 82.48 85.16 L 63.91 115.27 L 141.91 105.75 L 124.78 104.80 L 92.58 90.03 L 134.83 106.50 L 53.65 116.05 L 154.12 99.81 L 144.59 104.92 L 154.17 99.61 L 143.18 93.79 L 52.06 115.81 L 153.49 96.86 L 84.14 112.22 L 113.95 107.60 L 138.44 92.49 L 152.59 97.17 L 121.33 108.57 L 48.11 116.55 L 117.10 108.29 L 132.07 103.53 L 148.52 103.23 L 90.53 85.97 L 127.61 108.34 L 74.58 114.41 L 112.50 108.94 L 142.52 105.23 L 79.51 113.98 L 155.77 100.18 L 64.38 115.26 L 107.00 111.12 L 118.88 94.61 L 129.23 105.01 L 134.87 106.49 L 91.46 89.88 L 128.10 107.83 L 78.55 88.27 L 86.19 85.53 L 127.77 105.50 L 110.36 110.71 L 150.52 102.47 L 139.72 106.06 L 119.57 109.07 L 99.26 111.99 L 71.10 113.78 L 91.09 86.03 L 154.78 97.64 L 64.44 83.51 L 76.48 113.19 L 59.34 83.06 L 127.64 108.34 L 115.40 108.35 L 136.72 106.80 L 130.31 107.85 L 90.74 86.00 L 90.37 112.89 L 115.30 93.80 L 147.51 104.03 L 140.31 105.65 L 113.37 109.79 L 123.92 108.44 L 75.00 87.86 L 114.28 88.70 L 111.05 110.63 L 115.21 108.73 L 135.98 106.29 L 79.54 112.82 L 155.74 100.23 L 113.87 109.34 L 147.32 94.95 L 117.49 107.91 L 130.26 104.63 L 139.40 105.90 L 119.09 109.59 L 98.55 110.27 L 134.31 102.44 L 135.23 106.69 L 57.17 115.80 L 69.32 83.93 L 127.67 97.40 L 148.78 103.95 L 97.78 110.39 L 138.19 92.44 L 57.31 115.83 L 109.07 110.86 L 140.47 92.91 L 78.26 84.78 L 124.55 108.82 L 152.34 96.29 L 62.04 114.82 L 151.58 96.61 L 148.36 94.87 L 129.94 98.68 L 144.39 104.45 L 119.82 94.84 L 84.74 113.49 L 147.49 104.06 L 47.28 116.32 L 85.72 113.37 L 43.92 116.80 L 83.51 113.58 L 120.85 105.97 L 83.35 113.60 L 111.02 108.18 L 154.14 98.88 L 152.77 102.18 L 101.89 109.76 L 87.36 113.21 L 81.05 112.61 L 106.37 87.79 L 128.61 97.87 L 138.25 106.50 L 57.74 115.82 L 142.87 105.35 L 125.26 106.02 L 138.87 106.37 L 78.58 84.82 L 131.06 107.40 L 102.66 91.51 L 57.53 115.83 L 150.37 103.42 L 126.87 104.02 L 43.75 116.74 L 154.11 101.76 L 128.52 107.55 L 133.84 107.33 L 107.49 111.05 L 81.12 112.63 L 49.61 116.24 L 80.73 85.00 L 135.64 106.62 L 118.48 107.70 L 81.75 112.55 L 90.46 112.88 L 108.94 110.89 L 124.64 108.75 L 111.33 110.60 L 44.09 116.68 L 49.62 116.25 L 131.59 107.60 L 77.13 88.11 L 113.55 109.34 L 109.08 88.04 L 154.04 99.98 L 51.35 116.32 L 139.60 106.14 L 115.96 93.94 L 152.47 96.37 L 144.94 104.31 L 149.15 103.86 L 126.71 96.99 L 79.10 112.84 L 137.86 106.20 L 97.95 90.79 L 115.62 93.17 L 145.48 104.90 L 117.15 109.80 L 104.75 111.37 L 51.48 116.19 L 141.83 93.20 L 129.14 102.90 L 59.26 83.05 L 86.34 113.33 L 128.94 96.43 L 107.95 92.39 L 150.45 95.56 L 118.77 107.90 L 134.80 99.55 L 114.21 109.69 L 133.32 98.34 L 63.96 114.56 L 128.60 103.21 L 108.80 110.86 L 155.90 99.80 L 137.71 92.34 L 128.07 107.83 L 51.33 116.20 L 140.02 105.48 L 84.39 112.22 L 123.95 105.10 L 121.86 107.16 L 82.83 113.65 L 125.30 108.70 L 146.52 104.27 L 112.52 110.44 L 155.96 99.44 L 142.58 93.38 L 82.38 113.71 L 113.40 110.29 L 144.80 104.35 L 144.40 104.80 L 123.99 108.90 L 149.75 95.80 L 45.93 116.69 L 147.17 104.44 L 155.97 99.48 L 90.77 85.99 L 144.04 105.14 L 105.33 110.36 L 59.14 115.13 L 59.26 115.12 L 144.63 94.16 L 128.15 97.63 L 83.87 112.26 L 121.57 107.23 L 139.29 106.15 L 63.18 114.65 L 68.59 114.95 L 128.56 90.75 L 85.24 112.11 L 124.15 96.06 L 146.96 103.74 L 73.97 87.75 L 76.66 113.17 L 80.47 88.49 L 100.22 87.07 L 103.91 91.71 L 78.84 88.30 L 105.82 111.21 L 55.04 116.02 L 74.76 84.45 L 130.07 107.86 L 47.97 116.56 L 142.57 104.91 L 78.59 112.91 L 117.34 94.25 L 127.10 108.02 L 73.50 114.45 L 154.15 99.70 L 112.74 109.86 L 129.88 104.77 L 146.50 94.36 L 152.86 102.43 L 75.75 114.30 L 118.86 94.61 L 136.17 106.77 L 79.21 113.94 L 140.45 92.91 L 72.34 113.64 L 129.22 108.11 L 149.46 103.27 L 119.70 109.46 L 130.27 104.62 L 134.79 106.51 L 75.31 87.90 L 120.80 108.91 L 126.40 105.93 L 119.08 94.66 L 150.15 103.53 L 128.14 108.17 L 118.75 109.64 L 78.39 114.01 L 113.82 110.21 L 71.82 114.60 L 93.30 86.25 L 119.51 109.48 L 155.94 99.76 L 50.08 116.02 L 108.16 92.43 L 80.52 113.89 L 117.27 108.25 L 100.57 111.85 L 147.74 95.08 L 43.70 116.80 L 85.86 85.52 L 84.06 113.54 L 139.42 106.17 L 145.65 94.44 L 154.22 99.13 L 65.15 114.43 L 78.96 114.00 L 77.66 113.05 L 122.55 109.11 L 60.09 114.98 L 89.48 85.91 L 140.12 92.84 L 155.48 100.70 L 83.31 112.33 L 77.64 114.12 L 78.25 88.23 L 134.97 99.78 L 126.87 108.05 L 122.73 106.94 L 83.92 112.28 L 102.54 87.34 L 99.85 86.97 L 83.80 113.51 L 61.56 114.87 L 44.30 116.78 L 75.72 87.94 L 95.65 110.68 L 152.74 97.28 L 141.54 93.14 L 65.93 83.62 L 89.45 89.62 L 128.01 103.55 L 63.17 115.33 L 110.71 92.28 L 96.38 112.27 L 152.86 96.54 L 65.09 83.57 L 120.39 94.99 L 105.92 92.04 L 60.43 83.15 L 123.74 95.94 L 87.67 89.38 L 140.98 105.79 L 130.42 104.29 L 129.74 98.53 L 152.79 101.29 L 116.55 108.41 L 95.60 110.68 L 109.96 110.72 L 122.97 95.70 L 130.00 107.87 L 154.14 97.22 L 105.58 110.30 L 71.43 114.69 L 120.83 106.01 L 113.32 108.77 L 129.14 108.01 L 74.77 113.36 L 155.85 98.86 L 149.97 95.40 L 70.50 113.84 L 148.71 104.00 L 121.75 109.17 L 87.96 89.42 L 81.52 112.55 L 130.63 91.23 L 75.21 113.30 L 138.60 92.52 L 51.55 115.87 L 116.83 109.09 L 149.93 95.87 L 127.29 105.41 L 126.72 96.99 L 76.19 114.27 L 142.89 105.15 L 82.65 112.41 L 130.23 98.97 L 87.25 85.67 L 141.90 93.22 L 122.70 108.65 L 155.96 99.84 L 135.27 106.68 L 53.87 116.10 L 125.15 108.27 L 107.23 87.90 L 121.44 95.27 L 155.66 100.41 L 127.30 103.87 L 51.85 116.29 L 127.90 90.77 L 118.19 108.03 L 88.02 85.75 L 144.78 94.21 L 154.21 99.57 L 145.78 94.16 L 155.71 98.69 L 119.85 106.26 L 99.38 86.98 L 103.15 87.41 L 60.20 83.13 L 142.73 105.19 L 113.55 109.19 L 129.23 96.53 L 66.43 115.09 L 146.30 104.23 L 44.90 116.76 L 127.67 105.54 L 151.24 102.14 L 131.14 100.42 L 117.54 108.18 L 144.07 105.05 L 130.38 99.12 L 155.32 98.12 L 78.69 114.03 L 79.15 112.84 L 134.35 91.71 L 110.47 92.24 L 43.77 116.78 L 62.20 114.80 L 127.63 107.69 L 151.46 95.93 L 138.63 105.77 L 141.25 93.08 L 113.13 93.35 L 75.71 114.30 L 147.20 104.17 L 44.10 116.68 L 80.87 112.63 L 50.60 115.97 L 124.75 96.26 L 88.90 111.64 L 128.80 96.38 L 53.61 115.65 L 108.71 92.53 L 44.59 116.77 L 134.94 106.74 L 130.37 99.11 L 65.48 114.44 L 86.57 89.24 L 82.23 113.73 L 88.59 111.68 L 79.55 84.89 L 125.00 90.32 L 102.54 111.63 L 62.05 83.30 L 138.80 106.40 L 131.11 97.25 L 92.72 111.09 L 153.55 101.70 L 124.58 90.25 L 147.41 104.04 L 130.90 99.69 L 155.99 99.63 L 77.98 114.12 L 121.15 108.58 L 107.34 87.83 L 123.57 94.89 L 113.04 88.54 L 147.43 104.05 L 136.32 106.75 L 108.19 88.01 L 60.91 114.89 L 66.42 114.34 L 147.47 104.07 L 134.21 102.53 L 151.68 96.65 L 91.63 111.27 L 53.74 116.11 L 151.66 102.45 L 144.54 104.42 L 91.40 111.30 L 119.59 106.30 L 59.37 115.69 L 67.61 83.79 L 121.27 108.57 L 75.30 114.36 L 141.50 93.13 L 145.29 104.73 L 137.21 92.45 L 80.60 113.86 L 143.69 104.97 L 128.83 90.78 L 143.84 105.19 L 78.69 114.03 L 120.33 108.69 L 147.13 104.11 L 146.34 104.67 L 110.09 109.40 L 99.08 86.89 L 116.66 109.11 L 58.34 115.16 L 64.12 83.47 L 155.93 99.60 L 107.71 110.99 L 121.45 107.26 L 146.59 94.72 L 132.06 103.53 L 121.17 107.08 L 150.93 103.24 L 99.47 86.92 L 130.99 100.01 L 121.95 107.14 L 106.51 110.10 L 113.99 109.04 L 77.92 114.11 L 61.83 114.84 L 77.22 114.17 L 143.79 105.29 L 103.65 111.49 L 121.28 105.86 L 126.82 104.08 L 116.54 108.42 L 89.39 89.61 L 152.43 102.65 L 64.36 114.52 L 123.34 108.99 L 148.05 94.79 L 92.17 86.13 L 80.07 84.95 L 53.98 115.69 L 141.70 105.69 L 152.99 96.60 L 69.69 113.93 L 124.64 104.88 L 132.42 97.85 L 76.11 114.26 L 94.70 86.45 L 56.76 115.33 L 84.48 113.50 L 149.32 102.94 L 130.71 99.51 L 52.94 116.21 L 93.53 86.28 L 155.75 98.66 L 115.40 93.13 L 45.47 116.52 L 131.16 107.13 L 155.22 98.08 L 133.04 107.35 L 74.42 84.42 L 139.49 92.70 L 75.12 84.45 L 147.51 104.02 L 50.08 116.41 L 95.31 112.42 L 53.00 115.72 L 150.56 96.12 L 44.72 116.60 L 115.97 108.55 L 144.53 94.14 L 47.16 116.62 L 152.49 102.61 L 82.23 113.69 L 117.82 106.75 L 154.18 99.04 L 116.58 108.41 L 78.15 114.08 L 151.71 96.04 L 151.71 102.43 L 44.80 116.60 L 122.05 89.86 L 108.77 109.65 L 123.75 105.17 L 145.88 104.56 L 70.88 84.07 L 131.00 101.20 L 113.56 109.34 L 149.77 95.32 L 78.96 112.86 L 123.20 108.32 L 110.86 88.34 L 104.87 110.57 L 74.85 84.43 L 77.30 114.11 L 132.37 107.59 L 97.20 112.22 L 119.40 94.74 L 119.71 109.05 L 71.72 114.68 L 144.93 94.25 L 146.46 104.62 L 130.53 101.87 L 141.60 105.44 L 111.78 110.53 L 128.91 107.74 L 99.03 110.20 L 108.65 109.68 L 56.83 115.87 L 134.00 91.66 L 129.39 108.08 L 139.53 92.71 L 52.71 116.11 L 96.41 112.26 L 118.55 109.58 L 45.05 116.56 L 148.38 103.62 L 154.87 101.26 L 154.16 97.23 L 112.99 110.38 L 137.21 106.05 L 81.67 113.71 L 43.52 116.79 L 124.14 90.18 L 50.89 116.04 L 96.65 112.21 L 111.95 109.04 L 150.60 102.43 L 140.74 92.97 L 139.85 106.19 L 84.20 112.22 L 110.54 88.31 L 140.92 105.29 L 130.48 104.26 L 95.41 110.74 L 143.39 105.04 L 129.20 107.70 L 133.73 98.61 L 140.40 93.12 L 89.46 85.85 L 102.52 111.64 L 117.62 89.15 L 150.23 95.48 L 149.18 95.13 L 137.14 106.34 L 143.93 105.09 L 153.77 100.39 L 153.82 101.44 L 153.59 97.97 L 122.29 89.80 L 124.10 108.89 L 107.23 109.95 L 68.61 114.05 L 138.99 105.98 L 88.65 113.08 L 116.01 109.17 L 130.73 101.53 L 131.49 103.81 L 105.67 111.27 L 93.99 110.94 L 52.90 115.73 L 66.68 115.11 L 144.37 105.17 L 131.77 107.28 L 125.21 96.43 L 127.37 97.27 L 91.98 112.77 L 119.63 109.06 L 49.93 116.17 L 79.81 113.91 L 149.93 95.86 L 134.77 107.08 L 148.82 95.01 L 56.68 115.92 L 155.27 98.10 L 129.20 105.02 L 74.26 87.78 L 106.32 87.71 L 50.42 115.98 L 150.49 102.91 L 99.89 111.86 L 98.68 112.05 L 128.97 90.81 L 138.23 106.50 L 154.23 99.15 L 121.40 108.55 L 71.38 114.71 L 145.77 94.15 L 114.30 109.31 L 146.47 104.28 L 66.43 115.09 L 63.57 83.42 L 101.97 91.40 L 64.00 114.60 L 135.87 106.96 L 102.52 91.49 L 97.98 90.79 L 135.67 92.14 L 109.26 109.56 L 47.91 116.25 L 79.96 113.94 L 106.81 110.49 L 150.85 96.26 L 116.71 108.37 L 83.74 85.28 L 53.77 116.15 L 119.15 108.83 L 145.10 104.27 L 84.74 89.01 L 109.44 110.82 L 120.84 105.97 L 119.38 109.47 L 152.62 101.39 L 43.87 116.72 L 83.25 113.56 L 119.50 89.50 L 90.75 112.88 L 97.62 86.72 L 127.26 107.74 L 134.39 99.12 L 153.75 98.18 L 148.48 95.33 L 89.46 113.00 L 124.59 106.21 L 44.45 116.64 L 98.57 86.83 L 45.83 116.70 L 72.09 113.66 L 155.85 100.15 L 86.59 85.56 L 112.76 107.81 L 155.25 98.07 L 123.32 106.79 L 110.68 88.25 L 123.39 95.83 L 130.65 99.43 L 152.17 102.76 L 120.45 95.01 L 119.59 107.45 L 106.88 87.85 L 87.39 85.68 L 88.98 113.07 L 125.90 108.20 L 108.77 110.31 L 136.24 106.51 L 74.66 84.41 L 115.29 109.60 L 144.94 104.82 L 93.03 86.28 L 125.08 108.06 L 144.37 93.80 L 51.00 116.22 L 138.32 106.41 L 131.34 97.34 L 148.95 103.44 L 117.39 89.20 L 45.04 116.56 L 124.42 108.74 L 62.83 114.69 L 127.91 108.24 L 134.68 106.79 L 114.01 109.32 L 110.19 88.18 L 118.73 93.79 L 111.23 110.60 L 51.15 116.34 L 104.95 110.58 L 87.07 111.88 L 123.22 95.77 L 142.44 93.35 L 114.30 107.50 L 57.24 115.88 L 121.66 108.79 L 141.20 93.07 L 98.94 86.92 L 44.27 116.65 L 154.45 101.58 L 43.81 116.79 L 127.72 90.60 L 76.78 114.20 L 43.72 116.79 L 154.22 99.50 L 154.57 101.46 L 116.98 109.40 L 128.06 97.56 L 145.48 104.53 L 109.90 108.36 L 132.85 103.44 L 118.48 109.68 L 142.88 104.83 L 79.57 84.89 L 118.93 93.83 L 115.68 88.97 L 134.25 107.24 L 152.67 102.50 L 70.11 84.02 L 124.19 108.82 L 108.94 109.62 L 139.59 92.73 L 132.46 103.65 L 138.39 106.39 L 116.81 109.90 L 66.90 115.09 L 93.12 112.58 L 152.41 97.08 L 127.19 105.69 L 100.64 111.77 L 147.50 104.03 L 117.69 109.00 L 53.32 116.14 L 153.18 100.97 L 150.81 95.68 L 130.16 98.86 L 50.46 116.09 L 149.18 95.58 L 98.10 110.34 L 134.12 106.62 L 50.28 116.25 L 62.07 83.29 L 144.98 105.02 L 64.07 114.55 L 109.22 110.27 L 116.34 109.95 L 61.14 83.22 L 63.38 115.31 L 74.00 113.45 L 130.61 101.79 L 125.25 90.22 L 100.13 91.11 L 143.41 105.41 L 123.88 106.64 L 120.17 108.99 L 84.68 113.47 L 147.56 103.54 L 118.95 106.45 L 115.89 109.49 L 124.81 108.10 L 135.96 106.94 L 101.28 111.77 L 132.44 97.86 L 140.04 93.04 L 92.71 86.19 L 150.77 102.37 L 138.96 92.82 L 134.42 106.58 L 125.86 107.95 L 69.33 114.89 L 128.86 98.01 L 131.03 100.94 L 154.17 99.00 L 115.71 110.05 L 83.89 112.29 L 146.50 104.48 L 70.25 113.87 L 146.42 94.67 L 124.00 108.21 L 149.34 95.20 L 111.77 108.03 L 116.03 93.96 L 151.61 96.00 L 131.16 91.16 L 43.92 116.70 L 90.74 85.99 L 76.58 114.22 L 66.60 115.08 L 120.02 109.45 L 118.72 109.18 L 130.12 102.26 L 110.97 92.32 L 81.79 113.70 L 133.76 91.62 L 155.99 99.34 L 76.27 114.25 L 61.77 83.27 L 108.16 110.37 L 77.80 114.11 L 130.86 99.63 L 150.46 96.09 L 67.92 115.01 L 68.86 114.93 L 127.55 97.35 L 79.13 113.99 L 108.59 110.92 L 117.55 109.72 L 130.73 104.44 L 69.25 114.02 L 139.98 106.06 L 78.54 88.27 L 80.17 84.96 L 113.31 109.29 L 119.80 89.44 L 128.56 104.99 L 130.32 102.09 L 111.75 108.04 L 92.08 86.13 L 144.64 93.86 L 138.34 106.49 L 125.21 108.73 L 53.28 116.07 L 59.34 115.69 L 53.53 116.16 L 137.00 92.21 L 86.37 89.22 L 59.36 83.06 L 110.49 110.70 L 111.34 110.60 L 50.36 116.25 L 54.02 116.09 L 124.15 106.33 L 124.73 96.25 L 155.89 98.93 L 116.97 94.17 L 151.27 95.86 L 154.20 101.74 L 56.61 115.34 L 115.95 109.18 L 76.45 114.23 L 74.26 87.78 L 130.97 107.75 L 121.77 107.18 L 113.48 109.22 L 115.65 88.97 L 86.00 89.17 L 137.28 106.68 L 70.39 114.80 L 84.68 112.16 L 77.73 88.17 L 49.54 116.24 L 153.44 97.82 L 57.16 115.86 L 129.27 102.87 L 133.23 107.32 L 131.06 101.03 L 126.84 107.81 L 118.02 107.80 L 128.37 108.23 L 109.71 108.40 L 100.15 87.06 L 81.32 113.79 L 146.30 94.29 L 123.26 106.80 L 146.47 94.68 L 72.67 84.23 L 145.53 94.09 L 141.47 105.41 L 134.32 91.71 L 155.56 100.59 L 136.58 106.18 L 89.49 85.91 L 155.11 97.90 L 142.88 105.15 L 112.39 92.57 L 152.89 96.54 L 144.95 104.82 L 130.80 101.44 L 109.48 88.10 L 57.43 115.31 L 128.46 108.23 L 113.57 109.34 L 142.58 93.64 L 155.40 98.27 L 133.81 91.80 L 65.10 83.55 L 117.18 109.34 L 90.56 111.39 L 124.05 108.88 L 110.15 92.79 L 96.06 110.64 L 146.09 104.74 L 129.54 104.64 L 91.26 112.82 L 124.48 106.48 L 60.40 83.15 L 128.03 103.54 L 110.95 110.09 L 85.22 112.09 L 142.03 105.72 L 115.12 88.90 L 87.41 85.66 L 141.56 93.40 L 141.40 93.11 L 110.94 110.09 L 120.31 89.52 L 50.42 116.10 L 155.65 98.59 L 139.09 106.34 L 126.82 108.38 L 60.87 83.20 L 119.08 108.84 L 152.06 96.18 L 154.51 101.48 L 151.19 95.83 L 139.25 105.64 L 85.81 112.04 L 128.83 103.13 L 154.44 101.58 L 112.06 109.97 L 90.27 112.90 L 151.23 103.12 L 155.75 100.35 L 86.47 85.56 L 91.64 86.08 L 76.61 114.24 L 99.00 112.03 L 151.81 101.87 L 121.55 109.24 L 104.78 111.36 L 107.73 108.76 L 154.82 101.30 L 83.41 113.61 L 155.56 98.39 L 82.63 88.75 L 154.12 101.78 L 126.90 97.07 L 149.38 95.21 L 110.41 110.67 L 141.95 105.30 L 153.61 101.52 L 153.06 96.63 L 155.82 100.18 L 109.45 108.45 L 146.58 104.26 L 62.09 114.76 L 151.57 103.00 L 147.53 104.04 L 119.80 107.40 L 46.22 116.68 L 84.22 88.95 L 134.83 107.14 L 58.88 115.66 L 93.50 112.54 L 116.44 93.33 L 153.32 102.22 L 147.85 103.45 L 93.23 86.25 L 86.26 85.53 L 144.21 104.49 L 100.76 109.94 L 74.32 114.38 L 151.76 102.92 L 128.86 107.50 L 106.68 87.82 L 72.80 114.57 L 152.90 96.56 L 68.11 114.99 L 80.50 113.84 L 85.84 113.34 L 151.01 96.34 L 70.64 113.83 L 99.87 111.86 L 59.90 115.00 L 124.83 106.38 L 50.80 115.94 L 127.56 97.36 L 119.72 109.46 L 144.40 94.10 L 117.11 93.46 L 113.73 109.12 L 82.20 88.70 L 85.22 112.09 L 138.71 92.54 L 111.93 93.12 L 51.82 115.93 L 120.31 108.97 L 63.35 114.67 L 94.71 110.81 L 116.25 107.11 L 43.63 116.74 L 145.58 104.13 L 146.86 94.46 L 141.88 105.65 L 127.44 97.30 L 103.91 87.50 L 145.81 94.49 L 106.72 111.15 L 153.97 97.12 L 145.59 94.11 L 119.50 108.79 L 131.03 100.15 L 117.21 109.05 L 151.17 96.40 L 125.52 104.57 L 130.73 101.56 L 85.71 113.39 L 155.52 98.34 L 90.25 85.98 L 150.42 102.52 L 89.76 112.95 L 73.51 114.45 L 45.64 116.71 L 47.21 116.32 L 114.24 109.33 L 53.32 116.18 L 64.51 115.30 L 81.83 85.13 L 63.81 115.28 L 116.91 109.89 L 128.67 90.76 L 84.65 85.40 L 118.86 107.88 L 68.84 114.92 L 94.68 112.48 L 108.86 88.09 L 79.75 113.93 L 121.51 105.79 L 146.88 104.18 L 147.42 104.04 L 127.69 107.89 L 140.24 105.44 L 117.78 109.76 L 96.00 110.65 L 55.41 115.53 L 73.26 113.57 L 131.93 107.26 L 146.41 94.32 L 129.57 107.97 L 80.38 113.87 L 56.06 115.46 L 107.98 109.81 L 140.00 106.06 L 155.96 99.64 L 151.57 95.98 L 89.57 89.63 L 138.10 92.43 L 108.20 110.97 L 112.83 93.29 L 135.96 106.93 L 126.16 104.30 L 147.50 104.07 L 122.28 89.91 L 103.22 109.55 L 45.37 116.52 L 120.55 89.54 L 130.90 99.81 L 138.15 92.65 L 122.99 109.05 L 74.40 84.39 L 130.64 99.42 L 109.16 88.05 L 132.88 107.50 L 155.42 100.76 L 125.46 96.52 L 59.51 83.08 L 97.62 86.72 L 69.59 114.87 L 62.96 115.34 L 117.57 109.29 L 80.11 113.91 L 60.92 114.94 L 113.46 109.19 L 123.33 105.26 L 108.23 88.01 L 116.33 109.44 L 120.15 94.10 L 129.77 108.01 L 140.28 92.87 L 137.57 92.32 L 131.02 100.95 L 115.94 93.94 L 147.40 104.10 L 122.11 109.17 L 147.58 104.03 L 103.18 109.53 L 64.75 83.52 L 51.44 116.32 L 125.65 106.15 L 69.94 114.84 L 145.80 104.36 L 123.69 106.69 L 63.90 114.57 L 140.15 92.84 L 77.70 113.01 L 129.29 108.03 L 91.57 86.08 L 139.26 106.30 L 123.33 95.81 L 58.82 115.76 L 113.84 92.83 L 141.09 105.25 L 147.54 104.02 L 52.07 115.81 L 114.16 109.00 L 152.14 96.92 L 51.18 116.34 L 78.14 112.96 L 134.28 106.60 L 145.00 104.89 L 94.26 110.90 L 131.27 107.70 L 114.39 92.94 L 125.34 90.24 L 130.70 99.48 L 150.38 96.06 L 138.17 106.14 L 115.44 93.13 L 86.34 85.54 L 120.45 108.68 L 52.99 116.20 L 116.91 94.15 L 83.90 113.53 L 95.44 86.48 L 86.78 113.27 L 127.29 108.31 L 104.81 110.54 L 144.67 104.90 L 114.17 109.32 L 155.06 97.90 L 117.49 107.92 L 67.33 114.20 L 105.81 87.65 L 130.40 91.19 L 125.90 106.08 L 150.01 95.89 L 44.82 116.59 L 128.41 97.74 L 155.07 101.07 L 127.24 90.53 L 118.99 106.45 L 80.34 84.96 L 43.51 116.80 L 146.35 94.65 L 79.77 113.92 L 113.71 109.11 L 145.62 104.86 L 147.64 104.00 L 121.34 109.27 L 53.34 115.68 L 155.37 100.77 L 123.60 108.95 L 90.53 112.90 L 141.92 93.22 L 149.36 103.79 L 112.51 92.60 L 64.91 114.50 L 59.91 115.67 L 98.37 90.85 L 120.57 108.66 L 87.36 85.64 L 144.45 93.83 L 130.20 107.29 L 142.58 105.42 L 141.30 105.44 L 119.46 89.50 L 120.02 108.73 L 45.32 116.53 L 107.12 111.03 L 155.96 99.17 L 132.65 107.14 L 108.31 108.68 L 154.16 98.96 L 131.01 107.81 L 137.84 106.59 L 111.92 109.99 L 154.42 97.39 L 127.30 103.88 L 130.76 101.51 L 52.95 116.21 L 59.32 83.06 L 126.26 105.97 L 104.38 111.41 L 43.74 116.77 L 140.38 105.41 L 108.73 110.92 L 125.70 108.65 L 45.19 116.55 L 139.66 92.97 L 147.52 104.03 L 44.14 116.78 L 118.20 94.46 L 77.05 113.09 L 117.53 109.29 L 153.67 100.52 L 128.00 90.66 L 47.05 116.63 L 136.14 106.91 L 122.19 108.72 L 126.00 104.36 L 105.49 111.25 L 59.14 83.04 L 96.06 112.34 L 140.49 105.62 L 134.05 106.90 L 139.70 106.12 L 154.09 98.66 L 128.82 90.79 L 142.22 93.29 L 62.09 83.30 L 83.36 85.24 L 153.35 96.80 L 131.70 107.68 L 112.62 108.91 L 131.99 103.88 L 83.22 85.27 L 130.23 107.93 L 55.43 116.02 L 148.27 103.31 L 154.22 99.13 L 84.56 113.49 L 147.84 94.74 L 148.68 103.17 L 114.41 88.72 L 142.09 93.26 L 152.50 96.39 L 134.92 106.74 L 145.14 93.99 L 117.56 94.30 L 103.57 109.49 L 116.36 109.95 L 74.44 114.43 L 123.05 108.34 L 107.39 87.91 L 142.37 104.95 L 74.34 87.79 L 155.08 97.89 L 142.28 93.32 L 130.71 99.49 L 74.96 113.37 L 130.11 102.27 L 146.49 104.62 L 132.99 98.15 L 121.40 95.26 L 50.33 116.11 L 154.36 97.36 L 134.18 98.94 L 53.40 116.14 L 119.09 106.42 L 56.75 115.39 L 132.79 106.86 L 84.11 112.23 L 151.82 102.38 L 72.21 113.65 L 115.52 108.65 L 72.27 114.63 L 46.30 116.42" fill="none" stroke="url(#grad)" stroke-width="0.3" stroke-opacity="0.8"/>
</svg>