<?xml version="1.0" encoding="UTF-8"?>
<svg xmlns="http://www.w3.org/2000/svg" width="200" height="200" viewBox="0 0 200 200">
  <defs>
    <linearGradient id="grad" x1="0%" y1="0%" x2="100%" y2="100%">
      <stop offset="0%" style="stop-color:#f59e0b;stop-opacity:1" />
      <stop offset="100%" style="stop-color:#ea580c;stop-opacity:1" />
    </linearGradient>
  </defs>
  <rect width="100%" height="100%" fill="#0a0a0f"/>
  <path d="M 98.59 101.09 L 99.13 101.71 L 98.98 102.02 L 98.51 102.10 L 98.15 101.65 L 98.09 100.91 L 98.33 100.77 L 98.87 101.39 L 99.17 101.92 L 98.75 102.07 L 98.29 101.98 L 98.11 101.30 L 98.15 100.67 L 98.57 101.06 L 99.11 101.69 L 99.00 102.01 L 98.53 102.10 L 98.16 101.68 L 98.09 100.94 L 98.31 100.75 L 98.84 101.37 L 99.18 101.91 L 98.78 102.07 L 98.31 102.00 L 98.11 101.33 L 98.14 100.68 L 98.55 101.03 L 99.09 101.66 L 99.02 102.01 L 98.55 102.11 L 98.17 101.71 L 98.09 100.97 L 98.29 100.73 L 98.82 101.34 L 99.18 101.89 L 98.80 102.06 L 98.33 102.02 L 98.11 101.36 L 98.13 100.70 L 98.52 101.00 L 99.07 101.64 L 99.04 102.00 L 98.57 102.10 L 98.17 101.74 L 98.09 101.00 L 98.28 100.71 L 98.79 101.31 L 99.18 101.88 L 98.82 102.06 L 98.34 102.03 L 98.12 101.40 L 98.12 100.71 L 98.50 100.97 L 99.05 101.61 L 99.06 102.00 L 98.59 102.10 L 98.18 101.77 L 98.09 101.04 L 98.26 100.69 L 98.76 101.28 L 99.18 101.86 L 98.84 102.05 L 98.36 102.05 L 98.12 101.43 L 98.11 100.73 L 98.48 100.94 L 99.03 101.58 L 99.08 101.99 L 98.61 102.10 L 98.19 101.80 L 98.09 101.07 L 98.24 100.68 L 98.74 101.25 L 99.18 101.84 L 98.86 102.05 L 98.39 102.06 L 98.12 101.46 L 98.11 100.75 L 98.46 100.91 L 99.01 101.55 L 99.10 101.98 L 98.63 102.10 L 98.20 101.83 L 98.09 101.10 L 98.22 100.67 L 98.71 101.22 L 99.18 101.82 L 98.88 102.04 L 98.41 102.07 L 98.13 101.50 L 98.10 100.77 L 98.43 100.89 L 98.99 101.53 L 99.11 101.97 L 98.65 102.09 L 98.22 101.86 L 98.09 101.14 L 98.21 100.66 L 98.69 101.20 L 99.17 101.80 L 98.90 102.04 L 98.43 102.08 L 98.13 101.53 L 98.10 100.80 L 98.41 100.86 L 98.96 101.50 L 99.13 101.96 L 98.67 102.09 L 98.23 101.88 L 98.10 101.17 L 98.20 100.66 L 98.66 101.17 L 99.16 101.78 L 98.92 102.03 L 98.45 102.09 L 98.14 101.56 L 98.10 100.83 L 98.39 100.83 L 98.94 101.47 L 99.14 101.96 L 98.70 102.09 L 98.24 101.91 L 98.10 101.20 L 98.18 100.66 L 98.64 101.14 L 99.15 101.76 L 98.94 102.03 L 98.47 102.10 L 98.14 101.59 L 98.09 100.85 L 98.37 100.81 L 98.91 101.44 L 99.15 101.94 L 98.72 102.08 L 98.26 101.94 L 98.10 101.24 L 98.17 100.66 L 98.62 101.11 L 99.14 101.73 L 98.97 102.02 L 98.49 102.10 L 98.15 101.62 L 98.09 100.88 L 98.35 100.79 L 98.89 101.42 L 99.16 101.93 L 98.74 102.08 L 98.27 101.96 L 98.10 101.27 L 98.16 100.66 L 98.59 101.08 L 99.12 101.71 L 98.99 102.02 L 98.51 102.10 L 98.15 101.66 L 98.09 100.91 L 98.33 100.76 L 98.86 101.39 L 99.17 101.92 L 98.76 102.07 L 98.29 101.98 L 98.11 101.30 L 98.15 100.67 L 98.57 101.05 L 99.11 101.68 L 99.01 102.01 L 98.53 102.11 L 98.16 101.69 L 98.09 100.94 L 98.31 100.74 L 98.84 101.36 L 99.18 101.91 L 98.78 102.07 L 98.31 102.00 L 98.11 101.34 L 98.14 100.68 L 98.54 101.02 L 99.09 101.66 L 99.03 102.01 L 98.55 102.11 L 98.17 101.72 L 98.09 100.98 L 98.29 100.72 L 98.81 101.33 L 99.18 101.89 L 98.80 102.06 L 98.33 102.02 L 98.11 101.37 L 98.13 100.70 L 98.52 100.99 L 99.07 101.63 L 99.04 102.00 L 98.57 102.10 L 98.18 101.75 L 98.09 101.01 L 98.27 100.71 L 98.79 101.30 L 99.18 101.88 L 98.82 102.06 L 98.35 102.04 L 98.12 101.40 L 98.12 100.71 L 98.50 100.97 L 99.05 101.60 L 99.06 101.99 L 98.60 102.10 L 98.18 101.78 L 98.09 101.04 L 98.26 100.69 L 98.76 101.28 L 99.18 101.86 L 98.84 102.05 L 98.37 102.05 L 98.12 101.44 L 98.11 100.73 L 98.47 100.94 L 99.03 101.58 L 99.08 101.99 L 98.62 102.10 L 98.19 101.81 L 98.09 101.07 L 98.24 100.68 L 98.74 101.25 L 99.18 101.84 L 98.86 102.05 L 98.39 102.06 L 98.12 101.47 L 98.11 100.76 L 98.45 100.91 L 99.00 101.55 L 99.10 101.98 L 98.64 102.10 L 98.21 101.83 L 98.09 101.11 L 98.22 100.67 L 98.71 101.22 L 99.18 101.82 L 98.88 102.04 L 98.41 102.07 L 98.13 101.50 L 98.10 100.78 L 98.43 100.88 L 98.98 101.52 L 99.11 101.97 L 98.66 102.09 L 98.22 101.86 L 98.09 101.14 L 98.21 100.66 L 98.68 101.19 L 99.17 101.80 L 98.91 102.04 L 98.43 102.08 L 98.13 101.53 L 98.10 100.80 L 98.41 100.86 L 98.96 101.50 L 99.13 101.96 L 98.68 102.09 L 98.23 101.89 L 98.10 101.17 L 98.19 100.66 L 98.66 101.16 L 99.16 101.78 L 98.93 102.03 L 98.45 102.09 L 98.14 101.57 L 98.09 100.83 L 98.39 100.83 L 98.93 101.47 L 99.14 101.95 L 98.70 102.09 L 98.25 101.91 L 98.10 101.21 L 98.18 100.66 L 98.64 101.13 L 99.15 101.75 L 98.95 102.03 L 98.47 102.10 L 98.14 101.60 L 98.09 100.86 L 98.37 100.81 L 98.91 101.44 L 99.15 101.94 L 98.72 102.08 L 98.26 101.94 L 98.10 101.24 L 98.17 100.66 L 98.61 101.10 L 99.14 101.73 L 98.97 102.02 L 98.49 102.10 L 98.15 101.63 L 98.09 100.89 L 98.35 100.78 L 98.88 101.41 L 99.16 101.93 L 98.74 102.08 L 98.28 101.96 L 98.10 101.28 L 98.16 100.67 L 98.59 101.08 L 99.12 101.70 L 98.99 102.02 L 98.51 102.10 L 98.15 101.66 L 98.09 100.92 L 98.33 100.76 L 98.86 101.38 L 99.17 101.92 L 98.76 102.07 L 98.29 101.98 L 98.11 101.31 L 98.14 100.67 L 98.56 101.05 L 99.10 101.68 L 99.01 102.01 L 98.54 102.11 L 98.16 101.69 L 98.09 100.95 L 98.31 100.74 L 98.83 101.36 L 99.18 101.90 L 98.78 102.07 L 98.31 102.00 L 98.11 101.34 L 98.13 100.69 L 98.54 101.02 L 99.09 101.65 L 99.03 102.01 L 98.56 102.11 L 98.17 101.72 L 98.09 100.98 L 98.29 100.72 L 98.81 101.33 L 99.18 101.89 L 98.80 102.06 L 98.33 102.02 L 98.11 101.38 L 98.13 100.70 L 98.52 100.99 L 99.07 101.63 L 99.05 102.00 L 98.58 102.10 L 98.18 101.75 L 98.09 101.01 L 98.27 100.70 L 98.78 101.30 L 99.18 101.87 L 98.83 102.06 L 98.35 102.04 L 98.12 101.41 L 98.12 100.72 L 98.49 100.96 L 99.05 101.60 L 99.07 101.99 L 98.60 102.10 L 98.19 101.78 L 98.09 101.05 L 98.25 100.69 L 98.76 101.27 L 99.18 101.86 L 98.85 102.05 L 98.37 102.05 L 98.12 101.44 L 98.11 100.74 L 98.47 100.93 L 99.02 101.57 L 99.08 101.99 L 98.62 102.10 L 98.20 101.81 L 98.09 101.08 L 98.24 100.68 L 98.73 101.24 L 99.18 101.84 L 98.87 102.05 L 98.39 102.07 L 98.12 101.47 L 98.11 100.76 L 98.45 100.91 L 99.00 101.55 L 99.10 101.98 L 98.64 102.10 L 98.21 101.84 L 98.09 101.11 L 98.22 100.67 L 98.71 101.21 L 99.18 101.82 L 98.89 102.04 L 98.41 102.08 L 98.13 101.51 L 98.10 100.78 L 98.43 100.88 L 98.98 101.52 L 99.12 101.97 L 98.66 102.09 L 98.22 101.87 L 98.10 101.15 L 98.20 100.66 L 98.68 101.19 L 99.17 101.79 L 98.91 102.04 L 98.43 102.09 L 98.13 101.54 L 98.10 100.81 L 98.40 100.85 L 98.95 101.49 L 99.13 101.96 L 98.68 102.09 L 98.23 101.89 L 98.10 101.18 L 98.19 100.66 L 98.66 101.16 L 99.16 101.77 L 98.93 102.03 L 98.45 102.09 L 98.14 101.57 L 98.09 100.84 L 98.38 100.83 L 98.93 101.46 L 99.14 101.95 L 98.70 102.08 L 98.25 101.92 L 98.10 101.21 L 98.18 100.66 L 98.63 101.13 L 99.15 101.75 L 98.95 102.03 L 98.48 102.10 L 98.14 101.60 L 98.09 100.86 L 98.36 100.80 L 98.90 101.44 L 99.16 101.94 L 98.72 102.08 L 98.26 101.94 L 98.10 101.25 L 98.16 100.66 L 98.61 101.10 L 99.13 101.72 L 98.97 102.02 L 98.50 102.10 L 98.15 101.63 L 98.09 100.89 L 98.34 100.78 L 98.88 101.41 L 99.17 101.93 L 98.74 102.07 L 98.28 101.97 L 98.10 101.28 L 98.15 100.67 L 98.58 101.07 L 99.12 101.70 L 98.99 102.02 L 98.52 102.10 L 98.15 101.67 L 98.09 100.92 L 98.32 100.76 L 98.85 101.38 L 99.17 101.92 L 98.77 102.07 L 98.30 101.99 L 98.11 101.31 L 98.14 100.68 L 98.56 101.04 L 99.10 101.67 L 99.01 102.01 L 98.54 102.11 L 98.16 101.70 L 98.09 100.96 L 98.30 100.74 L 98.83 101.35 L 99.18 101.90 L 98.79 102.06 L 98.32 102.01 L 98.11 101.35 L 98.13 100.69 L 98.54 101.01 L 99.08 101.65 L 99.03 102.00 L 98.56 102.11 L 98.17 101.73 L 98.09 100.99 L 98.28 100.72 L 98.80 101.32 L 99.18 101.89 L 98.81 102.06 L 98.34 102.03 L 98.11 101.38 L 98.12 100.70 L 98.51 100.98 L 99.06 101.62 L 99.05 102.00 L 98.58 102.10 L 98.18 101.76 L 98.09 101.02 L 98.27 100.70 L 98.78 101.30 L 99.18 101.87 L 98.83 102.05 L 98.35 102.04 L 98.12 101.41 L 98.12 100.72 L 98.49 100.96 L 99.04 101.60 L 99.07 101.99 L 98.60 102.10 L 98.19 101.79 L 98.09 101.05 L 98.25 100.69 L 98.75 101.27 L 99.18 101.85 L 98.85 102.05 L 98.37 102.06 L 98.12 101.45 L 98.11 100.74 L 98.47 100.93 L 99.02 101.57 L 99.09 101.98 L 98.62 102.10 L 98.20 101.82 L 98.09 101.09 L 98.23 100.68 L 98.73 101.24 L 99.18 101.83 L 98.87 102.04 L 98.40 102.07 L 98.12 101.48 L 98.11 100.76 L 98.44 100.90 L 99.00 101.54 L 99.10 101.98 L 98.64 102.10 L 98.21 101.84 L 98.09 101.12 L 98.22 100.67 L 98.70 101.21 L 99.17 101.81 L 98.89 102.04 L 98.42 102.08 L 98.13 101.51 L 98.10 100.79 L 98.42 100.87 L 98.97 101.51 L 99.12 101.97 L 98.66 102.09 L 98.22 101.87 L 98.10 101.15 L 98.20 100.66 L 98.68 101.18 L 99.17 101.79 L 98.91 102.03 L 98.44 102.09 L 98.13 101.54 L 98.10 100.81 L 98.40 100.85 L 98.95 101.49 L 99.13 101.96 L 98.69 102.09 L 98.24 101.90 L 98.10 101.19 L 98.19 100.66 L 98.65 101.15 L 99.16 101.77 L 98.93 102.03 L 98.46 102.09 L 98.14 101.58 L 98.09 100.84 L 98.38 100.82 L 98.92 101.46 L 99.15 101.95 L 98.71 102.08 L 98.25 101.92 L 98.10 101.22 L 98.17 100.66 L 98.63 101.12 L 99.15 101.74 L 98.95 102.02 L 98.48 102.10 L 98.14 101.61 L 98.09 100.87 L 98.36 100.80 L 98.90 101.43 L 99.16 101.94 L 98.73 102.08 L 98.27 101.95 L 98.10 101.25 L 98.16 100.66 L 98.60 101.09 L 99.13 101.72 L 98.98 102.02 L 98.50 102.10 L 98.15 101.64 L 98.09 100.90 L 98.34 100.77 L 98.87 101.40 L 99.17 101.93 L 98.75 102.07 L 98.28 101.97 L 98.10 101.29 L 98.15 100.67 L 98.58 101.07 L 99.12 101.70 L 99.00 102.01 L 98.52 102.10 L 98.16 101.67 L 98.09 100.93 L 98.32 100.75 L 98.85 101.37 L 99.17 101.91 L 98.77 102.07 L 98.30 101.99 L 98.11 101.32 L 98.14 100.68 L 98.56 101.04 L 99.10 101.67 L 99.02 102.01 L 98.54 102.11 L 98.16 101.70 L 98.09 100.96 L 98.30 100.73 L 98.82 101.35 L 99.18 101.90 L 98.79 102.06 L 98.32 102.01 L 98.11 101.35 L 98.13 100.69 L 98.53 101.01 L 99.08 101.64 L 99.04 102.00 L 98.56 102.11 L 98.17 101.73 L 98.09 100.99 L 98.28 100.71 L 98.80 101.32 L 99.18 101.88 L 98.81 102.06 L 98.34 102.03 L 98.11 101.39 L 98.12 100.71 L 98.51 100.98 L 99.06 101.62 L 99.05 102.00 L 98.58 102.10 L 98.18 101.76 L 98.09 101.02 L 98.26 100.70 L 98.77 101.29 L 99.18 101.87 L 98.83 102.05 L 98.36 102.04 L 98.12 101.42 L 98.12 100.72 L 98.49 100.95 L 99.04 101.59 L 99.07 101.99 L 98.61 102.10 L 98.19 101.79 L 98.09 101.06 L 98.25 100.68 L 98.75 101.26 L 99.18 101.85 L 98.85 102.05 L 98.38 102.06 L 98.12 101.45 L 98.11 100.74 L 98.46 100.92 L 99.02 101.56 L 99.09 101.98 L 98.63 102.10 L 98.20 101.82 L 98.09 101.09 L 98.23 100.67 L 98.72 101.23 L 99.18 101.83 L 98.87 102.04 L 98.40 102.07 L 98.12 101.48 L 98.10 100.77 L 98.44 100.90 L 98.99 101.54 L 99.11 101.98 L 98.65 102.10 L 98.21 101.85 L 98.09 101.12 L 98.21 100.67 L 98.70 101.21 L 99.17 101.81 L 98.90 102.04 L 98.42 102.08 L 98.13 101.52 L 98.10 100.79 L 98.42 100.87 L 98.97 101.51 L 99.12 101.97 L 98.67 102.09 L 98.22 101.88 L 98.10 101.16 L 98.20 100.66 L 98.67 101.18 L 99.17 101.79 L 98.92 102.03 L 98.44 102.09 L 98.13 101.55 L 98.10 100.82 L 98.40 100.84 L 98.95 101.48 L 99.14 101.96 L 98.69 102.09 L 98.24 101.90 L 98.10 101.19 L 98.19 100.66 L 98.65 101.15 L 99.16 101.76 L 98.94 102.03 L 98.46 102.09 L 98.14 101.58 L 98.09 100.84 L 98.38 100.82 L 98.92 101.45 L 99.15 101.95 L 98.71 102.08 L 98.25 101.93 L 98.10 101.22 L 98.17 100.66 L 98.62 101.12 L 99.14 101.74 L 98.96 102.02 L 98.48 102.10 L 98.14 101.61 L 98.09 100.87 L 98.36 100.79 L 98.90 101.43 L 99.16 101.94 L 98.73 102.08 L 98.27 101.95 L 98.10 101.26 L 98.16 100.66 L 98.60 101.09 L 99.13 101.72 L 98.98 102.02 L 98.50 102.10 L 98.15 101.64 L 98.09 100.90 L 98.34 100.77 L 98.87 101.40 L 99.17 101.93 L 98.75 102.07 L 98.29 101.97 L 98.11 101.29 L 98.15 100.67 L 98.57 101.06 L 99.11 101.69 L 99.00 102.01 L 98.53 102.10 L 98.16 101.68 L 98.09 100.93 L 98.32 100.75 L 98.85 101.37 L 99.18 101.91 L 98.77 102.07 L 98.30 101.99 L 98.11 101.33 L 98.14 100.68 L 98.55 101.03 L 99.10 101.67 L 99.02 102.01 L 98.55 102.11 L 98.16 101.71 L 98.09 100.97 L 98.30 100.73 L 98.82 101.34 L 99.18 101.90 L 98.79 102.06 L 98.32 102.01 L 98.11 101.36 L 98.13 100.69 L 98.53 101.00 L 99.08 101.64 L 99.04 102.00 L 98.57 102.10 L 98.17 101.74 L 98.09 101.00 L 98.28 100.71 L 98.79 101.31 L 99.18 101.88 L 98.81 102.06 L 98.34 102.03 L 98.11 101.39 L 98.12 100.71 L 98.50 100.98 L 99.06 101.61 L 99.06 102.00 L 98.59 102.10 L 98.18 101.77 L 98.09 101.03 L 98.26 100.70 L 98.77 101.29 L 99.18 101.86 L 98.84 102.05 L 98.36 102.05 L 98.12 101.42 L 98.12 100.73 L 98.48 100.95 L 99.03 101.59 L 99.08 101.99 L 98.61 102.10 L 98.19 101.80 L 98.09 101.06 L 98.24 100.68 L 98.74 101.26 L 99.18 101.85 L 98.86 102.05 L 98.38 102.06 L 98.12 101.46 L 98.11 100.75 L 98.46 100.92 L 99.01 101.56 L 99.09 101.98 L 98.63 102.10 L 98.20 101.83 L 98.09 101.10 L 98.23 100.67 L 98.72 101.23 L 99.18 101.83 L 98.88 102.04 L 98.40 102.07 L 98.13 101.49 L 98.10 100.77 L 98.44 100.89 L 98.99 101.53 L 99.11 101.97 L 98.65 102.09 L 98.21 101.85 L 98.09 101.13 L 98.21 100.66 L 98.69 101.20 L 99.17 101.81 L 98.90 102.04 L 98.42 102.08 L 98.13 101.52 L 98.10 100.80 L 98.42 100.86 L 98.97 101.50 L 99.12 101.97 L 98.67 102.09 L 98.23 101.88 L 98.10 101.16 L 98.20 100.66 L 98.67 101.17 L 99.16 101.78 L 98.92 102.03 L 98.44 102.09 L 98.13 101.55 L 98.10 100.82 L 98.39 100.84 L 98.94 101.48 L 99.14 101.96 L 98.69 102.09 L 98.24 101.91 L 98.10 101.20 L 98.18 100.66 L 98.64 101.14 L 99.15 101.76 L 98.94 102.03 L 98.47 102.10 L 98.14 101.59 L 98.09 100.85 L 98.37 100.81 L 98.92 101.45 L 99.15 101.95 L 98.71 102.08 L 98.26 101.93 L 98.10 101.23 L 98.17 100.66 L 98.62 101.11 L 99.14 101.74 L 98.96 102.02 L 98.49 102.10 L 98.15 101.62 L 98.09 100.88 L 98.35 100.79 L 98.89 101.42 L 99.16 101.94 L 98.73 102.08 L 98.27 101.95 L 98.10 101.26 L 98.16 100.66 L 98.59 101.09 L 99.13 101.71 L 98.98 102.02 L 98.51 102.10 L 98.15 101.65 L 98.09 100.91 L 98.33 100.77 L 98.87 101.39 L 99.17 101.92 L 98.75 102.07 L 98.29 101.98 L 98.11 101.30 L 98.15 100.67 L 98.57 101.06 L 99.11 101.69 L 99.00 102.01 L 98.53 102.10 L 98.16 101.68 L 98.09 100.94 L 98.31 100.75 L 98.84 101.37 L 99.18 101.91 L 98.78 102.07 L 98.31 102.00 L 98.11 101.33 L 98.14 100.68 L 98.55 101.03 L 99.09 101.66 L 99.02 102.01 L 98.55 102.11 L 98.17 101.71 L 98.09 100.97 L 98.29 100.73 L 98.82 101.34 L 99.18 101.89 L 98.80 102.06 L 98.33 102.02 L 98.11 101.36 L 98.13 100.70 L 98.52 101.00 L 99.07 101.63 L 99.04 102.00 L 98.57 102.10 L 98.17 101.74 L 98.09 101.00 L 98.28 100.71 L 98.79 101.31 L 99.18 101.88 L 98.82 102.06 L 98.34 102.03 L 98.12 101.40 L 98.12 100.71 L 98.50 100.97 L 99.05 101.61 L 99.06 102.00 L 98.59 102.10 L 98.18 101.77 L 98.09 101.04 L 98.26 100.69 L 98.76 101.28 L 99.18 101.86 L 98.84 102.05 L 98.36 102.05 L 98.12 101.43 L 98.11 100.73 L 98.48 100.94 L 99.03 101.58 L 99.08 101.99 L 98.61 102.10 L 98.19 101.80 L 98.09 101.07 L 98.24 100.68 L 98.74 101.25 L 99.18 101.84 L 98.86 102.05 L 98.39 102.06 L 98.12 101.46 L 98.11 100.75 L 98.46 100.91 L 99.01 101.55 L 99.10 101.98 L 98.63 102.10 L 98.20 101.83 L 98.09 101.10 L 98.22 100.67 L 98.71 101.22 L 99.18 101.82 L 98.88 102.04 L 98.41 102.07 L 98.13 101.50 L 98.10 100.77 L 98.43 100.89 L 98.99 101.53 L 99.11 101.97 L 98.65 102.09 L 98.22 101.86 L 98.09 101.14 L 98.21 100.66 L 98.69 101.20 L 99.17 101.80 L 98.90 102.04 L 98.43 102.08 L 98.13 101.53 L 98.10 100.80 L 98.41 100.86 L 98.96 101.50 L 99.13 101.96 L 98.67 102.09 L 98.23 101.88 L 98.10 101.17 L 98.20 100.66 L 98.66 101.17 L 99.16 101.78 L 98.92 102.03 L 98.45 102.09 L 98.14 101.56 L 98.10 100.83 L 98.39 100.83 L 98.94 101.47 L 99.14 101.96 L 98.70 102.09 L 98.24 101.91 L 98.10 101.20 L 98.18 100.66 L 98.64 101.14 L 99.15 101.76 L 98.94 102.03 L 98.47 102.10 L 98.14 101.59 L 98.09 100.85 L 98.37 100.81 L 98.91 101.44 L 99.15 101.94 L 98.72 102.08 L 98.26 101.94 L 98.10 101.24 L 98.17 100.66 L 98.62 101.11 L 99.14 101.73 L 98.97 102.02 L 98.49 102.10 L 98.15 101.62 L 98.09 100.88 L 98.35 100.79 L 98.89 101.42 L 99.16 101.93 L 98.74 102.08 L 98.27 101.96 L 98.10 101.27 L 98.16 100.67 L 98.59 101.08 L 99.12 101.71 L 98.99 102.02 L 98.51 102.10 L 98.15 101.66 L 98.09 100.91 L 98.33 100.76 L 98.86 101.39 L 99.17 101.92 L 98.76 102.07 L 98.29 101.98 L 98.11 101.30 L 98.15 100.67 L 98.57 101.05 L 99.11 101.68 L 99.01 102.01 L 98.53 102.11 L 98.16 101.69 L 98.09 100.94 L 98.31 100.74 L 98.84 101.36 L 99.18 101.91 L 98.78 102.07 L 98.31 102.00 L 98.11 101.34 L 98.14 100.68 L 98.54 101.02 L 99.09 101.66 L 99.03 102.01 L 98.55 102.11 L 98.17 101.72 L 98.09 100.98 L 98.29 100.72 L 98.81 101.33 L 99.18 101.89 L 98.80 102.06 L 98.33 102.02 L 98.11 101.37 L 98.13 100.70 L 98.52 100.99 L 99.07 101.63 L 99.04 102.00 L 98.57 102.10 L 98.18 101.75 L 98.09 101.01 L 98.27 100.71 L 98.79 101.30 L 99.18 101.88 L 98.82 102.06 L 98.35 102.04 L 98.12 101.40 L 98.12 100.71 L 98.50 100.97 L 99.05 101.60 L 99.06 101.99 L 98.60 102.10 L 98.18 101.78 L 98.09 101.04 L 98.26 100.69 L 98.76 101.28 L 99.18 101.86 L 98.84 102.05 L 98.37 102.05 L 98.12 101.44 L 98.11 100.73 L 98.47 100.94 L 99.03 101.58 L 99.08 101.99 L 98.62 102.10 L 98.19 101.81 L 98.09 101.07 L 98.24 100.68 L 98.73 101.25 L 99.18 101.84 L 98.86 102.05 L 98.39 102.06 L 98.12 101.47 L 98.11 100.76 L 98.45 100.91 L 99.00 101.55 L 99.10 101.98 L 98.64 102.10 L 98.21 101.83 L 98.09 101.11 L 98.22 100.67 L 98.71 101.22 L 99.18 101.82 L 98.89 102.04 L 98.41 102.07 L 98.13 101.50 L 98.10 100.78 L 98.43 100.88 L 98.98 101.52 L 99.11 101.97 L 98.66 102.09 L 98.22 101.86 L 98.09 101.14 L 98.21 100.66 L 98.68 101.19 L 99.17 101.80 L 98.91 102.04 L 98.43 102.08 L 98.13 101.53 L 98.10 100.80 L 98.41 100.86 L 98.96 101.50 L 99.13 101.96 L 98.68 102.09 L 98.23 101.89 L 98.10 101.17 L 98.19 100.66 L 98.66 101.16 L 99.16 101.78 L 98.93 102.03 L 98.45 102.09 L 98.14 101.57 L 98.09 100.83 L 98.39 100.83 L 98.93 101.47 L 99.14 101.95 L 98.70 102.09 L 98.25 101.91 L 98.10 101.21 L 98.18 100.66 L 98.64 101.13 L 99.15 101.75 L 98.95 102.03 L 98.47 102.10 L 98.14 101.60 L 98.09 100.86 L 98.37 100.81 L 98.91 101.44 L 99.15 101.94 L 98.72 102.08 L 98.26 101.94 L 98.10 101.24 L 98.17 100.66 L 98.61 101.10 L 99.14 101.73 L 98.97 102.02 L 98.49 102.10 L 98.15 101.63 L 98.09 100.89 L 98.35 100.78 L 98.88 101.41 L 99.16 101.93 L 98.74 102.08 L 98.28 101.96 L 98.10 101.28 L 98.16 100.67 L 98.59 101.08 L 99.12 101.70 L 98.99 102.02 L 98.51 102.10 L 98.15 101.66 L 98.09 100.92 L 98.33 100.76 L 98.86 101.38 L 99.17 101.92 L 98.76 102.07 L 98.29 101.98 L 98.11 101.31 L 98.14 100.67 L 98.56 101.05 L 99.10 101.68 L 99.01 102.01 L 98.54 102.11 L 98.16 101.69 L 98.09 100.95 L 98.31 100.74 L 98.83 101.36 L 99.18 101.90 L 98.78 102.07 L 98.31 102.00 L 98.11 101.34 L 98.13 100.69 L 98.54 101.02 L 99.09 101.65 L 99.03 102.01 L 98.56 102.11 L 98.17 101.72 L 98.09 100.98 L 98.29 100.72 L 98.81 101.33 L 99.18 101.89 L 98.80 102.06 L 98.33 102.02 L 98.11 101.38 L 98.13 100.70 L 98.52 100.99 L 99.07 101.63 L 99.05 102.00 L 98.58 102.10 L 98.18 101.75 L 98.09 101.01 L 98.27 100.70 L 98.78 101.30 L 99.18 101.87 L 98.83 102.06 L 98.35 102.04 L 98.12 101.41 L 98.12 100.72 L 98.49 100.96 L 99.05 101.60 L 99.07 101.99 L 98.60 102.10 L 98.19 101.78 L 98.09 101.05 L 98.25 100.69 L 98.76 101.27 L 99.18 101.86 L 98.85 102.05 L 98.37 102.05 L 98.12 101.44 L 98.11 100.74 L 98.47 100.93 L 99.02 101.57 L 99.08 101.99 L 98.62 102.10 L 98.20 101.81 L 98.09 101.08 L 98.24 100.68 L 98.73 101.24 L 99.18 101.84 L 98.87 102.05 L 98.39 102.07 L 98.12 101.47 L 98.11 100.76 L 98.45 100.90 L 99.00 101.55 L 99.10 101.98 L 98.64 102.10 L 98.21 101.84 L 98.09 101.11 L 98.22 100.67 L 98.71 101.21 L 99.18 101.82 L 98.89 102.04 L 98.41 102.08 L 98.13 101.51 L 98.10 100.78 L 98.43 100.88 L 98.98 101.52 L 99.12 101.97 L 98.66 102.09 L 98.22 101.87 L 98.10 101.15 L 98.20 100.66 L 98.68 101.19 L 99.17 101.79 L 98.91 102.04 L 98.43 102.09 L 98.13 101.54 L 98.10 100.81 L 98.40 100.85 L 98.95 101.49 L 99.13 101.96 L 98.68 102.09 L 98.23 101.89 L 98.10 101.18 L 98.19 100.66 L 98.66 101.16 L 99.16 101.77 L 98.93 102.03 L 98.45 102.09 L 98.14 101.57 L 98.09 100.84 L 98.38 100.83 L 98.93 101.46 L 99.14 101.95 L 98.70 102.08 L 98.25 101.92 L 98.10 101.21 L 98.18 100.66 L 98.63 101.13 L 99.15 101.75 L 98.95 102.03 L 98.48 102.10 L 98.14 101.60 L 98.09 100.86 L 98.36 100.80 L 98.90 101.44 L 99.16 101.94 L 98.72 102.08 L 98.26 101.94 L 98.10 101.25 L 98.16 100.66 L 98.61 101.10 L 99.13 101.72 L 98.97 102.02 L 98.50 102.10 L 98.15 101.63 L 98.09 100.89 L 98.34 100.78 L 98.88 101.41 L 99.17 101.93 L 98.74 102.07 L 98.28 101.97 L 98.10 101.28 L 98.15 100.67 L 98.58 101.07 L 99.12 101.70 L 98.99 102.02 L 98.52 102.10 L 98.15 101.67 L 98.09 100.92 L 98.32 100.76 L 98.85 101.38 L 99.17 101.92 L 98.77 102.07 L 98.30 101.99 L 98.11 101.31 L 98.14 100.68 L 98.56 101.04 L 99.10 101.67 L 99.01 102.01 L 98.54 102.11 L 98.16 101.70 L 98.09 100.96 L 98.30 100.74 L 98.83 101.35 L 99.18 101.90 L 98.79 102.06 L 98.32 102.01 L 98.11 101.35 L 98.13 100.69 L 98.54 101.01 L 99.08 101.65 L 99.03 102.00 L 98.56 102.11 L 98.17 101.73 L 98.09 100.99 L 98.28 100.72 L 98.80 101.32 L 99.18 101.89 L 98.81 102.06 L 98.34 102.03 L 98.11 101.38 L 98.12 100.70 L 98.51 100.98 L 99.06 101.62 L 99.05 102.00 L 98.58 102.10 L 98.18 101.76 L 98.09 101.02 L 98.27 100.70 L 98.78 101.30 L 99.18 101.87 L 98.83 102.05 L 98.35 102.04 L 98.12 101.41 L 98.12 100.72 L 98.49 100.96 L 99.04 101.59 L 99.07 101.99 L 98.60 102.10 L 98.19 101.79 L 98.09 101.05 L 98.25 100.69 L 98.75 101.27 L 99.18 101.85 L 98.85 102.05 L 98.37 102.06 L 98.12 101.45 L 98.11 100.74 L 98.47 100.93 L 99.02 101.57 L 99.09 101.98 L 98.62 102.10 L 98.20 101.82 L 98.09 101.09 L 98.23 100.68 L 98.73 101.24 L 99.18 101.83 L 98.87 102.04 L 98.40 102.07 L 98.12 101.48 L 98.11 100.76 L 98.44 100.90 L 99.00 101.54 L 99.10 101.98 L 98.64 102.10 L 98.21 101.84 L 98.09 101.12 L 98.22 100.67 L 98.70 101.21 L 99.17 101.81 L 98.89 102.04 L 98.42 102.08 L 98.13 101.51 L 98.10 100.79 L 98.42 100.87 L 98.97 101.51 L 99.12 101.97 L 98.66 102.09 L 98.22 101.87 L 98.10 101.15 L 98.20 100.66 L 98.68 101.18 L 99.17 101.79 L 98.91 102.03 L 98.44 102.09 L 98.13 101.54 L 98.10 100.81 L 98.40 100.85 L 98.95 101.49 L 99.13 101.96 L 98.69 102.09 L 98.24 101.90 L 98.10 101.19 L 98.19 100.66 L 98.65 101.15 L 99.16 101.77 L 98.93 102.03 L 98.46 102.09 L 98.14 101.58 L 98.09 100.84 L 98.38 100.82 L 98.92 101.46 L 99.15 101.95 L 98.71 102.08 L 98.25 101.92 L 98.10 101.22 L 98.17 100.66 L 98.63 101.12 L 99.15 101.74 L 98.96 102.02 L 98.48 102.10 L 98.14 101.61 L 98.09 100.87 L 98.36 100.80 L 98.90 101.43 L 99.16 101.94 L 98.73 102.08 L 98.27 101.95 L 98.10 101.25 L 98.16 100.66 L 98.60 101.09 L 99.13 101.72 L 98.98 102.02 L 98.50 102.10 L 98.15 101.64 L 98.09 100.90 L 98.34 100.77 L 98.87 101.40 L 99.17 101.93 L 98.75 102.07 L 98.28 101.97 L 98.10 101.29 L 98.15 100.67 L 98.58 101.07 L 99.12 101.70 L 99.00 102.01 L 98.52 102.10 L 98.16 101.67 L 98.09 100.93 L 98.32 100.75 L 98.85 101.37 L 99.17 101.91 L 98.77 102.07 L 98.30 101.99 L 98.11 101.32 L 98.14 100.68 L 98.55 101.04 L 99.10 101.67 L 99.02 102.01 L 98.54 102.11 L 98.16 101.70 L 98.09 100.96 L 98.30 100.73 L 98.82 101.35 L 99.18 101.90 L 98.79 102.06 L 98.32 102.01 L 98.11 101.35 L 98.13 100.69 L 98.53 101.01 L 99.08 101.64 L 99.04 102.00 L 98.56 102.11 L 98.17 101.73 L 98.09 100.99 L 98.28 100.71 L 98.80 101.32 L 99.18 101.88 L 98.81 102.06 L 98.34 102.03 L 98.11 101.39 L 98.12 100.71 L 98.51 100.98 L 99.06 101.62 L 99.05 102.00 L 98.58 102.10 L 98.18 101.76 L 98.09 101.03 L 98.26 100.70 L 98.77 101.29 L 99.18 101.87 L 98.83 102.05 L 98.36 102.04 L 98.12 101.42 L 98.12 100.72 L 98.49 100.95 L 99.04 101.59 L 99.07 101.99 L 98.61 102.10 L 98.19 101.79 L 98.09 101.06 L 98.25 100.68 L 98.75 101.26 L 99.18 101.85 L 98.85 102.05 L 98.38 102.06 L 98.12 101.45 L 98.11 100.74 L 98.46 100.92 L 99.02 101.56 L 99.09 101.98 L 98.63 102.10 L 98.20 101.82 L 98.09 101.09 L 98.23 100.67 L 98.72 101.23 L 99.18 101.83 L 98.87 102.04 L 98.40 102.07 L 98.13 101.48 L 98.10 100.77 L 98.44 100.90 L 98.99 101.54 L 99.11 101.98 L 98.65 102.10 L 98.21 101.85 L 98.09 101.12 L 98.21 100.67 L 98.70 101.21 L 99.17 101.81 L 98.90 102.04 L 98.42 102.08 L 98.13 101.52 L 98.10 100.79 L 98.42 100.87 L 98.97 101.51 L 99.12 101.97 L 98.67 102.09 L 98.22 101.88 L 98.10 101.16 L 98.20 100.66 L 98.67 101.18 L 99.17 101.79 L 98.92 102.03 L 98.44 102.09 L 98.13 101.55 L 98.10 100.82 L 98.40 100.84 L 98.95 101.48 L 99.14 101.96 L 98.69 102.09 L 98.24 101.90 L 98.10 101.19 L 98.19 100.66 L 98.65 101.15 L 99.16 101.76 L 98.94 102.03 L 98.46 102.09 L 98.14 101.58 L 98.09 100.84 L 98.38 100.82 L 98.92 101.45 L 99.15 101.95 L 98.71 102.08 L 98.25 101.93 L 98.10 101.23 L 98.17 100.66 L 98.62 101.12 L 99.14 101.74 L 98.96 102.02 L 98.48 102.10 L 98.14 101.61 L 98.09 100.87 L 98.36 100.79 L 98.90 101.43 L 99.16 101.94 L 98.73 102.08 L 98.27 101.95 L 98.10 101.26 L 98.16 100.66 L 98.60 101.09 L 99.13 101.72 L 98.98 102.02 L 98.50 102.10 L 98.15 101.65 L 98.09 100.90 L 98.34 100.77 L 98.87 101.40 L 99.17 101.93 L 98.75 102.07 L 98.29 101.97 L 98.11 101.29 L 98.15 100.67 L 98.57 101.06 L 99.11 101.69 L 99.00 102.01 L 98.53 102.10 L 98.16 101.68 L 98.09 100.93 L 98.32 100.75 L 98.85 101.37 L 99.18 101.91 L 98.77 102.07 L 98.30 101.99 L 98.11 101.33 L 98.14 100.68 L 98.55 101.03 L 99.10 101.67 L 99.02 102.01 L 98.55 102.11 L 98.16 101.71 L 98.09 100.97 L 98.30 100.73 L 98.82 101.34 L 99.18 101.90 L 98.79 102.06 L 98.32 102.01 L 98.11 101.36 L 98.13 100.69 L 98.53 101.00 L 99.08 101.64 L 99.04 102.00 L 98.57 102.10 L 98.17 101.74 L 98.09 101.00 L 98.28 100.71 L 98.79 101.31 L 99.18 101.88 L 98.81 102.06 L 98.34 102.03 L 98.11 101.39 L 98.12 100.71 L 98.50 100.97 L 99.06 101.61 L 99.06 102.00 L 98.59 102.10 L 98.18 101.77 L 98.09 101.03 L 98.26 100.70 L 98.77 101.29 L 99.18 101.86 L 98.84 102.05 L 98.36 102.05 L 98.12 101.42 L 98.12 100.73 L 98.48 100.95 L 99.03 101.59 L 99.08 101.99 L 98.61 102.10 L 98.19 101.80 L 98.09 101.06 L 98.24 100.68 L 98.74 101.26 L 99.18 101.85 L 98.86 102.05 L 98.38 102.06 L 98.12 101.46 L 98.11 100.75 L 98.46 100.92 L 99.01 101.56 L 99.09 101.98 L 98.63 102.10 L 98.20 101.83 L 98.09 101.10 L 98.23 100.67 L 98.72 101.23 L 99.18 101.83 L 98.88 102.04 L 98.40 102.07 L 98.13 101.49 L 98.10 100.77 L 98.44 100.89 L 98.99 101.53 L 99.11 101.97 L 98.65 102.09 L 98.21 101.85 L 98.09 101.13 L 98.21 100.66 L 98.69 101.20 L 99.17 101.81 L 98.90 102.04 L 98.42 102.08 L 98.13 101.52 L 98.10 100.80 L 98.42 100.86 L 98.97 101.50 L 99.12 101.97 L 98.67 102.09 L 98.23 101.88 L 98.10 101.16 L 98.20 100.66 L 98.67 101.17 L 99.16 101.78 L 98.92 102.03 L 98.44 102.09 L 98.13 101.56 L 98.10 100.82 L 98.39 100.84 L 98.94 101.48 L 99.14 101.96 L 98.69 102.09 L 98.24 101.91 L 98.10 101.20 L 98.18 100.66 L 98.64 101.14 L 99.15 101.76 L 98.94 102.03 L 98.47 102.10 L 98.14 101.59 L 98.09 100.85 L 98.37 100.81 L 98.92 101.45 L 99.15 101.95 L 98.71 102.08 L 98.26 101.93 L 98.10 101.23 L 98.17 100.66 L 98.62 101.11 L 99.14 101.74 L 98.96 102.02 L 98.49 102.10 L 98.15 101.62 L 98.09 100.88 L 98.35 100.79 L 98.89 101.42 L 99.16 101.94 L 98.73 102.08 L 98.27 101.96 L 98.10 101.26 L 98.16 100.66 L 98.59 101.09 L 99.13 101.71 L 98.98 102.02 L 98.51 102.10 L 98.15 101.65 L 98.09 100.91 L 98.33 100.77 L 98.87 101.39 L 99.17 101.92 L 98.76 102.07 L 98.29 101.98 L 98.11 101.30 L 98.15 100.67 L 98.57 101.06 L 99.11 101.69 L 99.00 102.01 L 98.53 102.10 L 98.16 101.68 L 98.09 100.94 L 98.31 100.75 L 98.84 101.37 L 99.18 101.91 L 98.78 102.07 L 98.31 102.00 L 98.11 101.33 L 98.14 100.68 L 98.55 101.03 L 99.09 101.66 L 99.02 102.01 L 98.55 102.11 L 98.17 101.71 L 98.09 100.97 L 98.29 100.73 L 98.82 101.34 L 99.18 101.89 L 98.80 102.06 L 98.33 102.02 L 98.11 101.36 L 98.13 100.70 L 98.52 101.00 L 99.07 101.63 L 99.04 102.00 L 98.57 102.10 L 98.17 101.74 L 98.09 101.00 L 98.28 100.71 L 98.79 101.31 L 99.18 101.88 L 98.82 102.06 L 98.34 102.03 L 98.12 101.40 L 98.12 100.71 L 98.50 100.97 L 99.05 101.61 L 99.06 102.00 L 98.59 102.10 L 98.18 101.77 L 98.09 101.04 L 98.26 100.69 L 98.76 101.28 L 99.18 101.86 L 98.84 102.05 L 98.36 102.05 L 98.12 101.43 L 98.11 100.73 L 98.48 100.94 L 99.03 101.58 L 99.08 101.99 L 98.61 102.10 L 98.19 101.80 L 98.09 101.07 L 98.24 100.68 L 98.74 101.25 L 99.18 101.84 L 98.86 102.05 L 98.39 102.06 L 98.12 101.46 L 98.11 100.75 L 98.46 100.91 L 99.01 101.55 L 99.10 101.98 L 98.63 102.10 L 98.20 101.83 L 98.09 101.10 L 98.22 100.67 L 98.71 101.22 L 99.18 101.82 L 98.88 102.04 L 98.41 102.07 L 98.13 101.50 L 98.10 100.77 L 98.43 100.89 L 98.99 101.53 L 99.11 101.97 L 98.65 102.09 L 98.22 101.86 L 98.09 101.14 L 98.21 100.66 L 98.69 101.20 L 99.17 101.80 L 98.90 102.04 L 98.43 102.08 L 98.13 101.53 L 98.10 100.80 L 98.41 100.86 L 98.96 101.50 L 99.13 101.96 L 98.68 102.09 L 98.23 101.89 L 98.10 101.17 L 98.19 100.66 L 98.66 101.17 L 99.16 101.78 L 98.92 102.03 L 98.45 102.09 L 98.14 101.56 L 98.10 100.83 L 98.39 100.83 L 98.94 101.47 L 99.14 101.96 L 98.70 102.09 L 98.24 101.91 L 98.10 101.20 L 98.18 100.66 L 98.64 101.14 L 99.15 101.76 L 98.94 102.03 L 98.47 102.10 L 98.14 101.59 L 98.09 100.85 L 98.37 100.81 L 98.91 101.44 L 99.15 101.94 L 98.72 102.08 L 98.26 101.94 L 98.10 101.24 L 98.17 100.66 L 98.61 101.11 L 99.14 101.73 L 98.97 102.02 L 98.49 102.10 L 98.15 101.62 L 98.09 100.88 L 98.35 100.79 L 98.89 101.42 L 99.16 101.93 L 98.74 102.08 L 98.27 101.96 L 98.10 101.27 L 98.16 100.67 L 98.59 101.08 L 99.12 101.71 L 98.99 102.02 L 98.51 102.10 L 98.15 101.66 L 98.09 100.91 L 98.33 100.76 L 98.86 101.39 L 99.17 101.92 L 98.76 102.07 L 98.29 101.98 L 98.11 101.30 L 98.15 100.67 L 98.57 101.05 L 99.11 101.68 L 99.01 102.01 L 98.53 102.11 L 98.16 101.69 L 98.09 100.94 L 98.31 100.74 L 98.84 101.36 L 99.18 101.91 L 98.78 102.07 L 98.31 102.00 L 98.11 101.34 L 98.14 100.68 L 98.54 101.02 L 99.09 101.66 L 99.03 102.01 L 98.55 102.11 L 98.17 101.72 L 98.09 100.98 L 98.29 100.72 L 98.81 101.33 L 99.18 101.89 L 98.80 102.06 L 98.33 102.02 L 98.11 101.37 L 98.13 100.70 L 98.52 100.99 L 99.07 101.63 L 99.05 102.00 L 98.57 102.10 L 98.18 101.75 L 98.09 101.01 L 98.27 100.71 L 98.79 101.30 L 99.18 101.88 L 98.82 102.06 L 98.35 102.04 L 98.12 101.40 L 98.12 100.71 L 98.50 100.97 L 99.05 101.60 L 99.06 101.99 L 98.60 102.10 L 98.18 101.78 L 98.09 101.04 L 98.26 100.69 L 98.76 101.28 L 99.18 101.86 L 98.84 102.05 L 98.37 102.05 L 98.12 101.44 L 98.11 100.73 L 98.47 100.94 L 99.03 101.58 L 99.08 101.99 L 98.62 102.10 L 98.19 101.81 L 98.09 101.07 L 98.24 100.68 L 98.73 101.25 L 99.18 101.84 L 98.86 102.05 L 98.39 102.06" fill="none" stroke="url(#grad)" stroke-width="0.3" stroke-opacity="0.8"/>
</svg>