<?xml version="1.0" encoding="UTF-8"?>
<svg xmlns="http://www.w3.org/2000/svg" width="200" height="200" viewBox="0 0 200 200">
  <defs>
    <linearGradient id="grad" x1="0%" y1="0%" x2="100%" y2="100%">
      <stop offset="0%" style="stop-color:#f59e0b;stop-opacity:1" />
      <stop offset="100%" style="stop-color:#ea580c;stop-opacity:1" />
    </linearGradient>
  </defs>
  <rect width="100%" height="100%" fill="#0a0a0f"/>
  <path d="M 9.40 77.94 L 63.17 104.56 L 116.50 47.11 L 79.16 12.41 L 138.21 168.06 L 185.91 134.42 L 24.43 154.24 L 134.41 115.91 L 85.41 179.23 L 94.08 19.78 L 170.90 43.07 L 136.12 105.44 L 96.30 141.73 L 36.91 150.19 L 151.10 123.16 L 78.83 152.39 L 50.50 111.55 L 132.23 110.42 L 57.54 137.04 L 121.68 28.77 L 7.46 108.06 L 41.84 97.95 L 14.88 136.59 L 55.00 78.68 L 105.55 29.97 L 122.19 67.70 L 118.65 65.50 L 49.56 62.87 L 96.80 10.10 L 134.20 106.67 L 126.73 56.33 L 55.74 123.40 L 128.14 51.29 L 7.17 97.87 L 37.10 147.23 L 183.84 61.16 L 21.24 151.79 L 43.21 33.39 L 24.98 150.88 L 62.28 121.55 L 182.41 120.55 L 182.94 66.07 L 60.19 77.64 L 34.07 96.23 L 126.57 22.33 L 41.38 95.94 L 131.25 83.37 L 52.19 79.55 L 134.07 110.88 L 33.69 92.68 L 70.26 195.95 L 144.44 12.04 L 101.23 40.77 L 169.24 56.79 L 135.07 38.24 L 171.09 65.62 L 140.69 105.71 L 16.24 143.57 L 75.50 14.31 L 41.95 85.00 L 70.99 61.18 L 86.13 47.74 L 115.05 140.77 L 50.98 43.86 L 181.22 130.00 L 182.63 93.10 L 130.37 187.53 L 120.01 46.11 L 70.03 55.45 L 34.55 30.15 L 133.00 100.28 L 108.51 22.66 L 51.31 186.43 L 49.65 41.30 L 121.22 68.01 L 46.52 38.43 L 140.49 113.56 L 37.46 116.33 L 21.69 77.38 L 175.41 158.60 L 21.41 109.56 L 28.83 106.21 L 55.35 116.43 L 122.87 15.42 L 184.34 74.50 L 115.22 34.87 L 77.41 48.80 L 170.68 86.88 L 33.98 170.04 L 154.13 49.55 L 74.49 66.88 L 144.44 102.69 L 168.12 130.71 L 120.68 192.23 L 14.99 73.86 L 158.86 135.94 L 96.70 155.79 L 35.88 46.35 L 38.58 165.24 L 78.37 34.56 L 56.48 20.28 L 107.65 181.65 L 94.19 58.42 L 89.51 176.54 L 138.82 10.52 L 144.30 126.31 L 73.00 75.55 L 84.52 41.84 L 56.45 26.96 L 131.21 113.74 L 126.73 171.24 L 43.34 164.50 L 104.26 41.31 L 101.61 12.96 L 46.06 83.82 L 26.83 126.54 L 48.90 110.07 L 176.00 45.85 L 177.70 45.95 L 136.59 74.21 L 31.60 117.48 L 84.41 7.44 L 91.92 20.59 L 33.59 57.58 L 105.14 8.60 L 80.82 64.26 L 128.73 156.60 L 63.70 102.92 L 184.76 67.09 L 116.40 136.78 L 71.75 28.46 L 99.22 181.86 L 73.42 136.79 L 150.31 80.64 L 21.50 94.23 L 42.30 69.96 L 182.86 144.74 L 94.83 141.52 L 66.28 105.97 L 168.93 100.32 L 73.21 49.49 L 132.43 116.66 L 15.20 92.12 L 28.57 84.86 L 191.01 87.26 L 50.32 14.08 L 144.11 169.44 L 109.02 49.53 L 182.93 66.75 L 169.81 100.58 L 127.42 71.56 L 119.11 65.35 L 78.10 132.47 L 70.48 119.11 L 83.04 58.41 L 139.47 91.26 L 25.83 98.82 L 137.03 114.09 L 190.44 93.90 L 81.14 56.41 L 148.87 16.65 L 60.83 40.75 L 50.29 154.02 L 136.16 70.76 L 145.00 100.88 L 47.05 104.04 L 101.23 46.64 L 88.57 21.07 L 7.69 110.51 L 166.77 102.29 L 7.95 113.76 L 146.74 56.95 L 32.01 108.88 L 132.40 8.35 L 124.79 49.77 L 58.29 151.58 L 135.80 70.23 L 53.99 77.14 L 103.16 56.22 L 118.36 36.06 L 137.91 77.50 L 74.23 50.87 L 14.24 101.03 L 66.80 5.20 L 107.49 141.25 L 54.70 147.14 L 52.11 103.28 L 20.53 127.84 L 138.86 77.32 L 35.19 33.06 L 71.97 58.69 L 148.20 186.98 L 171.03 102.65 L 157.49 85.56 L 26.77 116.88 L 66.86 94.34 L 13.78 122.30 L 30.62 36.80 L 54.03 183.41 L 176.14 121.42 L 74.17 41.40 L 111.82 60.70 L 147.30 101.32 L 179.61 49.01 L 50.28 99.20 L 69.50 73.10 L 107.36 52.95 L 184.72 58.02 L 133.64 126.07 L 139.83 129.96 L 144.55 125.93 L 65.53 93.20 L 157.62 131.73 L 119.07 138.40 L 107.47 58.74 L 61.76 128.62 L 143.24 83.90 L 8.49 82.30 L 129.36 3.81 L 64.11 62.47 L 91.79 169.95 L 123.48 33.51 L 42.51 29.66 L 76.02 2.94 L 66.24 107.54 L 56.88 101.61 L 183.59 57.24 L 116.14 0.59 L 14.02 70.64 L 110.78 60.35 L 98.31 55.59 L 56.01 128.06 L 26.78 159.69 L 160.03 89.46 L 126.25 66.43 L 146.89 129.30 L 78.60 42.04 L 149.60 127.42 L 150.94 40.05 L 146.65 140.42 L 143.95 124.97 L 107.27 48.88 L 116.89 145.35 L 149.01 36.36 L 158.39 100.01 L 35.20 29.02 L 173.85 79.12 L 40.23 34.85 L 86.17 44.96 L 97.25 40.96 L 127.06 148.87 L 140.76 102.85 L 73.24 191.61 L 159.74 174.84 L 190.81 117.78 L 109.76 41.85 L 103.01 29.49 L 82.97 49.64 L 131.51 11.51 L 55.02 73.91 L 106.83 190.28 L 119.99 188.10 L 43.45 180.56 L 166.11 28.27 L 65.59 130.86 L 48.01 183.97 L 82.24 135.41 L 77.27 141.35 L 134.42 110.71 L 46.42 80.04 L 152.91 92.03 L 16.09 113.23 L 63.26 72.84 L 128.78 120.48 L 80.38 10.35 L 152.21 126.48 L 67.02 13.70 L 132.13 42.18 L 23.55 127.99 L 28.46 95.23 L 168.13 58.83 L 183.38 56.39 L 143.09 123.90 L 102.89 40.31 L 92.08 197.79 L 15.51 116.34 L 43.85 53.98 L 54.89 119.69 L 10.79 85.88 L 66.93 97.23 L 164.54 164.69 L 168.90 79.26 L 176.52 93.76 L 47.82 93.74 L 114.01 42.42 L 170.11 154.99 L 63.43 60.85 L 181.25 76.95 L 141.85 36.73 L 186.55 73.08 L 159.24 103.10 L 49.47 105.70 L 58.14 104.52 L 87.07 157.83 L 32.50 32.35 L 14.75 80.51 L 62.65 132.17 L 12.43 90.74 L 129.07 35.49 L 47.86 77.50 L 93.37 160.64 L 13.92 102.92 L 186.15 120.12 L 180.76 116.97 L 176.00 56.31 L 110.82 46.61 L 68.71 74.33 L 157.99 118.57 L 181.52 105.56 L 81.06 138.53 L 16.51 141.19 L 142.16 101.26 L 74.52 43.73 L 67.55 92.48 L 143.03 78.98 L 77.14 38.38 L 190.73 79.16 L 57.49 111.20 L 133.99 85.72 L 59.25 108.72 L 73.48 13.41 L 83.75 194.25 L 127.39 22.47 L 74.51 129.92 L 77.14 65.07 L 50.24 78.19 L 124.54 3.04 L 59.45 8.20 L 100.88 39.03 L 23.19 98.27 L 68.30 71.46 L 68.52 55.59 L 31.68 36.76 L 161.51 100.24 L 160.86 124.21 L 56.32 113.83 L 143.96 86.66 L 132.05 81.90 L 58.75 26.05 L 136.92 121.43 L 74.77 2.55 L 153.84 18.58 L 139.48 92.92 L 88.39 3.43 L 174.40 100.39 L 40.14 25.42 L 52.42 179.76 L 125.17 18.52 L 14.11 85.39 L 94.77 57.82 L 84.69 62.81 L 155.26 146.35 L 97.09 50.80 L 60.51 10.25 L 189.11 89.08 L 136.77 145.25 L 107.56 34.05 L 149.80 68.11 L 143.75 92.08 L 65.34 108.62 L 124.85 55.40 L 131.43 87.17 L 145.39 118.99 L 67.05 42.38 L 131.89 11.81 L 182.74 85.94 L 130.78 80.06 L 41.73 74.39 L 132.81 124.96 L 56.13 120.24 L 88.17 60.80 L 131.28 40.87 L 192.93 97.34 L 44.98 83.26 L 54.01 17.10 L 133.21 101.77 L 28.94 41.99 L 107.95 147.21 L 10.17 120.74 L 141.43 93.78 L 104.37 54.52 L 129.24 173.51 L 157.92 52.66 L 105.84 58.68 L 21.61 95.58 L 67.47 91.71 L 136.73 30.79 L 177.86 116.77 L 113.73 20.38 L 135.85 119.20 L 96.23 48.59 L 162.72 65.80 L 64.83 81.27 L 163.96 74.52 L 117.70 154.56 L 73.91 67.98 L 184.49 137.29 L 71.78 66.85 L 43.46 35.93 L 68.47 86.29 L 168.73 99.47 L 77.07 53.51 L 11.41 110.83 L 156.88 131.42 L 16.07 77.41 L 33.02 148.47 L 115.52 143.24 L 26.45 37.57 L 174.51 43.46 L 159.90 119.37 L 137.20 85.88 L 134.45 106.45 L 68.75 68.04 L 61.79 92.28 L 66.30 165.86 L 144.86 184.59 L 61.76 69.31 L 52.38 75.29 L 186.63 118.89 L 179.45 81.22 L 183.86 55.89 L 22.80 73.02 L 121.92 154.50 L 125.05 20.13 L 122.86 67.01 L 53.33 81.94 L 93.31 16.33 L 131.44 113.54 L 106.61 54.27 L 146.03 129.90 L 185.36 118.26 L 79.85 54.16 L 10.55 96.24 L 53.80 129.03 L 23.70 129.97 L 137.38 83.15 L 62.82 54.37 L 100.44 50.42 L 21.26 127.95 L 8.33 83.17 L 81.31 135.60 L 65.29 87.83 L 84.64 46.52 L 31.40 164.38 L 167.15 64.14 L 71.64 78.12 L 58.34 126.19 L 8.02 110.97 L 143.36 188.37 L 25.99 118.74 L 127.58 69.39 L 70.34 3.50 L 139.25 40.34 L 14.48 80.72 L 80.89 42.00 L 125.65 57.01 L 167.14 33.20 L 69.17 38.08 L 54.63 111.54 L 56.51 62.31 L 37.62 69.24 L 87.25 58.83 L 182.07 88.50 L 19.07 89.81 L 103.48 153.11 L 169.73 90.37 L 118.90 145.09 L 42.66 92.59 L 80.49 16.86 L 117.76 16.02 L 126.56 142.48 L 16.77 101.43 L 185.60 133.17 L 132.85 127.33 L 72.87 72.61 L 105.56 14.13 L 138.16 117.33 L 101.94 7.71 L 101.74 147.00 L 164.79 32.50 L 36.83 123.31 L 59.46 104.51 L 131.83 127.19 L 50.52 14.06 L 84.09 154.78 L 14.12 133.04 L 129.60 75.14 L 106.83 173.93 L 131.91 195.52 L 142.45 114.62 L 59.29 105.78 L 145.83 76.53 L 91.33 40.34 L 115.41 45.44 L 85.39 32.91 L 132.59 132.90 L 69.76 83.27 L 69.38 70.18 L 118.36 138.40 L 166.80 121.24 L 52.40 127.96 L 158.27 107.28 L 130.80 74.20 L 77.40 27.84 L 97.26 5.94 L 64.61 91.96 L 103.77 142.88 L 56.53 119.41 L 76.35 6.43 L 90.34 27.38 L 67.65 114.10 L 16.70 112.00 L 145.36 124.36 L 29.22 164.72 L 62.40 122.69 L 110.95 3.90 L 143.33 11.75 L 62.34 70.76 L 84.25 27.25 L 26.93 94.18 L 126.76 43.33 L 125.80 144.41 L 129.19 196.68 L 111.88 57.02 L 108.46 40.54 L 129.02 45.74 L 140.41 8.19 L 163.84 26.30 L 130.80 61.36 L 189.91 114.47 L 131.93 85.59 L 157.94 66.02 L 144.91 79.21 L 87.90 17.82 L 66.02 111.17 L 168.20 87.64 L 51.51 88.10 L 149.46 62.75 L 64.25 162.40 L 37.77 48.60 L 163.55 131.05 L 78.05 58.60 L 175.28 56.87 L 66.34 87.12 L 97.11 49.88 L 161.66 131.43 L 7.19 102.68 L 51.00 126.26 L 63.79 115.87 L 73.76 53.70 L 192.87 98.13 L 189.70 73.06 L 14.64 69.41 L 168.73 109.36 L 133.29 18.85 L 138.84 83.39 L 57.71 126.90 L 114.74 20.55 L 136.25 193.45 L 133.28 113.68 L 37.93 80.28 L 29.23 70.99 L 120.98 7.12 L 82.11 144.70 L 29.28 133.74 L 136.16 121.88 L 42.68 20.14 L 188.40 122.13 L 57.79 97.28 L 185.62 75.20 L 106.96 25.29 L 188.55 123.98 L 102.86 26.70 L 22.63 77.05 L 76.18 177.91 L 59.33 71.33 L 67.00 98.18 L 167.32 94.81 L 130.84 54.63 L 61.51 161.91 L 42.76 164.30 L 187.38 75.87 L 106.79 167.36 L 26.73 52.04 L 26.32 154.15 L 64.02 193.23 L 164.55 72.73 L 135.77 119.35 L 64.17 192.81 L 180.36 150.20 L 69.00 18.69 L 34.78 100.93 L 102.87 183.58 L 168.51 44.21 L 132.78 105.45 L 93.49 42.18 L 52.25 117.62 L 175.60 79.13 L 159.97 97.46 L 146.83 15.58 L 69.68 83.57 L 161.27 125.43 L 71.25 42.74 L 128.26 36.56 L 123.85 68.63 L 70.61 125.72 L 190.16 100.24 L 123.87 6.89 L 64.42 108.52 L 136.30 55.03 L 148.03 47.92 L 65.07 80.74 L 11.63 128.38 L 110.44 6.36 L 155.45 136.15 L 174.66 41.70 L 49.38 125.11 L 120.56 62.58 L 90.93 176.54 L 113.05 23.81 L 111.17 57.58 L 77.69 134.54 L 55.47 94.20 L 133.97 102.91 L 139.71 71.04 L 171.37 47.54 L 77.11 41.92 L 9.31 115.36 L 51.82 67.00 L 156.78 177.37 L 108.83 15.75 L 139.44 125.08 L 53.95 44.27 L 73.91 128.37 L 46.65 82.54 L 164.36 30.12 L 68.16 18.23 L 69.55 128.75 L 76.40 144.38 L 142.68 185.70 L 32.78 39.93 L 57.68 119.42 L 70.60 162.49 L 141.26 87.98 L 122.15 3.81 L 75.84 66.77 L 47.17 54.00 L 63.02 178.26 L 30.89 111.40 L 165.98 129.98 L 75.94 180.97 L 117.81 12.95 L 169.52 151.80 L 35.45 40.22 L 83.62 190.64 L 32.04 158.73 L 9.25 115.24 L 138.69 7.56 L 125.10 51.17 L 48.99 118.63 L 174.46 69.90 L 129.21 132.68 L 60.75 43.27 L 153.22 16.60 L 134.33 171.35 L 123.43 67.47 L 82.68 33.12 L 67.16 167.57 L 127.36 74.92 L 85.26 49.90 L 182.73 53.63 L 37.50 91.71 L 75.17 143.00 L 177.87 87.87 L 13.73 99.11 L 66.02 29.68 L 64.04 96.77 L 176.53 78.52 L 54.28 50.60 L 71.66 78.66 L 114.72 144.98 L 20.35 151.66 L 84.76 137.83 L 163.58 71.48 L 131.96 126.84 L 99.95 199.04 L 25.56 70.64 L 54.96 110.01 L 136.88 135.60 L 96.06 53.41 L 108.27 18.73 L 134.79 104.26 L 101.21 57.21 L 39.09 59.31 L 57.66 68.22 L 23.06 111.28 L 36.28 97.51 L 164.20 27.23 L 145.69 116.84 L 71.57 29.46 L 40.96 137.14 L 134.14 120.24 L 103.41 144.03 L 169.81 166.02 L 76.54 198.20 L 72.15 175.61 L 159.13 58.65 L 130.35 136.82 L 133.55 152.07 L 80.02 61.19 L 98.77 54.53 L 134.37 122.79 L 90.59 54.75 L 156.70 72.25 L 133.80 117.40 L 110.72 27.76 L 69.64 25.55 L 76.93 137.02 L 133.70 8.86 L 187.23 124.54 L 102.78 198.07 L 10.36 73.60 L 70.85 8.60 L 87.36 36.20 L 73.24 71.36 L 46.35 117.99 L 139.09 111.69 L 65.35 117.10 L 79.08 12.81 L 58.94 54.31 L 89.04 176.24 L 66.64 76.03 L 153.94 102.85 L 46.68 101.83 L 119.49 17.80 L 65.14 91.60 L 134.51 102.13 L 158.22 157.51 L 136.16 102.26 L 171.45 65.83 L 63.08 128.94 L 16.28 84.43 L 150.47 110.14 L 132.82 125.32 L 176.54 125.22 L 126.48 135.08 L 190.54 120.81 L 187.32 66.56 L 97.83 12.92 L 8.08 86.21 L 58.31 119.65 L 77.86 136.24 L 60.29 48.81 L 79.71 66.99 L 174.50 63.63 L 174.00 149.05 L 144.42 11.80 L 30.84 131.81 L 69.32 115.68 L 11.67 116.63 L 161.99 43.75 L 79.52 158.46 L 118.31 56.53 L 129.71 196.58 L 16.85 126.62 L 184.84 74.77 L 101.84 193.12 L 57.51 124.73 L 66.95 83.71 L 53.74 88.42 L 167.51 121.10 L 95.14 34.19 L 117.19 187.44 L 186.35 71.71 L 132.20 51.86 L 92.05 59.26 L 115.47 189.92 L 70.05 117.54 L 188.77 78.04 L 110.90 19.61 L 69.92 40.18 L 40.18 121.83 L 79.24 132.78 L 127.33 148.66 L 153.99 28.03 L 47.69 119.93 L 140.69 8.59 L 182.08 62.08 L 85.96 42.19 L 60.55 125.23 L 190.64 118.60 L 27.28 124.13 L 75.71 159.52 L 154.49 48.31 L 172.17 35.61 L 126.38 68.98 L 105.64 6.15 L 63.65 111.71 L 116.44 25.65 L 137.65 77.92 L 182.12 113.51 L 101.18 17.78 L 34.87 119.73 L 33.31 166.01 L 26.00 56.22 L 119.22 137.65 L 125.39 9.92 L 179.73 111.86 L 110.27 164.08 L 46.27 124.24 L 124.88 19.41 L 182.36 59.87 L 184.68 64.70 L 40.77 26.13 L 63.43 126.30 L 92.39 31.00 L 68.87 34.96 L 188.88 113.30 L 104.26 52.79 L 121.36 9.38 L 72.97 30.68 L 32.50 97.87 L 131.22 114.22 L 139.51 189.87 L 69.12 131.93 L 54.87 111.28 L 135.14 117.09 L 128.28 74.30 L 151.82 106.64 L 139.29 80.66 L 157.76 21.48 L 21.36 153.18 L 71.85 50.56 L 36.42 29.11 L 51.44 23.02 L 29.69 164.58 L 140.69 72.11 L 64.30 130.95 L 87.59 60.31 L 76.75 67.00 L 135.69 126.37 L 148.48 119.39 L 15.64 62.61 L 105.11 146.19 L 34.60 109.77 L 128.91 195.72 L 38.32 50.35 L 103.37 52.33 L 38.22 48.70 L 40.21 105.81 L 72.62 64.51 L 166.45 91.14 L 67.38 84.95 L 75.40 52.68 L 55.64 30.02 L 168.10 106.08 L 80.64 42.43 L 64.12 38.41 L 181.35 141.90 L 152.70 89.06 L 64.35 51.02 L 40.44 39.80 L 131.20 113.73 L 75.05 71.32 L 165.61 131.63 L 85.07 22.06 L 133.01 108.91 L 108.97 8.89 L 58.67 89.48 L 141.34 188.26 L 134.27 22.51 L 163.20 111.15 L 137.74 75.75 L 176.73 147.23 L 71.69 3.65 L 185.69 99.08 L 106.36 56.03 L 29.47 147.14 L 30.74 95.32 L 134.28 105.94 L 59.16 64.70 L 71.37 4.98 L 167.14 90.87 L 66.04 25.28 L 54.29 77.86 L 190.05 105.61 L 99.99 56.03 L 132.96 102.17 L 143.64 92.77 L 27.03 160.84 L 133.72 123.62 L 32.51 48.65 L 64.34 119.86 L 149.39 121.61 L 148.72 129.48 L 132.60 112.09 L 181.32 117.38 L 162.88 99.74 L 169.62 133.49 L 54.92 24.10 L 78.57 16.17 L 142.64 27.76 L 130.37 78.91 L 123.34 197.12 L 142.62 73.20 L 131.42 113.40 L 65.46 105.41 L 192.83 106.12 L 98.60 141.98 L 25.21 110.62 L 171.72 97.03 L 71.20 3.11 L 71.02 26.94 L 139.47 86.76 L 146.75 77.73 L 148.64 109.70 L 96.86 56.01 L 186.34 113.82 L 84.23 42.40 L 33.06 144.24 L 102.39 153.69 L 79.93 66.82 L 23.31 45.55 L 17.71 117.99 L 133.63 130.90 L 106.11 58.70 L 138.56 120.83 L 191.54 117.90 L 25.56 80.33 L 14.00 116.09 L 148.45 22.56 L 168.66 94.90 L 118.43 38.73 L 132.66 32.83 L 173.74 158.85 L 191.20 82.83 L 125.17 37.87 L 61.27 120.01 L 33.25 30.61 L 56.84 97.58 L 32.11 115.79 L 182.82 74.39 L 15.66 58.11 L 108.77 142.05 L 146.50 178.13 L 11.94 128.43 L 150.98 114.93 L 145.68 32.14 L 99.15 162.32 L 51.05 116.00 L 17.39 124.45 L 86.14 138.13 L 58.56 134.37 L 12.62 112.20 L 106.13 14.04 L 114.69 47.28 L 138.38 83.63 L 146.68 187.41 L 64.50 75.94 L 45.75 169.82 L 107.68 161.72 L 166.24 170.28 L 120.85 64.47 L 82.00 150.48 L 96.04 146.37 L 147.83 122.11 L 126.17 179.67 L 119.49 15.06 L 64.29 103.35 L 80.33 64.05 L 123.33 198.31 L 126.60 170.22 L 87.32 60.60 L 143.35 127.59 L 53.88 78.90 L 141.06 12.82 L 50.84 126.14 L 145.34 184.19 L 181.87 119.40 L 177.96 74.80 L 110.33 171.81 L 70.67 76.77 L 117.01 12.44 L 115.50 62.20 L 171.44 98.09 L 80.70 176.16 L 47.57 28.86 L 69.47 67.82 L 144.61 118.14 L 146.21 188.10 L 154.55 80.62 L 153.48 53.83 L 162.74 72.56 L 155.87 128.57 L 74.65 73.25 L 11.55 88.82 L 31.61 40.49 L 105.65 175.98 L 24.49 89.53 L 145.10 23.46 L 40.53 95.04 L 136.88 63.24 L 128.60 11.16 L 121.94 25.43 L 60.14 106.51 L 180.08 75.71 L 147.94 96.69 L 109.18 166.95 L 9.83 123.48 L 189.76 113.48 L 184.60 138.60 L 76.71 195.84 L 77.44 46.40 L 190.20 97.10 L 51.94 20.13 L 53.41 167.61 L 100.51 142.91 L 62.59 123.76 L 81.80 199.90 L 67.88 130.98 L 154.98 35.37 L 18.37 148.64 L 125.03 3.37 L 186.92 133.25 L 18.45 112.35 L 134.43 143.89 L 132.54 107.01 L 132.38 89.81 L 58.15 118.23 L 42.94 36.30 L 30.74 70.90 L 40.29 99.63 L 117.27 141.90 L 56.25 97.04 L 104.83 145.53 L 140.12 122.82 L 51.15 70.96 L 163.21 85.46 L 61.98 126.92 L 131.71 32.41 L 22.70 89.33 L 175.12 115.18 L 163.29 112.55 L 16.17 88.77 L 89.55 50.57 L 66.99 98.29 L 38.52 71.82 L 138.38 9.95 L 123.86 70.81 L 56.94 119.66 L 173.78 131.57 L 73.58 66.93 L 112.72 53.49 L 42.06 20.22 L 79.47 198.60 L 139.10 104.43 L 67.90 133.74 L 152.88 131.11 L 111.71 10.63 L 188.95 70.54 L 20.77 105.47 L 57.16 89.14 L 17.49 56.15 L 97.42 142.71 L 147.50 130.53 L 135.96 23.22 L 122.45 47.36 L 163.08 24.99 L 47.59 100.19 L 55.29 12.41 L 191.53 98.16 L 130.89 71.88 L 111.33 195.50 L 33.80 32.42 L 174.27 72.46 L 66.04 104.77 L 62.00 122.49 L 175.09 94.09 L 49.98 123.97 L 139.75 96.34 L 67.46 87.87 L 42.96 176.42 L 140.54 64.30 L 158.65 26.93 L 57.96 78.19 L 167.21 107.26 L 26.40 74.83 L 62.47 66.75 L 146.78 173.73 L 52.00 94.67 L 57.64 30.54 L 184.13 62.10 L 129.63 27.14 L 145.41 96.71 L 91.88 9.54 L 48.56 24.56 L 46.99 41.54 L 123.83 142.46 L 113.19 165.98 L 130.71 136.48 L 57.45 94.25 L 51.78 21.06 L 54.48 109.83 L 169.62 112.64 L 106.85 162.31 L 165.95 56.80 L 144.82 22.34 L 133.57 10.81 L 92.28 12.11 L 166.64 29.66 L 133.38 91.07 L 23.14 95.90 L 65.83 93.72 L 74.74 3.69 L 91.01 43.02 L 65.25 128.43 L 133.77 123.50 L 109.72 57.89 L 182.87 112.11 L 96.95 57.25 L 17.81 68.75 L 188.11 85.14 L 136.98 81.20 L 53.79 15.54 L 133.11 85.19 L 82.33 60.30 L 91.53 5.99 L 10.52 127.21 L 116.68 48.88 L 106.91 182.41 L 54.22 121.05 L 167.14 82.94 L 42.29 44.20 L 66.75 109.12 L 115.77 12.00 L 107.89 13.18 L 167.24 34.03 L 82.63 170.06 L 99.86 24.94 L 120.14 134.55 L 92.19 194.73 L 58.02 189.20 L 190.27 95.06 L 29.61 37.04 L 130.29 74.73 L 21.85 151.38 L 65.33 111.59 L 122.24 141.56 L 136.88 28.89 L 182.53 53.97 L 18.57 144.11 L 164.24 87.07 L 166.63 154.57 L 133.51 39.25 L 171.51 162.13 L 87.65 5.28 L 104.71 148.83 L 107.29 55.85 L 133.06 127.19 L 134.79 95.45 L 10.21 107.53 L 148.22 121.34 L 162.76 72.32 L 95.40 57.90 L 25.30 89.57 L 61.39 108.04 L 61.26 85.09 L 133.60 192.78 L 131.57 112.61 L 151.59 66.08 L 59.85 130.25 L 162.42 171.66 L 23.09 143.17 L 73.63 187.43 L 160.68 83.75 L 141.76 34.52 L 82.63 41.14 L 127.41 3.68 L 44.15 18.77 L 178.94 46.02 L 137.43 173.36 L 162.57 92.95 L 19.27 150.23 L 91.87 179.87 L 139.74 117.11 L 81.39 193.31 L 58.05 72.72 L 132.38 83.37 L 63.42 182.96 L 191.95 93.12 L 121.65 68.36 L 46.17 81.19 L 157.19 67.72 L 146.71 94.10 L 64.74 121.51 L 59.62 119.33 L 154.70 140.59 L 160.83 131.39 L 148.58 56.11 L 31.15 35.68 L 105.14 57.58 L 143.17 105.88 L 156.86 22.52 L 65.41 127.88 L 133.99 118.54 L 158.05 84.35 L 37.07 102.05 L 27.68 163.19 L 127.20 8.23 L 96.77 141.81 L 16.38 84.41 L 170.59 44.14 L 133.21 123.65 L 125.34 65.15 L 175.15 112.46 L 180.96 97.16 L 134.05 122.91 L 129.67 52.23 L 153.54 16.75 L 52.97 102.28 L 138.77 136.12 L 95.03 170.98 L 9.91 90.27 L 144.00 130.51 L 36.23 170.97 L 63.02 131.77 L 93.93 2.72 L 139.89 57.86 L 157.73 148.16 L 70.22 123.54 L 159.61 134.29 L 118.44 9.19 L 25.17 40.20 L 61.09 87.70 L 126.16 17.72 L 60.14 111.80 L 127.33 72.40 L 136.93 89.85 L 121.61 45.81 L 187.96 80.13 L 62.60 122.57 L 14.69 62.61 L 93.95 58.61 L 51.47 149.99 L 157.19 115.86 L 65.73 138.11 L 78.17 198.45 L 135.91 30.78 L 61.57 123.71 L 178.67 153.48 L 7.57 109.51 L 73.49 134.74 L 30.25 69.28 L 25.06 155.16 L 70.06 169.99 L 55.63 20.75 L 92.07 29.69 L 94.80 21.28 L 133.26 99.05 L 64.86 73.82 L 119.76 146.47 L 24.71 40.13 L 58.12 126.58 L 66.92 97.68 L 69.72 29.41 L 31.60 103.53 L 55.06 10.66 L 83.98 61.68 L 91.59 36.13 L 75.69 3.51 L 174.17 105.20 L 96.07 1.65 L 92.70 43.06 L 54.15 64.22 L 166.03 125.70 L 147.10 71.42 L 182.11 57.38 L 17.99 113.03 L 132.71 32.86 L 127.64 46.72 L 171.42 86.09 L 36.47 133.13 L 33.12 112.81 L 12.82 96.88 L 25.73 160.00 L 140.57 26.53 L 128.72 54.35 L 61.57 18.90 L 61.82 127.73 L 135.03 5.74 L 58.41 188.62 L 132.19 128.73 L 188.93 70.89 L 85.69 58.89 L 40.57 159.19 L 17.87 52.70 L 103.56 169.31 L 110.50 47.10 L 17.31 68.63 L 14.88 110.08 L 177.31 95.36 L 136.13 147.96 L 111.39 186.79 L 62.15 119.26 L 38.03 173.82 L 134.20 73.46 L 130.81 76.46 L 186.30 76.36 L 124.53 50.93 L 102.66 7.01 L 40.99 110.09 L 63.39 95.91 L 149.09 30.49 L 9.02 118.05 L 51.42 128.64 L 113.82 165.95 L 141.30 11.45 L 162.31 143.78 L 174.74 88.32 L 127.70 3.01 L 125.10 72.03 L 82.55 137.53 L 78.05 28.03 L 18.69 92.12 L 35.89 155.49 L 61.68 75.25 L 126.02 66.24 L 166.13 28.75 L 94.84 58.48 L 93.87 175.89 L 134.07 10.44 L 105.20 58.34 L 154.68 158.44 L 16.87 108.63 L 133.33 119.17 L 58.60 96.26 L 172.10 72.34 L 50.58 185.21 L 99.10 24.29 L 90.08 31.10 L 91.19 172.34 L 157.41 115.27 L 27.06 153.21 L 65.87 27.78 L 55.38 39.93 L 136.53 111.00 L 115.96 150.60 L 137.71 85.02 L 148.48 14.16 L 67.89 126.98 L 109.32 142.97 L 133.63 122.40 L 103.67 142.08 L 139.56 74.62 L 152.02 126.15 L 191.52 84.60 L 66.63 117.05 L 92.28 140.80 L 12.17 70.75 L 130.27 41.58 L 146.10 98.25 L 76.56 68.49 L 132.85 119.05 L 123.57 180.67 L 52.58 96.89 L 139.83 130.46 L 53.95 15.89 L 177.05 146.50 L 141.03 77.60 L 162.15 86.02 L 21.18 150.72 L 141.86 66.03 L 106.11 52.77 L 188.03 68.61 L 74.78 50.43 L 41.08 177.51 L 94.93 45.81 L 172.47 131.11 L 98.67 170.02 L 91.88 59.31 L 80.20 13.85 L 67.48 174.14 L 129.47 36.40 L 89.45 140.25 L 78.78 42.17 L 112.51 19.92 L 87.88 55.33 L 160.50 43.20 L 148.40 97.54 L 90.36 154.80 L 141.79 13.80 L 97.30 34.98 L 21.17 89.11 L 182.94 60.54 L 185.37 60.20 L 105.77 141.98 L 43.50 94.86 L 27.67 95.79 L 80.63 199.77 L 19.00 148.58 L 133.12 87.61 L 46.72 100.52 L 34.66 76.99 L 19.28 76.25 L 163.94 83.87 L 43.56 80.23 L 54.22 11.26 L 131.09 128.93 L 116.47 28.40 L 178.71 45.79 L 159.19 23.72 L 126.83 75.67 L 8.77 119.82 L 19.57 49.05 L 131.87 4.20 L 124.76 66.57 L 133.33 101.23 L 61.56 111.20 L 31.00 73.03 L 69.10 75.70 L 170.58 50.12 L 80.02 19.30 L 157.54 136.46 L 145.01 107.01 L 162.81 113.16 L 62.19 147.33 L 106.60 45.65 L 192.87 97.43 L 74.83 10.53 L 160.81 111.37 L 104.79 174.01 L 71.01 71.88 L 189.36 121.18 L 142.03 104.64 L 186.57 62.68 L 26.90 62.72 L 50.60 177.17 L 144.92 188.24 L 67.44 86.85 L 61.11 27.37 L 134.21 85.37 L 129.57 149.10 L 67.71 110.00 L 7.68 90.89 L 49.75 98.30 L 136.73 123.09 L 52.79 12.11 L 72.22 76.15 L 42.05 167.00 L 157.19 91.00 L 64.11 37.58 L 75.16 10.88 L 115.11 5.22 L 21.66 44.98 L 123.98 136.35 L 150.83 17.09 L 169.75 86.36 L 52.60 176.74 L 155.83 87.90 L 31.99 56.40 L 23.44 95.24 L 75.18 2.13 L 67.54 62.25 L 106.15 197.26 L 183.40 64.09 L 153.55 99.54 L 79.04 50.04 L 78.95 40.92 L 112.23 151.58 L 63.09 125.37 L 171.24 80.61 L 191.95 85.37 L 36.20 116.66 L 80.96 11.57 L 22.51 121.19 L 57.93 77.06 L 54.51 116.02 L 158.71 126.05 L 143.75 74.72 L 118.38 192.39 L 62.50 106.79 L 10.19 120.77 L 102.08 29.02 L 18.90 102.90 L 180.63 90.48 L 148.40 32.60 L 182.37 74.96 L 57.36 101.81 L 145.80 94.09 L 54.06 121.24 L 63.09 93.44 L 67.61 188.97 L 82.78 64.10 L 58.34 49.24 L 64.90 176.12 L 169.04 57.67 L 133.41 69.45 L 82.98 179.34 L 183.79 68.70 L 63.29 14.07 L 139.60 14.28 L 187.69 128.57 L 34.86 104.81 L 52.08 80.74 L 131.58 44.91 L 184.37 59.97 L 110.12 33.39 L 45.09 66.19 L 191.50 113.79 L 177.25 121.27 L 52.28 98.37 L 81.34 64.86 L 112.02 38.78 L 90.76 140.42 L 180.26 70.33 L 189.47 102.44 L 127.40 74.74 L 140.25 87.90 L 67.70 125.58 L 145.59 95.96 L 143.07 33.16 L 151.99 91.92 L 132.77 147.29 L 133.14 114.46 L 51.11 55.91 L 149.80 80.14 L 68.01 110.89 L 95.92 142.36 L 174.43 56.28 L 44.17 18.64 L 46.88 72.13 L 82.41 16.76 L 170.34 33.24 L 88.78 41.38 L 92.91 0.26 L 72.33 51.52 L 119.09 49.96 L 152.77 18.31 L 60.79 133.53 L 159.28 95.73 L 167.67 130.81 L 115.45 162.21 L 136.63 92.38 L 44.24 64.11 L 104.57 186.83 L 101.88 23.67 L 143.54 155.18 L 98.34 141.95 L 59.93 125.86 L 102.46 51.81 L 81.22 61.23 L 118.01 185.96 L 52.47 53.32 L 175.74 43.01 L 51.90 59.80 L 44.10 89.82 L 17.60 97.31 L 26.88 96.38 L 148.44 178.31 L 78.38 59.01 L 150.79 117.99 L 85.87 56.68 L 82.72 31.92 L 135.95 134.46 L 135.02 122.12 L 103.11 4.20 L 56.43 30.30 L 61.89 85.19 L 153.94 105.77 L 157.69 169.00 L 64.34 100.74 L 147.20 81.02 L 28.86 37.79 L 169.85 116.77 L 74.41 194.50 L 135.71 112.96 L 74.61 8.28 L 161.85 170.44 L 82.90 24.01 L 76.34 131.28 L 70.65 80.90 L 102.25 57.99 L 58.16 23.25 L 89.76 58.30 L 126.16 71.17 L 116.89 62.54 L 144.26 15.61 L 133.14 108.62 L 108.88 16.99 L 179.41 64.82 L 29.02 40.38 L 164.04 151.56 L 153.21 118.35 L 130.94 132.05 L 133.07 100.36 L 67.11 95.91 L 65.55 10.65 L 8.37 103.54 L 31.04 44.54 L 125.67 62.51 L 38.74 82.55 L 128.78 184.76 L 157.12 131.75 L 59.17 126.01 L 87.83 30.23 L 27.42 96.73 L 164.25 109.92 L 61.79 31.27 L 17.32 53.60 L 180.77 112.35 L 50.25 125.69 L 156.53 92.07 L 28.24 84.30 L 97.80 52.69 L 118.77 16.65 L 161.91 166.19 L 139.30 99.95 L 66.41 68.98 L 176.54 93.20 L 96.31 56.47 L 58.84 70.74 L 79.48 14.90 L 46.16 16.78 L 130.50 129.93 L 100.03 174.45 L 158.45 160.31 L 181.95 125.34 L 114.34 198.09 L 95.62 13.18 L 71.38 59.34 L 63.26 112.68 L 35.80 100.03 L 114.60 46.91 L 95.64 40.73 L 64.78 74.90 L 142.60 143.46 L 66.99 99.27 L 105.93 53.61 L 74.19 126.53 L 57.16 39.10 L 166.76 130.24 L 115.87 62.65 L 34.07 163.53 L 167.47 42.85 L 180.63 69.50 L 103.29 39.08 L 180.19 92.12 L 104.32 141.64 L 52.43 21.73 L 79.90 65.61 L 75.32 67.81 L 12.09 78.67 L 156.93 114.89 L 132.74 192.68 L 14.21 69.06 L 87.71 195.61 L 180.66 83.62 L 120.37 35.52 L 141.15 47.28 L 14.89 59.82 L 26.00 83.61 L 137.51 191.36 L 73.06 51.43 L 55.06 111.14 L 132.91 81.65 L 48.34 23.08 L 123.60 139.06 L 132.49 4.40 L 78.28 29.97 L 56.85 89.34 L 131.89 127.00 L 57.89 74.00 L 112.84 187.45 L 21.53 105.32 L 48.23 110.18 L 160.23 108.89 L 70.47 194.36 L 147.01 122.33 L 183.61 59.80 L 111.41 22.19 L 9.35 108.98 L 179.34 105.89 L 181.31 103.40 L 107.55 27.59 L 141.16 19.27 L 73.65 74.73 L 141.41 83.10 L 97.77 50.98 L 129.12 124.07 L 67.83 54.30 L 142.46 24.10 L 116.57 59.77 L 23.28 72.52 L 58.72 173.05 L 37.13 169.53 L 61.87 128.51 L 29.20 106.82 L 58.87 72.14 L 151.97 96.04 L 26.33 56.46 L 188.29 123.44 L 141.26 94.97 L 144.63 124.62 L 131.92 117.44 L 119.39 24.49 L 135.02 90.71 L 75.44 34.12 L 66.77 103.53 L 111.08 178.63 L 40.81 49.54 L 130.07 29.60 L 28.10 164.56 L 124.06 69.99 L 29.86 112.28 L 9.21 111.92 L 168.31 100.78 L 29.27 122.52 L 162.59 102.68 L 124.15 170.20 L 70.89 123.91 L 56.08 74.02 L 133.81 120.07 L 181.08 118.33 L 134.97 131.31 L 69.37 136.07 L 80.07 23.22 L 129.96 134.65 L 95.11 198.63 L 47.75 175.58 L 87.47 140.99 L 70.44 49.88 L 21.09 74.97 L 32.30 84.04 L 147.86 78.89 L 72.03 77.55 L 143.62 9.88 L 83.39 24.78 L 14.51 89.40 L 153.69 110.35 L 44.95 18.62 L 118.33 34.65 L 23.98 99.16 L 103.74 57.42 L 142.13 111.20 L 68.12 33.09 L 155.06 119.25 L 133.09 134.05 L 95.17 168.52 L 27.79 72.83 L 63.51 81.03 L 71.23 190.45 L 159.43 46.30 L 143.33 92.52 L 125.18 143.01 L 89.96 27.19 L 75.15 67.98 L 16.18 56.31 L 42.25 57.97 L 75.34 39.70 L 103.73 46.28 L 155.95 119.04 L 115.86 57.14 L 104.78 58.30 L 142.66 67.27 L 95.26 187.60 L 21.69 116.53 L 109.99 59.60 L 63.98 83.63 L 103.20 188.16 L 110.86 44.86 L 135.07 94.29 L 140.52 44.33 L 49.72 96.08 L 134.79 86.54 L 93.76 142.02 L 36.49 95.19 L 8.52 118.41 L 93.65 58.33 L 132.80 55.72 L 129.17 131.44 L 55.58 91.92 L 113.66 37.03 L 133.52 115.82 L 52.77 56.44 L 115.61 17.94 L 58.56 8.70 L 155.09 131.58 L 185.21 59.31 L 88.88 186.66 L 87.10 56.69 L 97.82 41.12 L 177.89 86.33 L 148.67 35.23 L 52.99 17.32 L 147.60 79.31 L 118.97 40.26 L 143.37 83.04 L 51.23 150.32 L 135.71 116.56 L 12.27 71.64 L 124.00 69.37 L 152.47 26.93 L 83.08 26.92 L 50.20 124.71 L 60.04 101.18 L 107.92 141.98 L 169.86 33.07 L 166.53 49.36 L 189.93 74.80 L 120.58 186.21 L 130.60 148.59 L 7.91 114.28 L 63.39 123.33 L 168.18 48.17 L 114.85 52.60 L 72.20 77.06 L 131.62 139.18 L 148.26 101.56 L 92.86 54.61 L 14.05 107.16 L 96.77 194.56 L 129.19 79.84 L 135.73 40.82 L 150.42 22.24 L 43.54 111.28 L 7.52 110.34 L 130.16 81.13 L 140.60 98.04 L 74.90 65.64 L 128.30 78.58 L 102.41 16.83 L 148.49 129.62 L 51.74 108.14 L 32.62 117.97 L 154.25 81.56 L 107.61 181.23 L 168.09 168.22 L 64.44 69.62 L 152.33 128.70 L 162.60 120.53 L 149.47 183.63 L 166.90 107.95 L 169.19 73.33 L 166.66 103.00 L 170.81 86.04 L 136.74 77.24 L 185.74 137.36 L 54.89 113.69 L 80.03 143.44 L 171.36 129.19 L 46.28 24.21 L 121.14 12.38 L 133.75 35.69 L 65.47 117.73 L 185.83 133.30 L 34.57 52.00 L 86.10 14.49 L 69.15 82.94 L 143.23 63.74 L 96.02 33.63 L 70.11 130.91 L 82.30 149.75 L 47.49 17.63 L 12.96 111.76 L 189.78 74.81 L 169.91 159.14 L 63.59 25.40 L 71.55 128.64 L 100.66 178.98 L 93.63 141.31 L 47.10 103.14 L 79.93 66.68 L 53.27 101.99 L 44.77 114.91 L 50.78 76.53 L 104.81 56.02 L 75.65 47.51 L 65.62 111.38 L 48.90 121.65 L 191.68 107.39 L 103.20 188.72 L 182.14 52.21 L 141.37 39.75 L 98.92 40.16 L 10.85 71.37 L 22.88 102.13 L 133.30 96.10 L 90.55 198.97 L 184.33 61.02 L 64.32 184.43 L 141.96 13.65 L 183.85 127.17 L 119.05 174.08 L 133.94 70.68 L 177.22 83.08 L 67.32 76.64 L 135.42 33.26 L 61.74 78.37 L 99.72 2.11 L 131.17 115.84 L 123.18 136.58 L 176.44 157.00 L 185.51 78.76 L 108.54 140.55 L 59.81 107.22 L 160.58 103.20 L 44.33 38.83 L 55.88 75.04 L 160.02 143.22 L 99.04 53.22 L 96.21 53.18 L 63.25 94.40 L 153.00 23.25 L 141.04 131.17 L 99.35 52.49 L 35.42 93.92 L 102.19 57.12 L 112.47 53.78 L 67.09 132.90 L 55.38 125.34 L 142.41 137.49 L 75.17 176.17 L 64.53 97.21 L 129.01 76.11 L 69.76 117.47 L 157.49 154.51 L 30.05 92.93 L 133.17 112.66 L 121.74 171.66 L 140.68 106.57 L 174.06 130.20 L 61.40 124.70 L 70.11 68.24 L 140.97 173.84 L 80.48 60.60 L 89.92 56.63 L 29.44 102.82 L 88.73 60.34 L 20.26 88.32 L 141.80 37.40 L 93.35 50.93 L 80.30 136.89 L 44.17 107.68 L 73.80 192.27 L 165.81 51.19 L 15.92 139.09 L 113.80 35.08 L 176.12 96.67 L 42.12 145.44 L 162.06 42.19 L 164.98 59.77 L 141.40 21.14 L 7.52 108.28 L 188.31 68.78 L 57.30 61.49 L 174.35 46.53 L 139.24 130.29 L 70.32 118.25 L 168.89 114.46 L 72.92 18.39 L 150.00 58.36 L 81.69 54.77 L 53.44 98.35 L 66.92 44.38 L 63.22 127.51 L 84.81 140.62 L 96.50 53.67 L 100.07 35.68 L 77.14 130.60 L 48.54 65.86 L 46.56 17.50 L 42.44 85.67 L 134.53 79.52 L 72.64 47.59 L 147.42 19.10 L 165.55 164.73 L 62.32 61.78 L 136.38 30.77 L 55.60 53.26 L 72.88 134.05 L 129.39 37.02 L 30.40 160.57 L 37.09 103.44 L 94.25 46.62 L 177.20 47.18 L 89.33 4.23 L 135.68 19.42 L 33.32 28.85 L 8.98 95.32 L 136.43 123.05 L 83.66 63.03 L 82.38 64.48 L 49.41 125.22 L 179.60 60.18 L 127.65 27.91 L 20.42 106.55 L 131.24 155.36 L 150.25 126.73 L 65.39 87.61 L 137.75 35.71 L 139.52 18.24 L 129.78 43.89 L 182.38 56.65 L 189.31 72.78 L 50.25 80.00 L 109.90 1.93 L 66.90 133.39 L 147.23 95.81 L 11.07 76.47 L 127.63 68.40 L 182.64 58.74 L 161.11 54.74 L 62.51 64.78 L 10.88 116.04" fill="none" stroke="url(#grad)" stroke-width="0.3" stroke-opacity="0.8"/>
</svg>