<?xml version="1.0" encoding="UTF-8"?>
<svg xmlns="http://www.w3.org/2000/svg" width="200" height="200" viewBox="0 0 200 200">
  <defs>
    <linearGradient id="grad" x1="0%" y1="0%" x2="100%" y2="100%">
      <stop offset="0%" style="stop-color:#f59e0b;stop-opacity:1" />
      <stop offset="100%" style="stop-color:#ea580c;stop-opacity:1" />
    </linearGradient>
  </defs>
  <rect width="100%" height="100%" fill="#0a0a0f"/>
  <path d="M 81.49 68.66 L 97.83 86.42 L 105.97 106.46 L 100.62 89.52 L 105.45 110.25 L 103.71 95.38 L 105.82 103.49 L 80.37 81.26 L 76.90 88.55 L 105.92 104.59 L 98.46 55.73 L 104.50 113.09 L 76.51 101.83 L 89.16 117.85 L 94.46 71.36 L 97.82 86.37 L 95.42 84.93 L 105.58 110.06 L 98.14 118.82 L 98.43 86.95 L 105.90 107.23 L 94.50 119.45 L 93.15 119.07 L 75.00 71.97 L 90.75 78.51 L 99.88 118.15 L 91.22 73.59 L 88.83 83.21 L 104.92 112.19 L 101.99 116.75 L 102.69 93.19 L 105.71 102.46 L 109.03 55.13 L 95.75 79.99 L 92.01 118.83 L 102.71 115.94 L 88.50 117.46 L 68.01 63.76 L 73.87 77.01 L 89.06 83.42 L 76.79 102.52 L 94.50 74.60 L 80.47 110.08 L 74.05 94.30 L 73.28 81.77 L 68.38 85.03 L 79.89 84.03 L 98.79 57.54 L 93.46 83.54 L 104.17 96.60 L 102.33 116.33 L 94.38 73.56 L 94.76 76.01 L 95.12 77.65 L 98.43 61.89 L 111.34 47.83 L 91.37 83.59 L 105.92 106.93 L 63.35 78.01 L 67.96 63.82 L 98.62 86.76 L 104.81 98.48 L 103.14 115.42 L 92.82 71.84 L 96.61 66.08 L 99.57 118.28 L 98.92 118.56 L 89.88 118.21 L 97.61 86.26 L 89.37 75.35 L 95.84 82.06 L 98.18 86.74 L 105.78 108.69 L 75.07 98.80 L 87.47 53.27 L 98.12 85.33 L 92.13 83.66 L 100.44 89.24 L 98.83 87.34 L 97.24 85.99 L 80.59 59.95 L 82.59 57.46 L 101.90 116.74 L 81.87 111.53 L 94.66 71.54 L 96.03 80.82 L 105.20 111.49 L 105.51 101.26 L 103.11 93.99 L 104.07 114.02 L 85.18 82.49 L 98.62 86.85 L 105.82 103.29 L 69.96 78.23 L 86.80 116.37 L 71.90 63.65 L 101.63 116.97 L 105.74 108.74 L 99.85 88.24 L 105.91 104.43 L 75.99 68.74 L 98.04 53.57 L 87.41 116.81 L 59.12 83.09 L 58.03 83.92 L 60.44 84.07 L 98.85 59.76 L 75.19 71.31 L 95.72 79.75 L 99.47 88.02 L 84.10 77.85 L 105.21 100.08 L 97.61 53.90 L 89.33 51.46 L 105.41 100.73 L 103.07 115.51 L 94.08 70.27 L 103.12 115.46 L 95.77 80.44 L 105.81 103.39 L 92.46 74.55 L 99.82 88.42 L 90.50 76.59 L 82.34 112.13 L 60.44 78.53 L 100.26 88.93 L 84.12 114.24 L 90.96 83.80 L 76.60 79.76 L 95.62 79.66 L 99.43 118.35 L 82.69 112.78 L 73.62 80.32 L 93.86 72.51 L 94.80 83.24 L 64.64 85.38 L 98.09 62.66 L 94.70 78.80 L 80.72 110.01 L 81.34 111.24 L 89.45 75.29 L 95.82 82.15 L 91.78 83.68 L 101.90 91.68 L 103.18 94.14 L 92.11 50.71 L 73.32 81.21 L 96.65 66.27 L 93.56 75.38 L 102.32 92.50 L 103.24 94.35 L 85.97 78.08 L 97.55 86.21 L 80.49 110.00 L 77.40 65.50 L 70.08 84.98 L 105.38 110.89 L 99.43 59.87 L 113.57 51.12 L 98.57 86.86 L 100.65 89.56 L 102.94 115.67 L 65.99 65.73 L 86.56 116.20 L 98.59 86.66 L 68.13 64.78 L 111.00 54.39 L 75.61 100.11 L 105.95 105.71 L 112.22 49.71 L 112.97 45.65 L 98.05 63.08 L 95.67 82.53 L 104.27 96.83 L 104.63 97.84 L 83.53 113.69 L 81.14 59.24 L 87.15 83.00 L 94.66 84.54 L 98.85 118.64 L 104.18 96.57 L 102.27 92.41 L 103.72 95.41 L 97.63 86.28 L 101.49 91.01 L 93.91 76.16 L 96.98 85.83 L 100.32 118.01 L 105.92 106.84 L 78.38 63.54 L 98.30 85.65 L 105.96 106.74 L 83.72 56.18 L 59.39 84.55 L 98.65 55.02 L 73.63 78.45 L 100.37 89.16 L 103.47 114.99 L 112.21 53.00 L 71.64 61.72 L 104.36 97.08 L 69.66 78.19 L 101.27 117.38 L 105.64 51.11 L 83.15 113.29 L 84.93 54.33 L 94.84 76.43 L 66.79 69.19 L 103.95 95.99 L 75.68 69.78 L 94.34 72.23 L 65.11 63.43 L 94.08 84.00 L 105.82 108.44 L 102.26 92.23 L 100.17 88.77 L 93.35 119.10 L 79.70 108.95 L 91.21 81.46 L 97.85 86.39 L 101.33 90.73 L 99.84 118.27 L 88.61 83.13 L 101.89 91.72 L 82.56 80.30 L 96.51 85.53 L 98.27 119.01 L 102.44 92.73 L 105.93 106.72 L 82.41 112.50 L 95.42 70.73 L 103.65 95.25 L 101.85 91.48 L 98.08 54.72 L 94.56 83.33 L 95.44 78.77 L 100.55 89.41 L 98.22 119.01 L 71.00 61.35 L 95.47 79.04 L 95.03 77.25 L 104.78 98.45 L 105.58 101.78 L 68.13 85.24 L 80.39 66.01 L 103.17 115.39 L 79.31 84.22 L 104.22 96.68 L 100.27 117.91 L 65.20 85.39 L 95.88 81.31 L 103.86 95.78 L 73.63 88.94 L 95.64 79.46 L 104.70 98.11 L 104.91 112.08 L 58.64 82.47 L 86.46 53.10 L 88.86 75.81 L 84.50 80.73 L 82.96 56.27 L 98.64 60.73 L 69.56 78.43 L 97.62 53.91 L 99.06 118.50 L 77.22 104.18 L 104.65 112.77 L 77.97 64.35 L 110.36 46.93 L 94.21 72.96 L 72.92 78.81 L 79.27 84.25 L 74.13 77.06 L 97.26 86.00 L 83.46 113.62 L 90.66 83.46 L 95.73 67.81 L 92.23 83.27 L 96.70 85.65 L 75.46 70.40 L 97.80 86.35 L 105.79 108.63 L 101.77 116.85 L 74.33 74.60 L 85.02 82.07 L 96.93 85.78 L 89.60 117.97 L 102.82 93.46 L 59.11 84.02 L 103.59 95.13 L 96.08 119.44 L 82.25 81.55 L 98.63 86.83 L 104.53 97.65 L 97.53 84.38 L 103.76 114.55 L 94.65 84.54 L 92.64 79.26 L 111.14 46.69 L 88.55 83.11 L 100.91 89.94 L 101.13 117.49 L 78.39 63.04 L 94.92 84.70 L 104.35 97.04 L 73.43 80.37 L 96.91 119.10 L 104.33 97.06 L 97.83 86.43 L 97.50 84.34 L 100.78 89.75 L 101.20 117.31 L 88.75 83.31 L 105.95 104.99 L 94.90 76.70 L 95.25 78.15 L 94.28 76.08 L 94.58 84.52 L 96.93 85.78 L 105.61 109.94 L 68.12 85.24 L 85.80 82.58 L 83.85 85.53 L 96.26 81.20 L 98.05 85.21 L 104.79 98.42 L 100.68 117.82 L 105.95 105.93 L 101.26 90.49 L 95.89 119.45 L 95.61 82.64 L 96.88 65.41 L 92.91 82.05 L 99.98 88.45 L 74.51 94.93 L 73.64 78.37 L 104.70 51.80 L 85.55 82.62 L 92.74 83.60 L 104.82 112.53 L 113.07 47.63 L 95.76 85.10 L 104.50 97.57 L 105.92 104.49 L 78.65 107.06 L 75.04 97.19 L 77.90 79.53 L 95.71 79.74 L 103.12 115.45 L 92.76 83.59 L 75.51 70.29 L 84.34 79.22 L 100.13 88.71 L 90.70 118.56 L 88.45 77.30 L 101.85 91.56 L 94.23 83.43 L 94.21 84.19 L 77.66 83.70 L 90.87 81.93 L 96.08 80.94 L 96.98 85.81 L 93.28 81.38 L 95.71 79.94 L 105.76 108.81 L 93.91 119.39 L 80.07 108.97 L 112.79 46.70 L 87.26 83.01 L 88.86 117.69 L 96.50 82.01 L 102.52 92.89 L 98.55 56.05 L 105.33 111.08 L 104.90 112.24 L 85.85 53.55 L 60.89 84.25 L 94.48 84.44 L 98.69 118.71 L 88.81 52.10 L 94.33 84.31 L 102.68 116.01 L 90.99 81.77 L 63.62 78.52 L 98.42 86.26 L 100.87 89.88 L 105.68 109.55 L 105.36 100.74 L 105.93 104.73 L 108.46 48.20 L 92.15 76.50 L 104.18 96.59 L 104.77 98.41 L 105.93 106.78 L 105.92 104.51 L 88.73 52.14 L 69.87 78.22 L 101.82 116.90 L 112.89 45.65 L 100.13 117.99 L 105.42 100.83 L 101.35 90.64 L 73.16 86.33 L 71.21 78.54 L 68.48 63.25 L 96.62 65.91 L 75.03 71.80 L 103.26 94.33 L 73.46 85.33 L 95.74 80.33 L 105.76 102.82 L 75.73 69.64 L 87.79 83.09 L 98.71 86.32 L 71.71 58.74 L 101.00 117.45 L 104.20 113.84 L 111.10 46.26 L 96.59 82.21 L 88.46 117.45 L 99.62 118.45 L 87.73 76.75 L 94.71 75.74 L 59.36 80.18 L 105.30 111.04 L 95.83 52.26 L 92.91 82.82 L 96.49 81.95 L 89.60 83.30 L 96.98 84.01 L 92.09 118.85 L 84.18 82.17 L 85.71 82.55 L 83.36 56.61 L 81.62 57.92 L 69.31 62.70 L 99.03 87.53 L 100.31 89.01 L 87.41 52.49 L 77.08 61.88 L 105.94 105.02 L 72.20 78.77 L 113.45 51.06 L 80.99 81.05 L 93.38 76.42 L 102.66 93.08 L 103.23 94.33 L 94.47 79.97 L 105.64 109.78 L 80.20 109.25 L 90.50 118.35 L 105.91 107.88 L 96.66 84.31 L 101.82 91.50 L 104.57 97.66 L 79.63 80.43 L 83.83 85.54 L 105.89 107.86 L 98.38 61.74 L 95.38 78.68 L 97.55 118.97 L 105.96 105.29 L 105.60 51.16 L 71.53 61.64 L 98.50 86.43 L 94.36 73.13 L 100.74 89.72 L 85.64 115.46 L 78.23 80.15 L 95.85 82.02 L 89.40 83.49 L 100.70 89.65 L 105.65 102.24 L 90.70 74.11 L 91.66 83.65 L 59.56 79.92 L 90.49 51.92 L 82.89 113.02 L 79.16 62.17 L 96.79 82.61 L 77.85 105.29 L 98.46 61.75 L 94.72 84.62 L 107.06 49.24 L 98.85 86.55 L 102.63 93.11 L 103.74 95.48 L 73.29 87.87 L 98.63 86.83 L 102.07 91.88 L 92.13 83.76 L 102.65 93.00 L 103.79 95.60 L 99.15 60.49 L 66.13 78.26 L 89.85 76.86 L 98.74 56.23 L 85.41 54.05 L 94.51 84.53 L 104.81 98.50 L 78.31 106.09 L 105.82 108.69 L 96.85 85.75 L 103.76 95.53 L 101.41 117.15 L 73.62 92.14 L 102.95 93.64 L 98.46 86.98 L 100.37 89.15 L 76.82 103.64 L 81.95 58.15 L 73.15 84.48 L 70.58 58.70 L 58.52 83.55 L 78.15 62.97 L 89.12 83.17 L 94.47 72.31 L 102.72 93.29 L 90.57 83.42 L 83.83 56.14 L 96.56 66.39 L 90.49 83.35 L 98.63 86.84 L 103.05 115.53 L 87.29 77.10 L 95.91 80.47 L 105.52 109.96 L 98.89 86.63 L 103.29 94.38 L 83.91 114.06 L 108.79 48.46 L 95.89 80.17 L 96.40 85.25 L 105.85 108.19 L 78.89 62.65 L 86.61 116.24 L 90.42 83.69 L 94.16 84.39 L 93.95 75.67 L 105.15 99.83 L 101.13 90.39 L 105.48 101.10 L 93.98 84.14 L 95.57 79.46 L 100.34 89.05 L 100.86 89.86 L 96.61 82.77 L 101.17 90.34 L 104.10 96.38 L 61.88 85.06 L 91.53 83.63 L 94.00 75.70 L 65.31 64.58 L 102.17 92.22 L 103.63 95.21 L 87.98 76.55 L 95.32 78.47 L 96.82 82.72 L 99.10 64.23 L 101.82 91.59 L 105.85 103.61 L 71.76 61.91 L 99.20 87.72 L 105.93 107.55 L 67.49 85.12 L 87.60 77.67 L 97.00 85.82 L 80.83 59.60 L 87.49 52.74 L 105.97 106.76 L 84.73 55.22 L 86.14 53.34 L 85.42 115.28 L 84.73 80.90 L 98.62 86.85 L 105.91 104.37 L 82.24 81.52 L 93.12 73.29 L 89.03 83.46 L 103.68 95.35 L 102.13 116.53 L 98.46 86.34 L 96.45 81.90 L 83.75 113.70 L 81.68 81.33 L 90.88 83.50 L 101.86 55.71 L 95.90 68.59 L 96.60 85.59 L 98.99 118.58 L 95.18 69.98 L 104.88 98.74 L 76.97 103.96 L 97.74 63.42 L 105.75 102.89 L 99.28 87.77 L 96.67 119.37 L 98.85 59.95 L 89.48 82.94 L 94.10 84.38 L 104.53 97.67 L 99.61 88.18 L 97.38 86.08 L 102.59 116.06 L 95.81 80.70 L 92.11 83.88 L 97.44 86.13 L 101.04 90.24 L 96.52 85.53 L 105.50 110.04 L 105.52 101.28 L 105.92 106.91 L 91.49 118.67 L 79.01 84.59 L 91.27 76.96 L 105.92 104.65 L 57.16 81.34 L 95.62 79.55 L 104.61 97.79 L 102.24 116.50 L 73.36 80.86 L 90.78 118.44 L 61.00 79.15 L 105.98 106.03 L 103.59 53.21 L 93.99 119.21 L 88.57 117.53 L 101.78 91.48 L 100.62 89.52 L 105.87 103.83 L 82.94 112.82 L 74.95 96.85 L 67.22 69.55 L 84.47 79.38 L 94.49 84.52 L 95.61 79.35 L 105.84 108.55 L 103.54 94.97 L 102.11 55.51 L 92.19 83.16 L 103.91 95.88 L 94.52 119.21 L 98.81 59.11 L 87.63 83.12 L 101.40 90.71 L 105.05 99.44 L 105.95 105.79 L 83.56 55.63 L 106.05 50.27 L 102.94 115.67 L 80.55 80.86 L 89.10 77.06 L 98.24 85.50 L 94.46 72.93 L 95.83 80.33 L 96.62 85.60 L 104.03 114.03 L 59.49 78.84 L 79.77 61.19 L 69.52 72.35 L 89.47 52.32 L 77.59 105.27 L 98.37 86.91 L 105.05 111.92 L 104.30 96.90 L 83.59 55.78 L 83.29 113.44 L 97.83 54.25 L 93.70 70.77 L 96.86 65.27 L 98.04 54.66 L 100.31 89.07 L 99.46 118.53 L 95.08 119.24 L 98.41 54.34 L 84.82 114.87 L 98.58 61.04 L 96.68 85.62 L 98.83 60.07 L 92.78 82.90 L 103.20 94.19 L 98.90 58.30 L 98.06 86.64 L 99.23 87.20 L 101.06 90.26 L 103.00 93.78 L 114.96 47.86 L 94.67 71.48 L 74.00 92.07 L 78.34 106.15 L 79.66 61.37 L 106.62 58.46 L 101.37 90.79 L 100.35 118.01 L 104.26 96.86 L 104.64 97.89 L 105.50 110.03 L 97.25 83.56 L 93.18 79.27 L 97.88 86.41 L 100.62 117.82 L 102.49 92.68 L 94.43 83.36 L 100.17 88.89 L 105.75 109.19 L 99.17 118.57 L 99.06 118.62 L 94.26 72.80 L 88.13 83.24 L 101.71 91.24 L 105.97 106.26 L 73.35 89.75 L 71.61 61.70 L 102.89 93.62 L 104.42 113.40 L 105.67 109.65 L 105.12 99.72 L 99.63 88.01 L 98.70 118.71 L 100.28 118.07 L 90.08 83.37 L 97.41 83.94 L 98.29 86.82 L 101.27 90.50 L 105.84 108.55 L 99.76 88.09 L 90.73 118.57 L 110.63 46.89 L 89.35 51.46 L 104.66 112.91 L 95.29 68.55 L 95.52 79.06 L 105.50 101.41 L 77.85 105.28 L 75.36 99.75 L 98.74 118.72 L 98.82 58.79 L 110.42 47.85 L 103.93 95.93 L 71.24 84.74 L 95.73 69.19 L 91.19 118.66 L 72.13 58.83 L 62.12 85.11 L 102.51 61.24 L 89.17 83.19 L 96.29 85.40 L 97.44 84.73 L 83.22 113.38 L 93.97 70.41 L 92.18 82.72 L 83.97 75.91 L 97.17 85.93 L 105.88 107.95 L 86.18 115.97 L 70.95 78.59 L 105.10 111.53 L 98.41 118.96 L 97.33 85.19 L 97.16 119.29 L 70.71 84.84 L 88.19 83.11 L 94.40 69.97 L 105.49 101.34 L 79.77 108.51 L 67.82 85.31 L 97.24 83.77 L 100.51 89.35 L 103.54 114.86 L 82.45 112.25 L 75.86 99.99 L 79.72 61.29 L 94.51 84.53 L 97.40 83.88 L 82.94 113.05 L 104.34 113.56 L 70.26 62.36 L 80.22 81.54 L 98.83 58.49 L 100.22 88.85 L 59.12 84.03 L 103.91 95.89 L 79.80 84.04 L 96.29 81.52 L 89.98 77.76 L 97.94 85.26 L 100.01 88.50 L 105.94 106.26 L 103.22 94.31 L 73.28 88.93 L 97.98 54.40 L 108.86 47.90 L 99.68 87.96 L 71.19 84.74 L 79.87 85.57 L 98.50 86.43 L 105.93 107.63 L 75.50 70.26 L 96.66 65.94 L 63.13 85.26 L 98.75 87.26 L 103.76 95.53 L 101.32 90.71 L 104.50 113.25 L 95.78 79.94 L 91.93 118.79 L 89.06 83.21 L 98.74 87.24 L 97.04 119.08 L 104.40 113.45 L 95.77 82.33 L 104.40 97.19 L 92.70 119.18 L 96.21 81.30 L 105.87 103.89 L 85.13 82.17 L 104.99 99.02 L 105.97 106.57 L 111.26 47.83 L 80.35 109.78 L 102.54 116.17 L 99.17 87.69 L 101.37 90.80 L 104.40 113.45 L 71.76 61.88 L 74.18 79.17 L 95.54 79.12 L 105.01 99.11 L 102.63 93.10 L 103.22 94.23 L 94.22 70.09 L 90.90 83.17 L 91.61 83.58 L 96.30 67.44 L 98.63 86.82 L 102.19 92.10 L 104.55 97.73 L 103.68 114.69 L 84.91 82.41 L 97.80 84.86 L 99.73 88.04 L 92.41 72.31 L 92.15 83.18 L 97.55 84.20 L 105.80 108.56 L 98.46 61.41 L 82.60 81.64 L 85.24 78.59 L 93.33 83.34 L 105.68 102.25 L 103.29 94.39 L 103.14 115.42 L 77.24 65.47 L 98.22 85.84 L 98.33 86.86 L 105.78 108.72 L 105.64 101.95 L 74.49 96.67 L 95.82 82.17 L 99.19 87.14 L 80.63 110.31 L 87.46 76.96 L 73.59 91.94 L 78.32 106.34 L 84.31 114.43 L 95.57 79.49 L 95.86 85.16 L 95.13 83.08 L 98.61 86.71 L 100.55 89.40 L 105.82 103.29 L 94.87 76.53 L 86.28 81.38 L 97.30 86.05 L 104.37 97.19 L 60.95 84.31 L 94.31 84.45 L 102.39 92.64 L 105.20 100.02 L 98.07 118.84 L 56.72 81.59 L 103.94 114.20 L 100.49 58.08 L 101.71 55.95 L 93.36 81.49 L 104.62 112.99 L 84.53 114.62 L 88.54 76.07 L 104.84 98.58 L 75.72 69.66 L 94.97 84.71 L 81.68 81.41 L 92.70 81.23 L 94.58 74.95 L 101.85 91.65 L 102.13 91.99 L 100.83 89.82 L 77.74 64.79 L 94.82 76.32 L 100.33 63.08 L 91.57 83.75 L 95.67 79.94 L 89.98 79.56 L 99.09 118.60 L 105.56 110.15 L 104.61 97.84 L 93.86 119.20 L 74.05 94.28 L 73.30 81.45 L 84.45 79.41 L 104.77 98.29 L 102.83 93.50 L 97.91 84.90 L 104.36 113.52 L 78.07 82.50 L 103.56 95.03 L 97.30 119.26 L 75.68 78.18 L 95.50 79.01 L 104.32 96.97 L 104.46 97.35 L 105.75 102.88 L 103.32 115.18 L 96.11 119.44 L 92.38 78.86 L 101.87 91.60 L 94.65 119.23 L 85.92 78.11 L 67.97 71.07 L 90.38 83.39 L 65.36 65.22 L 105.80 108.28 L 102.66 93.14 L 102.00 91.75 L 98.63 86.83 L 104.04 96.26 L 84.40 55.52 L 78.96 84.91 L 98.33 86.87 L 97.87 86.46 L 95.67 79.82 L 86.98 116.52 L 62.05 84.65 L 82.56 81.63 L 94.68 75.64 L 96.01 80.80 L 99.51 87.74 L 98.14 61.66 L 95.47 78.95 L 80.63 110.19 L 101.75 116.87 L 74.22 75.48 L 59.16 80.35 L 82.27 81.56 L 84.58 82.31 L 94.37 84.47 L 105.90 104.25 L 98.65 56.34 L 95.30 68.54 L 95.65 79.46 L 100.63 89.52 L 105.90 104.29 L 98.47 61.48 L 82.10 74.80 L 69.88 63.61 L 99.96 88.44 L 100.14 117.99 L 101.04 90.14 L 83.22 113.15 L 82.46 82.53 L 96.99 83.01 L 90.82 118.61 L 86.55 82.87 L 88.72 83.13 L 79.87 108.74 L 85.55 82.60 L 98.96 56.62 L 96.41 66.88 L 95.57 68.85 L 102.54 92.79 L 105.89 104.17 L 89.85 118.20 L 95.80 83.44 L 94.73 84.58 L 75.08 98.84 L 94.98 76.77 L 94.57 84.51 L 96.77 82.66 L 94.38 71.76 L 83.24 81.91 L 101.83 116.81 L 102.08 92.07 L 85.41 115.37 L 94.57 84.49 L 93.10 73.31 L 102.01 91.77 L 102.37 92.45 L 73.63 80.09 L 95.65 85.05 L 101.63 91.15 L 103.10 94.06 L 85.39 115.35 L 94.38 70.10 L 105.64 102.00 L 98.77 57.28 L 94.37 70.32 L 96.43 82.16 L 93.16 82.96 L 78.11 105.89 L 95.60 68.06 L 92.89 84.31 L 96.29 81.74 L 104.57 97.69 L 94.18 70.13 L 100.41 89.19 L 98.56 118.91 L 103.31 94.51 L 97.09 85.87 L 105.02 99.34 L 91.25 118.59 L 79.27 84.25 L 95.34 82.93 L 99.34 87.82 L 105.95 105.63 L 94.35 70.38 L 101.16 90.33 L 105.91 104.45 L 78.92 82.12 L 72.82 60.30 L 93.44 73.49 L 102.98 93.80 L 82.80 80.14 L 104.74 98.36 L 89.71 77.70 L 103.36 94.56 L 103.82 95.66 L 105.55 109.82 L 93.60 119.17 L 94.95 51.88 L 85.93 82.71 L 88.06 83.12 L 93.06 119.05 L 87.76 83.15 L 101.09 90.22 L 105.93 104.77 L 112.04 47.39 L 71.67 61.75 L 96.95 83.97 L 104.18 113.74 L 94.91 74.03 L 97.85 86.47 L 101.26 90.61 L 105.98 106.34 L 98.77 118.83 L 103.97 114.21 L 96.92 65.30 L 87.84 77.52 L 94.33 72.33 L 95.98 84.49 L 99.98 88.45 L 76.64 66.94 L 93.53 84.17 L 95.68 79.84 L 104.35 97.03 L 104.26 96.87 L 94.03 73.56 L 96.61 66.08 L 92.38 118.97 L 102.09 116.64 L 62.89 85.25 L 104.76 98.32 L 92.75 118.99 L 101.09 117.39 L 90.17 83.33 L 101.87 91.60 L 105.98 106.47 L 81.16 111.00 L 82.44 112.23 L 96.70 119.37 L 82.65 112.47 L 80.04 60.16 L 94.34 72.16 L 66.49 68.55 L 97.72 84.54 L 101.80 91.39 L 100.11 88.81 L 102.14 92.00 L 103.23 94.32 L 98.24 62.29 L 90.77 83.48 L 102.57 92.97 L 104.00 96.14 L 68.86 78.10 L 113.12 47.59 L 101.90 91.68 L 101.33 90.61 L 99.36 118.50 L 92.88 71.76 L 94.80 84.65 L 78.48 79.88 L 112.49 45.74 L 81.05 110.86 L 98.29 119.00 L 99.14 87.26 L 83.94 56.04 L 79.56 108.25 L 77.53 64.82 L 84.31 78.21 L 105.32 110.76 L 77.74 64.80 L 108.24 56.07 L 84.16 114.11 L 83.13 56.21 L 105.95 107.29 L 101.64 91.27 L 99.30 118.52 L 82.95 112.83 L 90.31 83.41 L 97.88 84.83 L 102.35 92.56 L 102.74 93.18 L 95.59 79.56 L 96.69 119.14 L 103.17 94.11 L 105.17 99.69 L 58.17 82.84 L 112.72 52.35 L 78.07 79.66 L 93.78 74.47 L 98.23 85.75 L 99.59 88.16 L 102.86 115.77 L 95.84 67.68 L 87.72 83.08 L 101.00 90.16 L 99.15 118.67 L 95.85 80.99 L 94.36 73.06 L 60.21 79.59 L 95.63 72.87 L 103.90 95.86 L 104.93 112.21 L 75.96 68.81 L 80.14 67.93 L 97.69 84.36 L 105.59 101.90 L 90.04 51.39 L 110.07 47.15 L 96.02 80.80 L 95.74 82.39 L 98.24 85.53 L 104.01 114.09 L 68.95 62.90 L 96.37 81.71 L 95.66 83.40 L 105.85 107.87 L 101.22 90.53 L 98.35 86.87 L 103.58 95.10 L 87.12 52.62 L 85.77 54.44 L 88.41 76.19 L 95.46 74.65 L 98.16 85.40 L 103.56 95.05 L 75.21 71.25 L 89.87 83.64 L 58.90 82.90 L 91.59 50.78 L 105.68 102.24 L 105.62 109.47 L 84.40 114.51 L 113.34 51.47 L 82.98 76.95 L 101.29 90.52 L 102.54 116.12 L 75.97 79.59 L 104.08 113.93 L 97.43 64.11 L 93.77 75.92 L 80.90 72.15 L 94.56 70.33 L 105.77 108.65 L 99.03 87.12 L 83.54 76.11 L 105.87 103.82 L 74.29 74.77 L 83.68 82.30 L 105.70 102.56 L 97.13 64.80 L 100.92 90.02 L 103.23 115.31 L 81.44 81.25 L 95.70 85.07 L 100.91 90.01 L 105.94 106.53 L 101.19 90.39 L 103.84 95.72 L 73.42 90.53 L 65.25 85.46 L 94.46 83.36 L 102.58 116.08 L 79.28 69.48 L 83.04 81.78 L 95.02 77.20 L 98.07 85.52 L 100.78 117.75 L 105.96 105.15 L 95.00 83.15 L 104.84 98.69 L 89.49 83.30 L 83.92 79.94 L 100.01 88.67 L 89.40 117.93 L 97.82 62.70 L 98.03 85.30 L 105.98 105.87 L 96.52 84.43 L 79.75 108.87 L 97.34 83.99 L 60.51 84.68 L 95.76 80.43 L 99.04 87.57 L 96.76 82.58 L 104.25 96.83 L 104.54 113.06 L 100.40 117.97 L 105.92 106.78 L 105.01 111.98 L 98.25 119.00 L 99.05 86.89 L 96.91 85.78 L 100.85 89.85 L 73.81 79.08 L 72.02 78.65 L 109.14 47.67 L 78.18 105.85 L 105.68 102.33 L 101.30 90.55 L 98.79 118.71 L 73.32 87.10 L 103.68 53.09 L 105.89 107.50 L 105.22 111.43 L 62.39 85.15 L 98.87 64.34 L 98.55 86.54 L 99.45 87.98 L 99.08 87.59 L 103.47 94.83 L 109.82 48.10 L 91.94 76.13 L 96.86 83.92 L 100.43 89.23 L 75.41 83.57 L 91.75 80.44 L 103.74 95.48 L 82.91 113.06 L 59.09 84.01 L 103.06 115.52 L 67.60 66.13 L 99.22 87.19 L 78.68 107.02 L 105.86 103.83 L 87.08 116.58 L 95.47 79.09 L 89.10 51.99 L 95.84 80.92 L 104.36 97.09 L 104.89 51.96 L 104.47 113.23 L 97.99 54.53 L 89.16 117.77 L 93.51 84.55 L 97.10 85.88 L 94.71 119.46 L 80.62 81.32 L 80.71 85.54 L 75.75 100.90 L 100.30 88.98 L 97.71 63.98 L 97.90 84.76 L 103.52 94.96 L 114.99 47.07 L 99.82 88.44 L 95.94 80.45 L 105.92 107.67 L 99.03 57.93 L 98.77 57.27 L 95.62 68.69 L 97.18 85.93 L 98.05 85.05 L 81.23 111.08 L 64.72 85.46 L 86.21 82.79 L 90.99 81.77 L 62.22 78.81 L 92.16 83.67 L 105.49 101.14 L 101.80 91.46 L 94.67 76.15 L 104.73 98.15 L 71.49 62.11 L 100.30 89.05 L 95.58 79.53 L 94.31 70.48 L 75.21 60.36 L 94.35 70.57 L 91.72 83.67 L 93.09 73.35 L 105.86 103.77 L 98.89 59.72 L 94.74 75.93 L 98.93 86.94 L 102.56 92.88 L 97.49 86.16 L 101.22 117.30 L 105.60 109.54 L 100.57 117.89 L 75.44 98.64 L 84.58 54.64 L 102.63 54.54 L 96.83 82.76 L 85.90 82.66 L 84.15 82.27 L 92.21 79.32 L 94.23 75.70 L 94.33 84.31 L 91.19 118.67 L 83.95 75.80 L 99.88 88.53 L 105.41 110.61 L 95.92 68.55 L 101.02 90.10 L 105.54 101.37 L 103.68 114.69 L 93.10 76.64 L 67.81 65.13 L 99.67 88.26 L 99.44 87.99 L 96.43 85.47 L 98.69 60.66 L 98.59 61.08 L 92.23 79.27 L 103.32 94.52 L 96.26 81.37 L 104.72 98.25 L 100.82 117.58 L 68.88 71.48 L 64.13 85.44 L 84.11 79.00 L 94.90 76.71 L 100.52 89.37 L 94.72 119.23 L 73.67 92.50 L 89.80 52.14 L 96.18 52.48 L 98.60 86.67 L 103.68 95.32 L 80.89 110.65 L 101.14 90.40 L 74.37 96.18 L 94.99 77.08 L 93.55 84.18 L 105.96 105.17 L 98.16 86.61 L 95.69 79.82 L 105.96 107.11 L 105.54 110.24 L 98.95 118.66 L 98.17 62.73 L 88.45 83.30 L 100.30 117.91 L 99.80 118.17 L 79.14 107.44 L 83.69 55.68 L 92.92 51.56 L 79.97 60.89 L 72.72 59.05 L 83.04 113.18 L 96.29 81.42 L 103.64 53.15 L 83.53 84.51 L 99.67 87.94 L 101.55 91.11 L 105.70 109.37 L 74.32 93.95 L 74.95 72.14 L 89.69 51.36 L 74.06 76.59 L 104.96 112.17 L 80.31 81.50 L 95.77 80.09 L 99.57 87.76 L 84.18 79.51 L 89.27 77.97 L 96.47 85.49 L 98.66 60.60 L 109.29 47.34 L 105.86 107.82 L 79.30 85.40 L 96.72 82.32 L 105.38 100.61 L 102.60 116.10 L 94.35 71.94 L 81.83 80.57 L 103.22 115.32 L 77.44 79.92 L 94.61 69.96 L 100.57 89.43 L 100.22 118.11 L 92.27 118.89 L 103.03 93.84 L 77.61 104.49 L 102.19 116.48 L 98.79 60.35 L 94.35 72.10 L 71.14 84.76 L 98.07 62.66 L 109.99 48.01 L 105.98 106.13 L 97.93 63.33 L 104.37 97.09 L 88.10 52.90 L 105.36 100.73 L 103.78 95.58 L 82.04 112.09 L 63.96 77.96 L 106.56 50.27 L 98.62 86.85 L 99.97 88.61 L 97.64 64.05 L 101.66 91.15 L 93.26 77.35 L 94.65 83.40 L 104.29 96.94 L 105.06 99.29 L 101.92 116.82 L 99.12 118.69 L 103.84 95.71 L 82.87 113.00 L 104.52 97.63 L 105.31 111.13 L 103.31 115.20 L 91.38 51.71 L 59.74 84.66 L 96.12 81.20 L 97.60 84.56 L 101.83 116.90 L 105.82 103.47 L 110.38 55.03 L 94.39 73.71 L 96.57 82.16 L 96.03 80.94 L 99.93 88.51 L 91.87 72.91 L 97.32 83.94 L 95.81 119.46 L 104.62 52.27 L 103.99 60.05 L 98.58 86.11 L 103.64 114.74 L 58.87 82.86 L 105.53 109.89 L 104.88 98.76 L 101.80 91.56 L 100.90 89.92 L 105.85 103.59 L 89.46 83.28 L 94.44 76.11 L 104.91 112.11 L 89.09 117.74 L 95.16 84.80 L 104.73 98.33 L 97.09 85.88 L 104.89 112.32 L 105.66 102.22 L 105.98 106.36 L 105.04 111.71 L 101.39 90.82 L 105.98 105.86 L 78.05 105.78 L 98.68 55.70 L 112.78 47.61 L 100.81 62.98 L 106.05 58.16 L 83.80 79.48 L 94.32 81.31 L 94.95 119.47 L 101.05 90.24 L 94.45 74.05 L 104.15 96.49 L 112.39 47.47 L 73.31 83.63 L 98.48 86.82 L 105.53 101.57 L 77.25 103.65 L 75.03 97.18 L 101.31 56.58 L 94.37 84.47 L 105.90 107.24 L 104.84 112.36 L 97.53 53.31 L 91.88 83.71 L 83.25 113.41 L 97.59 84.29 L 87.03 53.01 L 96.35 66.73 L 78.72 63.65 L 94.31 71.42 L 95.22 83.02 L 101.85 91.57 L 99.63 88.08 L 105.73 109.28 L 91.96 79.96 L 95.80 83.45 L 81.69 82.35 L 102.39 55.11 L 90.85 83.50 L 99.99 88.58 L 105.01 111.99 L 73.18 87.23 L 108.80 47.74 L 104.09 96.34 L 101.19 117.31 L 78.28 63.74 L 89.83 83.29 L 94.73 72.49 L 98.24 86.76 L 94.67 75.49 L 101.88 91.61 L 105.97 106.67 L 90.32 118.27 L 77.30 65.35 L 96.04 68.16 L 92.23 79.25 L 104.40 97.18 L 79.15 107.57 L 94.16 119.42 L 97.78 84.90 L 102.87 93.54 L 99.51 88.01 L 99.27 87.27 L 112.10 47.40 L 90.19 83.50 L 94.41 73.93 L 90.17 83.42 L 100.38 89.11 L 104.16 113.90 L 99.83 118.28 L 59.30 80.24 L 103.19 115.36 L 83.31 81.88 L 87.90 79.79 L 87.81 53.07 L 91.98 79.91 L 97.64 84.65 L 105.67 102.39 L 102.88 115.74 L 97.22 85.97 L 96.30 119.42 L 105.95 107.28 L 103.57 95.07 L 86.97 116.50 L 84.42 79.13 L 105.83 103.41 L 97.52 53.77 L 95.22 78.07 L 104.10 96.37 L 98.33 86.08 L 95.34 51.12 L 87.82 53.07 L 94.37 73.40 L 85.40 84.31 L 101.87 55.87 L 100.27 88.94 L 101.29 117.36 L 82.10 80.55 L 99.85 88.23 L 78.08 105.83 L 94.33 70.85 L 98.61 86.86 L 93.71 83.48 L 100.55 89.41 L 99.31 118.40 L 104.34 97.03 L 99.96 88.62 L 86.31 81.36 L 101.06 90.17 L 78.83 107.31 L 56.82 82.53 L 105.65 109.60 L 100.10 118.01 L 103.58 114.78 L 72.77 84.26 L 67.86 65.21 L 98.18 86.63 L 104.55 97.72 L 82.63 112.75 L 85.65 53.70 L 80.45 80.91 L 105.93 107.56 L 98.37 62.09 L 95.88 81.38 L 79.07 107.43 L 98.01 86.57 L 105.98 106.07 L 70.76 78.56 L 105.80 108.24 L 97.51 62.14 L 95.85 80.97 L 96.16 85.32 L 83.63 56.27 L 101.71 117.00 L 77.74 105.30 L 96.13 119.20 L 96.19 81.25 L 96.72 83.18 L 99.27 87.26 L 103.73 114.61 L 83.72 79.58 L 88.53 83.11 L 100.60 89.49 L 99.76 88.37 L 98.84 118.69 L 71.00 74.53 L 101.30 90.57 L 102.33 116.34 L 89.98 77.73 L 101.29 90.53 L 104.77 112.66 L 94.27 119.43 L 104.74 98.34 L 97.03 85.86 L 105.35 100.44 L 73.79 92.27 L 112.87 46.76 L 113.20 46.40 L 97.76 63.76 L 101.76 91.49 L 104.04 96.25 L 68.53 85.03 L 77.36 62.14 L 73.45 86.63 L 109.95 55.46 L 99.66 87.91 L 94.54 75.94 L 96.46 85.50 L 92.57 119.15 L 67.77 65.38 L 99.46 87.59 L 103.75 95.50 L 62.01 84.65 L 77.48 105.04 L 105.95 107.22 L 96.25 66.96 L 103.91 114.34 L 71.90 84.60 L 98.13 62.76 L 74.51 88.09 L 68.48 63.25 L 94.53 84.48 L 103.68 95.31 L 92.67 119.11 L 99.79 59.22 L 104.86 98.66 L 97.70 86.33 L 103.85 95.74 L 80.57 85.56 L 95.82 68.88 L 105.78 103.12 L 104.68 112.72 L 58.87 80.73 L 78.23 106.51 L 97.90 84.87 L 105.93 104.82 L 89.41 52.34 L 95.10 119.22 L 82.81 112.93 L 64.24 77.94 L 73.47 84.48 L 78.20 80.14 L 90.45 77.39 L 105.21 99.85 L 104.43 113.23 L 105.03 99.17 L 88.58 83.13 L 105.83 103.42 L 80.96 81.03 L 92.43 83.84 L 102.14 92.00 L 99.57 118.31 L 89.75 51.83 L 98.84 58.72 L 95.10 77.56 L 97.87 85.12 L 92.16 118.92 L 95.95 119.37 L 66.85 77.94 L 96.59 66.70 L 82.35 82.34 L 101.22 90.55 L 100.25 88.89 L 76.13 78.55 L 94.55 83.56 L 104.29 96.95 L 104.93 98.80 L 97.16 83.46 L 99.03 57.78 L 94.16 84.39 L 111.88 45.91 L 91.18 51.79 L 89.22 83.25 L 101.30 90.68 L 103.19 94.22 L 104.38 97.12 L 105.91 104.43 L 73.83 78.31 L 101.34 90.61 L 80.21 60.49 L 105.91 107.11 L 105.87 108.27 L 102.74 93.30 L 91.35 77.58 L 102.10 91.94 L 104.94 112.24 L 102.89 115.76 L 95.20 77.95 L 100.56 89.41 L 102.96 115.65 L 98.54 56.00 L 97.59 52.87 L 101.26 56.68 L 101.89 91.67 L 103.11 93.98 L 105.62 101.86 L 74.09 76.22 L 73.27 59.27 L 85.86 115.65 L 104.45 113.21 L 91.37 81.18 L 102.52 116.14 L 104.71 98.13 L 103.50 94.90 L 101.88 55.85 L 96.45 81.89 L 61.07 84.32 L 76.08 68.66 L 79.94 80.75 L 97.12 53.29 L 94.30 80.58 L 105.67 109.64 L 105.97 105.50 L 73.28 84.97 L 105.93 106.71 L 100.33 117.88 L 105.43 100.90 L 85.82 53.57 L 94.16 84.39 L 94.10 75.93 L 100.35 89.12 L 98.31 85.61 L 98.73 87.23 L 83.91 82.21 L 93.26 81.42 L 99.50 87.65 L 100.59 89.47 L 76.59 103.09 L 97.05 83.22 L 97.27 84.60 L 105.87 103.84 L 58.60 81.21 L 95.65 79.53 L 105.96 105.27 L 105.48 110.34 L 92.19 119.05 L 73.51 87.14 L 90.60 83.45 L 96.15 80.90 L 105.66 102.08 L 80.20 109.70 L 97.12 53.28 L 81.75 81.36 L 78.87 82.05 L 94.45 74.03 L 105.15 99.85 L 100.75 89.74 L 81.08 81.12 L 102.86 93.45 L 104.00 96.15 L 100.61 117.86 L 103.03 115.57 L 97.95 119.09 L 93.39 75.59 L 104.29 96.87 L 93.33 81.03 L 97.36 83.85 L 77.20 82.85 L 96.46 66.45 L 94.86 74.41 L 100.74 89.71 L 97.79 54.19 L 96.95 65.67 L 105.82 103.42 L 94.15 83.43 L 102.05 92.00 L 101.43 117.25 L 79.14 108.08 L 96.82 65.93 L 73.15 85.74 L 98.09 54.75 L 110.13 53.70 L 77.91 64.47 L 74.16 93.03 L 96.45 66.63 L 91.08 83.35 L 98.63 86.80 L 105.95 105.26 L 94.79 50.92 L 71.10 74.30 L 80.84 72.01 L 93.78 72.96 L 96.43 83.65 L 94.08 72.18 L 92.58 78.27 L 80.43 81.26 L 82.81 76.71 L 94.43 73.81 L 105.68 102.27 L 84.91 114.82 L 97.53 63.85 L 101.86 91.58 L 105.50 101.42 L 104.49 97.53 L 105.29 100.20 L 104.57 113.03 L 85.23 115.12 L 88.53 83.11 L 103.04 115.56 L 56.70 81.21 L 112.97 46.85 L 97.46 86.12 L 88.87 117.70 L 98.52 86.48 L 95.23 78.11 L 105.52 109.93 L 105.91 104.45 L 91.53 50.79 L 96.91 119.23 L 92.03 118.84 L 73.94 77.49 L 105.76 108.81 L 104.76 112.47 L 96.12 67.94 L 104.36 97.05 L 103.83 95.69 L 89.41 51.89 L 70.02 73.61 L 95.39 75.45 L 101.80 91.46 L 95.48 79.09 L 102.07 92.04 L 104.34 97.09 L 91.38 83.64 L 100.28 88.96 L 81.68 57.81 L 71.14 61.42 L 101.51 90.92 L 101.02 117.58 L 92.10 50.71 L 94.80 76.22 L 68.84 63.94 L 84.38 114.49 L 98.62 86.85 L 105.23 99.98 L 105.94 106.47 L 101.47 117.20 L 104.32 113.60 L 83.47 79.94 L 104.12 96.48 L 75.20 98.61 L 105.85 107.80 L 88.00 117.19 L 98.06 86.54 L 102.48 116.19 L 85.85 82.64 L 71.30 74.55 L 77.57 104.38 L 104.85 98.72 L 104.84 98.69 L 103.60 95.13 L 76.71 102.35 L 62.74 78.69 L 94.55 74.89 L 80.56 109.78 L 91.82 51.66 L 80.92 85.50 L 69.49 73.02 L 95.13 77.69 L 93.67 80.77 L 103.60 95.12 L 74.76 72.99 L 104.88 98.75 L 104.99 99.21 L 94.66 69.48 L 101.89 91.66 L 77.85 105.29 L 85.88 82.70 L 82.13 80.83 L 97.10 85.88 L 105.93 104.81 L 73.46 79.80 L 93.12 51.54 L 76.79 66.58 L 95.96 80.68 L 99.14 87.14 L 105.83 108.40 L 101.96 116.77 L 87.38 116.79 L 111.12 52.45 L 90.15 82.61 L 91.33 83.39 L 101.38 90.68 L 102.35 92.56 L 99.74 118.32 L 99.59 88.10 L 97.86 86.44 L 105.79 108.33 L 105.26 111.01 L 108.92 48.51 L 100.40 89.15 L 104.03 96.19 L 111.24 47.42 L 94.39 70.22 L 98.34 86.86 L 83.11 77.62 L 97.21 85.95 L 100.03 88.70 L 63.09 84.95 L 93.09 76.64 L 98.56 87.07 L 95.85 80.30 L 98.21 86.77 L 99.79 88.40 L 105.12 99.72 L 96.68 83.03 L 72.20 58.87 L 99.04 118.65 L 95.82 80.18 L 105.62 109.45 L 90.81 118.45 L 63.19 78.60 L 83.20 79.88 L 101.39 90.72 L 100.57 89.43 L 101.90 116.82 L 74.25 95.58 L 94.89 69.43 L 96.01 80.54 L 105.93 106.69 L 85.52 78.40 L 94.32 84.46 L 105.77 102.92 L 105.45 100.97 L 105.97 106.60 L 98.70 60.16 L 107.75 49.29 L 95.09 83.10 L 87.27 83.01 L 105.80 108.55 L 73.45 84.20 L 81.15 83.87 L 95.48 78.93 L 84.42 54.99 L 87.23 77.77 L 66.18 63.41 L 99.19 87.14 L 101.74 116.98 L 95.62 79.74 L 100.04 118.04 L 98.51 86.84 L 103.86 95.75 L 88.03 76.51 L 99.98 88.56 L 84.58 80.16 L 113.72 46.50 L 97.61 63.69 L 105.76 108.81 L 105.29 110.90 L 81.30 81.17 L 101.78 91.42 L 98.30 85.63 L 99.10 87.63 L 79.57 108.26 L 112.56 46.60 L 114.43 46.22 L 65.19 85.15 L 86.73 116.33 L 65.95 65.18 L 99.95 88.40" fill="none" stroke="url(#grad)" stroke-width="0.3" stroke-opacity="0.8"/>
</svg>